<svg xmlns="http://www.w3.org/2000/svg" xmlns:xlink="http://www.w3.org/1999/xlink" width="500" zoomAndPan="magnify" viewBox="0 0 375 374.999991" height="500" preserveAspectRatio="xMidYMid meet" version="1.0"><defs><g/><clipPath id="aa977bb8d8"><rect x="0" width="348" y="0" height="310"/></clipPath></defs><g transform="matrix(1, 0, 0, 1, 0, 47)"><g clip-path="url(#aa977bb8d8)"><g fill="#7a0000" fill-opacity="0.4"><g transform="translate(21.481371, 103.578811)"><g><path d="M 188.609375 22.078125 C 189.109375 22.390625 189.359375 22.921875 189.359375 23.671875 C 189.359375 24.847656 188.769531 25.9375 187.59375 26.9375 C 186.28125 27.925781 184.863281 28.960938 183.34375 30.046875 C 181.820312 31.140625 180.378906 32.117188 179.015625 32.984375 C 177.648438 33.859375 176.53125 34.570312 175.65625 35.125 C 174.789062 35.6875 174.359375 35.96875 174.359375 35.96875 C 171.242188 37.832031 167.484375 39.414062 163.078125 40.71875 C 158.671875 42.03125 153.671875 42.6875 148.078125 42.6875 L 147.046875 42.6875 C 139.097656 42.5 132.726562 41.003906 127.9375 38.203125 C 123.15625 35.410156 119.722656 31.632812 117.640625 26.875 C 115.566406 22.125 114.53125 16.800781 114.53125 10.90625 C 114.53125 6.0625 115.101562 0.953125 116.25 -4.421875 C 117.394531 -9.796875 118.992188 -15.234375 121.046875 -20.734375 C 123.097656 -26.234375 125.398438 -31.59375 127.953125 -36.8125 C 126.210938 -36.875 124.488281 -36.96875 122.78125 -37.09375 C 121.070312 -37.21875 119.347656 -37.34375 117.609375 -37.46875 L 117.234375 -37.46875 C 115.117188 -34.050781 113.40625 -31.160156 112.09375 -28.796875 C 110.789062 -26.429688 110.019531 -25.003906 109.78125 -24.515625 C 102.757812 -13.140625 96.140625 -3.726562 89.921875 3.71875 C 83.710938 11.175781 77.703125 17.046875 71.890625 21.328125 C 66.085938 25.617188 60.28125 28.664062 54.46875 30.46875 C 48.65625 32.269531 42.644531 33.171875 36.4375 33.171875 C 35.875 33.171875 35.296875 33.171875 34.703125 33.171875 C 34.117188 33.171875 33.546875 33.140625 32.984375 33.078125 C 27.890625 32.828125 23.257812 31.722656 19.09375 29.765625 C 14.9375 27.816406 11.398438 25.132812 8.484375 21.71875 C 5.992188 18.789062 3.957031 15.492188 2.375 11.828125 C 0.789062 8.171875 0 4.320312 0 0.28125 C 0 -0.03125 0.015625 -0.34375 0.046875 -0.65625 C 0.078125 -0.96875 0.09375 -1.273438 0.09375 -1.578125 C 0.40625 -7.171875 1.878906 -12.5625 4.515625 -17.75 C 7.160156 -22.9375 11.015625 -27.609375 16.078125 -31.765625 C 21.140625 -35.929688 27.429688 -39.226562 34.953125 -41.65625 C 36.804688 -48.675781 40.234375 -55.070312 45.234375 -60.84375 C 50.242188 -66.625 56.410156 -71.441406 63.734375 -75.296875 C 70.503906 -78.835938 78.347656 -81.492188 87.265625 -83.265625 C 96.179688 -85.035156 105.859375 -85.921875 116.296875 -85.921875 C 124.679688 -85.921875 133.441406 -85.359375 142.578125 -84.234375 C 147.171875 -83.679688 151.160156 -83.25 154.546875 -82.9375 C 157.929688 -82.625 160.835938 -82.46875 163.265625 -82.46875 C 166.117188 -82.46875 168.476562 -82.6875 170.34375 -83.125 C 172.207031 -83.5625 173.789062 -84.210938 175.09375 -85.078125 C 176.40625 -85.953125 177.679688 -87.039062 178.921875 -88.34375 C 179.359375 -88.78125 179.757812 -89 180.125 -89 C 180.3125 -89 180.4375 -88.96875 180.5 -88.90625 C 180.9375 -88.71875 181.15625 -88.375 181.15625 -87.875 C 181.15625 -87.625 181.125 -87.4375 181.0625 -87.3125 C 181.0625 -87.25 180.765625 -86.796875 180.171875 -85.953125 C 179.585938 -85.117188 178.546875 -84.1875 177.046875 -83.15625 C 175.554688 -82.132812 173.445312 -81.316406 170.71875 -80.703125 C 168.226562 -79.953125 165.941406 -78.832031 163.859375 -77.34375 C 161.785156 -75.851562 159.988281 -74.300781 158.46875 -72.6875 C 156.945312 -71.070312 155.6875 -69.613281 154.6875 -68.3125 C 152.632812 -65.507812 150.394531 -62.117188 147.96875 -58.140625 C 145.550781 -54.171875 142.789062 -49.421875 139.6875 -43.890625 C 137.632812 -40.160156 135.582031 -36.023438 133.53125 -31.484375 C 131.488281 -26.953125 129.644531 -22.234375 128 -17.328125 C 126.351562 -12.421875 125.03125 -7.515625 124.03125 -2.609375 C 123.039062 2.296875 122.546875 6.988281 122.546875 11.46875 C 122.546875 16.375 123.289062 20.859375 124.78125 24.921875 C 126.269531 28.992188 128.738281 32.347656 132.1875 34.984375 C 135.632812 37.628906 140.25 39.296875 146.03125 39.984375 C 146.394531 39.984375 146.765625 40 147.140625 40.03125 C 147.515625 40.0625 147.921875 40.078125 148.359375 40.078125 C 152.023438 40.078125 155.796875 39.625 159.671875 38.71875 C 163.554688 37.820312 166.835938 36.65625 169.515625 35.21875 C 172.804688 33.476562 175.582031 31.660156 177.84375 29.765625 C 180.113281 27.878906 181.851562 26.28125 183.0625 24.96875 C 184.28125 23.664062 184.890625 23.015625 184.890625 23.015625 C 185.441406 22.085938 186.21875 21.625 187.21875 21.625 C 187.707031 21.625 188.171875 21.773438 188.609375 22.078125 Z M 104.1875 -29.640625 C 105.238281 -31.066406 106.164062 -32.523438 106.96875 -34.015625 C 107.78125 -35.503906 108.625 -36.929688 109.5 -38.296875 C 106.820312 -38.609375 104.160156 -38.9375 101.515625 -39.28125 C 98.878906 -39.625 96.289062 -39.976562 93.75 -40.34375 C 88.96875 -41.03125 84.351562 -41.59375 79.90625 -42.03125 C 75.46875 -42.46875 71.320312 -42.6875 67.46875 -42.6875 C 62.375 -42.6875 57.570312 -42.3125 53.0625 -41.5625 C 48.5625 -40.8125 44.351562 -39.753906 40.4375 -38.390625 C 40.375 -38.078125 40.3125 -37.734375 40.25 -37.359375 C 40.1875 -36.992188 40.128906 -36.65625 40.078125 -36.34375 C 39.953125 -35.226562 39.84375 -34.15625 39.75 -33.125 C 39.65625 -32.101562 39.609375 -31.125 39.609375 -30.1875 C 39.609375 -25.65625 40.289062 -21.941406 41.65625 -19.046875 C 43.019531 -16.160156 44.695312 -13.925781 46.6875 -12.34375 C 48.675781 -10.757812 50.648438 -9.671875 52.609375 -9.078125 C 54.566406 -8.492188 56.164062 -8.203125 57.40625 -8.203125 C 59.269531 -8.203125 61.164062 -8.445312 63.09375 -8.9375 C 65.019531 -9.4375 66.789062 -10.25 68.40625 -11.375 C 70.144531 -12.550781 71.445312 -13.929688 72.3125 -15.515625 C 73.1875 -17.097656 73.789062 -18.585938 74.125 -19.984375 C 74.46875 -21.378906 74.671875 -22.296875 74.734375 -22.734375 C 74.859375 -24.285156 75.664062 -25.0625 77.15625 -25.0625 C 78.28125 -25 78.84375 -24.253906 78.84375 -22.828125 C 78.84375 -22.515625 78.8125 -22.265625 78.75 -22.078125 C 78.375 -19.785156 77.640625 -17.816406 76.546875 -16.171875 C 75.460938 -14.523438 74.4375 -13.265625 73.46875 -12.390625 C 72.507812 -11.523438 72.03125 -11.09375 72.03125 -11.09375 C 69.976562 -9.351562 67.691406 -8.046875 65.171875 -7.171875 C 62.660156 -6.304688 60.039062 -5.875 57.3125 -5.875 C 55.320312 -5.875 53.207031 -6.148438 50.96875 -6.703125 C 48.738281 -7.265625 46.644531 -8.070312 44.6875 -9.125 C 42.726562 -10.1875 41.066406 -11.492188 39.703125 -13.046875 C 35.535156 -17.890625 33.453125 -23.976562 33.453125 -31.3125 C 33.453125 -32.738281 33.546875 -34.195312 33.734375 -35.6875 C 28.328125 -33.082031 23.679688 -29.945312 19.796875 -26.28125 C 15.921875 -22.613281 12.910156 -18.648438 10.765625 -14.390625 C 8.617188 -10.140625 7.421875 -5.804688 7.171875 -1.390625 C 7.171875 -1.148438 7.15625 -0.890625 7.125 -0.609375 C 7.09375 -0.328125 7.078125 -0.03125 7.078125 0.28125 C 7.078125 3.757812 7.679688 7.191406 8.890625 10.578125 C 10.109375 13.960938 11.863281 17.050781 14.15625 19.84375 C 16.457031 22.644531 19.269531 24.960938 22.59375 26.796875 C 25.914062 28.628906 29.691406 29.726562 33.921875 30.09375 C 34.484375 30.15625 35.039062 30.203125 35.59375 30.234375 C 36.15625 30.265625 36.71875 30.28125 37.28125 30.28125 C 42.5625 30.28125 47.5625 29.253906 52.28125 27.203125 C 57 25.160156 61.46875 22.429688 65.6875 19.015625 C 69.914062 15.597656 73.894531 11.757812 77.625 7.5 C 81.351562 3.25 84.816406 -1.125 88.015625 -5.625 C 91.210938 -10.132812 94.160156 -14.46875 96.859375 -18.625 C 99.566406 -22.789062 102.007812 -26.460938 104.1875 -29.640625 Z M 111.265625 -40.53125 C 115.734375 -47.613281 120.5 -53.859375 125.5625 -59.265625 C 130.632812 -64.671875 135.75 -69.175781 140.90625 -72.78125 C 146.0625 -76.382812 150.9375 -78.929688 155.53125 -80.421875 L 142.203125 -81.90625 C 138.097656 -82.40625 134.054688 -82.78125 130.078125 -83.03125 C 126.109375 -83.28125 122.195312 -83.40625 118.34375 -83.40625 C 108.65625 -83.40625 99.539062 -82.566406 91 -80.890625 C 82.457031 -79.210938 74.863281 -76.632812 68.21875 -73.15625 C 61.625 -69.675781 56.046875 -65.40625 51.484375 -60.34375 C 46.921875 -55.28125 43.644531 -49.671875 41.65625 -43.515625 C 44.882812 -44.203125 48.269531 -44.726562 51.8125 -45.09375 C 55.351562 -45.46875 59.082031 -45.65625 63 -45.65625 C 63.738281 -45.65625 64.476562 -45.65625 65.21875 -45.65625 C 65.96875 -45.65625 66.75 -45.625 67.5625 -45.5625 C 71.476562 -45.382812 75.671875 -45.03125 80.140625 -44.5 C 84.609375 -43.96875 89.238281 -43.363281 94.03125 -42.6875 L 95.140625 -42.5 C 97.753906 -42.125 100.425781 -41.78125 103.15625 -41.46875 C 105.894531 -41.15625 108.597656 -40.84375 111.265625 -40.53125 Z M 118.625 -39.703125 C 122.164062 -39.390625 125.644531 -39.203125 129.0625 -39.140625 C 133.351562 -46.773438 137.359375 -53.171875 141.078125 -58.328125 C 144.804688 -63.484375 148.300781 -67.722656 151.5625 -71.046875 C 154.832031 -74.378906 157.894531 -77.128906 160.75 -79.296875 C 160.75 -79.296875 160.78125 -79.328125 160.84375 -79.390625 C 160.90625 -79.453125 161 -79.515625 161.125 -79.578125 C 156.09375 -78.585938 151.210938 -76.367188 146.484375 -72.921875 C 141.765625 -69.472656 137.289062 -65.25 133.0625 -60.25 C 128.84375 -55.25 124.992188 -49.921875 121.515625 -44.265625 C 121.078125 -43.453125 120.609375 -42.671875 120.109375 -41.921875 C 119.617188 -41.179688 119.125 -40.441406 118.625 -39.703125 Z M 118.625 -39.703125 "/></g></g></g><g fill="#7a0000" fill-opacity="0.4"><g transform="translate(21.470631, 225.176296)"><g/></g></g><g fill="#7a0000" fill-opacity="0.4"><g transform="translate(45.041408, 225.176296)"><g/></g></g><g fill="#7a0000" fill-opacity="0.4"><g transform="translate(68.612184, 225.176296)"><g/></g></g><g fill="#7a0000" fill-opacity="0.4"><g transform="translate(92.18296, 225.176296)"><g/></g></g><g fill="#7a0000" fill-opacity="0.4"><g transform="translate(115.753736, 225.176296)"><g/></g></g><g fill="#7a0000" fill-opacity="0.4"><g transform="translate(139.324512, 225.176296)"><g/></g></g><g fill="#7a0000" fill-opacity="0.4"><g transform="translate(162.905504, 225.176296)"><g><path d="M 182.1875 -87.21875 C 182.425781 -86.851562 182.546875 -86.578125 182.546875 -86.390625 C 182.546875 -86.078125 182.425781 -85.796875 182.1875 -85.546875 C 181.9375 -85.296875 181.65625 -85.171875 181.34375 -85.171875 C 180.96875 -85.171875 180.6875 -85.296875 180.5 -85.546875 C 180.5 -85.734375 180.097656 -86.015625 179.296875 -86.390625 C 179.046875 -86.515625 178.5625 -86.679688 177.84375 -86.890625 C 177.132812 -87.109375 176.1875 -87.21875 175 -87.21875 C 174.382812 -87.21875 173.703125 -87.171875 172.953125 -87.078125 C 172.210938 -86.984375 171.40625 -86.816406 170.53125 -86.578125 C 168.601562 -86.015625 166.210938 -84.957031 163.359375 -83.40625 C 160.503906 -81.851562 157.304688 -79.503906 153.765625 -76.359375 C 150.222656 -73.222656 146.414062 -69.015625 142.34375 -63.734375 C 138.269531 -58.453125 134.0625 -51.804688 129.71875 -43.796875 C 127.664062 -40.066406 125.644531 -35.945312 123.65625 -31.4375 C 121.664062 -26.9375 119.863281 -22.265625 118.25 -17.421875 C 116.632812 -12.578125 115.34375 -7.734375 114.375 -2.890625 C 113.414062 1.953125 112.9375 6.613281 112.9375 11.09375 C 112.9375 16.0625 113.695312 20.609375 115.21875 24.734375 C 116.75 28.867188 119.238281 32.253906 122.6875 34.890625 C 126.132812 37.535156 130.773438 39.203125 136.609375 39.890625 C 137.171875 39.953125 137.726562 39.984375 138.28125 39.984375 C 138.84375 39.984375 139.40625 39.984375 139.96875 39.984375 C 143.195312 39.984375 146.238281 39.6875 149.09375 39.09375 C 151.957031 38.5 154.628906 37.738281 157.109375 36.8125 C 157.671875 36.625 158.210938 36.421875 158.734375 36.203125 C 159.265625 35.984375 159.75 35.75 160.1875 35.5 C 163.539062 33.882812 166.351562 32.113281 168.625 30.1875 C 170.894531 28.257812 172.585938 26.582031 173.703125 25.15625 C 174.816406 23.726562 175.375 23.015625 175.375 23.015625 C 176.0625 22.085938 176.867188 21.625 177.796875 21.625 C 178.234375 21.625 178.671875 21.773438 179.109375 22.078125 C 179.609375 22.390625 179.859375 22.921875 179.859375 23.671875 C 179.859375 24.109375 179.71875 24.617188 179.4375 25.203125 C 179.15625 25.796875 178.671875 26.34375 177.984375 26.84375 C 176.742188 27.894531 175.378906 28.945312 173.890625 30 C 172.398438 31.0625 170.96875 32.039062 169.59375 32.9375 C 168.226562 33.84375 167.109375 34.570312 166.234375 35.125 C 165.367188 35.6875 164.9375 35.96875 164.9375 35.96875 C 161.519531 37.894531 157.679688 39.492188 153.421875 40.765625 C 149.171875 42.046875 144.21875 42.6875 138.5625 42.6875 L 137.546875 42.6875 C 129.535156 42.5 123.132812 40.988281 118.34375 38.15625 C 113.5625 35.332031 110.113281 31.507812 108 26.6875 C 105.894531 21.875 104.84375 16.488281 104.84375 10.53125 C 104.84375 4.8125 105.617188 -1.210938 107.171875 -7.546875 C 108.722656 -13.878906 110.816406 -20.242188 113.453125 -26.640625 C 116.097656 -33.046875 119.035156 -39.171875 122.265625 -45.015625 C 127.046875 -53.710938 131.90625 -60.773438 136.84375 -66.203125 C 141.78125 -71.640625 146.425781 -75.972656 150.78125 -79.203125 C 150.78125 -79.203125 150.914062 -79.328125 151.1875 -79.578125 C 151.46875 -79.828125 151.890625 -80.171875 152.453125 -80.609375 C 147.671875 -77.992188 142.703125 -74.539062 137.546875 -70.25 C 132.390625 -65.96875 127.265625 -60.691406 122.171875 -54.421875 L 119.09375 -50.5 C 119.03125 -50.445312 118.515625 -49.71875 117.546875 -48.3125 C 116.585938 -46.914062 115.300781 -45.035156 113.6875 -42.671875 C 112.070312 -40.316406 110.285156 -37.613281 108.328125 -34.5625 C 106.367188 -31.519531 104.347656 -28.320312 102.265625 -24.96875 C 100.191406 -21.613281 98.222656 -18.257812 96.359375 -14.90625 C 93.804688 -10.375 91.332031 -5.960938 88.9375 -1.671875 C 86.550781 2.609375 84.363281 6.410156 82.375 9.734375 C 80.382812 13.054688 78.644531 15.492188 77.15625 17.046875 C 76.71875 17.546875 76.28125 17.953125 75.84375 18.265625 C 75.414062 18.578125 74.953125 18.734375 74.453125 18.734375 C 74.203125 18.734375 73.832031 18.640625 73.34375 18.453125 C 72.59375 18.140625 72.21875 17.457031 72.21875 16.40625 C 72.21875 15.46875 72.625 14.566406 73.4375 13.703125 L 74.734375 12.015625 C 76.222656 10.210938 78.023438 7.835938 80.140625 4.890625 C 82.253906 1.941406 84.519531 -1.765625 86.9375 -6.234375 C 89.363281 -10.710938 91.785156 -16.164062 94.203125 -22.59375 C 96.628906 -29.03125 98.835938 -36.65625 100.828125 -45.46875 C 101.816406 -49.882812 102.3125 -53.957031 102.3125 -57.6875 C 102.3125 -60.539062 102.0625 -63.128906 101.5625 -65.453125 C 101.070312 -67.785156 100.425781 -69.882812 99.625 -71.75 C 99.4375 -70.757812 99.15625 -69.675781 98.78125 -68.5 C 98.78125 -68.5 98.375 -67.269531 97.5625 -64.8125 C 96.757812 -62.351562 95.582031 -59.023438 94.03125 -54.828125 C 92.476562 -50.640625 90.582031 -45.921875 88.34375 -40.671875 C 86.101562 -35.421875 83.523438 -30.003906 80.609375 -24.421875 C 77.566406 -18.640625 74.164062 -12.9375 70.40625 -7.3125 C 66.644531 -1.6875 62.523438 3.40625 58.046875 7.96875 C 53.578125 12.53125 48.75 16.175781 43.5625 18.90625 C 38.375 21.644531 32.863281 23.015625 27.03125 23.015625 L 26.09375 23.015625 C 23.050781 22.890625 20.707031 22.328125 19.0625 21.328125 C 17.414062 20.335938 16.25 19.191406 15.5625 17.890625 C 14.875 16.585938 14.46875 15.453125 14.34375 14.484375 C 14.226562 13.523438 14.171875 13.046875 14.171875 13.046875 C 14.171875 12.734375 14.351562 12.453125 14.71875 12.203125 C 15.09375 11.953125 15.3125 11.828125 15.375 11.828125 C 16.125 11.828125 16.5 12.203125 16.5 12.953125 C 16.5 13.015625 16.554688 13.414062 16.671875 14.15625 C 16.796875 14.90625 17.15625 15.757812 17.75 16.71875 C 18.34375 17.6875 19.273438 18.523438 20.546875 19.234375 C 21.816406 19.953125 23.601562 20.3125 25.90625 20.3125 L 26.65625 20.3125 C 30.8125 20.1875 34.785156 19.097656 38.578125 17.046875 C 42.367188 15.003906 45.957031 12.226562 49.34375 8.71875 C 52.726562 5.207031 55.957031 1.234375 59.03125 -3.203125 C 62.101562 -7.648438 65.003906 -12.359375 67.734375 -17.328125 C 70.472656 -22.296875 73.085938 -27.269531 75.578125 -32.25 C 80.296875 -41.8125 84.410156 -49.882812 87.921875 -56.46875 C 91.429688 -63.050781 93.960938 -67.710938 95.515625 -70.453125 L 98.03125 -74.828125 C 96.664062 -77.253906 95.207031 -79.164062 93.65625 -80.5625 C 92.101562 -81.957031 90.78125 -82.960938 89.6875 -83.578125 C 88.601562 -84.203125 88.0625 -84.515625 88.0625 -84.515625 C 85.757812 -85.765625 83.363281 -86.539062 80.875 -86.84375 C 78.394531 -87.15625 76.066406 -87.34375 73.890625 -87.40625 L 72.6875 -87.40625 C 68.332031 -87.40625 63.859375 -86.644531 59.265625 -85.125 C 54.671875 -83.601562 50.132812 -81.472656 45.65625 -78.734375 C 41.1875 -76.003906 36.976562 -72.851562 33.03125 -69.28125 C 29.09375 -65.707031 25.566406 -61.875 22.453125 -57.78125 C 20.960938 -55.851562 19.582031 -53.972656 18.3125 -52.140625 C 17.039062 -50.304688 15.875 -48.488281 14.8125 -46.6875 C 11.394531 -40.65625 9.003906 -35.476562 7.640625 -31.15625 C 6.273438 -26.84375 5.59375 -23.195312 5.59375 -20.21875 C 5.59375 -17.425781 6.007812 -15.175781 6.84375 -13.46875 C 7.6875 -11.757812 8.648438 -10.46875 9.734375 -9.59375 C 10.828125 -8.726562 11.742188 -8.203125 12.484375 -8.015625 C 13.171875 -7.890625 13.820312 -7.78125 14.4375 -7.6875 C 15.0625 -7.59375 15.6875 -7.546875 16.3125 -7.546875 C 18.914062 -7.546875 21.488281 -8.164062 24.03125 -9.40625 C 26.582031 -10.65625 29.070312 -12.300781 31.5 -14.34375 C 35.039062 -17.332031 38.160156 -20.84375 40.859375 -24.875 C 43.566406 -28.914062 45.726562 -32.894531 47.34375 -36.8125 C 48.269531 -38.925781 48.96875 -40.957031 49.4375 -42.90625 C 49.90625 -44.863281 50.210938 -46.492188 50.359375 -47.796875 C 50.515625 -49.109375 50.59375 -49.765625 50.59375 -49.765625 C 50.59375 -51.941406 51.492188 -53.03125 53.296875 -53.03125 C 53.859375 -52.96875 54.328125 -52.734375 54.703125 -52.328125 C 55.078125 -51.921875 55.265625 -51.3125 55.265625 -50.5 C 55.265625 -50.070312 55.171875 -49.515625 54.984375 -48.828125 C 54.484375 -46.898438 53.828125 -44.941406 53.015625 -42.953125 C 52.210938 -40.972656 51.40625 -39.144531 50.59375 -37.46875 C 49.789062 -35.789062 49.125 -34.453125 48.59375 -33.453125 C 48.070312 -32.460938 47.8125 -31.96875 47.8125 -31.96875 C 46.070312 -28.488281 43.941406 -25.023438 41.421875 -21.578125 C 38.898438 -18.128906 36.085938 -15.097656 32.984375 -12.484375 C 30.128906 -10.066406 27.191406 -8.1875 24.171875 -6.84375 C 21.160156 -5.507812 18.101562 -4.84375 15 -4.84375 L 14.4375 -4.84375 C 14.132812 -4.84375 13.796875 -4.859375 13.421875 -4.890625 C 13.046875 -4.921875 12.734375 -4.9375 12.484375 -4.9375 C 7.328125 -5.375 3.816406 -7.550781 1.953125 -11.46875 C 0.648438 -14.070312 0 -17.238281 0 -20.96875 L 0 -21.71875 C 0 -21.71875 0.09375 -22.785156 0.28125 -24.921875 C 0.46875 -27.066406 1.023438 -30.003906 1.953125 -33.734375 C 2.890625 -37.460938 4.441406 -41.671875 6.609375 -46.359375 C 8.785156 -51.046875 11.800781 -55.953125 15.65625 -61.078125 C 19.507812 -66.203125 24.507812 -71.222656 30.65625 -76.140625 C 36.988281 -81.234375 43.632812 -85.003906 50.59375 -87.453125 C 57.550781 -89.910156 64.390625 -91.140625 71.109375 -91.140625 L 72.59375 -91.140625 C 76.382812 -91.078125 79.738281 -90.625 82.65625 -89.78125 C 85.570312 -88.945312 88.117188 -87.878906 90.296875 -86.578125 L 91.328125 -85.921875 C 92.378906 -85.171875 93.679688 -84.160156 95.234375 -82.890625 C 96.785156 -81.617188 98.320312 -79.941406 99.84375 -77.859375 C 101.375 -75.773438 102.648438 -73.148438 103.671875 -69.984375 C 104.691406 -66.816406 105.203125 -62.960938 105.203125 -58.421875 C 105.203125 -54.078125 104.597656 -49.03125 103.390625 -43.28125 C 102.179688 -37.539062 100.023438 -30.972656 96.921875 -23.578125 C 96.859375 -23.515625 96.828125 -23.421875 96.828125 -23.296875 C 96.828125 -22.859375 96.890625 -22.640625 97.015625 -22.640625 C 97.191406 -22.640625 97.359375 -22.75 97.515625 -22.96875 C 97.671875 -23.1875 97.75 -23.296875 97.75 -23.296875 C 100.488281 -27.828125 103.082031 -31.957031 105.53125 -35.6875 C 107.988281 -39.414062 110.425781 -42.925781 112.84375 -46.21875 C 115.269531 -49.507812 117.757812 -52.738281 120.3125 -55.90625 C 124.84375 -61.5 129.28125 -66.207031 133.625 -70.03125 C 137.976562 -73.851562 142.046875 -76.972656 145.828125 -79.390625 C 149.617188 -81.816406 152.945312 -83.679688 155.8125 -84.984375 C 159.101562 -86.472656 162.441406 -87.601562 165.828125 -88.375 C 169.210938 -89.15625 172.085938 -89.546875 174.453125 -89.546875 C 177.179688 -89.546875 179.132812 -89.1875 180.3125 -88.46875 C 181.5 -87.757812 182.125 -87.34375 182.1875 -87.21875 Z M 182.1875 -87.21875 "/></g></g></g><g fill="#7a0000" fill-opacity="1"><g transform="translate(20.201266, 100.833621)"><g><path d="M 188.609375 22.078125 C 189.109375 22.390625 189.359375 22.921875 189.359375 23.671875 C 189.359375 24.847656 188.769531 25.9375 187.59375 26.9375 C 186.28125 27.925781 184.863281 28.960938 183.34375 30.046875 C 181.820312 31.140625 180.378906 32.117188 179.015625 32.984375 C 177.648438 33.859375 176.53125 34.570312 175.65625 35.125 C 174.789062 35.6875 174.359375 35.96875 174.359375 35.96875 C 171.242188 37.832031 167.484375 39.414062 163.078125 40.71875 C 158.671875 42.03125 153.671875 42.6875 148.078125 42.6875 L 147.046875 42.6875 C 139.097656 42.5 132.726562 41.003906 127.9375 38.203125 C 123.15625 35.410156 119.722656 31.632812 117.640625 26.875 C 115.566406 22.125 114.53125 16.800781 114.53125 10.90625 C 114.53125 6.0625 115.101562 0.953125 116.25 -4.421875 C 117.394531 -9.796875 118.992188 -15.234375 121.046875 -20.734375 C 123.097656 -26.234375 125.398438 -31.59375 127.953125 -36.8125 C 126.210938 -36.875 124.488281 -36.96875 122.78125 -37.09375 C 121.070312 -37.21875 119.347656 -37.34375 117.609375 -37.46875 L 117.234375 -37.46875 C 115.117188 -34.050781 113.40625 -31.160156 112.09375 -28.796875 C 110.789062 -26.429688 110.019531 -25.003906 109.78125 -24.515625 C 102.757812 -13.140625 96.140625 -3.726562 89.921875 3.71875 C 83.710938 11.175781 77.703125 17.046875 71.890625 21.328125 C 66.085938 25.617188 60.28125 28.664062 54.46875 30.46875 C 48.65625 32.269531 42.644531 33.171875 36.4375 33.171875 C 35.875 33.171875 35.296875 33.171875 34.703125 33.171875 C 34.117188 33.171875 33.546875 33.140625 32.984375 33.078125 C 27.890625 32.828125 23.257812 31.722656 19.09375 29.765625 C 14.9375 27.816406 11.398438 25.132812 8.484375 21.71875 C 5.992188 18.789062 3.957031 15.492188 2.375 11.828125 C 0.789062 8.171875 0 4.320312 0 0.28125 C 0 -0.03125 0.015625 -0.34375 0.046875 -0.65625 C 0.078125 -0.96875 0.09375 -1.273438 0.09375 -1.578125 C 0.40625 -7.171875 1.878906 -12.5625 4.515625 -17.75 C 7.160156 -22.9375 11.015625 -27.609375 16.078125 -31.765625 C 21.140625 -35.929688 27.429688 -39.226562 34.953125 -41.65625 C 36.804688 -48.675781 40.234375 -55.070312 45.234375 -60.84375 C 50.242188 -66.625 56.410156 -71.441406 63.734375 -75.296875 C 70.503906 -78.835938 78.347656 -81.492188 87.265625 -83.265625 C 96.179688 -85.035156 105.859375 -85.921875 116.296875 -85.921875 C 124.679688 -85.921875 133.441406 -85.359375 142.578125 -84.234375 C 147.171875 -83.679688 151.160156 -83.25 154.546875 -82.9375 C 157.929688 -82.625 160.835938 -82.46875 163.265625 -82.46875 C 166.117188 -82.46875 168.476562 -82.6875 170.34375 -83.125 C 172.207031 -83.5625 173.789062 -84.210938 175.09375 -85.078125 C 176.40625 -85.953125 177.679688 -87.039062 178.921875 -88.34375 C 179.359375 -88.78125 179.757812 -89 180.125 -89 C 180.3125 -89 180.4375 -88.96875 180.5 -88.90625 C 180.9375 -88.71875 181.15625 -88.375 181.15625 -87.875 C 181.15625 -87.625 181.125 -87.4375 181.0625 -87.3125 C 181.0625 -87.25 180.765625 -86.796875 180.171875 -85.953125 C 179.585938 -85.117188 178.546875 -84.1875 177.046875 -83.15625 C 175.554688 -82.132812 173.445312 -81.316406 170.71875 -80.703125 C 168.226562 -79.953125 165.941406 -78.832031 163.859375 -77.34375 C 161.785156 -75.851562 159.988281 -74.300781 158.46875 -72.6875 C 156.945312 -71.070312 155.6875 -69.613281 154.6875 -68.3125 C 152.632812 -65.507812 150.394531 -62.117188 147.96875 -58.140625 C 145.550781 -54.171875 142.789062 -49.421875 139.6875 -43.890625 C 137.632812 -40.160156 135.582031 -36.023438 133.53125 -31.484375 C 131.488281 -26.953125 129.644531 -22.234375 128 -17.328125 C 126.351562 -12.421875 125.03125 -7.515625 124.03125 -2.609375 C 123.039062 2.296875 122.546875 6.988281 122.546875 11.46875 C 122.546875 16.375 123.289062 20.859375 124.78125 24.921875 C 126.269531 28.992188 128.738281 32.347656 132.1875 34.984375 C 135.632812 37.628906 140.25 39.296875 146.03125 39.984375 C 146.394531 39.984375 146.765625 40 147.140625 40.03125 C 147.515625 40.0625 147.921875 40.078125 148.359375 40.078125 C 152.023438 40.078125 155.796875 39.625 159.671875 38.71875 C 163.554688 37.820312 166.835938 36.65625 169.515625 35.21875 C 172.804688 33.476562 175.582031 31.660156 177.84375 29.765625 C 180.113281 27.878906 181.851562 26.28125 183.0625 24.96875 C 184.28125 23.664062 184.890625 23.015625 184.890625 23.015625 C 185.441406 22.085938 186.21875 21.625 187.21875 21.625 C 187.707031 21.625 188.171875 21.773438 188.609375 22.078125 Z M 104.1875 -29.640625 C 105.238281 -31.066406 106.164062 -32.523438 106.96875 -34.015625 C 107.78125 -35.503906 108.625 -36.929688 109.5 -38.296875 C 106.820312 -38.609375 104.160156 -38.9375 101.515625 -39.28125 C 98.878906 -39.625 96.289062 -39.976562 93.75 -40.34375 C 88.96875 -41.03125 84.351562 -41.59375 79.90625 -42.03125 C 75.46875 -42.46875 71.320312 -42.6875 67.46875 -42.6875 C 62.375 -42.6875 57.570312 -42.3125 53.0625 -41.5625 C 48.5625 -40.8125 44.351562 -39.753906 40.4375 -38.390625 C 40.375 -38.078125 40.3125 -37.734375 40.25 -37.359375 C 40.1875 -36.992188 40.128906 -36.65625 40.078125 -36.34375 C 39.953125 -35.226562 39.84375 -34.15625 39.75 -33.125 C 39.65625 -32.101562 39.609375 -31.125 39.609375 -30.1875 C 39.609375 -25.65625 40.289062 -21.941406 41.65625 -19.046875 C 43.019531 -16.160156 44.695312 -13.925781 46.6875 -12.34375 C 48.675781 -10.757812 50.648438 -9.671875 52.609375 -9.078125 C 54.566406 -8.492188 56.164062 -8.203125 57.40625 -8.203125 C 59.269531 -8.203125 61.164062 -8.445312 63.09375 -8.9375 C 65.019531 -9.4375 66.789062 -10.25 68.40625 -11.375 C 70.144531 -12.550781 71.445312 -13.929688 72.3125 -15.515625 C 73.1875 -17.097656 73.789062 -18.585938 74.125 -19.984375 C 74.46875 -21.378906 74.671875 -22.296875 74.734375 -22.734375 C 74.859375 -24.285156 75.664062 -25.0625 77.15625 -25.0625 C 78.28125 -25 78.84375 -24.253906 78.84375 -22.828125 C 78.84375 -22.515625 78.8125 -22.265625 78.75 -22.078125 C 78.375 -19.785156 77.640625 -17.816406 76.546875 -16.171875 C 75.460938 -14.523438 74.4375 -13.265625 73.46875 -12.390625 C 72.507812 -11.523438 72.03125 -11.09375 72.03125 -11.09375 C 69.976562 -9.351562 67.691406 -8.046875 65.171875 -7.171875 C 62.660156 -6.304688 60.039062 -5.875 57.3125 -5.875 C 55.320312 -5.875 53.207031 -6.148438 50.96875 -6.703125 C 48.738281 -7.265625 46.644531 -8.070312 44.6875 -9.125 C 42.726562 -10.1875 41.066406 -11.492188 39.703125 -13.046875 C 35.535156 -17.890625 33.453125 -23.976562 33.453125 -31.3125 C 33.453125 -32.738281 33.546875 -34.195312 33.734375 -35.6875 C 28.328125 -33.082031 23.679688 -29.945312 19.796875 -26.28125 C 15.921875 -22.613281 12.910156 -18.648438 10.765625 -14.390625 C 8.617188 -10.140625 7.421875 -5.804688 7.171875 -1.390625 C 7.171875 -1.148438 7.15625 -0.890625 7.125 -0.609375 C 7.09375 -0.328125 7.078125 -0.03125 7.078125 0.28125 C 7.078125 3.757812 7.679688 7.191406 8.890625 10.578125 C 10.109375 13.960938 11.863281 17.050781 14.15625 19.84375 C 16.457031 22.644531 19.269531 24.960938 22.59375 26.796875 C 25.914062 28.628906 29.691406 29.726562 33.921875 30.09375 C 34.484375 30.15625 35.039062 30.203125 35.59375 30.234375 C 36.15625 30.265625 36.71875 30.28125 37.28125 30.28125 C 42.5625 30.28125 47.5625 29.253906 52.28125 27.203125 C 57 25.160156 61.46875 22.429688 65.6875 19.015625 C 69.914062 15.597656 73.894531 11.757812 77.625 7.5 C 81.351562 3.25 84.816406 -1.125 88.015625 -5.625 C 91.210938 -10.132812 94.160156 -14.46875 96.859375 -18.625 C 99.566406 -22.789062 102.007812 -26.460938 104.1875 -29.640625 Z M 111.265625 -40.53125 C 115.734375 -47.613281 120.5 -53.859375 125.5625 -59.265625 C 130.632812 -64.671875 135.75 -69.175781 140.90625 -72.78125 C 146.0625 -76.382812 150.9375 -78.929688 155.53125 -80.421875 L 142.203125 -81.90625 C 138.097656 -82.40625 134.054688 -82.78125 130.078125 -83.03125 C 126.109375 -83.28125 122.195312 -83.40625 118.34375 -83.40625 C 108.65625 -83.40625 99.539062 -82.566406 91 -80.890625 C 82.457031 -79.210938 74.863281 -76.632812 68.21875 -73.15625 C 61.625 -69.675781 56.046875 -65.40625 51.484375 -60.34375 C 46.921875 -55.28125 43.644531 -49.671875 41.65625 -43.515625 C 44.882812 -44.203125 48.269531 -44.726562 51.8125 -45.09375 C 55.351562 -45.46875 59.082031 -45.65625 63 -45.65625 C 63.738281 -45.65625 64.476562 -45.65625 65.21875 -45.65625 C 65.96875 -45.65625 66.75 -45.625 67.5625 -45.5625 C 71.476562 -45.382812 75.671875 -45.03125 80.140625 -44.5 C 84.609375 -43.96875 89.238281 -43.363281 94.03125 -42.6875 L 95.140625 -42.5 C 97.753906 -42.125 100.425781 -41.78125 103.15625 -41.46875 C 105.894531 -41.15625 108.597656 -40.84375 111.265625 -40.53125 Z M 118.625 -39.703125 C 122.164062 -39.390625 125.644531 -39.203125 129.0625 -39.140625 C 133.351562 -46.773438 137.359375 -53.171875 141.078125 -58.328125 C 144.804688 -63.484375 148.300781 -67.722656 151.5625 -71.046875 C 154.832031 -74.378906 157.894531 -77.128906 160.75 -79.296875 C 160.75 -79.296875 160.78125 -79.328125 160.84375 -79.390625 C 160.90625 -79.453125 161 -79.515625 161.125 -79.578125 C 156.09375 -78.585938 151.210938 -76.367188 146.484375 -72.921875 C 141.765625 -69.472656 137.289062 -65.25 133.0625 -60.25 C 128.84375 -55.25 124.992188 -49.921875 121.515625 -44.265625 C 121.078125 -43.453125 120.609375 -42.671875 120.109375 -41.921875 C 119.617188 -41.179688 119.125 -40.441406 118.625 -39.703125 Z M 118.625 -39.703125 "/></g></g></g><g fill="#7a0000" fill-opacity="1"><g transform="translate(20.190527, 222.431105)"><g/></g></g><g fill="#7a0000" fill-opacity="1"><g transform="translate(43.761303, 222.431105)"><g/></g></g><g fill="#7a0000" fill-opacity="1"><g transform="translate(67.332079, 222.431105)"><g/></g></g><g fill="#7a0000" fill-opacity="1"><g transform="translate(90.902855, 222.431105)"><g/></g></g><g fill="#7a0000" fill-opacity="1"><g transform="translate(114.473631, 222.431105)"><g/></g></g><g fill="#7a0000" fill-opacity="1"><g transform="translate(138.044407, 222.431105)"><g/></g></g><g fill="#7a0000" fill-opacity="1"><g transform="translate(161.625399, 222.431105)"><g><path d="M 182.1875 -87.21875 C 182.425781 -86.851562 182.546875 -86.578125 182.546875 -86.390625 C 182.546875 -86.078125 182.425781 -85.796875 182.1875 -85.546875 C 181.9375 -85.296875 181.65625 -85.171875 181.34375 -85.171875 C 180.96875 -85.171875 180.6875 -85.296875 180.5 -85.546875 C 180.5 -85.734375 180.097656 -86.015625 179.296875 -86.390625 C 179.046875 -86.515625 178.5625 -86.679688 177.84375 -86.890625 C 177.132812 -87.109375 176.1875 -87.21875 175 -87.21875 C 174.382812 -87.21875 173.703125 -87.171875 172.953125 -87.078125 C 172.210938 -86.984375 171.40625 -86.816406 170.53125 -86.578125 C 168.601562 -86.015625 166.210938 -84.957031 163.359375 -83.40625 C 160.503906 -81.851562 157.304688 -79.503906 153.765625 -76.359375 C 150.222656 -73.222656 146.414062 -69.015625 142.34375 -63.734375 C 138.269531 -58.453125 134.0625 -51.804688 129.71875 -43.796875 C 127.664062 -40.066406 125.644531 -35.945312 123.65625 -31.4375 C 121.664062 -26.9375 119.863281 -22.265625 118.25 -17.421875 C 116.632812 -12.578125 115.34375 -7.734375 114.375 -2.890625 C 113.414062 1.953125 112.9375 6.613281 112.9375 11.09375 C 112.9375 16.0625 113.695312 20.609375 115.21875 24.734375 C 116.75 28.867188 119.238281 32.253906 122.6875 34.890625 C 126.132812 37.535156 130.773438 39.203125 136.609375 39.890625 C 137.171875 39.953125 137.726562 39.984375 138.28125 39.984375 C 138.84375 39.984375 139.40625 39.984375 139.96875 39.984375 C 143.195312 39.984375 146.238281 39.6875 149.09375 39.09375 C 151.957031 38.5 154.628906 37.738281 157.109375 36.8125 C 157.671875 36.625 158.210938 36.421875 158.734375 36.203125 C 159.265625 35.984375 159.75 35.75 160.1875 35.5 C 163.539062 33.882812 166.351562 32.113281 168.625 30.1875 C 170.894531 28.257812 172.585938 26.582031 173.703125 25.15625 C 174.816406 23.726562 175.375 23.015625 175.375 23.015625 C 176.0625 22.085938 176.867188 21.625 177.796875 21.625 C 178.234375 21.625 178.671875 21.773438 179.109375 22.078125 C 179.609375 22.390625 179.859375 22.921875 179.859375 23.671875 C 179.859375 24.109375 179.71875 24.617188 179.4375 25.203125 C 179.15625 25.796875 178.671875 26.34375 177.984375 26.84375 C 176.742188 27.894531 175.378906 28.945312 173.890625 30 C 172.398438 31.0625 170.96875 32.039062 169.59375 32.9375 C 168.226562 33.84375 167.109375 34.570312 166.234375 35.125 C 165.367188 35.6875 164.9375 35.96875 164.9375 35.96875 C 161.519531 37.894531 157.679688 39.492188 153.421875 40.765625 C 149.171875 42.046875 144.21875 42.6875 138.5625 42.6875 L 137.546875 42.6875 C 129.535156 42.5 123.132812 40.988281 118.34375 38.15625 C 113.5625 35.332031 110.113281 31.507812 108 26.6875 C 105.894531 21.875 104.84375 16.488281 104.84375 10.53125 C 104.84375 4.8125 105.617188 -1.210938 107.171875 -7.546875 C 108.722656 -13.878906 110.816406 -20.242188 113.453125 -26.640625 C 116.097656 -33.046875 119.035156 -39.171875 122.265625 -45.015625 C 127.046875 -53.710938 131.90625 -60.773438 136.84375 -66.203125 C 141.78125 -71.640625 146.425781 -75.972656 150.78125 -79.203125 C 150.78125 -79.203125 150.914062 -79.328125 151.1875 -79.578125 C 151.46875 -79.828125 151.890625 -80.171875 152.453125 -80.609375 C 147.671875 -77.992188 142.703125 -74.539062 137.546875 -70.25 C 132.390625 -65.96875 127.265625 -60.691406 122.171875 -54.421875 L 119.09375 -50.5 C 119.03125 -50.445312 118.515625 -49.71875 117.546875 -48.3125 C 116.585938 -46.914062 115.300781 -45.035156 113.6875 -42.671875 C 112.070312 -40.316406 110.285156 -37.613281 108.328125 -34.5625 C 106.367188 -31.519531 104.347656 -28.320312 102.265625 -24.96875 C 100.191406 -21.613281 98.222656 -18.257812 96.359375 -14.90625 C 93.804688 -10.375 91.332031 -5.960938 88.9375 -1.671875 C 86.550781 2.609375 84.363281 6.410156 82.375 9.734375 C 80.382812 13.054688 78.644531 15.492188 77.15625 17.046875 C 76.71875 17.546875 76.28125 17.953125 75.84375 18.265625 C 75.414062 18.578125 74.953125 18.734375 74.453125 18.734375 C 74.203125 18.734375 73.832031 18.640625 73.34375 18.453125 C 72.59375 18.140625 72.21875 17.457031 72.21875 16.40625 C 72.21875 15.46875 72.625 14.566406 73.4375 13.703125 L 74.734375 12.015625 C 76.222656 10.210938 78.023438 7.835938 80.140625 4.890625 C 82.253906 1.941406 84.519531 -1.765625 86.9375 -6.234375 C 89.363281 -10.710938 91.785156 -16.164062 94.203125 -22.59375 C 96.628906 -29.03125 98.835938 -36.65625 100.828125 -45.46875 C 101.816406 -49.882812 102.3125 -53.957031 102.3125 -57.6875 C 102.3125 -60.539062 102.0625 -63.128906 101.5625 -65.453125 C 101.070312 -67.785156 100.425781 -69.882812 99.625 -71.75 C 99.4375 -70.757812 99.15625 -69.675781 98.78125 -68.5 C 98.78125 -68.5 98.375 -67.269531 97.5625 -64.8125 C 96.757812 -62.351562 95.582031 -59.023438 94.03125 -54.828125 C 92.476562 -50.640625 90.582031 -45.921875 88.34375 -40.671875 C 86.101562 -35.421875 83.523438 -30.003906 80.609375 -24.421875 C 77.566406 -18.640625 74.164062 -12.9375 70.40625 -7.3125 C 66.644531 -1.6875 62.523438 3.40625 58.046875 7.96875 C 53.578125 12.53125 48.75 16.175781 43.5625 18.90625 C 38.375 21.644531 32.863281 23.015625 27.03125 23.015625 L 26.09375 23.015625 C 23.050781 22.890625 20.707031 22.328125 19.0625 21.328125 C 17.414062 20.335938 16.25 19.191406 15.5625 17.890625 C 14.875 16.585938 14.46875 15.453125 14.34375 14.484375 C 14.226562 13.523438 14.171875 13.046875 14.171875 13.046875 C 14.171875 12.734375 14.351562 12.453125 14.71875 12.203125 C 15.09375 11.953125 15.3125 11.828125 15.375 11.828125 C 16.125 11.828125 16.5 12.203125 16.5 12.953125 C 16.5 13.015625 16.554688 13.414062 16.671875 14.15625 C 16.796875 14.90625 17.15625 15.757812 17.75 16.71875 C 18.34375 17.6875 19.273438 18.523438 20.546875 19.234375 C 21.816406 19.953125 23.601562 20.3125 25.90625 20.3125 L 26.65625 20.3125 C 30.8125 20.1875 34.785156 19.097656 38.578125 17.046875 C 42.367188 15.003906 45.957031 12.226562 49.34375 8.71875 C 52.726562 5.207031 55.957031 1.234375 59.03125 -3.203125 C 62.101562 -7.648438 65.003906 -12.359375 67.734375 -17.328125 C 70.472656 -22.296875 73.085938 -27.269531 75.578125 -32.25 C 80.296875 -41.8125 84.410156 -49.882812 87.921875 -56.46875 C 91.429688 -63.050781 93.960938 -67.710938 95.515625 -70.453125 L 98.03125 -74.828125 C 96.664062 -77.253906 95.207031 -79.164062 93.65625 -80.5625 C 92.101562 -81.957031 90.78125 -82.960938 89.6875 -83.578125 C 88.601562 -84.203125 88.0625 -84.515625 88.0625 -84.515625 C 85.757812 -85.765625 83.363281 -86.539062 80.875 -86.84375 C 78.394531 -87.15625 76.066406 -87.34375 73.890625 -87.40625 L 72.6875 -87.40625 C 68.332031 -87.40625 63.859375 -86.644531 59.265625 -85.125 C 54.671875 -83.601562 50.132812 -81.472656 45.65625 -78.734375 C 41.1875 -76.003906 36.976562 -72.851562 33.03125 -69.28125 C 29.09375 -65.707031 25.566406 -61.875 22.453125 -57.78125 C 20.960938 -55.851562 19.582031 -53.972656 18.3125 -52.140625 C 17.039062 -50.304688 15.875 -48.488281 14.8125 -46.6875 C 11.394531 -40.65625 9.003906 -35.476562 7.640625 -31.15625 C 6.273438 -26.84375 5.59375 -23.195312 5.59375 -20.21875 C 5.59375 -17.425781 6.007812 -15.175781 6.84375 -13.46875 C 7.6875 -11.757812 8.648438 -10.46875 9.734375 -9.59375 C 10.828125 -8.726562 11.742188 -8.203125 12.484375 -8.015625 C 13.171875 -7.890625 13.820312 -7.78125 14.4375 -7.6875 C 15.0625 -7.59375 15.6875 -7.546875 16.3125 -7.546875 C 18.914062 -7.546875 21.488281 -8.164062 24.03125 -9.40625 C 26.582031 -10.65625 29.070312 -12.300781 31.5 -14.34375 C 35.039062 -17.332031 38.160156 -20.84375 40.859375 -24.875 C 43.566406 -28.914062 45.726562 -32.894531 47.34375 -36.8125 C 48.269531 -38.925781 48.96875 -40.957031 49.4375 -42.90625 C 49.90625 -44.863281 50.210938 -46.492188 50.359375 -47.796875 C 50.515625 -49.109375 50.59375 -49.765625 50.59375 -49.765625 C 50.59375 -51.941406 51.492188 -53.03125 53.296875 -53.03125 C 53.859375 -52.96875 54.328125 -52.734375 54.703125 -52.328125 C 55.078125 -51.921875 55.265625 -51.3125 55.265625 -50.5 C 55.265625 -50.070312 55.171875 -49.515625 54.984375 -48.828125 C 54.484375 -46.898438 53.828125 -44.941406 53.015625 -42.953125 C 52.210938 -40.972656 51.40625 -39.144531 50.59375 -37.46875 C 49.789062 -35.789062 49.125 -34.453125 48.59375 -33.453125 C 48.070312 -32.460938 47.8125 -31.96875 47.8125 -31.96875 C 46.070312 -28.488281 43.941406 -25.023438 41.421875 -21.578125 C 38.898438 -18.128906 36.085938 -15.097656 32.984375 -12.484375 C 30.128906 -10.066406 27.191406 -8.1875 24.171875 -6.84375 C 21.160156 -5.507812 18.101562 -4.84375 15 -4.84375 L 14.4375 -4.84375 C 14.132812 -4.84375 13.796875 -4.859375 13.421875 -4.890625 C 13.046875 -4.921875 12.734375 -4.9375 12.484375 -4.9375 C 7.328125 -5.375 3.816406 -7.550781 1.953125 -11.46875 C 0.648438 -14.070312 0 -17.238281 0 -20.96875 L 0 -21.71875 C 0 -21.71875 0.09375 -22.785156 0.28125 -24.921875 C 0.46875 -27.066406 1.023438 -30.003906 1.953125 -33.734375 C 2.890625 -37.460938 4.441406 -41.671875 6.609375 -46.359375 C 8.785156 -51.046875 11.800781 -55.953125 15.65625 -61.078125 C 19.507812 -66.203125 24.507812 -71.222656 30.65625 -76.140625 C 36.988281 -81.234375 43.632812 -85.003906 50.59375 -87.453125 C 57.550781 -89.910156 64.390625 -91.140625 71.109375 -91.140625 L 72.59375 -91.140625 C 76.382812 -91.078125 79.738281 -90.625 82.65625 -89.78125 C 85.570312 -88.945312 88.117188 -87.878906 90.296875 -86.578125 L 91.328125 -85.921875 C 92.378906 -85.171875 93.679688 -84.160156 95.234375 -82.890625 C 96.785156 -81.617188 98.320312 -79.941406 99.84375 -77.859375 C 101.375 -75.773438 102.648438 -73.148438 103.671875 -69.984375 C 104.691406 -66.816406 105.203125 -62.960938 105.203125 -58.421875 C 105.203125 -54.078125 104.597656 -49.03125 103.390625 -43.28125 C 102.179688 -37.539062 100.023438 -30.972656 96.921875 -23.578125 C 96.859375 -23.515625 96.828125 -23.421875 96.828125 -23.296875 C 96.828125 -22.859375 96.890625 -22.640625 97.015625 -22.640625 C 97.191406 -22.640625 97.359375 -22.75 97.515625 -22.96875 C 97.671875 -23.1875 97.75 -23.296875 97.75 -23.296875 C 100.488281 -27.828125 103.082031 -31.957031 105.53125 -35.6875 C 107.988281 -39.414062 110.425781 -42.925781 112.84375 -46.21875 C 115.269531 -49.507812 117.757812 -52.738281 120.3125 -55.90625 C 124.84375 -61.5 129.28125 -66.207031 133.625 -70.03125 C 137.976562 -73.851562 142.046875 -76.972656 145.828125 -79.390625 C 149.617188 -81.816406 152.945312 -83.679688 155.8125 -84.984375 C 159.101562 -86.472656 162.441406 -87.601562 165.828125 -88.375 C 169.210938 -89.15625 172.085938 -89.546875 174.453125 -89.546875 C 177.179688 -89.546875 179.132812 -89.1875 180.3125 -88.46875 C 181.5 -87.757812 182.125 -87.34375 182.1875 -87.21875 Z M 182.1875 -87.21875 "/></g></g></g></g></g></svg>