<svg xmlns="http://www.w3.org/2000/svg" xmlns:xlink="http://www.w3.org/1999/xlink" width="500" zoomAndPan="magnify" viewBox="0 0 375 374.999991" height="500" preserveAspectRatio="xMidYMid meet" version="1.0"><defs><clipPath id="8d4bbc77e6"><path d="M 141 82 L 244 82 L 244 177 L 141 177 Z M 141 82 " clip-rule="nonzero"/></clipPath><clipPath id="3fed6619fd"><path d="M 259.296875 374.992188 L 72.089844 187.785156 L 259.828125 0.0507812 L 447.035156 187.253906 Z M 259.296875 374.992188 " clip-rule="nonzero"/></clipPath><clipPath id="4d6c22546f"><path d="M 259.296875 374.992188 L 72.089844 187.785156 L 259.828125 0.0507812 L 447.035156 187.253906 Z M 259.296875 374.992188 " clip-rule="nonzero"/></clipPath><clipPath id="93d65f7b8f"><path d="M 83 61 L 236 61 L 236 313 L 83 313 Z M 83 61 " clip-rule="nonzero"/></clipPath><clipPath id="5f85fcef06"><path d="M 259.296875 374.992188 L 72.089844 187.785156 L 259.828125 0.0507812 L 447.035156 187.253906 Z M 259.296875 374.992188 " clip-rule="nonzero"/></clipPath><clipPath id="de33d65f70"><path d="M 259.296875 374.992188 L 72.089844 187.785156 L 259.828125 0.0507812 L 447.035156 187.253906 Z M 259.296875 374.992188 " clip-rule="nonzero"/></clipPath><clipPath id="f8bac0ff0a"><path d="M 141 197 L 244 197 L 244 292 L 141 292 Z M 141 197 " clip-rule="nonzero"/></clipPath><clipPath id="c62f9e1e27"><path d="M 259.296875 374.992188 L 72.089844 187.785156 L 259.828125 0.0507812 L 447.035156 187.253906 Z M 259.296875 374.992188 " clip-rule="nonzero"/></clipPath><clipPath id="b4fe4587cd"><path d="M 259.296875 374.992188 L 72.089844 187.785156 L 259.828125 0.0507812 L 447.035156 187.253906 Z M 259.296875 374.992188 " clip-rule="nonzero"/></clipPath><clipPath id="9323a95048"><path d="M 232 9 L 272 9 L 272 77 L 232 77 Z M 232 9 " clip-rule="nonzero"/></clipPath><clipPath id="189fbcd0bf"><path d="M 259.296875 374.992188 L 72.089844 187.785156 L 259.828125 0.0507812 L 447.035156 187.253906 Z M 259.296875 374.992188 " clip-rule="nonzero"/></clipPath><clipPath id="c8b0aee2a2"><path d="M 259.296875 374.992188 L 72.089844 187.785156 L 259.828125 0.0507812 L 447.035156 187.253906 Z M 259.296875 374.992188 " clip-rule="nonzero"/></clipPath><clipPath id="8257f53291"><path d="M 238.34375 77.191406 L 218.960938 57.808594 L 268.269531 8.496094 L 287.65625 27.882812 Z M 238.34375 77.191406 " clip-rule="nonzero"/></clipPath><clipPath id="fd157c8d33"><path d="M 230 298 L 270 298 L 270 365 L 230 365 Z M 230 298 " clip-rule="nonzero"/></clipPath><clipPath id="a6dbf5f468"><path d="M 259.296875 374.992188 L 72.089844 187.785156 L 259.828125 0.0507812 L 447.035156 187.253906 Z M 259.296875 374.992188 " clip-rule="nonzero"/></clipPath><clipPath id="f372c48473"><path d="M 259.296875 374.992188 L 72.089844 187.785156 L 259.828125 0.0507812 L 447.035156 187.253906 Z M 259.296875 374.992188 " clip-rule="nonzero"/></clipPath><clipPath id="61ed57b784"><path d="M 127 122 L 217 122 L 217 252 L 127 252 Z M 127 122 " clip-rule="nonzero"/></clipPath><clipPath id="a84924c184"><path d="M 259.296875 374.992188 L 72.089844 187.785156 L 259.828125 0.0507812 L 447.035156 187.253906 Z M 259.296875 374.992188 " clip-rule="nonzero"/></clipPath><clipPath id="9ac9f144b3"><path d="M 259.296875 374.992188 L 72.089844 187.785156 L 259.828125 0.0507812 L 447.035156 187.253906 Z M 259.296875 374.992188 " clip-rule="nonzero"/></clipPath><clipPath id="df4168ca6b"><path d="M 158 271.609375 L 74.167969 187.777344 L 158.882812 103.0625 L 242.714844 186.894531 Z M 158 271.609375 " clip-rule="nonzero"/></clipPath></defs><g clip-path="url(#8d4bbc77e6)"><g clip-path="url(#3fed6619fd)"><g clip-path="url(#4d6c22546f)"><path fill="#9f0b0b" d="M 172.289062 176.480469 C 158.699219 175.398438 132.945312 162.730469 144.953125 145.691406 C 149.589844 139.109375 158.191406 137.804688 164.25 141.382812 C 170.710938 145.179688 174.390625 154.289062 170.65625 160.703125 C 170.410156 161.199219 170.121094 161.695312 169.75 162.164062 C 167.640625 164.808594 164.339844 165.6875 162.375 164.128906 C 160.410156 162.574219 160.519531 159.164062 162.632812 156.523438 C 163.953125 154.867188 165.734375 153.902344 167.367188 153.796875 C 166.832031 148.304688 159.460938 143.609375 153.8125 145.429688 C 149.890625 146.695312 147.136719 150.480469 146.429688 154.296875 C 144.757812 163.316406 160.292969 171.257812 168.542969 172.402344 C 184.765625 174.648438 201.847656 165.164062 213.992188 155.246094 C 224.183594 146.921875 232.738281 135.871094 237.324219 123.535156 C 241.851562 111.347656 239.691406 98.132812 237.628906 85.730469 C 236.316406 77.878906 241.664062 85.78125 241.984375 87.503906 C 245.945312 108.476562 244.789062 126.507812 231.660156 144.242188 C 218.625 161.851562 195.007812 178.296875 172.289062 176.480469 " fill-opacity="1" fill-rule="nonzero"/></g></g></g><g clip-path="url(#93d65f7b8f)"><g clip-path="url(#5f85fcef06)"><g clip-path="url(#de33d65f70)"><path fill="#9f0b0b" d="M 88.292969 185.769531 C 92.511719 173.46875 113.371094 174.324219 121.765625 175.742188 C 131.398438 177.371094 139.832031 182.167969 147.921875 187.335938 C 139.773438 192.589844 131.285156 197.480469 121.636719 199.214844 C 113.226562 200.730469 91.59375 201.503906 88.273438 189.558594 C 87.933594 188.574219 87.941406 186.882812 88.292969 185.769531 Z M 83.875 188.691406 C 85.875 201.558594 102.648438 205.242188 113.609375 205.4375 C 128.261719 205.707031 141.453125 198.953125 153.523438 191.019531 C 172.273438 203.515625 189.769531 218.152344 204.773438 234.957031 C 219.257812 251.171875 233.5625 273.753906 227.269531 296.460938 C 222.449219 313.863281 202.449219 308.417969 198.472656 294.148438 C 196.304688 286.367188 202.234375 276.003906 211.074219 280.027344 C 212.824219 280.820312 214.210938 282.210938 215.484375 283.601562 C 216.949219 285.199219 217.550781 288.636719 216.664062 291.234375 C 215.488281 289.394531 213.074219 288.257812 210.414062 288.527344 C 206.824219 288.898438 204.148438 291.667969 204.429688 294.707031 C 204.679688 297.539062 207.40625 299.582031 210.664062 299.574219 C 210.886719 299.597656 211.128906 299.605469 211.421875 299.5625 C 211.964844 299.507812 212.480469 299.382812 212.976562 299.222656 C 221.601562 296.792969 225.390625 285.105469 219.304688 278.457031 C 211.28125 269.691406 197.664062 274.246094 194.066406 285.0625 C 189.304688 299.359375 199.367188 314.066406 214.859375 312.632812 C 230.363281 311.207031 234.761719 292.269531 234.28125 279.832031 C 233.621094 262.503906 222.019531 245.792969 211.382812 232.980469 C 197.667969 216.449219 180.503906 202.351562 162.992188 190.019531 C 161.695312 189.097656 160.375 188.183594 159.050781 187.273438 C 160.386719 186.347656 161.714844 185.414062 163.019531 184.488281 C 180.675781 171.960938 197.988281 157.667969 211.894531 140.984375 C 222.667969 128.050781 234.457031 111.210938 235.308594 93.878906 C 235.921875 81.4375 231.738281 62.546875 216.246094 61.285156 C 200.769531 60.03125 190.546875 74.847656 195.144531 89.089844 C 198.625 99.871094 212.1875 104.273438 220.3125 95.417969 C 226.476562 88.703125 222.816406 77.050781 214.214844 74.722656 C 213.71875 74.570312 213.207031 74.449219 212.664062 74.398438 C 212.371094 74.359375 212.128906 74.371094 211.90625 74.398438 C 208.648438 74.421875 205.898438 76.5 205.613281 79.328125 C 205.300781 82.375 207.949219 85.113281 211.535156 85.445312 C 214.195312 85.6875 216.617188 84.523438 217.816406 82.667969 C 218.675781 85.257812 218.03125 88.703125 216.550781 90.320312 C 215.265625 91.722656 213.863281 93.128906 212.109375 93.9375 C 203.214844 98.058594 197.398438 87.765625 199.652344 79.957031 C 203.792969 65.644531 223.847656 59.976562 228.476562 77.324219 C 234.519531 99.96875 219.96875 122.703125 205.304688 139.085938 C 190.113281 156.058594 172.453125 170.886719 153.566406 183.585938 C 141.578125 175.785156 128.460938 169.179688 113.804688 169.605469 C 102.847656 169.925781 86.027344 173.796875 83.886719 186.679688 C 83.789062 187.210938 83.859375 187.980469 83.875 188.691406 " fill-opacity="1" fill-rule="nonzero"/></g></g></g><g clip-path="url(#f8bac0ff0a)"><g clip-path="url(#c62f9e1e27)"><g clip-path="url(#b4fe4587cd)"><path fill="#9f0b0b" d="M 172.171875 197.921875 C 158.570312 199.152344 132.671875 212.105469 144.492188 229.011719 C 149.054688 235.542969 157.640625 236.753906 163.746094 233.109375 C 170.246094 229.238281 174.023438 220.09375 170.367188 213.714844 C 170.125 213.21875 169.839844 212.730469 169.472656 212.269531 C 167.394531 209.644531 164.097656 208.800781 162.121094 210.378906 C 160.136719 211.960938 160.210938 215.367188 162.292969 217.988281 C 163.589844 219.625 165.371094 220.570312 167 220.660156 C 166.398438 226.160156 158.980469 230.9375 153.351562 229.175781 C 149.441406 227.953125 146.726562 224.203125 146.066406 220.390625 C 144.496094 211.386719 160.117188 203.277344 168.375 202.042969 C 184.628906 199.617188 201.605469 208.914062 213.640625 218.695312 C 223.738281 226.90625 232.175781 237.863281 236.625 250.152344 C 241.019531 262.292969 238.710938 275.53125 236.511719 287.953125 C 235.113281 295.824219 240.546875 287.863281 240.890625 286.132812 C 245.082031 265.117188 244.121094 247.097656 231.191406 229.507812 C 218.351562 212.039062 194.910156 195.855469 172.171875 197.921875 " fill-opacity="1" fill-rule="nonzero"/></g></g></g><g clip-path="url(#9323a95048)"><g clip-path="url(#189fbcd0bf)"><g clip-path="url(#c8b0aee2a2)"><g clip-path="url(#8257f53291)"><path fill="#9f0b0b" d="M 233.984375 71.121094 C 230.070312 57.800781 232.167969 44.742188 242.179688 34.730469 C 250.121094 26.789062 258.058594 18.851562 265.996094 10.914062 C 269.253906 7.65625 274.019531 12.628906 270.371094 16.28125 C 263.910156 22.738281 257.445312 29.203125 250.980469 35.667969 C 246.390625 40.261719 241.730469 44.320312 239.0625 50.398438 C 235.929688 57.539062 236.777344 66.316406 238.601562 73.664062 C 240.449219 81.082031 234.480469 72.808594 233.984375 71.121094 " fill-opacity="1" fill-rule="nonzero"/></g></g></g></g><g clip-path="url(#fd157c8d33)"><g clip-path="url(#a6dbf5f468)"><g clip-path="url(#f372c48473)"><path fill="#9f0b0b" d="M 232.699219 303.882812 C 228.640625 317.25 230.59375 330.28125 240.496094 340.183594 C 248.347656 348.039062 256.199219 355.890625 264.050781 363.742188 C 267.273438 366.960938 272.089844 361.9375 268.480469 358.328125 C 262.09375 351.941406 255.699219 345.542969 249.308594 339.15625 C 244.761719 334.609375 240.152344 330.601562 237.554688 324.550781 C 234.496094 317.445312 235.441406 308.65625 237.347656 301.289062 C 239.277344 293.851562 233.214844 302.1875 232.699219 303.882812 " fill-opacity="1" fill-rule="nonzero"/></g></g></g><g clip-path="url(#61ed57b784)"><g clip-path="url(#a84924c184)"><g clip-path="url(#9ac9f144b3)"><g clip-path="url(#df4168ca6b)"><path fill="#9f0b0b" d="M 216.398438 189.648438 C 216.0625 210.449219 201.734375 231.179688 184.8125 242.808594 C 166.492188 255.386719 145.207031 254.347656 127.640625 241.242188 C 126.300781 240.242188 130.453125 237.175781 131.570312 238.011719 C 147.402344 249.824219 168.753906 253.273438 185.25 239.875 C 200.890625 227.179688 211.671875 207.21875 212.339844 187.023438 C 211.894531 166.839844 201.332031 146.976562 185.835938 134.453125 C 169.480469 121.234375 148.09375 124.925781 132.128906 136.910156 C 131 137.757812 126.882812 134.738281 128.238281 133.722656 C 145.941406 120.421875 167.246094 119.148438 185.425781 131.527344 C 202.21875 142.960938 216.324219 162.894531 216.425781 184.347656 C 216.566406 185.5 216.527344 188.230469 216.398438 189.648438 " fill-opacity="1" fill-rule="nonzero"/></g></g></g></g></svg>