<svg xmlns="http://www.w3.org/2000/svg" xmlns:xlink="http://www.w3.org/1999/xlink" width="500" zoomAndPan="magnify" viewBox="0 0 375 374.999991" height="500" preserveAspectRatio="xMidYMid meet" version="1.0"><defs><clipPath id="2f526eb017"><path d="M 0 1 L 290 1 L 290 375 L 0 375 Z M 0 1 " clip-rule="nonzero"/></clipPath><clipPath id="81210ab2f6"><path d="M 104.097656 374.992188 L -83.105469 187.785156 L 104.628906 0.0507812 L 291.835938 187.253906 Z M 104.097656 374.992188 " clip-rule="nonzero"/></clipPath><clipPath id="5118efb531"><path d="M 119 197 L 223 197 L 223 292 L 119 292 Z M 119 197 " clip-rule="nonzero"/></clipPath><clipPath id="28938dda7c"><path d="M 104.097656 373.992188 L -83.105469 186.785156 L 104.628906 -0.949219 L 291.835938 186.253906 Z M 104.097656 373.992188 " clip-rule="nonzero"/></clipPath><clipPath id="d1bfd4100a"><path d="M 104.5625 -1 L 291.769531 186.207031 L 104.03125 373.941406 L -83.171875 186.734375 Z M 104.5625 -1 " clip-rule="nonzero"/></clipPath><clipPath id="3541ed2c53"><path d="M 128 61 L 281 61 L 281 313 L 128 313 Z M 128 61 " clip-rule="nonzero"/></clipPath><clipPath id="20bacbaf07"><path d="M 104.097656 373.992188 L -83.105469 186.785156 L 104.628906 -0.949219 L 291.835938 186.253906 Z M 104.097656 373.992188 " clip-rule="nonzero"/></clipPath><clipPath id="94be999e78"><path d="M 104.5625 -1 L 291.769531 186.207031 L 104.03125 373.941406 L -83.171875 186.734375 Z M 104.5625 -1 " clip-rule="nonzero"/></clipPath><clipPath id="997938bae0"><path d="M 120 82 L 223 82 L 223 177 L 120 177 Z M 120 82 " clip-rule="nonzero"/></clipPath><clipPath id="2e2b44beb4"><path d="M 104.097656 373.992188 L -83.105469 186.785156 L 104.628906 -0.949219 L 291.835938 186.253906 Z M 104.097656 373.992188 " clip-rule="nonzero"/></clipPath><clipPath id="427acb77c2"><path d="M 104.5625 -1 L 291.769531 186.207031 L 104.03125 373.941406 L -83.171875 186.734375 Z M 104.5625 -1 " clip-rule="nonzero"/></clipPath><clipPath id="468672886b"><path d="M 92 297 L 132 297 L 132 365 L 92 365 Z M 92 297 " clip-rule="nonzero"/></clipPath><clipPath id="a05b872fac"><path d="M 104.097656 373.992188 L -83.105469 186.785156 L 104.628906 -0.949219 L 291.835938 186.253906 Z M 104.097656 373.992188 " clip-rule="nonzero"/></clipPath><clipPath id="a7244a4c5b"><path d="M 104.5625 -1 L 291.769531 186.207031 L 104.03125 373.941406 L -83.171875 186.734375 Z M 104.5625 -1 " clip-rule="nonzero"/></clipPath><clipPath id="aa8474e415"><path d="M 125.515625 296.796875 L 144.902344 316.183594 L 95.589844 365.496094 L 76.203125 346.109375 Z M 125.515625 296.796875 " clip-rule="nonzero"/></clipPath><clipPath id="c5ab6f21fb"><path d="M 94 9 L 134 9 L 134 76 L 94 76 Z M 94 9 " clip-rule="nonzero"/></clipPath><clipPath id="92f265e4cf"><path d="M 104.097656 373.992188 L -83.105469 186.785156 L 104.628906 -0.949219 L 291.835938 186.253906 Z M 104.097656 373.992188 " clip-rule="nonzero"/></clipPath><clipPath id="f4c16cdabc"><path d="M 104.5625 -1 L 291.769531 186.207031 L 104.03125 373.941406 L -83.171875 186.734375 Z M 104.5625 -1 " clip-rule="nonzero"/></clipPath><clipPath id="d6e558c34b"><path d="M 147 122 L 237 122 L 237 252 L 147 252 Z M 147 122 " clip-rule="nonzero"/></clipPath><clipPath id="39ca98c62c"><path d="M 104.097656 373.992188 L -83.105469 186.785156 L 104.628906 -0.949219 L 291.835938 186.253906 Z M 104.097656 373.992188 " clip-rule="nonzero"/></clipPath><clipPath id="3e26282245"><path d="M 104.5625 -1 L 291.769531 186.207031 L 104.03125 373.941406 L -83.171875 186.734375 Z M 104.5625 -1 " clip-rule="nonzero"/></clipPath><clipPath id="14eb40e065"><path d="M 205.859375 102.378906 L 289.691406 186.214844 L 204.976562 270.929688 L 121.144531 187.09375 Z M 205.859375 102.378906 " clip-rule="nonzero"/></clipPath><clipPath id="f5881af12c"><rect x="0" width="290" y="0" height="374"/></clipPath></defs><g clip-path="url(#2f526eb017)"><g clip-path="url(#81210ab2f6)"><g transform="matrix(1, 0, 0, 1, 0, 1)"><g clip-path="url(#f5881af12c)"><g clip-path="url(#5118efb531)"><g clip-path="url(#28938dda7c)"><g clip-path="url(#d1bfd4100a)"><path fill="#9f0b0b" d="M 191.570312 197.511719 C 205.160156 198.59375 230.914062 211.261719 218.910156 228.300781 C 214.269531 234.882812 205.671875 236.1875 199.609375 232.609375 C 193.148438 228.8125 189.472656 219.703125 193.203125 213.289062 C 193.449219 212.792969 193.738281 212.296875 194.109375 211.828125 C 196.21875 209.183594 199.523438 208.304688 201.484375 209.859375 C 203.449219 211.417969 203.339844 214.828125 201.226562 217.46875 C 199.90625 219.125 198.125 220.089844 196.492188 220.195312 C 197.03125 225.6875 204.398438 230.382812 210.050781 228.558594 C 213.96875 227.296875 216.722656 223.511719 217.429688 219.695312 C 219.101562 210.675781 203.566406 202.734375 195.316406 201.589844 C 179.09375 199.34375 162.011719 208.828125 149.867188 218.746094 C 139.675781 227.070312 131.121094 238.117188 126.535156 250.457031 C 122.007812 262.644531 124.167969 275.859375 126.234375 288.261719 C 127.542969 296.113281 122.199219 288.210938 121.878906 286.484375 C 117.914062 265.515625 119.070312 247.484375 132.199219 229.75 C 145.238281 212.136719 168.851562 195.695312 191.570312 197.511719 " fill-opacity="1" fill-rule="nonzero"/></g></g></g><g clip-path="url(#3541ed2c53)"><g clip-path="url(#20bacbaf07)"><g clip-path="url(#94be999e78)"><path fill="#9f0b0b" d="M 275.566406 188.21875 C 271.347656 200.523438 250.488281 199.664062 242.09375 198.25 C 232.464844 196.617188 224.027344 191.824219 215.9375 186.65625 C 224.089844 181.402344 232.574219 176.511719 242.222656 174.777344 C 250.632812 173.261719 272.269531 172.488281 275.585938 184.429688 C 275.929688 185.417969 275.917969 187.109375 275.566406 188.21875 Z M 279.984375 185.296875 C 277.988281 172.433594 261.210938 168.75 250.253906 168.550781 C 235.601562 168.285156 222.410156 175.039062 210.335938 182.972656 C 191.585938 170.476562 174.09375 155.839844 159.085938 139.035156 C 144.601562 122.820312 130.296875 100.238281 136.589844 77.53125 C 141.410156 60.128906 161.410156 65.574219 165.386719 79.84375 C 167.558594 87.625 161.625 97.988281 152.785156 93.964844 C 151.035156 93.167969 149.648438 91.78125 148.378906 90.390625 C 146.914062 88.792969 146.3125 85.355469 147.195312 82.757812 C 148.371094 84.597656 150.785156 85.730469 153.445312 85.460938 C 157.035156 85.09375 159.714844 82.324219 159.433594 79.28125 C 159.179688 76.453125 156.453125 74.410156 153.195312 74.417969 C 152.972656 74.394531 152.734375 74.386719 152.4375 74.429688 C 151.894531 74.484375 151.382812 74.609375 150.882812 74.769531 C 142.257812 77.199219 138.46875 88.886719 144.554688 95.535156 C 152.582031 104.300781 166.195312 99.746094 169.796875 88.929688 C 174.554688 74.632812 164.496094 59.925781 149 61.355469 C 133.496094 62.785156 129.101562 81.722656 129.578125 94.160156 C 130.238281 111.484375 141.839844 128.199219 152.476562 141.011719 C 166.191406 157.539062 183.355469 171.640625 200.871094 183.972656 C 202.164062 184.890625 203.484375 185.804688 204.808594 186.71875 C 203.472656 187.644531 202.144531 188.578125 200.839844 189.503906 C 183.183594 202.03125 165.871094 216.324219 151.96875 233.007812 C 141.191406 245.9375 129.402344 262.777344 128.550781 280.113281 C 127.9375 292.554688 132.125 311.445312 147.613281 312.703125 C 163.09375 313.960938 173.3125 299.144531 168.714844 284.902344 C 165.234375 274.121094 151.671875 269.71875 143.546875 278.574219 C 137.386719 285.289062 141.042969 296.9375 149.648438 299.269531 C 150.140625 299.421875 150.652344 299.539062 151.195312 299.589844 C 151.488281 299.628906 151.730469 299.621094 151.953125 299.59375 C 155.210938 299.566406 157.960938 297.492188 158.246094 294.664062 C 158.5625 291.613281 155.910156 288.878906 152.324219 288.546875 C 149.664062 288.304688 147.246094 289.464844 146.046875 291.324219 C 145.1875 288.734375 145.828125 285.289062 147.308594 283.671875 C 148.59375 282.269531 149.996094 280.863281 151.753906 280.054688 C 160.644531 275.929688 166.460938 286.226562 164.207031 294.03125 C 160.070312 308.34375 140.015625 314.015625 135.382812 296.667969 C 129.339844 274.023438 143.890625 251.285156 158.554688 234.90625 C 173.746094 217.933594 191.40625 203.105469 210.292969 190.40625 C 222.285156 198.203125 235.398438 204.808594 250.058594 204.386719 C 261.015625 204.066406 277.832031 200.195312 279.972656 187.308594 C 280.070312 186.777344 280 186.011719 279.984375 185.296875 " fill-opacity="1" fill-rule="nonzero"/></g></g></g><g clip-path="url(#997938bae0)"><g clip-path="url(#2e2b44beb4)"><g clip-path="url(#427acb77c2)"><path fill="#9f0b0b" d="M 191.6875 176.070312 C 205.289062 174.839844 231.1875 161.886719 219.371094 144.980469 C 214.804688 138.445312 206.21875 137.238281 200.117188 140.882812 C 193.613281 144.753906 189.835938 153.898438 193.492188 160.277344 C 193.734375 160.769531 194.023438 161.261719 194.386719 161.722656 C 196.464844 164.34375 199.761719 165.191406 201.742188 163.613281 C 203.722656 162.03125 203.648438 158.625 201.566406 156.003906 C 200.269531 154.363281 198.492188 153.421875 196.859375 153.332031 C 197.460938 147.832031 204.878906 143.050781 210.511719 144.816406 C 214.417969 146.035156 217.132812 149.789062 217.796875 153.601562 C 219.363281 162.605469 203.746094 170.710938 195.484375 171.949219 C 179.230469 174.375 162.253906 165.078125 150.21875 155.292969 C 140.121094 147.082031 131.683594 136.128906 127.234375 123.839844 C 122.839844 111.699219 125.148438 98.460938 127.351562 86.035156 C 128.746094 78.167969 123.3125 86.128906 122.96875 87.855469 C 118.777344 108.875 119.738281 126.894531 132.667969 144.484375 C 145.511719 161.953125 168.949219 178.136719 191.6875 176.070312 " fill-opacity="1" fill-rule="nonzero"/></g></g></g><g clip-path="url(#468672886b)"><g clip-path="url(#a05b872fac)"><g clip-path="url(#a7244a4c5b)"><g clip-path="url(#aa8474e415)"><path fill="#9f0b0b" d="M 129.875 302.871094 C 133.789062 316.1875 131.691406 329.25 121.679688 339.261719 C 113.738281 347.199219 105.800781 355.140625 97.863281 363.078125 C 94.605469 366.332031 89.839844 361.359375 93.492188 357.710938 C 99.949219 351.25 106.414062 344.789062 112.878906 338.324219 C 117.46875 333.730469 122.128906 329.671875 124.796875 323.59375 C 127.929688 316.453125 127.082031 307.675781 125.257812 300.328125 C 123.414062 292.910156 129.378906 301.183594 129.875 302.871094 " fill-opacity="1" fill-rule="nonzero"/></g></g></g></g><g clip-path="url(#c5ab6f21fb)"><g clip-path="url(#92f265e4cf)"><g clip-path="url(#f4c16cdabc)"><path fill="#9f0b0b" d="M 131.160156 70.105469 C 135.222656 56.742188 133.265625 43.707031 123.363281 33.804688 C 115.511719 25.953125 107.660156 18.101562 99.808594 10.25 C 96.585938 7.027344 91.769531 12.054688 95.378906 15.664062 C 101.765625 22.050781 108.160156 28.445312 114.550781 34.835938 C 119.097656 39.382812 123.707031 43.390625 126.304688 49.441406 C 129.363281 56.546875 128.417969 65.332031 126.511719 72.703125 C 124.585938 80.140625 130.644531 71.804688 131.160156 70.105469 " fill-opacity="1" fill-rule="nonzero"/></g></g></g><g clip-path="url(#d6e558c34b)"><g clip-path="url(#39ca98c62c)"><g clip-path="url(#3e26282245)"><g clip-path="url(#14eb40e065)"><path fill="#9f0b0b" d="M 147.460938 184.34375 C 147.800781 163.542969 162.125 142.8125 179.046875 131.183594 C 197.367188 118.605469 218.65625 119.644531 236.21875 132.75 C 237.558594 133.75 233.410156 136.816406 232.289062 135.980469 C 216.457031 124.167969 195.105469 120.71875 178.609375 134.113281 C 162.96875 146.8125 152.1875 166.773438 151.519531 186.96875 C 151.964844 207.152344 162.527344 227.015625 178.027344 239.539062 C 194.378906 252.753906 215.765625 249.066406 231.730469 237.078125 C 232.863281 236.230469 236.976562 239.253906 235.625 240.269531 C 217.917969 253.570312 196.617188 254.84375 178.4375 242.464844 C 161.640625 231.03125 147.535156 211.09375 147.433594 189.640625 C 147.292969 188.492188 147.332031 185.761719 147.460938 184.34375 " fill-opacity="1" fill-rule="nonzero"/></g></g></g></g></g></g></g></g></svg>