<svg xmlns="http://www.w3.org/2000/svg" xmlns:xlink="http://www.w3.org/1999/xlink" width="1000" zoomAndPan="magnify" viewBox="0 0 750 749.999995" height="1000" preserveAspectRatio="xMidYMid meet" version="1.0"><defs><g/><clipPath id="e1265223c2"><path d="M 37.5 317 L 712.5 317 L 712.5 506 L 37.5 506 Z M 37.5 317 " clip-rule="nonzero"/></clipPath><clipPath id="b762b88d93"><rect x="0" width="268" y="0" height="115"/></clipPath></defs><g clip-path="url(#e1265223c2)"><path fill="#9f0b0b" d="M 226.394531 495.214844 C 229.589844 490.839844 230.308594 485.992188 227.828125 481.167969 C 225.445312 476.523438 222.113281 472.675781 216.289062 472.351562 C 215.949219 472.335938 215.613281 472.433594 214.785156 472.539062 C 215.542969 473.082031 215.9375 473.488281 216.425781 473.707031 C 220.460938 475.519531 222.640625 478.960938 224.457031 482.742188 C 226.273438 486.546875 225.636719 490.070312 223.074219 493.265625 C 213.511719 505.238281 193.492188 505.089844 186.042969 489.769531 C 181.449219 480.328125 181.585938 470.820312 186.964844 461.609375 C 188.953125 458.195312 191.339844 455.082031 194.617188 452.695312 C 193.453125 457.289062 192.816406 461.757812 194.480469 467.121094 C 195.0625 465.144531 195.457031 463.886719 195.796875 462.625 C 196.148438 461.339844 196.527344 460.066406 196.785156 458.75 C 198.273438 450.992188 203.082031 446.222656 210.316406 443.59375 C 223.265625 438.878906 236.730469 436.523438 250.371094 435.074219 C 262.65625 433.773438 274.96875 432.691406 287.265625 431.527344 C 287.972656 431.457031 288.6875 431.566406 289.757812 431.621094 C 289.109375 432.59375 288.566406 433.339844 288.078125 434.125 C 286.601562 436.484375 285.019531 438.785156 283.730469 441.25 C 283.011719 442.605469 282.648438 444.203125 282.402344 445.75 C 281.984375 448.445312 282.632812 450.839844 285.167969 452.332031 C 287.320312 453.589844 290.542969 453.347656 292.550781 451.195312 C 294.308594 449.285156 295.960938 446.980469 296.75 444.542969 C 297.871094 441.144531 298.183594 437.457031 298.78125 433.894531 C 298.941406 432.960938 298.875 431.984375 298.929688 430.699219 C 309.101562 429.804688 319.097656 429.113281 329.054688 427.992188 C 339.160156 426.839844 349.210938 425.253906 359.289062 423.859375 C 365.179688 423.046875 370.53125 422.152344 375.011719 421.246094 C 379.484375 422.152344 384.832031 423.046875 390.738281 423.859375 C 400.816406 425.253906 410.867188 426.839844 420.972656 427.992188 C 430.914062 429.113281 440.910156 429.804688 451.097656 430.699219 C 451.152344 431.984375 451.085938 432.960938 451.246094 433.894531 C 451.84375 437.472656 452.15625 441.144531 453.277344 444.542969 C 454.078125 446.96875 455.714844 449.285156 457.476562 451.195312 C 459.46875 453.347656 462.707031 453.589844 464.859375 452.332031 C 467.394531 450.839844 468.054688 448.445312 467.625 445.75 C 467.378906 444.21875 467.011719 442.621094 466.296875 441.25 C 465.007812 438.800781 463.425781 436.496094 461.949219 434.125 C 461.460938 433.339844 460.933594 432.59375 460.269531 431.621094 C 461.339844 431.578125 462.054688 431.472656 462.761719 431.527344 C 475.058594 432.691406 487.371094 433.773438 499.65625 435.074219 C 513.296875 436.511719 526.761719 438.878906 539.710938 443.59375 C 546.957031 446.222656 551.753906 450.992188 553.242188 458.75 C 553.488281 460.050781 553.878906 461.339844 554.230469 462.625 C 554.585938 463.886719 554.964844 465.144531 555.546875 467.121094 C 557.210938 461.757812 556.574219 457.289062 555.410156 452.695312 C 558.6875 455.09375 561.074219 458.195312 563.0625 461.609375 C 568.441406 470.820312 568.578125 480.328125 563.984375 489.769531 C 556.535156 505.089844 536.515625 505.238281 526.953125 493.265625 C 524.390625 490.070312 523.753906 486.535156 525.570312 482.742188 C 527.371094 478.960938 529.566406 475.519531 533.601562 473.707031 C 534.089844 473.488281 534.484375 473.082031 535.242188 472.539062 C 534.414062 472.433594 534.078125 472.324219 533.738281 472.351562 C 527.914062 472.691406 524.582031 476.523438 522.199219 481.167969 C 519.71875 486.003906 520.449219 490.839844 523.632812 495.214844 C 529.632812 503.453125 541.28125 507.449219 551.238281 504.601562 C 561.34375 501.71875 566.953125 494.550781 569.457031 484.730469 C 570.308594 481.398438 570.445312 477.878906 570.960938 474.070312 C 572.519531 478.09375 573.96875 481.820312 575.417969 485.558594 C 575.957031 483.582031 576.027344 481.777344 575.78125 480.019531 C 575.550781 478.351562 574.996094 476.726562 574.605469 475.074219 C 572.585938 466.757812 566.761719 460.730469 561.9375 454.121094 C 559.339844 450.558594 555.898438 447.847656 552.144531 445.546875 C 545.144531 441.238281 537.394531 438.773438 529.523438 436.792969 C 522.15625 434.953125 514.652344 433.636719 506.90625 432.027344 C 508.21875 431.402344 509.449219 430.957031 510.546875 430.292969 C 512.605469 429.046875 514.855469 427.964844 516.535156 426.3125 C 519.378906 423.492188 518.90625 419.796875 515.519531 417.683594 C 513.839844 416.625 511.753906 415.90625 509.777344 415.691406 C 502.53125 414.917969 494.753906 419.671875 491.894531 426.390625 C 491.339844 427.679688 491.015625 429.074219 490.554688 430.535156 C 487.085938 430.226562 483.835938 429.898438 480.585938 429.644531 C 469.871094 428.804688 459.210938 427.476562 448.484375 426.769531 C 439.789062 426.203125 431.089844 425.484375 422.421875 424.507812 C 411.597656 423.277344 400.804688 421.730469 390.007812 420.28125 C 387.867188 420 385.753906 419.566406 383.628906 419.1875 C 384.386719 418.957031 385.050781 418.738281 385.660156 418.507812 C 385.984375 418.480469 386.296875 418.46875 386.621094 418.453125 C 410.988281 417.914062 435.34375 417.453125 459.699219 416.816406 C 470.007812 416.542969 480.300781 416.015625 490.582031 415.421875 C 505.226562 414.582031 519.867188 413.578125 534.511719 412.671875 C 535.675781 412.601562 536.839844 412.683594 537.855469 412.699219 C 538.085938 413.320312 538.222656 413.539062 538.25 413.78125 C 539.496094 425.824219 546.46875 433.179688 557.578125 436.742188 C 562.386719 438.285156 567.480469 438.90625 572.464844 439.882812 C 572.980469 439.976562 573.5625 439.71875 574.535156 439.542969 C 570.5 428.84375 567.046875 418.183594 555.152344 412.535156 C 556.359375 412.371094 556.792969 412.277344 557.210938 412.265625 C 564.40625 412.101562 571.53125 413.132812 578.425781 414.851562 C 588.351562 417.328125 597.507812 421.839844 606.042969 427.542969 C 610.824219 430.726562 615.105469 434.503906 618.492188 439.136719 C 619.96875 441.15625 621.269531 443.433594 622.082031 445.789062 C 623.964844 451.195312 620.710938 456.679688 615.105469 458.0625 C 610.8125 459.117188 606.707031 458.507812 602.671875 456.855469 C 598.726562 455.230469 596.464844 452.492188 596.058594 448.144531 C 595.828125 445.734375 596.359375 443.703125 598.484375 441.523438 C 595.464844 442.050781 594.285156 443.582031 593.582031 445.597656 C 591.984375 450.070312 593.609375 455.59375 597.660156 458.046875 C 600.3125 459.644531 603.253906 461.066406 606.257812 461.746094 C 614.453125 463.585938 622.082031 461.324219 625.832031 453.265625 C 625.914062 453.101562 626.210938 453.050781 626.550781 452.875 C 635.164062 458.167969 644.863281 460.863281 654.628906 463.277344 C 659.316406 464.441406 664.097656 465.402344 668.894531 465.945312 C 673.171875 466.433594 674.691406 464.496094 673.988281 460.28125 C 673.402344 456.816406 672.78125 453.359375 672.128906 449.90625 C 670.761719 442.699219 667.957031 436.265625 662.105469 431.484375 C 662 431.390625 662.082031 431.050781 662.066406 430.726562 C 669.488281 429.65625 676.34375 426.933594 682.683594 423.019531 C 691.3125 417.695312 698.597656 410.761719 705.492188 403.390625 C 707.375 401.375 708.894531 398.960938 711.601562 397.824219 C 711.925781 397.6875 712.050781 397.050781 712.171875 396.824219 C 708.730469 394.34375 705.453125 392.015625 702.1875 389.628906 C 697 385.851562 691.921875 381.894531 686.609375 378.292969 C 680.273438 374 673.199219 371.585938 665.535156 371.101562 C 663.636719 370.976562 661.726562 370.976562 659.898438 370.9375 C 659.816406 370.613281 659.738281 370.476562 659.765625 370.367188 C 659.941406 369.800781 660.101562 369.21875 660.332031 368.675781 C 663.71875 360.34375 664.84375 351.609375 664.925781 342.707031 C 664.964844 338.035156 663.300781 336.777344 658.84375 337.925781 C 648.074219 340.703125 638.050781 345.242188 628.773438 351.324219 C 624.097656 354.386719 619.738281 357.878906 616.433594 362.5 C 616.105469 362.960938 615.632812 363.3125 615.457031 363.472656 C 612.597656 362.308594 610.121094 360.683594 607.464844 360.316406 C 599.378906 359.207031 592.28125 361.753906 586.890625 367.917969 C 584.34375 370.828125 583.488281 374.609375 584.761719 378.507812 C 585.683594 381.328125 587.566406 382.355469 591.089844 381.910156 C 590.695312 381.339844 590.410156 380.851562 590.058594 380.40625 C 587.148438 376.722656 587.296875 372.496094 590.574219 369.339844 C 594.515625 365.546875 599.351562 363.675781 604.742188 363.757812 C 609.566406 363.839844 613.480469 366.128906 615.511719 370.585938 C 617.421875 374.742188 616.1875 378.753906 613.359375 382.085938 C 611.339844 384.457031 609.007812 386.675781 606.503906 388.519531 C 601.628906 392.109375 596.441406 395.277344 591.523438 398.800781 C 585.5625 403.066406 579.441406 406.886719 571.9375 407.699219 C 571.707031 407.726562 571.476562 407.847656 571.246094 407.917969 C 567.382812 409.066406 563.46875 408.363281 559.625 408.605469 C 562.144531 406.980469 565.042969 405.898438 566.800781 403.839844 C 571.570312 398.257812 572.097656 391.402344 571.597656 383.898438 C 569.390625 384.28125 567.492188 384.46875 565.664062 384.957031 C 559.339844 386.636719 552.984375 388.25 547.5 392.066406 C 543.261719 395.007812 540.132812 398.730469 539.128906 403.921875 C 538.832031 405.421875 538.804688 406.996094 538.640625 408.6875 C 537.976562 408.78125 537.394531 408.90625 536.8125 408.945312 C 519.394531 410.027344 501.972656 411.382812 484.542969 412.128906 C 459.347656 413.210938 434.140625 413.863281 408.929688 414.675781 C 408.105469 414.703125 407.265625 414.582031 406.167969 414.511719 C 437.253906 408.59375 468.015625 402.726562 498.859375 396.847656 C 501.960938 401.414062 505.929688 404.910156 510.875 407.226562 C 515.667969 409.488281 520.53125 409.542969 525.175781 406.898438 C 529.472656 404.460938 529.878906 399.828125 525.988281 396.753906 C 524.230469 395.359375 521.996094 394.546875 519.894531 393.625 C 518.6875 393.082031 517.335938 392.855469 515.914062 392.433594 C 516.320312 392.015625 516.453125 391.769531 516.65625 391.6875 C 517.902344 391.226562 519.148438 390.753906 520.421875 390.359375 C 530.136719 387.382812 539.089844 382.925781 547.121094 376.679688 C 554.515625 370.9375 560.597656 364.054688 564.351562 355.414062 C 568.007812 346.960938 571.148438 338.320312 571.300781 328.90625 C 571.328125 326.644531 571.597656 324.382812 571.746094 322.105469 C 569.472656 326.425781 569.078125 331.207031 567.195312 336.179688 C 566.722656 335.097656 566.558594 334.785156 566.449219 334.445312 C 563.46875 325.34375 557.199219 319.628906 547.894531 317.933594 C 536.515625 315.847656 526.476562 319.207031 518.363281 327.46875 C 513.21875 332.710938 510.777344 339.160156 511.46875 346.675781 C 512.175781 354.464844 516.535156 357.933594 522.914062 360.074219 C 524.757812 360.695312 526.816406 360.914062 528.589844 359.085938 C 520.546875 358.773438 514.746094 352.488281 514.828125 344.46875 C 514.898438 338.535156 517.132812 333.578125 521.222656 329.488281 C 528.007812 322.703125 536.40625 320.113281 545.820312 321.023438 C 554.285156 321.835938 561.546875 328.417969 563.402344 336.667969 C 564.460938 341.382812 564.066406 346.109375 562.496094 350.644531 C 561.304688 354.085938 559.828125 357.433594 557.105469 360.546875 C 557.199219 357.445312 557.265625 354.84375 557.347656 352.246094 C 557.050781 352.175781 556.765625 352.121094 556.46875 352.054688 C 555.707031 354.34375 554.800781 356.605469 554.21875 358.9375 C 552.011719 367.742188 546.335938 373.523438 538.761719 378.183594 C 529.539062 383.859375 519.433594 387.230469 509.179688 390.007812 C 498.332031 392.949219 487.210938 394.953125 476.210938 397.324219 C 473.082031 398 469.925781 398.554688 466.324219 399.261719 C 467.5 397.351562 468.503906 395.984375 469.222656 394.492188 C 470.15625 392.542969 470.25 390.484375 468.871094 388.640625 C 467.460938 386.773438 465.441406 386.417969 463.316406 386.839844 C 462.152344 387.070312 460.957031 387.488281 459.941406 388.097656 C 455.675781 390.644531 453.035156 394.480469 451.871094 399.273438 C 451.136719 402.28125 451.21875 402.292969 448.335938 402.808594 C 435.222656 405.195312 422.125 407.617188 409.011719 409.988281 C 397.757812 412.019531 386.460938 413.742188 375.027344 414.324219 C 363.609375 413.742188 352.296875 412.019531 341.042969 409.988281 C 327.929688 407.632812 314.832031 405.207031 301.71875 402.808594 C 298.820312 402.28125 298.914062 402.28125 298.183594 399.273438 C 297.019531 394.480469 294.378906 390.660156 290.113281 388.097656 C 289.09375 387.488281 287.902344 387.070312 286.738281 386.839844 C 284.597656 386.417969 282.582031 386.773438 281.183594 388.640625 C 279.804688 390.484375 279.898438 392.542969 280.832031 394.492188 C 281.550781 395.984375 282.554688 397.351562 283.730469 399.261719 C 280.128906 398.554688 276.972656 398 273.84375 397.324219 C 262.832031 394.941406 251.722656 392.949219 240.875 390.007812 C 230.621094 387.230469 220.515625 383.859375 211.292969 378.183594 C 203.71875 373.523438 198.058594 367.742188 195.835938 358.9375 C 195.253906 356.605469 194.347656 354.34375 193.585938 352.054688 C 193.289062 352.121094 193.003906 352.175781 192.707031 352.246094 C 192.789062 354.84375 192.855469 357.433594 192.949219 360.546875 C 190.214844 357.433594 188.738281 354.085938 187.558594 350.644531 C 185.988281 346.09375 185.59375 341.367188 186.652344 336.667969 C 188.507812 328.40625 195.769531 321.835938 204.234375 321.023438 C 213.632812 320.113281 222.046875 322.703125 228.832031 329.488281 C 232.910156 333.566406 235.15625 338.535156 235.226562 344.46875 C 235.308594 352.488281 229.523438 358.773438 221.464844 359.085938 C 223.222656 360.914062 225.296875 360.695312 227.140625 360.074219 C 233.519531 357.933594 237.878906 354.464844 238.585938 346.675781 C 239.277344 339.160156 236.835938 332.710938 231.691406 327.46875 C 223.589844 319.207031 213.554688 315.847656 202.160156 317.933594 C 192.855469 319.640625 186.597656 325.34375 183.605469 334.445312 C 183.496094 334.785156 183.320312 335.097656 182.859375 336.179688 C 180.976562 331.207031 180.582031 326.425781 178.308594 322.105469 C 178.472656 324.367188 178.726562 326.628906 178.753906 328.90625 C 178.890625 338.320312 182.03125 346.960938 185.703125 355.414062 C 189.441406 364.042969 195.539062 370.921875 202.933594 376.679688 C 210.964844 382.925781 219.917969 387.382812 229.632812 390.359375 C 230.90625 390.753906 232.152344 391.214844 233.398438 391.6875 C 233.601562 391.769531 233.734375 392.015625 234.140625 392.433594 C 232.71875 392.855469 231.378906 393.082031 230.160156 393.625 C 228.074219 394.546875 225.824219 395.359375 224.0625 396.753906 C 220.175781 399.828125 220.570312 404.460938 224.878906 406.898438 C 229.523438 409.527344 234.386719 409.472656 239.179688 407.226562 C 244.113281 404.910156 248.09375 401.414062 251.195312 396.847656 C 282.039062 402.726562 312.8125 408.59375 343.886719 414.511719 C 342.789062 414.582031 341.949219 414.703125 341.125 414.675781 C 315.914062 413.847656 290.707031 413.199219 265.511719 412.128906 C 248.082031 411.382812 230.660156 410.027344 213.242188 408.945312 C 212.660156 408.90625 212.078125 408.78125 211.414062 408.6875 C 211.25 406.980469 211.222656 405.421875 210.925781 403.921875 C 209.910156 398.730469 206.78125 395.007812 202.554688 392.066406 C 197.054688 388.261719 190.703125 386.636719 184.390625 384.957031 C 182.574219 384.46875 180.664062 384.28125 178.457031 383.898438 C 177.957031 391.402344 178.484375 398.257812 183.253906 403.839844 C 185.011719 405.898438 187.898438 406.980469 190.429688 408.605469 C 186.585938 408.363281 182.667969 409.066406 178.808594 407.917969 C 178.578125 407.847656 178.347656 407.726562 178.117188 407.699219 C 170.613281 406.886719 164.492188 403.066406 158.53125 398.800781 C 153.601562 395.277344 148.425781 392.09375 143.550781 388.519531 C 141.046875 386.675781 138.714844 384.46875 136.695312 382.085938 C 133.867188 378.753906 132.648438 374.742188 134.542969 370.585938 C 136.589844 366.128906 140.488281 363.839844 145.3125 363.757812 C 150.703125 363.675781 155.539062 365.53125 159.480469 369.339844 C 162.757812 372.496094 162.90625 376.734375 159.996094 380.40625 C 159.644531 380.851562 159.34375 381.339844 158.964844 381.910156 C 162.472656 382.355469 164.371094 381.328125 165.292969 378.507812 C 166.5625 374.59375 165.722656 370.828125 163.164062 367.917969 C 157.773438 361.753906 150.675781 359.207031 142.589844 360.316406 C 139.933594 360.683594 137.457031 362.308594 134.597656 363.472656 C 134.433594 363.3125 133.960938 362.960938 133.621094 362.5 C 130.316406 357.878906 125.957031 354.386719 121.28125 351.324219 C 111.988281 345.242188 101.980469 340.703125 91.210938 337.925781 C 86.753906 336.777344 85.089844 338.050781 85.128906 342.707031 C 85.222656 351.609375 86.347656 360.34375 89.722656 368.675781 C 89.953125 369.230469 90.113281 369.800781 90.289062 370.367188 C 90.316406 370.464844 90.234375 370.597656 90.15625 370.9375 C 88.328125 370.992188 86.417969 370.976562 84.519531 371.101562 C 76.851562 371.601562 69.769531 374.011719 63.445312 378.292969 C 58.132812 381.894531 53.054688 385.851562 47.867188 389.628906 C 44.574219 392 41.296875 394.34375 37.855469 396.824219 C 37.976562 397.050781 38.101562 397.6875 38.425781 397.824219 C 41.132812 398.960938 42.652344 401.375 44.535156 403.390625 C 51.441406 410.746094 58.730469 417.683594 67.359375 423.003906 C 73.695312 426.921875 80.550781 429.644531 87.972656 430.710938 C 87.960938 431.050781 88.042969 431.375 87.933594 431.472656 C 82.09375 436.253906 79.277344 442.6875 77.910156 449.894531 C 77.257812 453.347656 76.636719 456.800781 76.054688 460.269531 C 75.351562 464.480469 76.867188 466.417969 81.148438 465.929688 C 85.941406 465.375 90.722656 464.414062 95.410156 463.261719 C 105.175781 460.851562 114.875 458.15625 123.488281 452.859375 C 123.828125 453.035156 124.125 453.101562 124.207031 453.253906 C 127.960938 461.3125 135.585938 463.574219 143.78125 461.730469 C 146.789062 461.054688 149.726562 459.632812 152.382812 458.035156 C 156.433594 455.582031 158.058594 450.054688 156.460938 445.585938 C 155.742188 443.582031 154.578125 442.050781 151.554688 441.507812 C 153.683594 443.6875 154.210938 445.734375 153.980469 448.132812 C 153.574219 452.480469 151.3125 455.230469 147.371094 456.84375 C 143.332031 458.507812 139.230469 459.117188 134.9375 458.046875 C 129.328125 456.664062 126.078125 451.179688 127.960938 445.773438 C 128.785156 443.417969 130.074219 441.144531 131.550781 439.125 C 134.9375 434.476562 139.214844 430.710938 143.996094 427.53125 C 152.53125 421.839844 161.703125 417.316406 171.617188 414.835938 C 178.511719 413.117188 185.636719 412.089844 192.828125 412.25 C 193.25 412.265625 193.667969 412.359375 194.886719 412.519531 C 182.996094 418.167969 179.539062 428.828125 175.503906 439.53125 C 176.480469 439.707031 177.074219 439.976562 177.578125 439.871094 C 182.5625 438.878906 187.652344 438.269531 192.460938 436.726562 C 203.570312 433.164062 210.558594 425.808594 211.792969 413.769531 C 211.820312 413.539062 211.953125 413.320312 212.183594 412.683594 C 213.199219 412.671875 214.378906 412.574219 215.53125 412.65625 C 230.171875 413.5625 244.800781 414.566406 259.457031 415.40625 C 269.753906 415.988281 280.046875 416.53125 290.339844 416.800781 C 314.695312 417.4375 339.0625 417.898438 363.433594 418.441406 C 363.757812 418.453125 364.070312 418.46875 364.394531 418.496094 C 364.988281 418.710938 365.667969 418.941406 366.425781 419.171875 C 364.300781 419.550781 362.1875 419.984375 360.046875 420.269531 C 349.25 421.71875 338.453125 423.261719 327.632812 424.496094 C 318.976562 425.472656 310.265625 426.203125 301.570312 426.757812 C 290.84375 427.449219 280.183594 428.789062 269.46875 429.628906 C 266.21875 429.886719 262.964844 430.210938 259.5 430.523438 C 259.039062 429.058594 258.714844 427.679688 258.15625 426.378906 C 255.300781 419.660156 247.523438 414.917969 240.277344 415.675781 C 238.300781 415.878906 236.214844 416.613281 234.535156 417.667969 C 231.136719 419.78125 230.675781 423.480469 233.519531 426.296875 C 235.183594 427.949219 237.445312 429.035156 239.507812 430.28125 C 240.601562 430.941406 241.820312 431.390625 243.148438 432.011719 C 235.402344 433.625 227.898438 434.9375 220.527344 436.78125 C 212.660156 438.757812 204.910156 441.222656 197.90625 445.53125 C 194.15625 447.835938 190.714844 450.542969 188.113281 454.105469 C 183.292969 460.714844 177.46875 466.742188 175.449219 475.058594 C 175.058594 476.710938 174.5 478.324219 174.269531 480.003906 C 174.027344 481.765625 174.09375 483.566406 174.636719 485.542969 C 176.085938 481.804688 177.535156 478.082031 179.09375 474.058594 C 179.609375 477.863281 179.742188 481.386719 180.597656 484.71875 C 183.089844 494.539062 188.710938 501.703125 198.816406 504.589844 C 208.746094 507.449219 220.394531 503.464844 226.394531 495.214844 Z M 288.351562 448.753906 C 290.328125 445.246094 292.117188 442.0625 293.902344 438.878906 C 292.875 445.855469 291.832031 447.65625 288.351562 448.753906 Z M 286.574219 447.523438 C 286.0625 442.875 288.6875 439.640625 291.480469 436.632812 C 289.855469 440.25 288.214844 443.878906 286.574219 447.523438 Z M 456.097656 438.894531 C 457.882812 442.078125 459.671875 445.261719 461.648438 448.769531 C 458.183594 447.65625 457.140625 445.855469 456.097656 438.894531 Z M 463.425781 447.523438 C 461.785156 443.890625 460.160156 440.261719 458.519531 436.632812 C 461.3125 439.625 463.9375 442.875 463.425781 447.523438 Z M 514.503906 422.667969 C 512.039062 426.5 507.757812 427.328125 503.558594 428.300781 C 507.054688 426.175781 510.5625 424.0625 514.054688 421.933594 C 514.207031 422.179688 514.355469 422.421875 514.503906 422.667969 Z M 511.308594 420.09375 C 505.632812 423.640625 500.144531 427.082031 494.6875 430.496094 C 494.714844 423.980469 505.835938 416.667969 511.308594 420.09375 Z M 550.601562 414.714844 C 555.695312 415.703125 559.828125 418.277344 562.902344 422.476562 C 566.179688 426.960938 569.292969 431.511719 570.351562 437.554688 C 568.984375 437.132812 567.871094 436.835938 566.773438 436.441406 C 563.363281 435.222656 559.894531 434.070312 556.546875 432.691406 C 548.71875 429.441406 543.300781 424.019531 541.242188 414.660156 C 546.660156 419.605469 550.925781 424.886719 557.386719 427.273438 C 554.570312 422.246094 550.167969 418.683594 545.929688 414.484375 C 547.757812 413.714844 549.207031 414.445312 550.601562 414.714844 Z M 542.691406 407.089844 C 542.460938 406.980469 542.230469 406.859375 542.015625 406.75 C 542.3125 405.300781 542.433594 403.796875 542.933594 402.429688 C 544.179688 398.976562 546.714844 396.550781 549.707031 394.585938 C 555.464844 390.808594 562.074219 389.425781 568.996094 387.476562 C 568.101562 392.257812 567.34375 396.523438 565.121094 400.304688 C 564.308594 401.683594 562.941406 403.160156 561.507812 403.664062 C 556.980469 405.261719 552.296875 406.425781 547.460938 407.414062 C 550.898438 403.691406 554.636719 400.359375 557.402344 395.238281 C 551.101562 398.230469 547.203125 403.054688 542.691406 407.089844 Z M 652.855469 431.621094 C 657.378906 431.984375 660.914062 434.003906 663.597656 437.609375 C 665.640625 440.355469 667.214844 443.351562 667.890625 446.738281 C 668.90625 451.789062 669.816406 456.867188 670.777344 461.960938 C 662.921875 462.964844 636.289062 455 626.46875 448.863281 C 626.359375 442.769531 622.757812 438.191406 619.210938 433.410156 C 629.828125 438.949219 640.476562 444.339844 650.351562 451.167969 C 650.554688 450.9375 650.757812 450.707031 650.945312 450.476562 C 650.148438 449.363281 649.539062 448.023438 648.507812 447.210938 C 645.675781 444.949219 642.832031 442.644531 639.730469 440.832031 C 629.691406 434.964844 619.535156 429.316406 609.414062 423.574219 C 608.414062 423.003906 607.480469 422.34375 606.734375 421.230469 C 607.859375 421.570312 608.980469 421.867188 610.078125 422.261719 C 620.007812 425.824219 630.140625 428.652344 640.582031 430.265625 C 644.660156 430.902344 648.765625 431.28125 652.855469 431.621094 Z M 644.242188 361.578125 C 635.367188 366.792969 627.785156 373.78125 619.398438 380.011719 C 620.660156 375.21875 620.660156 370.746094 617.503906 366.386719 C 628.90625 352.527344 644.28125 345.835938 661.375 340.8125 C 661.242188 344.105469 661.144531 346.855469 661.011719 349.589844 C 660.710938 355.808594 659.222656 361.765625 657.191406 367.617188 C 656.269531 370.300781 654.589844 371.816406 651.664062 372.683594 C 646.816406 374.105469 642.085938 376.042969 637.480469 378.144531 C 630.4375 381.355469 623.558594 384.890625 616.59375 388.273438 C 615.566406 388.777344 614.496094 389.210938 613.289062 389.414062 C 624.4375 381 635.585938 372.710938 644.242188 361.578125 Z M 591.886719 411.898438 C 592.59375 411.789062 593.308594 411.574219 594.015625 411.574219 C 602.980469 411.613281 611.949219 411.667969 620.914062 411.761719 C 630.371094 411.871094 639.824219 411.898438 649.265625 412.238281 C 652.367188 412.34375 655.484375 413.117188 658.519531 413.875 C 659.996094 414.242188 661.417969 415.136719 662.621094 416.109375 C 664.4375 417.574219 664.574219 419.714844 662.742188 421.070312 C 661.253906 422.164062 659.34375 423.101562 657.542969 423.277344 C 653.816406 423.65625 652.136719 421.433594 652.613281 417.074219 C 650.890625 417.871094 650.199219 419.089844 650.066406 420.714844 C 649.929688 422.546875 650.605469 424.019531 652.125 425.105469 C 656.566406 428.289062 664.722656 425.851562 666.699219 420.757812 C 667.703125 418.195312 666.984375 415.746094 664.503906 413.671875 C 661.824219 411.425781 658.613281 410.257812 655.226562 409.8125 C 651.394531 409.296875 647.519531 408.960938 643.644531 408.878906 C 636.382812 408.703125 629.109375 408.769531 621.808594 408.457031 C 628.8125 407.359375 635.816406 406.261719 642.820312 405.152344 C 645.214844 404.773438 647.613281 404.449219 649.984375 403.921875 C 651.570312 403.566406 653.289062 403.296875 654.265625 401.617188 C 639.824219 403.027344 625.519531 404.40625 611.21875 405.804688 C 611.175781 405.546875 611.136719 405.289062 611.082031 405.03125 C 616.121094 404.054688 621.117188 402.863281 626.183594 402.144531 C 635.179688 400.886719 644.242188 400.140625 653.003906 397.5 C 656.457031 396.457031 659.546875 394.964844 662 392.296875 C 663.707031 390.441406 664.652344 388.289062 664.652344 385.730469 C 664.640625 381.652344 662.148438 378.820312 658.125 378.359375 C 654.101562 377.898438 649.578125 380.90625 648.925781 384.46875 C 648.617188 386.164062 649.644531 388.140625 651.285156 388.980469 C 652.964844 389.847656 654.035156 389.546875 656.050781 387.558594 C 654.699219 386.839844 653.410156 386.148438 652.109375 385.457031 C 652.679688 383.058594 654.25 382.152344 656 381.609375 C 659.179688 380.621094 661.984375 383.113281 661.226562 386.378906 C 660.886719 387.828125 660.144531 389.496094 659.03125 390.386719 C 657.191406 391.863281 655.035156 393.164062 652.800781 393.910156 C 645.769531 396.253906 638.445312 397.203125 631.128906 398.324219 C 621.566406 399.789062 612.097656 401.859375 602.601562 403.730469 C 600.230469 404.191406 597.914062 404.976562 595.546875 405.449219 C 593.945312 405.777344 592.28125 405.816406 590.65625 405.992188 C 590.585938 405.777344 590.519531 405.558594 590.453125 405.34375 C 591.128906 404.9375 591.78125 404.488281 592.46875 404.136719 C 609.429688 395.804688 626.375 387.433594 643.375 379.1875 C 649.078125 376.421875 655.117188 374.742188 661.523438 374.40625 C 669.421875 373.984375 676.734375 375.882812 683.347656 380.027344 C 688.464844 383.238281 693.273438 386.949219 698.164062 390.523438 C 701.1875 392.730469 704.097656 395.089844 707.402344 397.648438 C 705.277344 399.707031 703.367188 401.65625 701.335938 403.488281 C 697.269531 407.128906 693.179688 410.734375 689.0625 414.308594 C 675.773438 425.824219 660.359375 429.832031 643.0625 427.378906 C 628.8125 425.363281 615.265625 420.867188 601.816406 415.988281 C 598.523438 414.8125 595.234375 413.589844 591.886719 411.898438 Z M 524.511719 400.738281 C 524.40625 400.996094 524.285156 401.25 524.175781 401.507812 C 523.0625 401.117188 521.96875 400.738281 520.855469 400.34375 C 517.375 399.097656 513.894531 397.839844 510.492188 396.347656 C 515.734375 396.132812 520.640625 396.890625 524.511719 400.738281 Z M 507.636719 397.40625 C 512.078125 399.597656 516.523438 401.78125 521.167969 404.070312 C 515.914062 406.34375 509.273438 403.675781 503.964844 397.09375 C 505.320312 396.210938 506.472656 396.824219 507.636719 397.40625 Z M 465.535156 392.90625 C 464.101562 396.578125 459.332031 400.304688 454.984375 401.128906 C 455.894531 399.070312 460.808594 395.238281 465.535156 392.90625 Z M 225.5 400.738281 C 229.359375 396.875 234.265625 396.132812 239.503906 396.347656 C 236.105469 397.839844 232.625 399.085938 229.144531 400.34375 C 228.046875 400.738281 226.9375 401.117188 225.824219 401.507812 C 225.730469 401.265625 225.609375 400.996094 225.5 400.738281 Z M 246.035156 397.09375 C 240.726562 403.664062 234.085938 406.332031 228.832031 404.070312 C 233.476562 401.78125 237.933594 399.597656 242.363281 397.40625 C 243.542969 396.824219 244.695312 396.210938 246.035156 397.09375 Z M 284.460938 392.90625 C 289.203125 395.238281 294.105469 399.058594 295.015625 401.128906 C 290.679688 400.304688 285.898438 396.578125 284.460938 392.90625 Z M 188.507812 403.664062 C 187.070312 403.148438 185.703125 401.671875 184.890625 400.304688 C 182.667969 396.539062 181.910156 392.257812 181.015625 387.476562 C 187.9375 389.425781 194.550781 390.808594 200.304688 394.585938 C 203.300781 396.550781 205.832031 398.976562 207.078125 402.429688 C 207.578125 403.796875 207.703125 405.316406 208 406.75 C 207.769531 406.859375 207.539062 406.980469 207.320312 407.089844 C 202.8125 403.066406 198.910156 398.230469 192.613281 395.25 C 195.386719 400.371094 199.113281 403.703125 202.554688 407.429688 C 197.71875 406.425781 193.046875 405.261719 188.507812 403.664062 Z M 92.808594 367.605469 C 90.792969 361.753906 89.289062 355.792969 88.988281 349.578125 C 88.855469 346.839844 88.757812 344.089844 88.625 340.800781 C 105.730469 345.835938 121.09375 352.515625 132.496094 366.371094 C 129.339844 370.746094 129.339844 375.203125 130.601562 380 C 122.214844 373.78125 114.644531 366.792969 105.757812 361.5625 C 114.414062 372.699219 125.5625 380.988281 136.695312 389.398438 C 135.492188 389.195312 134.421875 388.761719 133.390625 388.261719 C 126.429688 384.875 119.546875 381.339844 112.503906 378.128906 C 107.898438 376.03125 103.160156 374.105469 98.324219 372.671875 C 95.410156 371.816406 93.746094 370.285156 92.808594 367.605469 Z M 140.585938 423.574219 C 130.480469 429.316406 120.320312 434.964844 110.269531 440.832031 C 107.152344 442.644531 104.308594 444.949219 101.492188 447.210938 C 100.460938 448.039062 99.851562 449.378906 99.054688 450.476562 C 99.257812 450.707031 99.460938 450.9375 99.648438 451.167969 C 109.523438 444.339844 120.171875 438.933594 130.789062 433.410156 C 127.242188 438.191406 123.652344 442.769531 123.53125 448.863281 C 113.710938 454.984375 87.078125 462.949219 79.222656 461.960938 C 80.183594 456.867188 81.09375 451.789062 82.109375 446.738281 C 82.785156 443.363281 84.355469 440.355469 86.402344 437.609375 C 89.085938 434.003906 92.621094 432 97.144531 431.621094 C 101.234375 431.28125 105.339844 430.902344 109.402344 430.265625 C 119.847656 428.652344 129.976562 425.835938 139.90625 422.261719 C 141.003906 421.867188 142.140625 421.570312 143.253906 421.230469 C 142.519531 422.34375 141.585938 423.003906 140.585938 423.574219 Z M 148.195312 416.003906 C 134.746094 420.878906 121.199219 425.363281 106.949219 427.394531 C 89.667969 429.847656 74.253906 425.835938 60.949219 414.324219 C 56.832031 410.746094 52.730469 407.144531 48.664062 403.5 C 46.632812 401.671875 44.722656 399.722656 42.597656 397.664062 C 45.902344 395.101562 48.8125 392.746094 51.835938 390.539062 C 56.726562 386.960938 61.535156 383.25 66.652344 380.039062 C 73.265625 375.894531 80.578125 374 88.476562 374.417969 C 94.882812 374.757812 100.921875 376.4375 106.625 379.199219 C 123.625 387.449219 140.570312 395.820312 157.53125 404.152344 C 158.234375 404.488281 158.882812 404.949219 159.546875 405.355469 C 159.480469 405.574219 159.414062 405.789062 159.34375 406.007812 C 157.707031 405.828125 156.054688 405.789062 154.453125 405.464844 C 152.085938 404.992188 149.769531 404.21875 147.398438 403.742188 C 137.902344 401.875 128.433594 399.800781 118.871094 398.339844 C 111.554688 397.214844 104.226562 396.265625 97.199219 393.921875 C 94.964844 393.179688 92.808594 391.890625 90.96875 390.402344 C 89.855469 389.507812 89.113281 387.84375 88.773438 386.390625 C 88.015625 383.128906 90.820312 380.621094 94 381.625 C 95.75 382.167969 97.320312 383.085938 97.890625 385.472656 C 96.589844 386.164062 95.289062 386.851562 93.949219 387.570312 C 95.964844 389.5625 97.035156 389.847656 98.714844 388.992188 C 100.355469 388.152344 101.382812 386.175781 101.074219 384.484375 C 100.421875 380.921875 95.898438 377.914062 91.875 378.375 C 87.851562 378.835938 85.359375 381.664062 85.347656 385.742188 C 85.347656 388.300781 86.292969 390.457031 88 392.3125 C 90.453125 394.980469 93.542969 396.46875 96.996094 397.511719 C 105.757812 400.15625 114.820312 400.898438 123.816406 402.160156 C 128.882812 402.863281 133.894531 404.070312 138.917969 405.042969 C 138.878906 405.300781 138.835938 405.558594 138.78125 405.816406 C 124.480469 404.421875 110.1875 403.039062 95.734375 401.632812 C 96.710938 403.3125 98.445312 403.582031 100.015625 403.933594 C 102.371094 404.460938 104.785156 404.785156 107.179688 405.167969 C 114.183594 406.277344 121.1875 407.375 128.191406 408.472656 C 120.890625 408.78125 113.617188 408.714844 106.355469 408.890625 C 102.496094 408.984375 98.605469 409.324219 94.773438 409.824219 C 91.386719 410.273438 88.175781 411.4375 85.496094 413.6875 C 83.015625 415.773438 82.3125 418.210938 83.300781 420.769531 C 85.277344 425.863281 93.433594 428.289062 97.875 425.117188 C 99.378906 424.035156 100.070312 422.558594 99.933594 420.730469 C 99.8125 419.105469 99.109375 417.871094 97.386719 417.085938 C 97.863281 421.449219 96.167969 423.667969 92.457031 423.289062 C 90.65625 423.113281 88.746094 422.179688 87.257812 421.082031 C 85.425781 419.726562 85.550781 417.585938 87.378906 416.125 C 88.582031 415.164062 90.019531 414.269531 91.480469 413.890625 C 94.515625 413.117188 97.632812 412.359375 100.734375 412.25 C 110.175781 411.925781 119.628906 411.886719 129.085938 411.777344 C 138.050781 411.683594 147.019531 411.628906 155.984375 411.585938 C 156.691406 411.585938 157.40625 411.804688 158.113281 411.910156 C 154.78125 413.589844 151.488281 414.8125 148.195312 416.003906 Z M 204.070312 414.5 C 199.84375 418.710938 195.429688 422.261719 192.613281 427.285156 C 199.074219 424.902344 203.339844 419.621094 208.757812 414.675781 C 206.710938 424.035156 201.292969 429.453125 193.453125 432.703125 C 190.105469 434.097656 186.636719 435.238281 183.226562 436.457031 C 182.140625 436.847656 181.015625 437.148438 179.648438 437.566406 C 180.707031 431.527344 183.820312 426.960938 187.097656 422.492188 C 190.171875 418.292969 194.304688 415.71875 199.398438 414.730469 C 200.808594 414.445312 202.257812 413.714844 204.070312 414.5 Z M 235.511719 422.667969 C 235.660156 422.421875 235.808594 422.179688 235.957031 421.933594 C 239.453125 424.0625 242.960938 426.175781 246.453125 428.300781 C 242.253906 427.3125 237.960938 426.488281 235.511719 422.667969 Z M 238.707031 420.09375 C 244.179688 416.679688 255.300781 423.996094 255.328125 430.496094 C 249.867188 427.082031 244.382812 423.640625 238.707031 420.09375 Z M 238.707031 420.09375 " fill-opacity="1" fill-rule="nonzero"/></g><g transform="matrix(1, 0, 0, 1, 241, 242)"><g clip-path="url(#b762b88d93)"><g fill="#9f0b0b" fill-opacity="1"><g transform="translate(1.192368, 92.524192)"><g><path d="M 49.765625 -47.234375 L 41.40625 -47.234375 L 41.40625 -49.46875 C 41.40625 -54.007812 40.351562 -57.671875 38.25 -60.453125 C 36.144531 -63.242188 33.035156 -64.640625 28.921875 -64.640625 C 24.804688 -64.640625 21.691406 -63.242188 19.578125 -60.453125 C 17.472656 -57.671875 16.421875 -54.007812 16.421875 -49.46875 L 16.421875 -17.6875 C 16.421875 -13.09375 17.472656 -9.398438 19.578125 -6.609375 C 21.691406 -3.828125 24.804688 -2.4375 28.921875 -2.4375 C 33.035156 -2.4375 36.144531 -3.828125 38.25 -6.609375 C 40.351562 -9.398438 41.40625 -13.09375 41.40625 -17.6875 L 41.40625 -19.828125 L 49.765625 -19.828125 L 49.765625 -18.859375 C 49.765625 -15.359375 49.082031 -12.265625 47.71875 -9.578125 C 46.363281 -6.890625 44.582031 -4.800781 42.375 -3.3125 C 38.101562 -0.457031 33.632812 0.96875 28.96875 0.96875 C 21.90625 0.96875 16.28125 -1.457031 12.09375 -6.3125 C 7.914062 -11.175781 5.828125 -17.300781 5.828125 -24.6875 L 5.828125 -42.375 C 5.828125 -49.769531 7.914062 -55.894531 12.09375 -60.75 C 16.28125 -65.613281 21.90625 -68.046875 28.96875 -68.046875 C 34.476562 -68.046875 39.320312 -66.328125 43.5 -62.890625 C 47.675781 -59.453125 49.765625 -54.65625 49.765625 -48.5 Z M 49.765625 -47.234375 "/></g></g></g><g fill="#9f0b0b" fill-opacity="1"><g transform="translate(55.804944, 92.524192)"><g><path d="M 35.578125 -15.265625 C 35.578125 -10.535156 34.234375 -6.644531 31.546875 -3.59375 C 28.859375 -0.550781 25.082031 0.96875 20.21875 0.96875 C 15.351562 0.96875 11.578125 -0.550781 8.890625 -3.59375 C 6.203125 -6.644531 4.859375 -10.535156 4.859375 -15.265625 L 4.859375 -30.515625 C 4.859375 -35.253906 6.203125 -39.128906 8.890625 -42.140625 C 11.578125 -45.148438 15.351562 -46.65625 20.21875 -46.65625 C 25.082031 -46.65625 28.859375 -45.148438 31.546875 -42.140625 C 34.234375 -39.128906 35.578125 -35.253906 35.578125 -30.515625 Z M 27.125 -11.46875 L 27.125 -34.3125 C 27.125 -40.59375 24.804688 -43.734375 20.171875 -43.734375 C 15.535156 -43.734375 13.21875 -40.59375 13.21875 -34.3125 L 13.21875 -11.46875 C 13.21875 -5.113281 15.535156 -1.9375 20.171875 -1.9375 C 24.804688 -1.9375 27.125 -5.113281 27.125 -11.46875 Z M 27.125 -11.46875 "/></g></g></g><g fill="#9f0b0b" fill-opacity="1"><g transform="translate(96.229907, 92.524192)"><g><path d="M 38.6875 -3.890625 C 39.914062 -3.890625 40.921875 -4.925781 41.703125 -7 L 43.546875 -6.703125 C 43.546875 -6.179688 43.367188 -5.382812 43.015625 -4.3125 C 42.660156 -3.25 42.238281 -2.378906 41.75 -1.703125 C 41.257812 -1.023438 40.507812 -0.410156 39.5 0.140625 C 38.5 0.691406 37.351562 0.96875 36.0625 0.96875 C 30.6875 0.96875 28 -2.238281 28 -8.65625 L 28 -34.609375 C 28 -40.691406 26.085938 -43.734375 22.265625 -43.734375 C 19.734375 -43.734375 17.753906 -42.597656 16.328125 -40.328125 C 14.898438 -38.066406 14.1875 -35.445312 14.1875 -32.46875 L 14.1875 0 L 5.828125 0 L 5.828125 -45.6875 L 14.1875 -45.6875 L 14.1875 -40.046875 C 16.070312 -44.453125 19.117188 -46.65625 23.328125 -46.65625 C 27.535156 -46.65625 30.773438 -45.273438 33.046875 -42.515625 C 35.316406 -39.765625 36.453125 -36.023438 36.453125 -31.296875 L 36.453125 -7.1875 C 36.453125 -4.988281 37.195312 -3.890625 38.6875 -3.890625 Z M 38.6875 -3.890625 "/></g></g></g><g fill="#9f0b0b" fill-opacity="1"><g transform="translate(140.25035, 92.524192)"><g><path d="M 17.40625 -3.890625 C 18.632812 -3.890625 19.632812 -4.925781 20.40625 -7 L 22.265625 -6.703125 C 22.265625 -6.117188 22.066406 -5.304688 21.671875 -4.265625 C 21.285156 -3.234375 20.847656 -2.378906 20.359375 -1.703125 C 19.878906 -1.023438 19.132812 -0.410156 18.125 0.140625 C 17.125 0.691406 15.972656 0.96875 14.671875 0.96875 C 9.359375 0.96875 6.703125 -2.238281 6.703125 -8.65625 L 6.703125 -42.859375 L 2.4375 -42.859375 L 2.4375 -45.6875 L 6.703125 -45.6875 L 6.703125 -62.203125 L 15.15625 -62.203125 L 15.15625 -45.6875 L 22.15625 -45.6875 L 22.15625 -42.859375 L 15.15625 -42.859375 L 15.15625 -7 C 15.15625 -4.925781 15.90625 -3.890625 17.40625 -3.890625 Z M 17.40625 -3.890625 "/></g></g></g><g fill="#9f0b0b" fill-opacity="1"><g transform="translate(164.932911, 92.524192)"><g><path d="M 35.578125 -7.1875 C 35.578125 -4.988281 36.289062 -3.890625 37.71875 -3.890625 C 39.144531 -3.890625 40.179688 -4.925781 40.828125 -7 L 42.671875 -6.703125 C 42.671875 -6.179688 42.492188 -5.382812 42.140625 -4.3125 C 41.785156 -3.25 41.363281 -2.378906 40.875 -1.703125 C 40.382812 -1.023438 39.617188 -0.410156 38.578125 0.140625 C 37.546875 0.691406 36.382812 0.96875 35.09375 0.96875 C 30.550781 0.96875 27.957031 -1.425781 27.3125 -6.21875 C 25.4375 -1.425781 22.195312 0.96875 17.59375 0.96875 C 13.707031 0.96875 10.613281 -0.421875 8.3125 -3.203125 C 6.007812 -5.992188 4.859375 -9.753906 4.859375 -14.484375 L 4.859375 -31.296875 C 4.859375 -35.960938 6.007812 -39.6875 8.3125 -42.46875 C 10.613281 -45.257812 13.867188 -46.65625 18.078125 -46.65625 C 22.285156 -46.65625 25.300781 -44.453125 27.125 -40.046875 L 27.125 -45.6875 L 35.578125 -45.6875 Z M 27.125 -13.3125 L 27.125 -32.46875 C 27.125 -35.445312 26.410156 -38.066406 24.984375 -40.328125 C 23.554688 -42.597656 21.578125 -43.734375 19.046875 -43.734375 C 15.222656 -43.734375 13.3125 -40.691406 13.3125 -34.609375 L 13.3125 -11.171875 C 13.3125 -5.148438 15.191406 -2.140625 18.953125 -2.140625 C 21.609375 -2.140625 23.632812 -3.222656 25.03125 -5.390625 C 26.425781 -7.566406 27.125 -10.207031 27.125 -13.3125 Z M 27.125 -13.3125 "/></g></g></g><g fill="#9f0b0b" fill-opacity="1"><g transform="translate(208.078769, 92.524192)"><g><path d="M 30.625 -11.859375 C 30.625 -9.460938 29.878906 -6.867188 28.390625 -4.078125 C 27.609375 -2.585938 26.421875 -1.375 24.828125 -0.4375 C 23.242188 0.5 21.351562 0.96875 19.15625 0.96875 C 14.675781 0.96875 11.171875 -0.519531 8.640625 -3.5 C 6.117188 -6.476562 4.859375 -10.398438 4.859375 -15.265625 L 4.859375 -30.421875 C 4.859375 -35.347656 6.140625 -39.285156 8.703125 -42.234375 C 11.265625 -45.179688 14.710938 -46.65625 19.046875 -46.65625 C 21.441406 -46.65625 23.484375 -46.117188 25.171875 -45.046875 C 26.859375 -43.984375 28.054688 -42.640625 28.765625 -41.015625 C 30.003906 -38.296875 30.625 -35.929688 30.625 -33.921875 L 28.09375 -33.921875 L 28.09375 -34.703125 C 28.09375 -37.234375 27.085938 -39.566406 25.078125 -41.703125 C 23.847656 -43.054688 22.257812 -43.734375 20.3125 -43.734375 C 18.375 -43.734375 16.722656 -42.921875 15.359375 -41.296875 C 13.992188 -39.679688 13.3125 -37.320312 13.3125 -34.21875 L 13.3125 -11.46875 C 13.3125 -8.550781 13.957031 -6.234375 15.25 -4.515625 C 16.550781 -2.796875 18.414062 -1.9375 20.84375 -1.9375 C 23.28125 -1.9375 25.097656 -2.988281 26.296875 -5.09375 C 27.492188 -7.207031 28.09375 -9.171875 28.09375 -10.984375 L 28.09375 -11.859375 Z M 30.625 -11.859375 "/></g></g></g><g fill="#9f0b0b" fill-opacity="1"><g transform="translate(242.090168, 92.524192)"><g><path d="M 17.40625 -3.890625 C 18.632812 -3.890625 19.632812 -4.925781 20.40625 -7 L 22.265625 -6.703125 C 22.265625 -6.117188 22.066406 -5.304688 21.671875 -4.265625 C 21.285156 -3.234375 20.847656 -2.378906 20.359375 -1.703125 C 19.878906 -1.023438 19.132812 -0.410156 18.125 0.140625 C 17.125 0.691406 15.972656 0.96875 14.671875 0.96875 C 9.359375 0.96875 6.703125 -2.238281 6.703125 -8.65625 L 6.703125 -42.859375 L 2.4375 -42.859375 L 2.4375 -45.6875 L 6.703125 -45.6875 L 6.703125 -62.203125 L 15.15625 -62.203125 L 15.15625 -45.6875 L 22.15625 -45.6875 L 22.15625 -42.859375 L 15.15625 -42.859375 L 15.15625 -7 C 15.15625 -4.925781 15.90625 -3.890625 17.40625 -3.890625 Z M 17.40625 -3.890625 "/></g></g></g></g></g></svg>