<svg xmlns="http://www.w3.org/2000/svg" xmlns:xlink="http://www.w3.org/1999/xlink" width="1920" zoomAndPan="magnify" viewBox="0 0 1440 809.999993" height="1080" preserveAspectRatio="xMidYMid meet" version="1.0"><defs><g/><clipPath id="c8e2e8720f"><rect x="0" width="565" y="0" height="242"/></clipPath></defs><path fill="#9f0b0b" d="M 405.136719 659.707031 C 411.910156 650.4375 413.429688 640.164062 408.179688 629.945312 C 403.128906 620.101562 396.066406 611.953125 383.726562 611.265625 C 383.007812 611.234375 382.292969 611.4375 380.542969 611.664062 C 382.148438 612.8125 382.980469 613.675781 384.015625 614.132812 C 392.566406 617.980469 397.1875 625.269531 401.03125 633.277344 C 404.878906 641.339844 403.53125 648.800781 398.105469 655.574219 C 377.84375 680.945312 335.425781 680.628906 319.640625 648.171875 C 309.914062 628.167969 310.199219 608.019531 321.59375 588.503906 C 325.8125 581.273438 330.863281 574.671875 337.808594 569.621094 C 335.339844 579.351562 333.992188 588.820312 337.519531 600.1875 C 338.753906 595.996094 339.585938 593.328125 340.304688 590.65625 C 341.050781 587.929688 341.855469 585.234375 342.398438 582.449219 C 345.558594 566.003906 355.746094 555.902344 371.070312 550.335938 C 398.507812 540.347656 427.035156 535.355469 455.933594 532.285156 C 481.964844 529.527344 508.050781 527.230469 534.113281 524.765625 C 535.605469 524.621094 537.125 524.851562 539.390625 524.964844 C 538.015625 527.03125 536.867188 528.609375 535.832031 530.273438 C 532.703125 535.269531 529.347656 540.148438 526.621094 545.371094 C 525.101562 548.238281 524.324219 551.625 523.808594 554.898438 C 522.917969 560.609375 524.296875 565.6875 529.664062 568.847656 C 534.226562 571.515625 541.054688 571 545.304688 566.433594 C 549.035156 562.390625 552.535156 557.511719 554.199219 552.34375 C 556.582031 545.140625 557.242188 537.335938 558.503906 529.785156 C 558.851562 527.804688 558.707031 525.738281 558.820312 523.011719 C 580.375 521.121094 601.554688 519.65625 622.648438 517.273438 C 644.058594 514.835938 665.351562 511.476562 686.707031 508.519531 C 699.191406 506.796875 710.527344 504.902344 720.027344 502.980469 C 729.496094 504.902344 740.832031 506.796875 753.34375 508.519531 C 774.699219 511.476562 795.992188 514.835938 817.402344 517.273438 C 838.46875 519.65625 859.648438 521.121094 881.230469 523.011719 C 881.34375 525.738281 881.199219 527.804688 881.546875 529.785156 C 882.808594 537.363281 883.46875 545.140625 885.851562 552.34375 C 887.542969 557.480469 891.015625 562.390625 894.746094 566.4375 C 898.964844 571 905.824219 571.515625 910.386719 568.847656 C 915.753906 565.6875 917.160156 560.609375 916.242188 554.898438 C 915.726562 551.65625 914.953125 548.269531 913.429688 545.371094 C 910.703125 540.175781 907.347656 535.296875 904.21875 530.273438 C 903.183594 528.609375 902.066406 527.03125 900.660156 524.964844 C 902.925781 524.878906 904.449219 524.648438 905.941406 524.765625 C 932 527.230469 958.085938 529.527344 984.117188 532.285156 C 1013.015625 535.324219 1041.542969 540.347656 1068.980469 550.335938 C 1084.335938 555.902344 1094.496094 566.003906 1097.652344 582.449219 C 1098.167969 585.203125 1099 587.929688 1099.746094 590.65625 C 1100.492188 593.328125 1101.296875 595.996094 1102.53125 600.1875 C 1106.058594 588.820312 1104.710938 579.351562 1102.242188 569.621094 C 1109.1875 574.699219 1114.238281 581.273438 1118.457031 588.503906 C 1129.851562 608.019531 1130.140625 628.167969 1120.410156 648.171875 C 1104.625 680.628906 1062.207031 680.945312 1041.945312 655.574219 C 1036.523438 648.800781 1035.171875 641.3125 1039.019531 633.277344 C 1042.835938 625.269531 1047.484375 617.980469 1056.039062 614.132812 C 1057.070312 613.675781 1057.902344 612.8125 1059.511719 611.664062 C 1057.757812 611.4375 1057.042969 611.207031 1056.324219 611.265625 C 1043.984375 611.980469 1036.921875 620.101562 1031.871094 629.945312 C 1026.621094 640.191406 1028.171875 650.4375 1034.914062 659.707031 C 1047.628906 677.15625 1072.308594 685.625 1093.402344 679.597656 C 1114.8125 673.484375 1126.695312 658.300781 1132.003906 637.496094 C 1133.8125 630.433594 1134.101562 622.972656 1135.191406 614.910156 C 1138.492188 623.433594 1141.5625 631.324219 1144.632812 639.246094 C 1145.78125 635.054688 1145.925781 631.238281 1145.40625 627.507812 C 1144.917969 623.976562 1143.742188 620.535156 1142.910156 617.03125 C 1138.632812 599.410156 1126.292969 586.640625 1116.078125 572.632812 C 1110.566406 565.085938 1103.277344 559.347656 1095.328125 554.46875 C 1080.488281 545.339844 1064.074219 540.117188 1047.398438 535.929688 C 1031.785156 532.023438 1015.886719 529.242188 999.472656 525.824219 C 1002.253906 524.503906 1004.867188 523.558594 1007.191406 522.152344 C 1011.554688 519.511719 1016.316406 517.214844 1019.875 513.714844 C 1025.902344 507.746094 1024.898438 499.910156 1017.722656 495.433594 C 1014.164062 493.195312 1009.746094 491.671875 1005.554688 491.214844 C 990.199219 489.578125 973.726562 499.652344 967.671875 513.886719 C 966.496094 516.613281 965.808594 519.570312 964.832031 522.667969 C 957.484375 522.007812 950.597656 521.320312 943.707031 520.773438 C 921.007812 518.996094 898.421875 516.183594 875.691406 514.691406 C 857.265625 513.484375 838.839844 511.964844 820.472656 509.898438 C 797.542969 507.285156 774.667969 504.015625 751.796875 500.945312 C 747.261719 500.339844 742.785156 499.421875 738.277344 498.617188 C 739.886719 498.132812 741.292969 497.671875 742.582031 497.183594 C 743.273438 497.125 743.933594 497.097656 744.621094 497.070312 C 796.25 495.921875 847.851562 494.945312 899.453125 493.597656 C 921.292969 493.023438 943.105469 491.902344 964.886719 490.640625 C 995.914062 488.859375 1026.9375 486.738281 1057.960938 484.816406 C 1060.429688 484.671875 1062.898438 484.84375 1065.050781 484.871094 C 1065.535156 486.191406 1065.824219 486.652344 1065.882812 487.167969 C 1068.523438 512.683594 1083.300781 528.265625 1106.835938 535.8125 C 1117.023438 539.085938 1127.8125 540.40625 1138.375 542.472656 C 1139.464844 542.671875 1140.699219 542.128906 1142.765625 541.753906 C 1134.214844 519.082031 1126.894531 496.496094 1101.699219 484.527344 C 1104.253906 484.183594 1105.171875 483.980469 1106.058594 483.953125 C 1121.300781 483.609375 1136.394531 485.789062 1151.003906 489.433594 C 1172.039062 494.6875 1191.441406 504.242188 1209.519531 516.328125 C 1219.652344 523.070312 1228.722656 531.078125 1235.894531 540.894531 C 1239.023438 545.167969 1241.78125 549.992188 1243.5 554.984375 C 1247.492188 566.433594 1240.601562 578.058594 1228.722656 580.984375 C 1219.625 583.226562 1210.925781 581.933594 1202.375 578.433594 C 1194.023438 574.988281 1189.230469 569.191406 1188.371094 559.976562 C 1187.882812 554.871094 1189 550.566406 1193.507812 545.945312 C 1187.105469 547.0625 1184.609375 550.304688 1183.117188 554.582031 C 1179.730469 564.054688 1183.175781 575.761719 1191.757812 580.957031 C 1197.382812 584.34375 1203.609375 587.355469 1209.980469 588.792969 C 1227.34375 592.695312 1243.5 587.902344 1251.453125 570.828125 C 1251.625 570.480469 1252.253906 570.367188 1252.972656 569.996094 C 1271.226562 581.214844 1291.773438 586.925781 1312.464844 592.035156 C 1322.394531 594.503906 1332.527344 596.542969 1342.6875 597.6875 C 1351.753906 598.722656 1354.96875 594.617188 1353.476562 585.691406 C 1352.242188 578.347656 1350.921875 571.027344 1349.546875 563.710938 C 1346.648438 548.441406 1340.707031 534.808594 1328.308594 524.679688 C 1328.078125 524.476562 1328.25 523.757812 1328.222656 523.070312 C 1343.949219 520.804688 1358.472656 515.035156 1371.902344 506.742188 C 1390.183594 495.460938 1405.625 480.769531 1420.230469 465.15625 C 1424.222656 460.878906 1427.4375 455.769531 1433.175781 453.359375 C 1433.863281 453.074219 1434.121094 451.722656 1434.382812 451.238281 C 1427.089844 445.984375 1420.144531 441.046875 1413.230469 435.996094 C 1402.238281 427.988281 1391.476562 419.609375 1380.226562 411.976562 C 1366.792969 402.878906 1351.8125 397.769531 1335.570312 396.738281 C 1331.550781 396.476562 1327.503906 396.476562 1323.628906 396.390625 C 1323.457031 395.703125 1323.285156 395.417969 1323.34375 395.1875 C 1323.714844 393.980469 1324.0625 392.746094 1324.546875 391.597656 C 1331.722656 373.949219 1334.105469 355.4375 1334.277344 336.582031 C 1334.363281 326.679688 1330.832031 324.011719 1321.390625 326.453125 C 1298.574219 332.335938 1277.339844 341.949219 1257.679688 354.835938 C 1247.777344 361.320312 1238.535156 368.726562 1231.535156 378.511719 C 1230.84375 379.488281 1229.839844 380.234375 1229.46875 380.578125 C 1223.414062 378.109375 1218.160156 374.667969 1212.535156 373.890625 C 1195.402344 371.539062 1180.363281 376.933594 1168.941406 389.992188 C 1163.546875 396.164062 1161.738281 404.167969 1164.433594 412.433594 C 1166.386719 418.40625 1170.375 420.585938 1177.835938 419.636719 C 1177.003906 418.433594 1176.402344 417.398438 1175.65625 416.453125 C 1169.484375 408.648438 1169.800781 399.691406 1176.746094 393.003906 C 1185.097656 384.96875 1195.34375 381.007812 1206.765625 381.179688 C 1216.984375 381.355469 1225.277344 386.203125 1229.582031 395.644531 C 1233.628906 404.457031 1231.015625 412.953125 1225.019531 420.011719 C 1220.742188 425.035156 1215.808594 429.742188 1210.496094 433.644531 C 1200.164062 441.25 1189.175781 447.964844 1178.757812 455.425781 C 1166.128906 464.46875 1153.15625 472.558594 1137.257812 474.28125 C 1136.769531 474.339844 1136.28125 474.597656 1135.792969 474.742188 C 1127.613281 477.179688 1119.320312 475.6875 1111.167969 476.203125 C 1116.507812 472.761719 1122.648438 470.464844 1126.378906 466.101562 C 1136.480469 454.277344 1137.601562 439.757812 1136.539062 423.855469 C 1131.863281 424.660156 1127.84375 425.0625 1123.96875 426.097656 C 1110.566406 429.65625 1097.105469 433.070312 1085.484375 441.164062 C 1076.5 447.390625 1069.871094 455.28125 1067.746094 466.273438 C 1067.117188 469.460938 1067.058594 472.789062 1066.714844 476.378906 C 1065.308594 476.578125 1064.074219 476.835938 1062.839844 476.921875 C 1025.933594 479.21875 989.023438 482.089844 952.089844 483.667969 C 898.707031 485.960938 845.296875 487.339844 791.890625 489.0625 C 790.136719 489.121094 788.359375 488.859375 786.035156 488.71875 C 851.898438 476.175781 917.074219 463.75 982.425781 451.292969 C 988.996094 460.964844 997.40625 468.371094 1007.878906 473.277344 C 1018.039062 478.070312 1028.34375 478.183594 1038.1875 472.589844 C 1047.285156 467.421875 1048.144531 457.609375 1039.910156 451.09375 C 1036.179688 448.136719 1031.441406 446.414062 1026.992188 444.464844 C 1024.441406 443.316406 1021.570312 442.828125 1018.554688 441.9375 C 1019.417969 441.046875 1019.703125 440.53125 1020.136719 440.359375 C 1022.773438 439.382812 1025.414062 438.378906 1028.113281 437.546875 C 1048.691406 431.234375 1067.660156 421.789062 1084.679688 408.5625 C 1100.347656 396.390625 1113.234375 381.8125 1121.183594 363.503906 C 1128.933594 345.59375 1135.59375 327.285156 1135.90625 307.339844 C 1135.964844 302.546875 1136.539062 297.753906 1136.855469 292.929688 C 1132.035156 302.085938 1131.199219 312.21875 1127.210938 322.75 C 1126.207031 320.453125 1125.863281 319.792969 1125.632812 319.074219 C 1119.320312 299.789062 1106.03125 287.679688 1086.316406 284.089844 C 1062.207031 279.671875 1040.941406 286.789062 1023.75 304.296875 C 1012.84375 315.402344 1007.679688 329.0625 1009.144531 344.992188 C 1010.636719 361.492188 1019.875 368.839844 1033.394531 373.375 C 1037.296875 374.695312 1041.660156 375.15625 1045.417969 371.28125 C 1028.371094 370.621094 1016.089844 357.304688 1016.261719 340.3125 C 1016.402344 327.742188 1021.140625 317.238281 1029.804688 308.570312 C 1044.183594 294.195312 1061.976562 288.710938 1081.925781 290.636719 C 1099.863281 292.355469 1115.246094 306.304688 1119.175781 323.78125 C 1121.414062 333.769531 1120.582031 343.785156 1117.253906 353.402344 C 1114.726562 360.691406 1111.601562 367.777344 1105.832031 374.378906 C 1106.03125 367.808594 1106.175781 362.296875 1106.347656 356.785156 C 1105.714844 356.644531 1105.113281 356.527344 1104.480469 356.386719 C 1102.875 361.234375 1100.953125 366.027344 1099.71875 370.964844 C 1095.039062 389.617188 1083.015625 401.875 1066.972656 411.746094 C 1047.429688 423.769531 1026.019531 430.917969 1004.292969 436.800781 C 981.304688 443.027344 957.742188 447.277344 934.4375 452.296875 C 927.808594 453.734375 921.121094 454.910156 913.488281 456.402344 C 915.984375 452.355469 918.109375 449.457031 919.628906 446.300781 C 921.609375 442.167969 921.8125 437.804688 918.882812 433.902344 C 915.898438 429.941406 911.621094 429.195312 907.117188 430.085938 C 904.648438 430.574219 902.125 431.460938 899.972656 432.753906 C 890.929688 438.148438 885.335938 446.269531 882.867188 456.429688 C 881.316406 462.800781 881.488281 462.832031 875.375 463.921875 C 847.59375 468.972656 819.84375 474.109375 792.0625 479.132812 C 768.210938 483.4375 744.277344 487.082031 720.054688 488.316406 C 695.859375 487.082031 671.898438 483.4375 648.046875 479.132812 C 620.265625 474.136719 592.515625 469 564.734375 463.921875 C 558.59375 462.800781 558.792969 462.800781 557.242188 456.429688 C 554.773438 446.273438 549.179688 438.179688 540.136719 432.753906 C 537.984375 431.460938 535.460938 430.574219 532.992188 430.085938 C 528.457031 429.195312 524.183594 429.941406 521.226562 433.902344 C 518.296875 437.804688 518.5 442.167969 520.480469 446.300781 C 522 449.457031 524.125 452.355469 526.621094 456.402344 C 518.988281 454.910156 512.300781 453.734375 505.671875 452.296875 C 482.339844 447.246094 458.804688 443.027344 435.816406 436.800781 C 414.089844 430.917969 392.679688 423.769531 373.136719 411.746094 C 357.09375 401.875 345.097656 389.617188 340.390625 370.964844 C 339.15625 366.027344 337.234375 361.234375 335.628906 356.386719 C 334.996094 356.527344 334.394531 356.644531 333.761719 356.785156 C 333.933594 362.296875 334.078125 367.777344 334.277344 374.378906 C 328.480469 367.777344 325.351562 360.691406 322.855469 353.402344 C 319.527344 343.757812 318.695312 333.742188 320.933594 323.78125 C 324.863281 306.277344 340.246094 292.355469 358.183594 290.636719 C 378.101562 288.710938 395.925781 294.195312 410.304688 308.570312 C 418.941406 317.210938 423.707031 327.742188 423.847656 340.3125 C 424.019531 357.304688 411.765625 370.621094 394.691406 371.28125 C 398.421875 375.15625 402.8125 374.695312 406.714844 373.375 C 420.234375 368.839844 429.472656 361.492188 430.964844 344.992188 C 432.429688 329.0625 427.265625 315.402344 416.359375 304.296875 C 399.195312 286.789062 377.929688 279.671875 353.792969 284.089844 C 334.078125 287.707031 320.816406 299.789062 314.476562 319.074219 C 314.246094 319.792969 313.875 320.453125 312.898438 322.75 C 308.90625 312.21875 308.074219 302.085938 303.253906 292.929688 C 303.597656 297.722656 304.144531 302.515625 304.203125 307.339844 C 304.488281 327.285156 311.148438 345.59375 318.925781 363.503906 C 326.84375 381.785156 339.761719 396.363281 355.429688 408.5625 C 372.449219 421.789062 391.417969 431.234375 411.996094 437.546875 C 414.695312 438.378906 417.335938 439.355469 419.972656 440.359375 C 420.40625 440.53125 420.691406 441.046875 421.554688 441.9375 C 418.539062 442.828125 415.699219 443.316406 413.117188 444.464844 C 408.695312 446.414062 403.929688 448.136719 400.199219 451.09375 C 391.964844 457.609375 392.796875 467.421875 401.921875 472.589844 C 411.765625 478.15625 422.070312 478.042969 432.230469 473.277344 C 442.675781 468.371094 451.113281 460.964844 457.683594 451.292969 C 523.035156 463.75 588.238281 476.175781 654.074219 488.71875 C 651.75 488.859375 649.972656 489.121094 648.21875 489.0625 C 594.8125 487.3125 541.402344 485.933594 488.019531 483.667969 C 451.085938 482.089844 414.175781 479.21875 377.269531 476.921875 C 376.035156 476.835938 374.800781 476.578125 373.394531 476.378906 C 373.050781 472.761719 372.992188 469.460938 372.363281 466.273438 C 370.210938 455.28125 363.582031 447.390625 354.625 441.164062 C 342.972656 433.097656 329.515625 429.65625 316.140625 426.097656 C 312.292969 425.0625 308.246094 424.660156 303.570312 423.855469 C 302.507812 439.757812 303.628906 454.277344 313.730469 466.101562 C 317.460938 470.464844 323.574219 472.761719 328.941406 476.203125 C 320.789062 475.6875 312.496094 477.179688 304.316406 474.742188 C 303.828125 474.597656 303.339844 474.339844 302.851562 474.28125 C 286.953125 472.558594 273.980469 464.46875 261.351562 455.425781 C 250.90625 447.964844 239.945312 441.21875 229.613281 433.644531 C 224.300781 429.742188 219.367188 425.0625 215.089844 420.011719 C 209.09375 412.953125 206.507812 404.457031 210.527344 395.644531 C 214.859375 386.203125 223.125 381.355469 233.34375 381.179688 C 244.765625 381.007812 255.011719 384.941406 263.363281 393.003906 C 270.308594 399.691406 270.625 408.675781 264.453125 416.453125 C 263.707031 417.398438 263.074219 418.433594 262.273438 419.636719 C 269.703125 420.585938 273.722656 418.40625 275.675781 412.433594 C 278.371094 404.140625 276.59375 396.164062 271.167969 389.992188 C 259.746094 376.933594 244.707031 371.539062 227.574219 373.890625 C 221.949219 374.667969 216.695312 378.109375 210.640625 380.578125 C 210.296875 380.234375 209.292969 379.488281 208.574219 378.511719 C 201.574219 368.726562 192.332031 361.320312 182.429688 354.835938 C 162.742188 341.949219 141.535156 332.335938 118.71875 326.453125 C 109.277344 324.011719 105.746094 326.710938 105.832031 336.582031 C 106.03125 355.4375 108.414062 373.949219 115.5625 391.597656 C 116.046875 392.777344 116.394531 393.980469 116.765625 395.1875 C 116.824219 395.386719 116.652344 395.675781 116.480469 396.390625 C 112.605469 396.507812 108.558594 396.476562 104.539062 396.738281 C 88.296875 397.796875 73.285156 402.90625 59.882812 411.976562 C 48.632812 419.609375 37.871094 427.988281 26.878906 435.996094 C 19.90625 441.019531 12.960938 445.984375 5.671875 451.238281 C 5.929688 451.722656 6.1875 453.074219 6.875 453.359375 C 12.617188 455.769531 15.828125 460.878906 19.820312 465.15625 C 34.457031 480.738281 49.894531 495.433594 68.175781 506.710938 C 81.609375 515.007812 96.128906 520.773438 111.859375 523.042969 C 111.828125 523.757812 112 524.449219 111.773438 524.648438 C 99.402344 534.78125 93.433594 548.414062 90.535156 563.679688 C 89.15625 571 87.835938 578.316406 86.601562 585.664062 C 85.109375 594.589844 88.324219 598.695312 97.394531 597.660156 C 107.554688 596.484375 117.683594 594.445312 127.613281 592.007812 C 148.304688 586.898438 168.855469 581.1875 187.109375 569.964844 C 187.824219 570.339844 188.457031 570.480469 188.628906 570.796875 C 196.578125 587.875 212.734375 592.667969 230.097656 588.761719 C 236.46875 587.328125 242.699219 584.316406 248.324219 580.929688 C 256.90625 575.734375 260.347656 564.023438 256.960938 554.554688 C 255.441406 550.304688 252.972656 547.0625 246.574219 545.914062 C 251.078125 550.535156 252.199219 554.871094 251.710938 559.949219 C 250.847656 569.160156 246.054688 574.988281 237.703125 578.402344 C 229.152344 581.933594 220.457031 583.226562 211.359375 580.957031 C 199.476562 578.03125 192.589844 566.40625 196.578125 554.957031 C 198.328125 549.960938 201.054688 545.140625 204.183594 540.863281 C 211.359375 531.019531 220.425781 523.042969 230.558594 516.296875 C 248.640625 504.242188 268.070312 494.660156 289.078125 489.40625 C 303.683594 485.761719 318.78125 483.582031 334.019531 483.925781 C 334.910156 483.953125 335.800781 484.15625 338.382812 484.5 C 313.183594 496.464844 305.867188 519.054688 297.3125 541.726562 C 299.378906 542.097656 300.640625 542.671875 301.703125 542.441406 C 312.265625 540.347656 323.054688 539.054688 333.246094 535.785156 C 356.777344 528.238281 371.585938 512.652344 374.199219 487.140625 C 374.257812 486.652344 374.542969 486.191406 375.03125 484.84375 C 377.183594 484.816406 379.679688 484.613281 382.121094 484.785156 C 413.144531 486.707031 444.140625 488.832031 475.191406 490.613281 C 497.003906 491.847656 518.816406 492.992188 540.625 493.566406 C 592.226562 494.917969 643.859375 495.890625 695.488281 497.039062 C 696.175781 497.070312 696.835938 497.097656 697.523438 497.15625 C 698.789062 497.613281 700.222656 498.101562 701.832031 498.589844 C 697.324219 499.394531 692.847656 500.3125 688.3125 500.914062 C 665.441406 503.984375 642.566406 507.257812 619.636719 509.871094 C 601.296875 511.933594 582.84375 513.484375 564.417969 514.660156 C 541.6875 516.125 519.101562 518.96875 496.402344 520.746094 C 489.511719 521.292969 482.625 521.980469 475.277344 522.640625 C 474.300781 519.539062 473.613281 516.613281 472.4375 513.859375 C 466.382812 499.625 449.90625 489.578125 434.554688 491.1875 C 430.363281 491.617188 425.945312 493.167969 422.386719 495.40625 C 415.179688 499.882812 414.207031 507.714844 420.230469 513.6875 C 423.761719 517.1875 428.554688 519.484375 432.917969 522.125 C 435.242188 523.53125 437.824219 524.476562 440.636719 525.796875 C 424.222656 529.210938 408.320312 531.996094 392.710938 535.898438 C 376.035156 540.089844 359.621094 545.3125 344.78125 554.4375 C 336.832031 559.316406 329.542969 565.058594 324.03125 572.605469 C 313.816406 586.609375 301.472656 599.382812 297.199219 617.003906 C 296.367188 620.503906 295.1875 623.921875 294.703125 627.480469 C 294.183594 631.210938 294.328125 635.027344 295.476562 639.21875 C 298.546875 631.296875 301.617188 623.402344 304.917969 614.878906 C 306.007812 622.945312 306.296875 630.40625 308.105469 637.464844 C 313.382812 658.273438 325.296875 673.457031 346.703125 679.570312 C 367.742188 685.625 392.421875 677.1875 405.136719 659.707031 Z M 536.40625 561.269531 C 540.597656 553.835938 544.386719 547.09375 548.175781 540.347656 C 545.992188 555.128906 543.78125 558.945312 536.40625 561.269531 Z M 532.648438 558.65625 C 531.558594 548.8125 537.125 541.953125 543.035156 535.582031 C 539.59375 543.246094 536.121094 550.9375 532.648438 558.65625 Z M 891.820312 540.375 C 895.609375 547.121094 899.394531 553.867188 903.585938 561.296875 C 896.238281 558.945312 894.03125 555.128906 891.820312 540.375 Z M 907.347656 558.65625 C 903.875 550.964844 900.429688 543.273438 896.957031 535.582031 C 902.867188 541.925781 908.4375 548.8125 907.347656 558.65625 Z M 1015.570312 505.996094 C 1010.347656 514.117188 1001.277344 515.867188 992.382812 517.933594 C 999.785156 513.429688 1007.21875 508.949219 1014.625 504.445312 C 1014.941406 504.960938 1015.253906 505.476562 1015.570312 505.996094 Z M 1008.796875 500.542969 C 996.773438 508.0625 985.148438 515.351562 973.585938 522.582031 C 973.640625 508.777344 997.203125 493.28125 1008.796875 500.542969 Z M 1092.054688 489.148438 C 1102.847656 491.242188 1111.597656 496.695312 1118.113281 505.59375 C 1125.058594 515.09375 1131.660156 524.734375 1133.898438 537.535156 C 1131 536.644531 1128.648438 536.015625 1126.320312 535.183594 C 1119.089844 532.597656 1111.742188 530.160156 1104.652344 527.230469 C 1088.066406 520.34375 1076.585938 508.863281 1072.222656 489.035156 C 1083.703125 499.507812 1092.742188 510.703125 1106.433594 515.753906 C 1100.464844 505.105469 1091.136719 497.558594 1082.152344 488.660156 C 1086.027344 487.023438 1089.097656 488.574219 1092.054688 489.148438 Z M 1075.292969 472.992188 C 1074.808594 472.761719 1074.320312 472.503906 1073.859375 472.273438 C 1074.492188 469.203125 1074.75 466.015625 1075.8125 463.117188 C 1078.453125 455.800781 1083.820312 450.664062 1090.160156 446.5 C 1102.359375 438.492188 1116.363281 435.566406 1131.027344 431.433594 C 1129.132812 441.566406 1127.527344 450.605469 1122.820312 458.613281 C 1121.097656 461.539062 1118.199219 464.667969 1115.15625 465.730469 C 1105.574219 469.117188 1095.640625 471.585938 1085.398438 473.679688 C 1092.6875 465.785156 1100.605469 458.726562 1106.460938 447.878906 C 1093.117188 454.222656 1084.851562 464.4375 1075.292969 472.992188 Z M 1308.707031 524.964844 C 1318.292969 525.738281 1325.78125 530.015625 1331.464844 537.648438 C 1335.796875 543.476562 1339.128906 549.820312 1340.5625 556.992188 C 1342.714844 567.699219 1344.636719 578.460938 1346.675781 589.25 C 1330.03125 591.375 1273.605469 574.5 1252.800781 561.5 C 1252.570312 548.585938 1244.9375 538.882812 1237.417969 528.753906 C 1259.917969 540.492188 1282.476562 551.914062 1303.398438 566.378906 C 1303.828125 565.890625 1304.257812 565.402344 1304.660156 564.914062 C 1302.964844 562.5625 1301.675781 559.71875 1299.492188 557.996094 C 1293.496094 553.207031 1287.46875 548.328125 1280.898438 544.480469 C 1259.628906 532.054688 1238.105469 520.085938 1216.667969 507.917969 C 1214.542969 506.710938 1212.5625 505.304688 1210.984375 502.953125 C 1213.367188 503.671875 1215.75 504.300781 1218.074219 505.132812 C 1239.109375 512.683594 1260.578125 518.679688 1282.703125 522.09375 C 1291.34375 523.445312 1300.039062 524.246094 1308.707031 524.964844 Z M 1290.453125 376.5625 C 1271.65625 387.609375 1255.582031 402.417969 1237.820312 415.621094 C 1240.488281 405.460938 1240.488281 395.988281 1233.800781 386.75 C 1257.964844 357.390625 1290.539062 343.210938 1326.757812 332.566406 C 1326.472656 339.539062 1326.269531 345.363281 1325.984375 351.160156 C 1325.351562 364.335938 1322.195312 376.960938 1317.890625 389.359375 C 1315.9375 395.042969 1312.378906 398.257812 1306.179688 400.09375 C 1295.90625 403.109375 1285.890625 407.210938 1276.132812 411.660156 C 1261.207031 418.460938 1246.628906 425.953125 1231.878906 433.128906 C 1229.695312 434.1875 1227.429688 435.105469 1224.875 435.539062 C 1248.496094 417.714844 1272.113281 400.152344 1290.453125 376.5625 Z M 1179.53125 483.179688 C 1181.023438 482.949219 1182.542969 482.488281 1184.035156 482.488281 C 1203.035156 482.574219 1222.035156 482.691406 1241.035156 482.890625 C 1261.066406 483.121094 1281.097656 483.179688 1301.101562 483.894531 C 1307.671875 484.125 1314.273438 485.761719 1320.703125 487.367188 C 1323.832031 488.144531 1326.84375 490.039062 1329.398438 492.105469 C 1333.246094 495.203125 1333.53125 499.738281 1329.65625 502.609375 C 1326.5 504.933594 1322.453125 506.914062 1318.636719 507.285156 C 1310.742188 508.089844 1307.183594 503.382812 1308.191406 494.140625 C 1304.542969 495.835938 1303.082031 498.417969 1302.792969 501.863281 C 1302.507812 505.738281 1303.941406 508.863281 1307.15625 511.160156 C 1316.570312 517.90625 1333.847656 512.738281 1338.035156 501.949219 C 1340.160156 496.523438 1338.640625 491.328125 1333.386719 486.9375 C 1327.707031 482.175781 1320.902344 479.707031 1313.730469 478.757812 C 1305.605469 477.667969 1297.398438 476.949219 1289.191406 476.777344 C 1273.808594 476.40625 1258.394531 476.550781 1242.925781 475.890625 C 1257.765625 473.566406 1272.601562 471.238281 1287.441406 468.886719 C 1292.519531 468.082031 1297.601562 467.394531 1302.621094 466.273438 C 1305.980469 465.527344 1309.625 464.953125 1311.691406 461.394531 C 1281.097656 464.378906 1250.792969 467.308594 1220.484375 470.265625 C 1220.398438 469.71875 1220.3125 469.171875 1220.199219 468.628906 C 1230.875 466.5625 1241.464844 464.035156 1252.199219 462.515625 C 1271.253906 459.847656 1290.453125 458.269531 1309.023438 452.671875 C 1316.339844 450.460938 1322.882812 447.304688 1328.078125 441.652344 C 1331.695312 437.71875 1333.703125 433.15625 1333.703125 427.730469 C 1333.675781 419.09375 1328.394531 413.09375 1319.871094 412.121094 C 1311.347656 411.144531 1301.761719 417.515625 1300.382812 425.0625 C 1299.722656 428.648438 1301.90625 432.839844 1305.378906 434.621094 C 1308.9375 436.457031 1311.203125 435.824219 1315.480469 431.605469 C 1312.609375 430.085938 1309.882812 428.621094 1307.128906 427.15625 C 1308.332031 422.078125 1311.664062 420.15625 1315.363281 419.007812 C 1322.109375 416.910156 1328.050781 422.191406 1326.441406 429.109375 C 1325.726562 432.179688 1324.144531 435.710938 1321.792969 437.605469 C 1317.890625 440.734375 1313.328125 443.488281 1308.589844 445.066406 C 1293.695312 450.03125 1278.171875 452.039062 1262.671875 454.421875 C 1242.410156 457.523438 1222.351562 461.914062 1202.230469 465.875 C 1197.210938 466.847656 1192.300781 468.511719 1187.277344 469.519531 C 1183.894531 470.207031 1180.363281 470.292969 1176.917969 470.664062 C 1176.777344 470.207031 1176.632812 469.746094 1176.488281 469.289062 C 1177.921875 468.425781 1179.300781 467.480469 1180.765625 466.734375 C 1216.695312 449.082031 1252.597656 431.347656 1288.617188 413.871094 C 1300.699219 408.015625 1313.5 404.457031 1327.074219 403.738281 C 1343.804688 402.847656 1359.304688 406.867188 1373.308594 415.648438 C 1384.15625 422.449219 1394.34375 430.316406 1404.707031 437.890625 C 1411.105469 442.570312 1417.277344 447.5625 1424.277344 452.988281 C 1419.773438 457.347656 1415.726562 461.480469 1411.421875 465.355469 C 1402.8125 473.078125 1394.144531 480.710938 1385.417969 488.289062 C 1357.265625 512.683594 1324.605469 521.175781 1287.957031 515.980469 C 1257.765625 511.707031 1229.066406 502.179688 1200.566406 491.847656 C 1193.59375 489.347656 1186.621094 486.765625 1179.53125 483.179688 Z M 1036.78125 459.53125 C 1036.550781 460.074219 1036.292969 460.621094 1036.0625 461.167969 C 1033.710938 460.335938 1031.382812 459.53125 1029.03125 458.699219 C 1021.65625 456.058594 1014.28125 453.390625 1007.078125 450.230469 C 1018.183594 449.773438 1028.570312 451.378906 1036.78125 459.53125 Z M 1001.019531 452.46875 C 1010.433594 457.121094 1019.847656 461.742188 1029.691406 466.589844 C 1018.554688 471.410156 1004.492188 465.757812 993.242188 451.808594 C 996.113281 449.945312 998.550781 451.238281 1001.019531 452.46875 Z M 911.824219 442.941406 C 908.78125 450.71875 898.679688 458.613281 889.464844 460.363281 C 891.390625 456 901.808594 447.878906 911.824219 442.941406 Z M 403.242188 459.53125 C 411.421875 451.351562 421.8125 449.773438 432.917969 450.230469 C 425.714844 453.390625 418.339844 456.027344 410.960938 458.699219 C 408.636719 459.53125 406.285156 460.335938 403.929688 461.167969 C 403.730469 460.648438 403.472656 460.074219 403.242188 459.53125 Z M 446.75 451.808594 C 435.5 465.730469 421.4375 471.382812 410.300781 466.589844 C 420.144531 461.742188 429.589844 457.121094 438.972656 452.46875 C 441.46875 451.238281 443.910156 449.945312 446.75 451.808594 Z M 528.171875 442.941406 C 538.214844 447.878906 548.605469 455.972656 550.527344 460.363281 C 541.34375 458.613281 531.210938 450.71875 528.171875 442.941406 Z M 324.863281 465.730469 C 321.824219 464.640625 318.921875 461.511719 317.203125 458.613281 C 312.496094 450.632812 310.886719 441.566406 308.992188 431.433594 C 323.660156 435.566406 337.664062 438.492188 349.863281 446.5 C 356.203125 450.664062 361.570312 455.800781 364.210938 463.117188 C 365.273438 466.015625 365.53125 469.230469 366.164062 472.273438 C 365.675781 472.503906 365.1875 472.761719 364.726562 472.992188 C 355.171875 464.46875 346.90625 454.222656 333.558594 447.90625 C 339.445312 458.753906 347.335938 465.816406 354.625 473.707031 C 344.378906 471.585938 334.480469 469.117188 324.863281 465.730469 Z M 122.105469 389.332031 C 117.828125 376.933594 114.640625 364.304688 114.011719 351.132812 C 113.722656 345.335938 113.523438 339.511719 113.234375 332.535156 C 149.484375 343.210938 182.027344 357.359375 206.191406 386.71875 C 199.503906 395.988281 199.503906 405.433594 202.175781 415.59375 C 184.410156 402.417969 168.367188 387.609375 149.539062 376.53125 C 167.878906 400.121094 191.5 417.6875 215.089844 435.507812 C 212.535156 435.078125 210.269531 434.160156 208.085938 433.097656 C 193.335938 425.921875 178.757812 418.433594 163.832031 411.632812 C 154.074219 407.183594 144.03125 403.109375 133.785156 400.066406 C 127.613281 398.257812 124.082031 395.015625 122.105469 389.332031 Z M 223.328125 507.917969 C 201.917969 520.085938 180.390625 532.054688 159.097656 544.480469 C 152.496094 548.328125 146.46875 553.207031 140.5 557.996094 C 138.320312 559.75 137.027344 562.589844 135.335938 564.914062 C 135.765625 565.402344 136.195312 565.890625 136.597656 566.378906 C 157.519531 551.914062 180.078125 540.460938 202.578125 528.753906 C 195.058594 538.882812 187.453125 548.585938 187.195312 561.5 C 166.386719 574.472656 109.964844 591.347656 93.316406 589.25 C 95.355469 578.460938 97.277344 567.699219 99.429688 556.992188 C 100.867188 549.847656 104.195312 543.476562 108.527344 537.648438 C 114.210938 530.015625 121.703125 525.769531 131.289062 524.964844 C 139.953125 524.246094 148.652344 523.445312 157.261719 522.09375 C 179.386719 518.679688 200.855469 512.710938 221.890625 505.132812 C 224.214844 504.300781 226.625 503.671875 228.980469 502.953125 C 227.429688 505.304688 225.449219 506.710938 223.328125 507.917969 Z M 239.457031 491.875 C 210.957031 502.207031 182.257812 511.707031 152.066406 516.011719 C 115.445312 521.207031 82.785156 512.710938 54.601562 488.316406 C 45.878906 480.738281 37.183594 473.105469 28.574219 465.386719 C 24.269531 461.511719 20.222656 457.378906 15.714844 453.015625 C 22.71875 447.589844 28.886719 442.597656 35.289062 437.921875 C 45.648438 430.34375 55.835938 422.480469 66.683594 415.679688 C 80.691406 406.894531 96.1875 402.878906 112.917969 403.769531 C 126.496094 404.484375 139.292969 408.042969 151.378906 413.898438 C 187.394531 431.375 223.296875 449.113281 259.230469 466.761719 C 260.722656 467.480469 262.097656 468.457031 263.503906 469.316406 C 263.363281 469.777344 263.21875 470.234375 263.074219 470.695312 C 259.601562 470.320312 256.101562 470.234375 252.714844 469.546875 C 247.691406 468.542969 242.785156 466.90625 237.761719 465.902344 C 217.644531 461.941406 197.582031 457.550781 177.320312 454.449219 C 161.824219 452.070312 146.296875 450.058594 131.402344 445.09375 C 126.667969 443.515625 122.105469 440.789062 118.199219 437.632812 C 115.847656 435.738281 114.269531 432.207031 113.550781 429.136719 C 111.945312 422.222656 117.886719 416.910156 124.628906 419.035156 C 128.332031 420.183594 131.660156 422.136719 132.867188 427.1875 C 130.109375 428.648438 127.355469 430.113281 124.515625 431.636719 C 128.789062 435.855469 131.058594 436.457031 134.617188 434.648438 C 138.089844 432.867188 140.269531 428.679688 139.609375 425.089844 C 138.234375 417.542969 128.648438 411.171875 120.125 412.148438 C 111.601562 413.125 106.320312 419.121094 106.289062 427.761719 C 106.289062 433.183594 108.300781 437.746094 111.914062 441.679688 C 117.109375 447.332031 123.652344 450.492188 130.972656 452.699219 C 149.539062 458.296875 168.738281 459.875 187.796875 462.542969 C 198.53125 464.035156 209.148438 466.589844 219.796875 468.65625 C 219.710938 469.203125 219.625 469.746094 219.507812 470.292969 C 189.203125 467.335938 158.925781 464.410156 128.304688 461.425781 C 130.367188 464.984375 134.042969 465.558594 137.371094 466.304688 C 142.367188 467.421875 147.472656 468.113281 152.554688 468.914062 C 167.390625 471.269531 182.230469 473.59375 197.066406 475.917969 C 181.597656 476.578125 166.1875 476.433594 150.804688 476.808594 C 142.625 477.007812 134.386719 477.726562 126.265625 478.789062 C 119.089844 479.734375 112.289062 482.203125 106.605469 486.96875 C 101.355469 491.386719 99.863281 496.550781 101.957031 501.976562 C 106.148438 512.769531 123.425781 517.90625 132.835938 511.1875 C 136.023438 508.894531 137.488281 505.765625 137.199219 501.890625 C 136.941406 498.445312 135.449219 495.835938 131.804688 494.171875 C 132.808594 503.410156 129.222656 508.117188 121.359375 507.316406 C 117.539062 506.941406 113.492188 504.960938 110.335938 502.636719 C 106.460938 499.765625 106.722656 495.234375 110.59375 492.132812 C 113.148438 490.09375 116.191406 488.203125 119.292969 487.398438 C 125.71875 485.761719 132.320312 484.15625 138.894531 483.925781 C 158.894531 483.234375 178.929688 483.148438 198.960938 482.921875 C 217.960938 482.71875 236.957031 482.605469 255.957031 482.519531 C 257.449219 482.519531 258.972656 482.976562 260.464844 483.207031 C 253.402344 486.765625 246.429688 489.347656 239.457031 491.875 Z M 357.839844 488.6875 C 348.886719 497.613281 339.53125 505.132812 333.558594 515.78125 C 347.25 510.730469 356.289062 499.539062 367.769531 489.0625 C 363.4375 508.894531 351.957031 520.375 335.339844 527.261719 C 328.25 530.21875 320.902344 532.628906 313.671875 535.210938 C 311.375 536.042969 308.992188 536.675781 306.09375 537.5625 C 308.332031 524.765625 314.933594 515.09375 321.878906 505.621094 C 328.394531 496.726562 337.148438 491.273438 347.9375 489.175781 C 350.921875 488.574219 353.996094 487.023438 357.839844 488.6875 Z M 424.449219 505.996094 C 424.765625 505.476562 425.082031 504.960938 425.398438 504.445312 C 432.800781 508.949219 440.234375 513.429688 447.640625 517.933594 C 438.742188 515.839844 429.644531 514.089844 424.449219 505.996094 Z M 431.222656 500.542969 C 442.820312 493.308594 466.382812 508.808594 466.4375 522.582031 C 454.871094 515.351562 443.25 508.0625 431.222656 500.542969 Z M 431.222656 500.542969 " fill-opacity="1" fill-rule="nonzero"/><g transform="matrix(1, 0, 0, 1, 438, 124)"><g clip-path="url(#c8e2e8720f)"><g fill="#9f0b0b" fill-opacity="1"><g transform="translate(0.612599, 195.241497)"><g><path d="M 105.4375 -100.078125 L 87.734375 -100.078125 L 87.734375 -104.828125 C 87.734375 -114.429688 85.5 -122.1875 81.03125 -128.09375 C 76.570312 -134 69.984375 -136.953125 61.265625 -136.953125 C 52.546875 -136.953125 45.953125 -134 41.484375 -128.09375 C 37.023438 -122.1875 34.796875 -114.429688 34.796875 -104.828125 L 34.796875 -37.484375 C 34.796875 -27.734375 37.023438 -19.90625 41.484375 -14 C 45.953125 -8.09375 52.546875 -5.140625 61.265625 -5.140625 C 69.984375 -5.140625 76.570312 -8.09375 81.03125 -14 C 85.5 -19.90625 87.734375 -27.734375 87.734375 -37.484375 L 87.734375 -42.015625 L 105.4375 -42.015625 L 105.4375 -39.953125 C 105.4375 -32.535156 103.992188 -25.976562 101.109375 -20.28125 C 98.234375 -14.582031 94.457031 -10.15625 89.78125 -7 C 80.726562 -0.957031 71.257812 2.0625 61.375 2.0625 C 46.40625 2.0625 34.492188 -3.082031 25.640625 -13.375 C 16.785156 -23.675781 12.359375 -36.65625 12.359375 -52.3125 L 12.359375 -89.78125 C 12.359375 -105.4375 16.785156 -118.410156 25.640625 -128.703125 C 34.492188 -139.003906 46.40625 -144.15625 61.375 -144.15625 C 73.039062 -144.15625 83.300781 -140.515625 92.15625 -133.234375 C 101.007812 -125.960938 105.4375 -115.804688 105.4375 -102.765625 Z M 105.4375 -100.078125 "/></g></g></g><g fill="#9f0b0b" fill-opacity="1"><g transform="translate(116.323491, 195.241497)"><g><path d="M 75.375 -32.328125 C 75.375 -22.304688 72.523438 -14.066406 66.828125 -7.609375 C 61.128906 -1.160156 53.128906 2.0625 42.828125 2.0625 C 32.535156 2.0625 24.539062 -1.160156 18.84375 -7.609375 C 13.144531 -14.066406 10.296875 -22.304688 10.296875 -32.328125 L 10.296875 -64.671875 C 10.296875 -74.691406 13.144531 -82.890625 18.84375 -89.265625 C 24.539062 -95.648438 32.535156 -98.84375 42.828125 -98.84375 C 53.128906 -98.84375 61.128906 -95.648438 66.828125 -89.265625 C 72.523438 -82.890625 75.375 -74.691406 75.375 -64.671875 Z M 57.453125 -24.296875 L 57.453125 -72.703125 C 57.453125 -86.015625 52.539062 -92.671875 42.71875 -92.671875 C 32.90625 -92.671875 28 -86.015625 28 -72.703125 L 28 -24.296875 C 28 -10.847656 32.90625 -4.125 42.71875 -4.125 C 52.539062 -4.125 57.453125 -10.847656 57.453125 -24.296875 Z M 57.453125 -24.296875 "/></g></g></g><g fill="#9f0b0b" fill-opacity="1"><g transform="translate(201.974248, 195.241497)"><g><path d="M 81.96875 -8.234375 C 84.570312 -8.234375 86.695312 -10.429688 88.34375 -14.828125 L 92.265625 -14.203125 C 92.265625 -13.109375 91.882812 -11.425781 91.125 -9.15625 C 90.375 -6.894531 89.484375 -5.039062 88.453125 -3.59375 C 87.421875 -2.15625 85.835938 -0.851562 83.703125 0.3125 C 81.578125 1.476562 79.144531 2.0625 76.40625 2.0625 C 65.007812 2.0625 59.3125 -4.734375 59.3125 -18.328125 L 59.3125 -73.3125 C 59.3125 -86.21875 55.257812 -92.671875 47.15625 -92.671875 C 41.800781 -92.671875 37.613281 -90.265625 34.59375 -85.453125 C 31.570312 -80.648438 30.0625 -75.09375 30.0625 -68.78125 L 30.0625 0 L 12.359375 0 L 12.359375 -96.796875 L 30.0625 -96.796875 L 30.0625 -84.84375 C 34.039062 -94.175781 40.492188 -98.84375 49.421875 -98.84375 C 58.347656 -98.84375 65.210938 -95.925781 70.015625 -90.09375 C 74.816406 -84.257812 77.21875 -76.332031 77.21875 -66.3125 L 77.21875 -15.234375 C 77.21875 -10.566406 78.800781 -8.234375 81.96875 -8.234375 Z M 81.96875 -8.234375 "/></g></g></g><g fill="#9f0b0b" fill-opacity="1"><g transform="translate(295.242961, 195.241497)"><g><path d="M 36.859375 -8.234375 C 39.472656 -8.234375 41.601562 -10.429688 43.25 -14.828125 L 47.15625 -14.203125 C 47.15625 -12.972656 46.742188 -11.257812 45.921875 -9.0625 C 45.097656 -6.863281 44.171875 -5.039062 43.140625 -3.59375 C 42.109375 -2.15625 40.53125 -0.851562 38.40625 0.3125 C 36.28125 1.476562 33.84375 2.0625 31.09375 2.0625 C 19.832031 2.0625 14.203125 -4.734375 14.203125 -18.328125 L 14.203125 -90.8125 L 5.140625 -90.8125 L 5.140625 -96.796875 L 14.203125 -96.796875 L 14.203125 -131.796875 L 32.125 -131.796875 L 32.125 -96.796875 L 46.953125 -96.796875 L 46.953125 -90.8125 L 32.125 -90.8125 L 32.125 -14.828125 C 32.125 -10.429688 33.703125 -8.234375 36.859375 -8.234375 Z M 36.859375 -8.234375 "/></g></g></g><g fill="#9f0b0b" fill-opacity="1"><g transform="translate(347.539361, 195.241497)"><g><path d="M 75.375 -15.234375 C 75.375 -10.566406 76.882812 -8.234375 79.90625 -8.234375 C 82.925781 -8.234375 85.125 -10.429688 86.5 -14.828125 L 90.40625 -14.203125 C 90.40625 -13.109375 90.023438 -11.425781 89.265625 -9.15625 C 88.515625 -6.894531 87.625 -5.039062 86.59375 -3.59375 C 85.5625 -2.15625 83.945312 -0.851562 81.75 0.3125 C 79.5625 1.476562 77.09375 2.0625 74.34375 2.0625 C 64.726562 2.0625 59.238281 -3.019531 57.875 -13.1875 C 53.882812 -3.019531 47.019531 2.0625 37.28125 2.0625 C 29.039062 2.0625 22.484375 -0.890625 17.609375 -6.796875 C 12.734375 -12.703125 10.296875 -20.664062 10.296875 -30.6875 L 10.296875 -66.3125 C 10.296875 -76.195312 12.734375 -84.085938 17.609375 -89.984375 C 22.484375 -95.890625 29.378906 -98.84375 38.296875 -98.84375 C 47.222656 -98.84375 53.609375 -94.175781 57.453125 -84.84375 L 57.453125 -96.796875 L 75.375 -96.796875 Z M 57.453125 -28.21875 L 57.453125 -68.78125 C 57.453125 -75.09375 55.941406 -80.648438 52.921875 -85.453125 C 49.898438 -90.265625 45.710938 -92.671875 40.359375 -92.671875 C 32.265625 -92.671875 28.21875 -86.21875 28.21875 -73.3125 L 28.21875 -23.6875 C 28.21875 -10.914062 32.195312 -4.53125 40.15625 -4.53125 C 45.78125 -4.53125 50.066406 -6.828125 53.015625 -11.421875 C 55.972656 -16.023438 57.453125 -21.625 57.453125 -28.21875 Z M 57.453125 -28.21875 "/></g></g></g><g fill="#9f0b0b" fill-opacity="1"><g transform="translate(438.955041, 195.241497)"><g><path d="M 64.875 -25.125 C 64.875 -20.039062 63.296875 -14.550781 60.140625 -8.65625 C 58.484375 -5.488281 55.972656 -2.910156 52.609375 -0.921875 C 49.253906 1.066406 45.238281 2.0625 40.5625 2.0625 C 31.09375 2.0625 23.679688 -1.09375 18.328125 -7.40625 C 12.972656 -13.726562 10.296875 -22.035156 10.296875 -32.328125 L 10.296875 -64.453125 C 10.296875 -74.890625 13.003906 -83.226562 18.421875 -89.46875 C 23.847656 -95.71875 31.160156 -98.84375 40.359375 -98.84375 C 45.441406 -98.84375 49.765625 -97.707031 53.328125 -95.4375 C 56.898438 -93.175781 59.441406 -90.332031 60.953125 -86.90625 C 63.566406 -81.132812 64.875 -76.125 64.875 -71.875 L 59.515625 -71.875 L 59.515625 -73.515625 C 59.515625 -78.867188 57.382812 -83.8125 53.125 -88.34375 C 50.519531 -91.226562 47.15625 -92.671875 43.03125 -92.671875 C 38.914062 -92.671875 35.414062 -90.953125 32.53125 -87.515625 C 29.65625 -84.085938 28.21875 -79.078125 28.21875 -72.484375 L 28.21875 -24.296875 C 28.21875 -18.117188 29.585938 -13.210938 32.328125 -9.578125 C 35.078125 -5.941406 39.023438 -4.125 44.171875 -4.125 C 49.316406 -4.125 53.160156 -6.351562 55.703125 -10.8125 C 58.242188 -15.269531 59.515625 -19.421875 59.515625 -23.265625 L 59.515625 -25.125 Z M 64.875 -25.125 "/></g></g></g><g fill="#9f0b0b" fill-opacity="1"><g transform="translate(511.017001, 195.241497)"><g><path d="M 36.859375 -8.234375 C 39.472656 -8.234375 41.601562 -10.429688 43.25 -14.828125 L 47.15625 -14.203125 C 47.15625 -12.972656 46.742188 -11.257812 45.921875 -9.0625 C 45.097656 -6.863281 44.171875 -5.039062 43.140625 -3.59375 C 42.109375 -2.15625 40.53125 -0.851562 38.40625 0.3125 C 36.28125 1.476562 33.84375 2.0625 31.09375 2.0625 C 19.832031 2.0625 14.203125 -4.734375 14.203125 -18.328125 L 14.203125 -90.8125 L 5.140625 -90.8125 L 5.140625 -96.796875 L 14.203125 -96.796875 L 14.203125 -131.796875 L 32.125 -131.796875 L 32.125 -96.796875 L 46.953125 -96.796875 L 46.953125 -90.8125 L 32.125 -90.8125 L 32.125 -14.828125 C 32.125 -10.429688 33.703125 -8.234375 36.859375 -8.234375 Z M 36.859375 -8.234375 "/></g></g></g></g></g></svg>