<svg xmlns="http://www.w3.org/2000/svg" xmlns:xlink="http://www.w3.org/1999/xlink" width="1000" zoomAndPan="magnify" viewBox="0 0 750 749.999995" height="1000" preserveAspectRatio="xMidYMid meet" version="1.0"><defs><g/><clipPath id="05f7ceea3a"><path d="M 32 268.878906 L 688.210938 268.878906 L 688.210938 388 L 32 388 Z M 32 268.878906 " clip-rule="nonzero"/></clipPath><clipPath id="8b885da2f5"><rect x="0" width="732" y="0" height="91"/></clipPath></defs><g clip-path="url(#05f7ceea3a)"><path fill="#9f0b0b" d="M 687.742188 351.925781 C 686.667969 347.90625 684.925781 344.824219 681.84375 341.609375 C 677.15625 336.917969 671.125 334.371094 664.691406 334.371094 C 659.332031 334.371094 654.910156 335.980469 651.5625 339.332031 C 649.015625 341.742188 647.675781 344.019531 646.871094 347.371094 C 646.46875 348.980469 646.46875 352.195312 647.003906 353.800781 C 647.808594 356.882812 649.820312 359.5625 652.632812 361.574219 C 653.570312 362.246094 657.191406 364.121094 657.992188 364.253906 C 658.796875 364.523438 658.128906 363.851562 655.714844 362.246094 C 651.425781 359.296875 650.085938 357.957031 648.746094 355.410156 C 647.808594 353.402344 647.542969 352.195312 647.542969 350.183594 C 647.542969 346.699219 648.746094 343.886719 651.292969 341.207031 C 653.4375 339.0625 655.582031 337.855469 658.664062 337.1875 C 660.808594 336.785156 664.425781 336.785156 666.703125 337.453125 C 670.855469 338.527344 674.476562 340.671875 677.558594 343.753906 C 684.792969 350.988281 685.0625 360.769531 678.226562 368.007812 C 674.476562 372.027344 669.382812 374.4375 663.21875 375.511719 C 660.808594 375.910156 655.847656 375.910156 653.035156 375.511719 C 644.460938 374.4375 635.214844 371.222656 622.484375 365.191406 C 618.867188 363.449219 610.960938 359.429688 602.25 354.875 C 580.542969 343.351562 566.609375 336.917969 554.144531 332.363281 C 541.148438 327.671875 528.820312 325.128906 511.132812 323.652344 C 501.621094 322.847656 494.652344 322.445312 485.539062 322.445312 C 472.140625 322.445312 462.492188 323.386719 450.433594 325.664062 L 448.824219 325.929688 L 446.679688 324.859375 C 437.433594 320.4375 430.066406 318.292969 421.890625 317.488281 C 419.480469 317.222656 413.582031 317.222656 411.171875 317.488281 C 402.460938 318.292969 394.421875 320.972656 387.722656 325.261719 L 385.578125 326.601562 L 383.433594 326.601562 C 381.691406 326.601562 381.023438 326.46875 379.949219 326.199219 C 378.207031 325.664062 375.125 324.054688 373.785156 323.117188 C 370.703125 320.707031 368.828125 317.625 368.5625 314.542969 L 368.425781 313.335938 L 368.960938 313.738281 C 370.703125 314.808594 372.847656 315.613281 374.722656 315.746094 C 379.011719 316.015625 382.226562 312.933594 382.226562 308.378906 C 382.226562 305.832031 381.558594 304.089844 379.949219 302.480469 C 377.671875 300.203125 374.589844 299.667969 371.375 301.277344 C 369.902344 302.078125 367.621094 304.222656 366.683594 306.101562 C 366.28125 306.769531 365.878906 307.441406 365.878906 307.441406 C 365.746094 307.441406 363.871094 305.296875 363.066406 304.089844 L 362.398438 303.152344 L 363.335938 301.542969 C 364.675781 299.265625 366.683594 295.113281 367.355469 293.101562 C 369.902344 285.0625 368.828125 278.09375 364.003906 272.066406 C 363.335938 271.261719 362.800781 270.457031 362.664062 270.054688 C 362.261719 269.25 361.859375 268.984375 360.65625 268.984375 C 359.449219 268.984375 358.914062 269.25 358.644531 270.054688 C 358.511719 270.324219 357.976562 271.261719 357.304688 272.066406 C 352.480469 278.226562 351.273438 285.195312 353.957031 293.101562 C 354.625 295.113281 356.636719 299.398438 357.976562 301.542969 L 358.914062 303.152344 L 358.242188 304.089844 C 357.304688 305.296875 355.5625 307.441406 355.429688 307.441406 C 355.429688 307.441406 355.027344 306.769531 354.625 306.101562 C 354.089844 305.160156 353.554688 304.359375 352.480469 303.285156 C 350.875 301.542969 349.667969 300.875 347.65625 300.472656 C 345.246094 299.9375 343.234375 300.605469 341.492188 302.480469 C 339.886719 304.222656 339.214844 305.832031 339.214844 308.378906 C 339.214844 310.65625 339.886719 312.53125 341.359375 313.871094 C 342.296875 314.808594 343.101562 315.210938 344.441406 315.613281 C 346.585938 316.148438 349.800781 315.480469 352.347656 313.738281 L 352.882812 313.335938 L 352.75 314.542969 C 352.480469 317.625 350.605469 320.707031 347.523438 323.117188 C 346.183594 324.1875 343.101562 325.664062 341.359375 326.199219 C 340.289062 326.46875 339.75 326.601562 337.875 326.601562 L 335.730469 326.601562 L 333.585938 325.261719 C 326.886719 320.972656 318.847656 318.292969 310.136719 317.488281 C 307.726562 317.222656 301.832031 317.222656 299.417969 317.488281 C 291.378906 318.292969 284.007812 320.4375 274.628906 324.859375 L 272.484375 325.929688 L 270.878906 325.664062 C 258.816406 323.386719 249.167969 322.445312 235.769531 322.445312 C 222.371094 322.445312 208.167969 323.386719 195.972656 325.261719 C 173.59375 328.476562 156.445312 335.175781 119.058594 354.875 C 99.898438 365.058594 91.457031 369.078125 82.613281 372.027344 C 74.839844 374.707031 68.945312 375.777344 62.914062 375.777344 C 59.296875 375.777344 57.285156 375.511719 54.472656 374.707031 C 45.226562 371.890625 38.527344 364.925781 38.125 356.882812 C 37.589844 348.441406 44.691406 339.867188 54.472656 337.1875 C 56.617188 336.652344 60.367188 336.515625 62.511719 336.917969 C 65.59375 337.589844 67.871094 338.792969 69.882812 340.9375 C 72.429688 343.617188 73.632812 346.433594 73.632812 349.917969 C 73.632812 352.058594 73.367188 353.265625 72.429688 355.140625 C 71.089844 357.824219 69.75 359.164062 65.460938 361.976562 C 63.046875 363.585938 62.378906 364.253906 63.183594 363.984375 C 63.988281 363.71875 67.46875 361.976562 68.542969 361.304688 C 72.832031 358.359375 75.109375 353.535156 74.4375 348.578125 C 73.902344 344.824219 72.429688 341.875 69.613281 339.0625 C 66.128906 335.710938 61.84375 334.105469 56.484375 334.105469 C 50.050781 334.105469 43.886719 336.652344 39.332031 341.339844 C 36.785156 344.15625 35.445312 346.03125 34.238281 348.980469 C 31.960938 354.472656 32.363281 360.769531 35.175781 365.996094 C 39.332031 373.902344 47.640625 379.261719 57.6875 380.601562 C 60.101562 380.871094 64.789062 381.003906 67.335938 380.734375 C 74.707031 379.933594 83.28125 377.386719 92.796875 373.097656 C 96.28125 371.488281 105.125 366.933594 110.082031 364.121094 C 112.628906 362.644531 114.769531 361.574219 114.769531 361.574219 C 114.769531 361.574219 114.636719 362.109375 114.371094 362.78125 C 113.164062 365.726562 112.761719 369.347656 113.296875 372.292969 C 114.371094 378.324219 117.851562 383.414062 122.8125 385.960938 C 124.285156 386.765625 124.957031 387.035156 126.429688 387.300781 C 126.964844 387.433594 128.035156 387.433594 129.242188 387.433594 C 130.984375 387.433594 131.386719 387.300781 132.457031 386.898438 C 135.140625 385.960938 137.148438 384.21875 138.355469 381.671875 C 139.160156 379.933594 139.5625 378.457031 139.5625 376.582031 C 139.5625 370.417969 134.871094 364.121094 130.046875 364.121094 C 129.109375 364.121094 128.839844 364.253906 128.171875 364.65625 C 126.695312 365.59375 126.296875 367.46875 126.964844 370.550781 C 127.5 373.097656 128.171875 374.035156 127.902344 371.757812 C 127.636719 369.746094 127.769531 367.46875 128.035156 366.667969 C 128.574219 365.460938 129.511719 365.191406 130.984375 365.59375 C 134.199219 366.53125 136.613281 370.417969 136.613281 374.707031 C 136.613281 378.589844 134.46875 381.671875 131.117188 382.476562 C 129.777344 382.746094 128.976562 382.746094 127.5 382.476562 C 122.8125 381.40625 118.253906 376.449219 116.78125 370.820312 C 115.976562 367.871094 116.109375 365.59375 117.050781 362.914062 C 117.453125 361.707031 119.058594 359.027344 119.730469 358.492188 C 119.996094 358.222656 127.636719 353.800781 134.066406 350.050781 C 164.214844 332.765625 180.832031 327.269531 210.710938 324.859375 C 232.421875 322.984375 250.109375 323.519531 266.992188 326.332031 C 268.597656 326.601562 269.9375 326.867188 270.074219 326.867188 C 270.074219 326.867188 268.734375 327.671875 266.992188 328.609375 C 258.011719 333.703125 252.789062 337.320312 243.808594 345.226562 C 237.78125 350.453125 234.964844 352.730469 230.140625 356.082031 C 220.359375 362.914062 204.28125 372.160156 195.4375 376.046875 C 186.058594 380.066406 177.617188 382.210938 170.246094 382.210938 C 165.691406 382.210938 163.011719 381.671875 159.929688 380.066406 C 152.828125 376.3125 148.539062 367.335938 150.28125 359.964844 C 151.085938 356.75 152.558594 354.203125 155.238281 351.523438 C 158.855469 347.90625 162.742188 345.898438 167.03125 345.359375 C 173.195312 344.691406 178.6875 348.710938 181.101562 355.8125 C 181.769531 357.6875 182.039062 359.164062 182.039062 361.039062 C 182.039062 363.71875 181.367188 365.460938 179.894531 367.066406 C 178.957031 368.140625 177.617188 368.945312 175.070312 370.015625 C 174.132812 370.417969 173.328125 370.820312 173.195312 370.953125 C 173.058594 371.222656 173.730469 371.089844 175.605469 370.417969 C 179.894531 368.945312 182.171875 366.933594 182.976562 363.851562 C 183.78125 360.636719 183.242188 356.75 181.367188 352.863281 C 179.089844 348.308594 175.738281 345.226562 171.453125 344.15625 C 169.84375 343.753906 166.226562 343.753906 164.351562 344.15625 C 160.464844 345.09375 156.578125 347.238281 153.226562 350.183594 C 148.136719 354.742188 145.589844 360.636719 146.125 366.800781 C 146.929688 375.242188 152.828125 383.011719 160.730469 385.828125 C 170.515625 389.3125 186.191406 386.496094 202.136719 378.457031 C 213.257812 372.828125 231.617188 361.304688 239.789062 354.742188 C 240.726562 353.9375 241.53125 353.398438 241.53125 353.398438 C 241.53125 353.398438 241.398438 354.339844 241.265625 355.277344 C 240.460938 359.429688 240.460938 363.984375 241.265625 368.140625 C 243.007812 377.117188 248.367188 383.011719 256.539062 384.753906 C 258.414062 385.15625 262.300781 385.292969 264.3125 384.890625 C 272.351562 383.550781 278.246094 378.589844 280.257812 371.625 C 280.523438 370.550781 280.660156 370.015625 280.660156 367.46875 C 280.660156 364.925781 280.660156 364.523438 280.257812 363.046875 C 279.183594 359.164062 276.90625 355.8125 273.960938 353.800781 C 269.671875 350.988281 264.3125 351.390625 260.828125 354.875 C 257.746094 357.957031 257.476562 361.707031 259.621094 367.605469 C 259.890625 368.273438 260.292969 369.078125 260.425781 369.347656 L 260.695312 369.746094 L 260.695312 369.210938 C 260.695312 368.945312 260.558594 368.007812 260.292969 367.066406 C 259.355469 363.183594 259.355469 360.769531 260.425781 358.625 C 261.765625 355.542969 265.515625 353.9375 269 354.742188 C 270.476562 355.140625 271.414062 355.8125 272.886719 357.285156 C 274.09375 358.492188 274.359375 358.894531 275.03125 360.367188 C 276.101562 362.644531 276.503906 364.121094 276.503906 366.53125 C 276.503906 368.808594 276.238281 370.148438 275.300781 372.027344 C 274.09375 374.570312 272.082031 376.449219 269.269531 377.921875 C 264.714844 380.199219 259.21875 380.46875 254.53125 378.457031 C 252.25 377.386719 249.707031 375.109375 248.367188 372.828125 C 246.488281 369.480469 245.550781 365.726562 245.550781 360.902344 C 245.550781 357.019531 246.089844 353.398438 247.5625 348.710938 L 247.964844 347.238281 L 250.109375 345.359375 C 257.746094 338.792969 265.382812 333.703125 274.359375 329.28125 C 277.308594 327.808594 276.640625 327.808594 281.730469 329.148438 C 295.128906 332.496094 306.921875 337.054688 319.382812 343.617188 C 324.878906 346.566406 330.371094 349.78125 333.1875 351.925781 C 333.722656 352.328125 334.257812 352.597656 334.257812 352.460938 C 334.390625 352.195312 332.382812 350.585938 329.164062 348.441406 C 315.5 339.332031 298.882812 331.828125 282.535156 327.671875 C 281.0625 327.269531 279.722656 326.867188 279.722656 326.867188 C 279.453125 326.601562 285.617188 324.457031 289.234375 323.519531 C 294.191406 322.179688 298.210938 321.644531 303.4375 321.644531 C 308.664062 321.644531 312.417969 322.046875 317.238281 323.25 C 323.402344 324.859375 329.03125 327.671875 333.722656 331.289062 C 336.667969 333.703125 340.289062 337.722656 342.429688 341.207031 C 347.792969 349.78125 349.800781 359.5625 347.390625 366.933594 C 345.113281 374.304688 338.949219 379.394531 331.175781 380.46875 C 329.433594 380.734375 326.082031 380.601562 324.34375 380.199219 C 315.230469 378.324219 307.457031 370.820312 305.714844 361.976562 C 305.316406 360.101562 305.449219 356.882812 305.984375 355.277344 C 306.789062 353.132812 307.996094 351.523438 309.738281 350.71875 C 310.539062 350.320312 310.808594 350.320312 312.417969 350.320312 C 313.890625 350.320312 314.292969 350.320312 315.097656 350.71875 C 318.042969 351.925781 320.589844 354.875 321.660156 358.089844 C 322.199219 359.699219 322.199219 361.304688 321.796875 362.246094 C 321.394531 363.046875 321.527344 363.183594 322.199219 362.378906 C 323.941406 359.964844 322.734375 355.277344 319.652344 351.925781 C 317.507812 349.648438 315.363281 348.578125 312.816406 348.441406 C 311.613281 348.441406 311.078125 348.441406 310.136719 348.710938 C 307.859375 349.378906 306.117188 350.988281 305.046875 353.402344 C 304.109375 355.410156 303.839844 356.617188 303.839844 359.429688 C 303.839844 361.574219 303.839844 362.246094 304.242188 363.585938 C 304.777344 365.59375 305.179688 366.933594 306.117188 368.675781 C 309.335938 375.109375 315.230469 380.332031 322.0625 382.613281 C 336.132812 387.433594 350.335938 379.53125 353.152344 365.324219 C 355.027344 355.8125 351.675781 344.15625 344.308594 334.640625 C 343.636719 333.703125 341.894531 331.828125 340.554688 330.488281 L 338.144531 328.074219 L 338.8125 328.074219 C 341.761719 328.074219 345.914062 326.734375 348.863281 324.726562 C 351.140625 323.117188 353.285156 320.839844 354.492188 318.425781 C 355.5625 316.285156 355.832031 315.34375 355.832031 312.398438 L 355.832031 309.71875 L 357.171875 308.242188 C 357.839844 307.441406 358.914062 306.367188 359.316406 305.832031 C 359.71875 305.296875 360.117188 304.757812 360.253906 304.757812 C 360.253906 304.757812 360.65625 305.160156 361.191406 305.832031 C 361.59375 306.367188 362.53125 307.441406 363.335938 308.242188 L 364.675781 309.71875 L 364.675781 312.398438 C 364.675781 315.34375 364.941406 316.285156 366.015625 318.425781 C 367.621094 321.644531 370.4375 324.457031 374.1875 326.199219 C 376.464844 327.269531 379.546875 328.074219 381.558594 328.074219 L 382.226562 328.074219 L 379.816406 330.488281 C 375.527344 334.773438 372.582031 339.0625 370.167969 344.289062 C 365.34375 355.140625 365.480469 365.863281 370.570312 373.632812 C 375.796875 381.671875 385.445312 385.558594 395.359375 383.414062 C 403.398438 381.671875 410.636719 376.046875 414.253906 368.675781 C 415.191406 366.933594 415.59375 365.59375 416.128906 363.585938 C 416.53125 362.109375 416.53125 361.574219 416.53125 359.429688 C 416.53125 356.480469 416.261719 355.410156 415.324219 353.402344 C 414.253906 351.121094 412.378906 349.378906 410.234375 348.710938 C 409.296875 348.441406 408.894531 348.441406 407.554688 348.441406 C 404.875 348.578125 402.730469 349.648438 400.71875 351.925781 C 397.636719 355.277344 396.433594 359.964844 398.175781 362.378906 C 398.710938 363.183594 398.976562 363.046875 398.574219 362.246094 C 398.175781 361.304688 398.175781 359.699219 398.710938 358.089844 C 399.78125 354.875 402.328125 351.925781 405.277344 350.71875 C 406.078125 350.320312 406.480469 350.320312 407.957031 350.320312 C 409.5625 350.320312 409.832031 350.320312 410.636719 350.71875 C 412.378906 351.523438 413.71875 353.132812 414.386719 355.277344 C 414.921875 356.882812 415.058594 360.101562 414.65625 361.976562 C 412.914062 370.820312 405.140625 378.457031 396.03125 380.199219 C 394.152344 380.601562 390.804688 380.734375 389.195312 380.46875 C 381.425781 379.394531 375.261719 374.304688 372.984375 366.933594 C 370.703125 359.5625 372.582031 349.78125 377.941406 341.207031 C 380.21875 337.722656 383.703125 333.703125 386.652344 331.289062 C 391.207031 327.539062 396.96875 324.726562 403.132812 323.25 C 407.820312 322.046875 411.574219 321.507812 416.933594 321.644531 C 422.160156 321.644531 426.179688 322.179688 431.136719 323.519531 C 434.753906 324.457031 440.917969 326.734375 440.652344 326.867188 C 440.652344 326.867188 439.3125 327.269531 437.835938 327.671875 C 423.632812 331.289062 409.296875 337.320312 396.164062 345.226562 C 393.351562 346.96875 388.390625 350.183594 387.1875 351.390625 C 385.980469 352.328125 385.847656 353 386.917969 352.058594 C 390 349.78125 396.699219 345.761719 403.265625 342.277344 C 414.921875 336.25 425.910156 332.09375 438.507812 329.011719 C 443.597656 327.671875 442.796875 327.671875 445.875 329.148438 C 454.855469 333.570312 462.625 338.660156 470.128906 345.226562 L 472.273438 347.101562 L 472.675781 348.578125 C 474.148438 353.265625 474.6875 356.882812 474.6875 360.769531 C 474.6875 363.71875 474.550781 365.058594 473.882812 367.605469 C 472.808594 372.027344 470.800781 375.109375 467.851562 377.117188 C 466.378906 378.191406 465.441406 378.589844 463.699219 379.128906 C 459.542969 380.332031 454.988281 379.933594 451.101562 377.921875 C 448.289062 376.449219 446.277344 374.570312 445.074219 372.027344 C 444.136719 370.148438 443.867188 368.808594 443.867188 366.53125 C 443.867188 364.121094 444.269531 362.644531 445.339844 360.367188 C 446.011719 358.894531 446.414062 358.492188 447.484375 357.285156 C 448.957031 355.8125 449.898438 355.140625 451.371094 354.742188 C 454.71875 353.800781 458.472656 355.542969 459.945312 358.625 C 460.882812 360.769531 460.882812 363.046875 460.082031 367.066406 C 459.8125 368.007812 459.679688 368.945312 459.679688 369.210938 L 459.679688 369.746094 L 459.945312 369.347656 C 460.082031 369.210938 460.484375 368.40625 460.75 367.605469 C 462.894531 361.84375 462.625 358.089844 459.542969 354.875 C 455.660156 350.855469 449.359375 350.988281 444.804688 355.007812 C 442.796875 356.882812 440.917969 359.964844 440.113281 363.046875 C 439.714844 364.523438 439.714844 364.925781 439.714844 367.46875 C 439.714844 369.882812 439.714844 370.417969 440.113281 371.625 C 440.917969 374.707031 442.394531 377.117188 444.535156 379.261719 C 447.617188 382.34375 451.503906 384.21875 456.0625 385.023438 C 458.070312 385.292969 461.957031 385.292969 463.832031 384.890625 C 468.789062 383.816406 472.542969 381.40625 475.355469 377.519531 C 479.242188 372.160156 480.714844 363.449219 479.109375 355.277344 C 478.839844 354.203125 478.707031 353.398438 478.839844 353.398438 C 478.839844 353.398438 479.644531 353.9375 480.582031 354.742188 C 488.753906 361.171875 507.113281 372.695312 518.234375 378.457031 C 534.179688 386.632812 549.859375 389.3125 559.640625 385.828125 C 567.546875 383.011719 573.441406 375.375 574.246094 366.800781 C 574.78125 360.769531 572.234375 354.742188 567.144531 350.183594 C 563.929688 347.371094 559.90625 345.09375 556.023438 344.15625 C 554.144531 343.617188 550.527344 343.617188 548.921875 344.15625 C 546.375 344.824219 543.828125 346.433594 542.085938 348.308594 C 538.066406 352.730469 536.191406 359.164062 537.398438 363.984375 C 538.199219 367.066406 540.476562 369.078125 544.765625 370.550781 C 546.640625 371.222656 547.3125 371.355469 547.179688 371.089844 C 547.179688 370.953125 546.375 370.550781 545.300781 370.148438 C 542.757812 369.078125 541.417969 368.273438 540.476562 367.203125 C 539.003906 365.59375 538.335938 363.851562 538.335938 361.171875 C 538.335938 355.945312 541.28125 350.320312 545.4375 347.503906 C 547.847656 345.898438 550.664062 345.226562 553.34375 345.496094 C 557.765625 346.03125 561.648438 348.039062 565.132812 351.660156 C 567.8125 354.339844 569.289062 356.882812 570.089844 360.101562 C 571.96875 367.46875 567.679688 376.582031 560.445312 380.199219 C 557.363281 381.808594 554.683594 382.34375 550.125 382.34375 C 542.757812 382.34375 534.179688 380.199219 524.933594 376.179688 C 516.089844 372.292969 499.878906 363.046875 490.230469 356.214844 C 485.273438 352.730469 482.59375 350.585938 476.5625 345.359375 C 467.585938 337.589844 462.492188 333.835938 453.378906 328.746094 C 451.640625 327.808594 450.296875 327.003906 450.296875 327.003906 C 450.296875 327.003906 451.773438 326.734375 453.378906 326.46875 C 465.574219 324.457031 478.171875 323.652344 491.4375 324.054688 C 509.257812 324.589844 524.800781 326.199219 536.59375 329.011719 C 551.199219 332.363281 565.667969 338.527344 586.304688 350.320312 C 592.738281 353.9375 600.375 358.492188 600.644531 358.761719 C 601.3125 359.296875 602.785156 361.976562 603.324219 363.183594 C 604.261719 365.863281 604.394531 368.140625 603.589844 371.089844 C 602.117188 376.851562 597.5625 381.808594 592.871094 382.746094 C 591.398438 383.011719 590.59375 383.011719 589.253906 382.746094 C 587.914062 382.476562 586.839844 381.808594 585.902344 380.871094 C 583.492188 378.324219 583.089844 374.035156 584.832031 370.285156 C 585.902344 368.007812 587.511719 366.53125 589.386719 365.863281 C 590.859375 365.460938 591.800781 365.726562 592.335938 366.933594 C 592.738281 367.738281 592.738281 370.015625 592.46875 372.027344 C 592.199219 374.304688 592.871094 373.367188 593.40625 370.820312 C 594.078125 367.605469 593.675781 365.863281 592.199219 364.925781 C 591.53125 364.523438 591.261719 364.386719 590.324219 364.386719 C 588.984375 364.386719 587.914062 364.789062 586.574219 365.59375 C 583.222656 367.871094 580.8125 372.429688 580.8125 376.714844 C 580.8125 378.589844 581.214844 380.066406 582.015625 381.808594 C 583.222656 384.355469 585.234375 386.09375 587.914062 387.035156 C 589.121094 387.433594 589.386719 387.433594 591.398438 387.433594 C 594.078125 387.433594 595.015625 387.167969 597.292969 386.09375 C 602.386719 383.550781 606.003906 378.457031 607.074219 372.292969 C 607.609375 369.347656 607.207031 365.59375 606.003906 362.78125 C 605.734375 362.109375 605.601562 361.574219 605.601562 361.574219 C 605.601562 361.574219 607.746094 362.644531 610.289062 364.121094 C 615.25 366.933594 624.09375 371.488281 627.578125 373.097656 C 637.089844 377.386719 645.664062 380.066406 653.035156 380.734375 C 655.582031 381.003906 660.269531 381.003906 662.683594 380.601562 C 668.578125 379.796875 673.9375 377.652344 678.226562 374.304688 C 683.183594 370.417969 686.402344 365.058594 687.339844 359.5625 C 688.410156 357.421875 688.277344 354.070312 687.742188 351.925781 Z M 369.363281 308.78125 C 370.167969 307.171875 371.242188 305.832031 372.3125 305.027344 C 373.785156 303.957031 374.992188 303.820312 376.199219 304.359375 C 377.671875 305.027344 378.609375 306.902344 378.476562 308.914062 C 378.34375 310.386719 377.671875 311.460938 376.464844 312.128906 C 375.796875 312.53125 373.785156 312.53125 372.714844 312.261719 C 371.644531 311.863281 369.765625 310.921875 369.097656 310.386719 L 368.695312 309.984375 Z M 351.8125 310.386719 C 351.140625 310.921875 349.132812 311.996094 348.058594 312.261719 C 347.121094 312.53125 345.648438 312.53125 344.976562 312.398438 C 344.308594 312.128906 343.503906 311.59375 343.101562 311.058594 C 341.359375 308.511719 343.234375 304.222656 345.914062 304.222656 C 347.925781 304.222656 350.335938 306.101562 351.675781 308.914062 L 352.214844 310.121094 Z M 361.859375 298.058594 C 361.324219 299.265625 360.65625 300.203125 360.65625 300.203125 C 360.386719 300.335938 359.984375 299.535156 358.777344 297.121094 C 354.757812 289.082031 354.757812 281.847656 358.644531 275.816406 C 359.179688 275.011719 359.71875 274.207031 359.984375 273.941406 L 360.519531 273.40625 L 361.058594 273.941406 C 361.996094 275.011719 363.335938 277.15625 364.003906 278.628906 C 364.808594 280.640625 365.210938 282.382812 365.34375 284.527344 C 365.480469 288.8125 364.273438 293.101562 361.859375 298.058594 Z M 361.859375 298.058594 " fill-opacity="1" fill-rule="nonzero"/></g><g transform="matrix(1, 0, 0, 1, 11, 389)"><g clip-path="url(#8b885da2f5)"><g fill="#9f0b0b" fill-opacity="1"><g transform="translate(0.341607, 73.053999)"><g><path d="M 28.109375 -5.6875 C 28.109375 -3.945312 28.671875 -3.078125 29.796875 -3.078125 C 30.921875 -3.078125 31.738281 -3.894531 32.25 -5.53125 L 33.71875 -5.296875 C 33.71875 -4.890625 33.578125 -4.265625 33.296875 -3.421875 C 33.015625 -2.578125 32.679688 -1.882812 32.296875 -1.34375 C 31.910156 -0.800781 31.304688 -0.316406 30.484375 0.109375 C 29.671875 0.546875 28.75 0.765625 27.71875 0.765625 C 24.132812 0.765625 22.085938 -1.128906 21.578125 -4.921875 C 20.097656 -1.128906 17.539062 0.765625 13.90625 0.765625 C 10.832031 0.765625 8.382812 -0.332031 6.5625 -2.53125 C 4.75 -4.738281 3.84375 -7.707031 3.84375 -11.4375 L 3.84375 -24.734375 C 3.84375 -28.421875 4.75 -31.363281 6.5625 -33.5625 C 8.382812 -35.757812 10.957031 -36.859375 14.28125 -36.859375 C 17.613281 -36.859375 19.992188 -35.117188 21.421875 -31.640625 L 21.421875 -36.09375 L 28.109375 -36.09375 Z M 21.421875 -10.515625 L 21.421875 -25.65625 C 21.421875 -28.007812 20.859375 -30.082031 19.734375 -31.875 C 18.609375 -33.664062 17.046875 -34.5625 15.046875 -34.5625 C 12.023438 -34.5625 10.515625 -32.15625 10.515625 -27.34375 L 10.515625 -8.828125 C 10.515625 -4.066406 12 -1.6875 14.96875 -1.6875 C 17.070312 -1.6875 18.671875 -2.539062 19.765625 -4.25 C 20.867188 -5.96875 21.421875 -8.054688 21.421875 -10.515625 Z M 21.421875 -10.515625 "/></g></g></g><g fill="#9f0b0b" fill-opacity="1"><g transform="translate(34.433266, 73.053999)"><g><path d="M 30.5625 -3.078125 C 31.539062 -3.078125 32.335938 -3.894531 32.953125 -5.53125 L 34.40625 -5.296875 C 34.40625 -4.890625 34.265625 -4.265625 33.984375 -3.421875 C 33.703125 -2.578125 33.367188 -1.882812 32.984375 -1.34375 C 32.597656 -0.800781 32.007812 -0.316406 31.21875 0.109375 C 30.425781 0.546875 29.515625 0.765625 28.484375 0.765625 C 24.242188 0.765625 22.125 -1.765625 22.125 -6.828125 L 22.125 -27.34375 C 22.125 -32.15625 20.613281 -34.5625 17.59375 -34.5625 C 15.59375 -34.5625 14.03125 -33.664062 12.90625 -31.875 C 11.78125 -30.082031 11.21875 -28.007812 11.21875 -25.65625 L 11.21875 0 L 4.609375 0 L 4.609375 -36.09375 L 11.21875 -36.09375 L 11.21875 -31.640625 C 12.695312 -35.117188 15.097656 -36.859375 18.421875 -36.859375 C 21.753906 -36.859375 24.316406 -35.769531 26.109375 -33.59375 C 27.898438 -31.414062 28.796875 -28.460938 28.796875 -24.734375 L 28.796875 -5.6875 C 28.796875 -3.945312 29.382812 -3.078125 30.5625 -3.078125 Z M 30.5625 -3.078125 "/></g></g></g><g fill="#9f0b0b" fill-opacity="1"><g transform="translate(69.215977, 73.053999)"><g><path d="M 30.5625 -3.078125 C 31.539062 -3.078125 32.335938 -3.894531 32.953125 -5.53125 L 34.40625 -5.296875 C 34.40625 -4.890625 34.265625 -4.265625 33.984375 -3.421875 C 33.703125 -2.578125 33.367188 -1.882812 32.984375 -1.34375 C 32.597656 -0.800781 32.007812 -0.316406 31.21875 0.109375 C 30.425781 0.546875 29.515625 0.765625 28.484375 0.765625 C 24.242188 0.765625 22.125 -1.765625 22.125 -6.828125 L 22.125 -27.34375 C 22.125 -32.15625 20.613281 -34.5625 17.59375 -34.5625 C 15.59375 -34.5625 14.03125 -33.664062 12.90625 -31.875 C 11.78125 -30.082031 11.21875 -28.007812 11.21875 -25.65625 L 11.21875 0 L 4.609375 0 L 4.609375 -36.09375 L 11.21875 -36.09375 L 11.21875 -31.640625 C 12.695312 -35.117188 15.097656 -36.859375 18.421875 -36.859375 C 21.753906 -36.859375 24.316406 -35.769531 26.109375 -33.59375 C 27.898438 -31.414062 28.796875 -28.460938 28.796875 -24.734375 L 28.796875 -5.6875 C 28.796875 -3.945312 29.382812 -3.078125 30.5625 -3.078125 Z M 30.5625 -3.078125 "/></g></g></g><g fill="#9f0b0b" fill-opacity="1"><g transform="translate(103.998687, 73.053999)"><g><path d="M 25.796875 -23.890625 L 25.796875 -17.8125 L 10.4375 -17.8125 L 10.4375 -9.0625 C 10.4375 -4.039062 12.488281 -1.53125 16.59375 -1.53125 C 18.789062 -1.53125 20.460938 -2.425781 21.609375 -4.21875 C 22.765625 -6.007812 23.34375 -7.546875 23.34375 -8.828125 L 25.03125 -8.828125 C 25.03125 -5.859375 23.828125 -3.328125 21.421875 -1.234375 C 19.890625 0.0976562 17.945312 0.765625 15.59375 0.765625 C 11.539062 0.765625 8.566406 -0.4375 6.671875 -2.84375 C 4.785156 -5.25 3.84375 -8.320312 3.84375 -12.0625 L 3.84375 -24.109375 C 3.84375 -27.847656 4.863281 -30.90625 6.90625 -33.28125 C 8.957031 -35.664062 11.851562 -36.859375 15.59375 -36.859375 C 19.332031 -36.859375 21.96875 -35.628906 23.5 -33.171875 C 25.03125 -30.710938 25.796875 -27.617188 25.796875 -23.890625 Z M 21.421875 -20.125 L 21.421875 -27.109375 C 21.421875 -32.078125 19.628906 -34.5625 16.046875 -34.5625 C 12.304688 -34.5625 10.4375 -32.078125 10.4375 -27.109375 L 10.4375 -20.125 Z M 21.421875 -20.125 "/></g></g></g><g fill="#9f0b0b" fill-opacity="1"><g transform="translate(133.253025, 73.053999)"><g><path d="M 13.75 -3.078125 C 14.71875 -3.078125 15.507812 -3.894531 16.125 -5.53125 L 17.59375 -5.296875 C 17.59375 -4.835938 17.4375 -4.195312 17.125 -3.375 C 16.820312 -2.5625 16.476562 -1.882812 16.09375 -1.34375 C 15.707031 -0.800781 15.113281 -0.316406 14.3125 0.109375 C 13.519531 0.546875 12.613281 0.765625 11.59375 0.765625 C 7.394531 0.765625 5.296875 -1.765625 5.296875 -6.828125 L 5.296875 -33.875 L 1.921875 -33.875 L 1.921875 -36.09375 L 5.296875 -36.09375 L 5.296875 -49.15625 L 11.984375 -49.15625 L 11.984375 -36.09375 L 17.515625 -36.09375 L 17.515625 -33.875 L 11.984375 -33.875 L 11.984375 -5.53125 C 11.984375 -3.894531 12.570312 -3.078125 13.75 -3.078125 Z M 13.75 -3.078125 "/></g></g></g><g fill="#9f0b0b" fill-opacity="1"><g transform="translate(152.755927, 73.053999)"><g><path d="M 13.75 -3.078125 C 14.71875 -3.078125 15.507812 -3.894531 16.125 -5.53125 L 17.59375 -5.296875 C 17.59375 -4.835938 17.4375 -4.195312 17.125 -3.375 C 16.820312 -2.5625 16.476562 -1.882812 16.09375 -1.34375 C 15.707031 -0.800781 15.113281 -0.316406 14.3125 0.109375 C 13.519531 0.546875 12.613281 0.765625 11.59375 0.765625 C 7.394531 0.765625 5.296875 -1.765625 5.296875 -6.828125 L 5.296875 -33.875 L 1.921875 -33.875 L 1.921875 -36.09375 L 5.296875 -36.09375 L 5.296875 -49.15625 L 11.984375 -49.15625 L 11.984375 -36.09375 L 17.515625 -36.09375 L 17.515625 -33.875 L 11.984375 -33.875 L 11.984375 -5.53125 C 11.984375 -3.894531 12.570312 -3.078125 13.75 -3.078125 Z M 13.75 -3.078125 "/></g></g></g><g fill="#9f0b0b" fill-opacity="1"><g transform="translate(172.258829, 73.053999)"><g><path d="M 25.796875 -23.890625 L 25.796875 -17.8125 L 10.4375 -17.8125 L 10.4375 -9.0625 C 10.4375 -4.039062 12.488281 -1.53125 16.59375 -1.53125 C 18.789062 -1.53125 20.460938 -2.425781 21.609375 -4.21875 C 22.765625 -6.007812 23.34375 -7.546875 23.34375 -8.828125 L 25.03125 -8.828125 C 25.03125 -5.859375 23.828125 -3.328125 21.421875 -1.234375 C 19.890625 0.0976562 17.945312 0.765625 15.59375 0.765625 C 11.539062 0.765625 8.566406 -0.4375 6.671875 -2.84375 C 4.785156 -5.25 3.84375 -8.320312 3.84375 -12.0625 L 3.84375 -24.109375 C 3.84375 -27.847656 4.863281 -30.90625 6.90625 -33.28125 C 8.957031 -35.664062 11.851562 -36.859375 15.59375 -36.859375 C 19.332031 -36.859375 21.96875 -35.628906 23.5 -33.171875 C 25.03125 -30.710938 25.796875 -27.617188 25.796875 -23.890625 Z M 21.421875 -20.125 L 21.421875 -27.109375 C 21.421875 -32.078125 19.628906 -34.5625 16.046875 -34.5625 C 12.304688 -34.5625 10.4375 -32.078125 10.4375 -27.109375 L 10.4375 -20.125 Z M 21.421875 -20.125 "/></g></g></g><g fill="#9f0b0b" fill-opacity="1"><g transform="translate(201.513167, 73.053999)"><g><path d="M 46.390625 -5.6875 C 46.390625 -3.945312 46.925781 -3.078125 48 -3.078125 C 49.070312 -3.078125 49.914062 -3.894531 50.53125 -5.53125 L 51.984375 -5.296875 C 51.984375 -4.835938 51.828125 -4.195312 51.515625 -3.375 C 51.210938 -2.5625 50.867188 -1.882812 50.484375 -1.34375 C 50.109375 -0.800781 49.519531 -0.316406 48.71875 0.109375 C 47.925781 0.546875 47.019531 0.765625 46 0.765625 C 41.800781 0.765625 39.703125 -1.765625 39.703125 -6.828125 L 39.703125 -27.34375 C 39.703125 -32.15625 38.191406 -34.5625 35.171875 -34.5625 C 33.171875 -34.5625 31.617188 -33.664062 30.515625 -31.875 C 29.421875 -30.082031 28.875 -28.007812 28.875 -25.65625 L 28.875 0 L 22.125 0 L 22.125 -27.34375 C 22.125 -32.15625 20.613281 -34.5625 17.59375 -34.5625 C 15.59375 -34.5625 14.03125 -33.664062 12.90625 -31.875 C 11.78125 -30.082031 11.21875 -28.007812 11.21875 -25.65625 L 11.21875 0 L 4.609375 0 L 4.609375 -36.09375 L 11.21875 -36.09375 L 11.21875 -31.640625 C 12.695312 -35.117188 15.226562 -36.859375 18.8125 -36.859375 C 21.113281 -36.859375 23.070312 -36.21875 24.6875 -34.9375 C 26.300781 -33.65625 27.441406 -31.863281 28.109375 -29.5625 C 28.671875 -31.820312 29.65625 -33.601562 31.0625 -34.90625 C 32.46875 -36.207031 34.25 -36.859375 36.40625 -36.859375 C 39.476562 -36.859375 41.910156 -35.769531 43.703125 -33.59375 C 45.492188 -31.414062 46.390625 -28.460938 46.390625 -24.734375 Z M 46.390625 -5.6875 "/></g></g></g><g fill="#9f0b0b" fill-opacity="1"><g transform="translate(253.879215, 73.053999)"><g><path d="M 28.109375 -5.6875 C 28.109375 -3.945312 28.644531 -3.078125 29.71875 -3.078125 C 30.789062 -3.078125 31.632812 -3.894531 32.25 -5.53125 L 33.71875 -5.21875 C 33.71875 -4.8125 33.578125 -4.1875 33.296875 -3.34375 C 33.015625 -2.5 32.679688 -1.816406 32.296875 -1.296875 C 31.910156 -0.785156 31.304688 -0.316406 30.484375 0.109375 C 29.671875 0.546875 28.75 0.765625 27.71875 0.765625 C 24.132812 0.765625 22.085938 -1.128906 21.578125 -4.921875 C 20.097656 -1.128906 17.539062 0.765625 13.90625 0.765625 C 10.832031 0.765625 8.382812 -0.332031 6.5625 -2.53125 C 4.75 -4.738281 3.84375 -7.707031 3.84375 -11.4375 L 3.84375 -36.09375 L 10.515625 -36.09375 L 10.515625 -8.828125 C 10.515625 -4.066406 12 -1.6875 14.96875 -1.6875 C 17.070312 -1.6875 18.671875 -2.53125 19.765625 -4.21875 C 20.867188 -5.914062 21.421875 -8.015625 21.421875 -10.515625 L 21.421875 -36.09375 L 28.109375 -36.09375 Z M 28.109375 -5.6875 "/></g></g></g><g fill="#9f0b0b" fill-opacity="1"><g transform="translate(287.970874, 73.053999)"><g><path d="M 23.890625 -19.96875 L 17.8125 -19.96875 L 17.8125 -27.03125 C 17.8125 -31.738281 15.613281 -34.09375 11.21875 -34.09375 L 11.21875 0 L 4.609375 0 L 4.609375 -36.09375 L 11.21875 -36.09375 C 16.382812 -36.09375 20.019531 -34.195312 22.125 -30.40625 L 22.125 -35.328125 L 23.890625 -35.328125 Z M 23.890625 -19.96875 "/></g></g></g><g fill="#9f0b0b" fill-opacity="1"><g transform="translate(314.537805, 73.053999)"><g><path d="M 23.890625 -19.96875 L 17.8125 -19.96875 L 17.8125 -27.03125 C 17.8125 -31.738281 15.613281 -34.09375 11.21875 -34.09375 L 11.21875 0 L 4.609375 0 L 4.609375 -36.09375 L 11.21875 -36.09375 C 16.382812 -36.09375 20.019531 -34.195312 22.125 -30.40625 L 22.125 -35.328125 L 23.890625 -35.328125 Z M 23.890625 -19.96875 "/></g></g></g><g fill="#9f0b0b" fill-opacity="1"><g transform="translate(336.496684, 73.053999)"><g><path d="M 4.84375 -0.421875 C 4.175781 -1.210938 3.84375 -2.171875 3.84375 -3.296875 C 3.84375 -4.421875 4.175781 -5.378906 4.84375 -6.171875 C 5.507812 -6.972656 6.300781 -7.375 7.21875 -7.375 C 8.132812 -7.375 8.925781 -6.972656 9.59375 -6.171875 C 10.257812 -5.378906 10.59375 -4.421875 10.59375 -3.296875 C 10.59375 -2.171875 10.257812 -1.210938 9.59375 -0.421875 C 8.925781 0.367188 8.132812 0.765625 7.21875 0.765625 C 6.300781 0.765625 5.507812 0.367188 4.84375 -0.421875 Z M 4.84375 -0.421875 "/></g></g></g><g fill="#9f0b0b" fill-opacity="1"><g transform="translate(350.931885, 73.053999)"><g><path d="M 24.1875 -9.375 C 24.1875 -7.476562 23.597656 -5.425781 22.421875 -3.21875 C 21.804688 -2.039062 20.867188 -1.082031 19.609375 -0.34375 C 18.359375 0.394531 16.863281 0.765625 15.125 0.765625 C 11.59375 0.765625 8.828125 -0.410156 6.828125 -2.765625 C 4.835938 -5.117188 3.84375 -8.21875 3.84375 -12.0625 L 3.84375 -24.03125 C 3.84375 -27.925781 4.851562 -31.035156 6.875 -33.359375 C 8.894531 -35.691406 11.617188 -36.859375 15.046875 -36.859375 C 16.941406 -36.859375 18.554688 -36.4375 19.890625 -35.59375 C 21.222656 -34.75 22.171875 -33.6875 22.734375 -32.40625 C 23.703125 -30.257812 24.1875 -28.390625 24.1875 -26.796875 L 22.1875 -26.796875 L 22.1875 -27.421875 C 22.1875 -29.410156 21.394531 -31.253906 19.8125 -32.953125 C 18.84375 -34.023438 17.585938 -34.5625 16.046875 -34.5625 C 14.515625 -34.5625 13.207031 -33.921875 12.125 -32.640625 C 11.050781 -31.359375 10.515625 -29.488281 10.515625 -27.03125 L 10.515625 -9.0625 C 10.515625 -6.757812 11.023438 -4.925781 12.046875 -3.5625 C 13.078125 -2.207031 14.550781 -1.53125 16.46875 -1.53125 C 18.394531 -1.53125 19.828125 -2.363281 20.765625 -4.03125 C 21.710938 -5.695312 22.1875 -7.242188 22.1875 -8.671875 L 22.1875 -9.375 Z M 24.1875 -9.375 "/></g></g></g><g fill="#9f0b0b" fill-opacity="1"><g transform="translate(377.805959, 73.053999)"><g><path d="M 47.078125 8.453125 L 47.078125 11.140625 L 22.890625 11.140625 C 16.953125 11.140625 12.421875 9.269531 9.296875 5.53125 C 6.171875 1.789062 4.609375 -3.25 4.609375 -9.59375 L 4.609375 -32.171875 C 4.609375 -38.578125 6.171875 -43.644531 9.296875 -47.375 C 12.421875 -51.113281 16.953125 -52.984375 22.890625 -52.984375 L 47.6875 -52.984375 C 53.625 -52.984375 58.15625 -51.101562 61.28125 -47.34375 C 64.40625 -43.582031 65.96875 -38.523438 65.96875 -32.171875 L 65.96875 -19.96875 C 65.96875 -13.71875 64.441406 -8.695312 61.390625 -4.90625 C 58.347656 -1.125 54.21875 0.765625 49 0.765625 L 46.6875 0.765625 C 43.101562 0.765625 41.054688 -1.128906 40.546875 -4.921875 C 39.066406 -1.128906 36.507812 0.765625 32.875 0.765625 C 29.800781 0.765625 27.351562 -0.332031 25.53125 -2.53125 C 23.71875 -4.738281 22.8125 -7.707031 22.8125 -11.4375 L 22.8125 -24.734375 C 22.8125 -28.421875 23.71875 -31.363281 25.53125 -33.5625 C 27.351562 -35.757812 29.925781 -36.859375 33.25 -36.859375 C 36.582031 -36.859375 38.960938 -35.117188 40.390625 -31.640625 L 40.390625 -36.09375 L 47.078125 -36.09375 L 47.078125 -4.53125 C 47.078125 -2.789062 47.742188 -1.921875 49.078125 -1.921875 C 54.703125 -1.921875 57.515625 -5.941406 57.515625 -13.984375 L 57.515625 -38.25 C 57.515625 -41.832031 56.679688 -44.734375 55.015625 -46.953125 C 53.359375 -49.179688 50.914062 -50.296875 47.6875 -50.296875 L 22.890625 -50.296875 C 19.609375 -50.296875 17.132812 -49.179688 15.46875 -46.953125 C 13.8125 -44.734375 12.984375 -41.832031 12.984375 -38.25 L 12.984375 -3.609375 C 12.984375 0.0234375 13.8125 2.941406 15.46875 5.140625 C 17.132812 7.347656 19.609375 8.453125 22.890625 8.453125 Z M 40.390625 -25.65625 C 40.390625 -28.007812 39.828125 -30.082031 38.703125 -31.875 C 37.578125 -33.664062 36.015625 -34.5625 34.015625 -34.5625 C 30.992188 -34.5625 29.484375 -32.15625 29.484375 -27.34375 L 29.484375 -8.828125 C 29.484375 -4.066406 30.96875 -1.6875 33.9375 -1.6875 C 36.039062 -1.6875 37.640625 -2.539062 38.734375 -4.25 C 39.835938 -5.96875 40.390625 -8.054688 40.390625 -10.515625 Z M 40.390625 -25.65625 "/></g></g></g><g fill="#9f0b0b" fill-opacity="1"><g transform="translate(448.369571, 73.053999)"><g><path d="M 28.03125 -36.09375 L 28.03125 -5.453125 C 28.03125 6.734375 23.5 12.828125 14.4375 12.828125 C 11.820312 12.828125 9.722656 12.1875 8.140625 10.90625 C 6.703125 9.832031 5.628906 8.679688 4.921875 7.453125 L 6.21875 6.375 C 6.675781 7.238281 7.632812 8.09375 9.09375 8.9375 C 10.5625 9.789062 12.070312 10.21875 13.625 10.21875 C 15.1875 10.21875 16.503906 9.894531 17.578125 9.25 C 18.660156 8.613281 19.457031 7.628906 19.96875 6.296875 C 20.882812 4.097656 21.34375 0.875 21.34375 -3.375 L 21.34375 -4.609375 C 19.96875 -1.023438 17.613281 0.765625 14.28125 0.765625 C 10.957031 0.765625 8.382812 -0.332031 6.5625 -2.53125 C 4.75 -4.738281 3.84375 -7.707031 3.84375 -11.4375 L 3.84375 -24.734375 C 3.84375 -28.460938 4.75 -31.414062 6.5625 -33.59375 C 8.382812 -35.769531 10.832031 -36.859375 13.90625 -36.859375 C 17.539062 -36.859375 20.019531 -35.144531 21.34375 -31.71875 L 21.34375 -36.09375 Z M 21.34375 -10.515625 L 21.34375 -25.65625 C 21.34375 -28.007812 20.789062 -30.082031 19.6875 -31.875 C 18.59375 -33.664062 17.046875 -34.5625 15.046875 -34.5625 C 12.023438 -34.5625 10.515625 -32.179688 10.515625 -27.421875 L 10.515625 -8.90625 C 10.515625 -4.09375 12 -1.6875 14.96875 -1.6875 C 17.070312 -1.6875 18.660156 -2.53125 19.734375 -4.21875 C 20.804688 -5.914062 21.34375 -8.015625 21.34375 -10.515625 Z M 21.34375 -10.515625 "/></g></g></g><g fill="#9f0b0b" fill-opacity="1"><g transform="translate(481.002367, 73.053999)"><g><path d="M 46.390625 -5.6875 C 46.390625 -3.945312 46.925781 -3.078125 48 -3.078125 C 49.070312 -3.078125 49.914062 -3.894531 50.53125 -5.53125 L 51.984375 -5.296875 C 51.984375 -4.835938 51.828125 -4.195312 51.515625 -3.375 C 51.210938 -2.5625 50.867188 -1.882812 50.484375 -1.34375 C 50.109375 -0.800781 49.519531 -0.316406 48.71875 0.109375 C 47.925781 0.546875 47.019531 0.765625 46 0.765625 C 41.800781 0.765625 39.703125 -1.765625 39.703125 -6.828125 L 39.703125 -27.34375 C 39.703125 -32.15625 38.191406 -34.5625 35.171875 -34.5625 C 33.171875 -34.5625 31.617188 -33.664062 30.515625 -31.875 C 29.421875 -30.082031 28.875 -28.007812 28.875 -25.65625 L 28.875 0 L 22.125 0 L 22.125 -27.34375 C 22.125 -32.15625 20.613281 -34.5625 17.59375 -34.5625 C 15.59375 -34.5625 14.03125 -33.664062 12.90625 -31.875 C 11.78125 -30.082031 11.21875 -28.007812 11.21875 -25.65625 L 11.21875 0 L 4.609375 0 L 4.609375 -36.09375 L 11.21875 -36.09375 L 11.21875 -31.640625 C 12.695312 -35.117188 15.226562 -36.859375 18.8125 -36.859375 C 21.113281 -36.859375 23.070312 -36.21875 24.6875 -34.9375 C 26.300781 -33.65625 27.441406 -31.863281 28.109375 -29.5625 C 28.671875 -31.820312 29.65625 -33.601562 31.0625 -34.90625 C 32.46875 -36.207031 34.25 -36.859375 36.40625 -36.859375 C 39.476562 -36.859375 41.910156 -35.769531 43.703125 -33.59375 C 45.492188 -31.414062 46.390625 -28.460938 46.390625 -24.734375 Z M 46.390625 -5.6875 "/></g></g></g><g fill="#9f0b0b" fill-opacity="1"><g transform="translate(533.368444, 73.053999)"><g><path d="M 28.109375 -5.6875 C 28.109375 -3.945312 28.671875 -3.078125 29.796875 -3.078125 C 30.921875 -3.078125 31.738281 -3.894531 32.25 -5.53125 L 33.71875 -5.296875 C 33.71875 -4.890625 33.578125 -4.265625 33.296875 -3.421875 C 33.015625 -2.578125 32.679688 -1.882812 32.296875 -1.34375 C 31.910156 -0.800781 31.304688 -0.316406 30.484375 0.109375 C 29.671875 0.546875 28.75 0.765625 27.71875 0.765625 C 24.132812 0.765625 22.085938 -1.128906 21.578125 -4.921875 C 20.097656 -1.128906 17.539062 0.765625 13.90625 0.765625 C 10.832031 0.765625 8.382812 -0.332031 6.5625 -2.53125 C 4.75 -4.738281 3.84375 -7.707031 3.84375 -11.4375 L 3.84375 -24.734375 C 3.84375 -28.421875 4.75 -31.363281 6.5625 -33.5625 C 8.382812 -35.757812 10.957031 -36.859375 14.28125 -36.859375 C 17.613281 -36.859375 19.992188 -35.117188 21.421875 -31.640625 L 21.421875 -36.09375 L 28.109375 -36.09375 Z M 21.421875 -10.515625 L 21.421875 -25.65625 C 21.421875 -28.007812 20.859375 -30.082031 19.734375 -31.875 C 18.609375 -33.664062 17.046875 -34.5625 15.046875 -34.5625 C 12.023438 -34.5625 10.515625 -32.15625 10.515625 -27.34375 L 10.515625 -8.828125 C 10.515625 -4.066406 12 -1.6875 14.96875 -1.6875 C 17.070312 -1.6875 18.671875 -2.539062 19.765625 -4.25 C 20.867188 -5.96875 21.421875 -8.054688 21.421875 -10.515625 Z M 21.421875 -10.515625 "/></g></g></g><g fill="#9f0b0b" fill-opacity="1"><g transform="translate(567.460075, 73.053999)"><g><path d="M 10.296875 -51.484375 C 10.960938 -50.492188 11.296875 -49.28125 11.296875 -47.84375 C 11.296875 -46.40625 10.960938 -45.160156 10.296875 -44.109375 C 9.628906 -43.066406 8.847656 -42.546875 7.953125 -42.546875 C 7.054688 -42.546875 6.273438 -43.066406 5.609375 -44.109375 C 4.941406 -45.160156 4.609375 -46.40625 4.609375 -47.84375 C 4.609375 -49.28125 4.941406 -50.492188 5.609375 -51.484375 C 6.273438 -52.484375 7.054688 -52.984375 7.953125 -52.984375 C 8.847656 -52.984375 9.628906 -52.484375 10.296875 -51.484375 Z M 12.984375 -3.078125 C 14.003906 -3.078125 14.820312 -3.894531 15.4375 -5.53125 L 16.890625 -5.296875 C 16.890625 -4.835938 16.734375 -4.195312 16.421875 -3.375 C 16.117188 -2.5625 15.773438 -1.882812 15.390625 -1.34375 C 15.015625 -0.800781 14.425781 -0.316406 13.625 0.109375 C 12.832031 0.546875 11.925781 0.765625 10.90625 0.765625 C 6.707031 0.765625 4.609375 -1.765625 4.609375 -6.828125 L 4.609375 -36.09375 L 11.21875 -36.09375 L 11.21875 -5.6875 C 11.21875 -3.945312 11.804688 -3.078125 12.984375 -3.078125 Z M 12.984375 -3.078125 "/></g></g></g><g fill="#9f0b0b" fill-opacity="1"><g transform="translate(584.736269, 73.053999)"><g><path d="M 10.828125 0.765625 C 6.679688 0.765625 4.609375 -1.765625 4.609375 -6.828125 L 4.609375 -52.984375 L 11.21875 -52.984375 L 11.21875 -5.6875 C 11.21875 -3.945312 11.78125 -3.078125 12.90625 -3.078125 C 13.46875 -3.078125 13.953125 -3.28125 14.359375 -3.6875 C 14.765625 -4.09375 15.125 -4.707031 15.4375 -5.53125 L 16.890625 -5.296875 C 16.890625 -4.890625 16.75 -4.265625 16.46875 -3.421875 C 16.1875 -2.578125 15.84375 -1.894531 15.4375 -1.375 C 14.363281 0.0507812 12.828125 0.765625 10.828125 0.765625 Z M 10.828125 0.765625 "/></g></g></g><g fill="#9f0b0b" fill-opacity="1"><g transform="translate(602.012463, 73.053999)"><g><path d="M 4.84375 -0.421875 C 4.175781 -1.210938 3.84375 -2.171875 3.84375 -3.296875 C 3.84375 -4.421875 4.175781 -5.378906 4.84375 -6.171875 C 5.507812 -6.972656 6.300781 -7.375 7.21875 -7.375 C 8.132812 -7.375 8.925781 -6.972656 9.59375 -6.171875 C 10.257812 -5.378906 10.59375 -4.421875 10.59375 -3.296875 C 10.59375 -2.171875 10.257812 -1.210938 9.59375 -0.421875 C 8.925781 0.367188 8.132812 0.765625 7.21875 0.765625 C 6.300781 0.765625 5.507812 0.367188 4.84375 -0.421875 Z M 4.84375 -0.421875 "/></g></g></g><g fill="#9f0b0b" fill-opacity="1"><g transform="translate(616.447635, 73.053999)"><g><path d="M 24.1875 -9.375 C 24.1875 -7.476562 23.597656 -5.425781 22.421875 -3.21875 C 21.804688 -2.039062 20.867188 -1.082031 19.609375 -0.34375 C 18.359375 0.394531 16.863281 0.765625 15.125 0.765625 C 11.59375 0.765625 8.828125 -0.410156 6.828125 -2.765625 C 4.835938 -5.117188 3.84375 -8.21875 3.84375 -12.0625 L 3.84375 -24.03125 C 3.84375 -27.925781 4.851562 -31.035156 6.875 -33.359375 C 8.894531 -35.691406 11.617188 -36.859375 15.046875 -36.859375 C 16.941406 -36.859375 18.554688 -36.4375 19.890625 -35.59375 C 21.222656 -34.75 22.171875 -33.6875 22.734375 -32.40625 C 23.703125 -30.257812 24.1875 -28.390625 24.1875 -26.796875 L 22.1875 -26.796875 L 22.1875 -27.421875 C 22.1875 -29.410156 21.394531 -31.253906 19.8125 -32.953125 C 18.84375 -34.023438 17.585938 -34.5625 16.046875 -34.5625 C 14.515625 -34.5625 13.207031 -33.921875 12.125 -32.640625 C 11.050781 -31.359375 10.515625 -29.488281 10.515625 -27.03125 L 10.515625 -9.0625 C 10.515625 -6.757812 11.023438 -4.925781 12.046875 -3.5625 C 13.078125 -2.207031 14.550781 -1.53125 16.46875 -1.53125 C 18.394531 -1.53125 19.828125 -2.363281 20.765625 -4.03125 C 21.710938 -5.695312 22.1875 -7.242188 22.1875 -8.671875 L 22.1875 -9.375 Z M 24.1875 -9.375 "/></g></g></g><g fill="#9f0b0b" fill-opacity="1"><g transform="translate(643.321767, 73.053999)"><g><path d="M 28.109375 -12.0625 C 28.109375 -8.320312 27.046875 -5.25 24.921875 -2.84375 C 22.796875 -0.4375 19.8125 0.765625 15.96875 0.765625 C 12.132812 0.765625 9.15625 -0.4375 7.03125 -2.84375 C 4.90625 -5.25 3.84375 -8.320312 3.84375 -12.0625 L 3.84375 -24.109375 C 3.84375 -27.847656 4.90625 -30.90625 7.03125 -33.28125 C 9.15625 -35.664062 12.132812 -36.859375 15.96875 -36.859375 C 19.8125 -36.859375 22.796875 -35.664062 24.921875 -33.28125 C 27.046875 -30.90625 28.109375 -27.847656 28.109375 -24.109375 Z M 21.421875 -9.0625 L 21.421875 -27.109375 C 21.421875 -32.078125 19.585938 -34.5625 15.921875 -34.5625 C 12.265625 -34.5625 10.4375 -32.078125 10.4375 -27.109375 L 10.4375 -9.0625 C 10.4375 -4.039062 12.265625 -1.53125 15.921875 -1.53125 C 19.585938 -1.53125 21.421875 -4.039062 21.421875 -9.0625 Z M 21.421875 -9.0625 "/></g></g></g><g fill="#9f0b0b" fill-opacity="1"><g transform="translate(675.263484, 73.053999)"><g><path d="M 46.390625 -5.6875 C 46.390625 -3.945312 46.925781 -3.078125 48 -3.078125 C 49.070312 -3.078125 49.914062 -3.894531 50.53125 -5.53125 L 51.984375 -5.296875 C 51.984375 -4.835938 51.828125 -4.195312 51.515625 -3.375 C 51.210938 -2.5625 50.867188 -1.882812 50.484375 -1.34375 C 50.109375 -0.800781 49.519531 -0.316406 48.71875 0.109375 C 47.925781 0.546875 47.019531 0.765625 46 0.765625 C 41.800781 0.765625 39.703125 -1.765625 39.703125 -6.828125 L 39.703125 -27.34375 C 39.703125 -32.15625 38.191406 -34.5625 35.171875 -34.5625 C 33.171875 -34.5625 31.617188 -33.664062 30.515625 -31.875 C 29.421875 -30.082031 28.875 -28.007812 28.875 -25.65625 L 28.875 0 L 22.125 0 L 22.125 -27.34375 C 22.125 -32.15625 20.613281 -34.5625 17.59375 -34.5625 C 15.59375 -34.5625 14.03125 -33.664062 12.90625 -31.875 C 11.78125 -30.082031 11.21875 -28.007812 11.21875 -25.65625 L 11.21875 0 L 4.609375 0 L 4.609375 -36.09375 L 11.21875 -36.09375 L 11.21875 -31.640625 C 12.695312 -35.117188 15.226562 -36.859375 18.8125 -36.859375 C 21.113281 -36.859375 23.070312 -36.21875 24.6875 -34.9375 C 26.300781 -33.65625 27.441406 -31.863281 28.109375 -29.5625 C 28.671875 -31.820312 29.65625 -33.601562 31.0625 -34.90625 C 32.46875 -36.207031 34.25 -36.859375 36.40625 -36.859375 C 39.476562 -36.859375 41.910156 -35.769531 43.703125 -33.59375 C 45.492188 -31.414062 46.390625 -28.460938 46.390625 -24.734375 Z M 46.390625 -5.6875 "/></g></g></g></g></g></svg>