<svg xmlns="http://www.w3.org/2000/svg" xmlns:xlink="http://www.w3.org/1999/xlink" width="1000" zoomAndPan="magnify" viewBox="0 0 750 749.999995" height="1000" preserveAspectRatio="xMidYMid meet" version="1.0"><defs><clipPath id="a7492c8e06"><path d="M 47 315 L 703.023438 315 L 703.023438 435.476562 L 47 435.476562 Z M 47 315 " clip-rule="nonzero"/></clipPath><clipPath id="650758b4c1"><path d="M 0.519531 1 L 656 1 L 656 120.265625 L 0.519531 120.265625 Z M 0.519531 1 " clip-rule="nonzero"/></clipPath><clipPath id="0cec86808d"><rect x="0" width="657" y="0" height="121"/></clipPath></defs><g clip-path="url(#a7492c8e06)"><g transform="matrix(1, 0, 0, 1, 47, 315)"><g clip-path="url(#0cec86808d)"><g clip-path="url(#650758b4c1)"><path fill="#9f0b0b" d="M 655.554688 37.214844 C 654.480469 41.234375 652.738281 44.316406 649.65625 47.535156 C 644.96875 52.222656 638.9375 54.769531 632.507812 54.769531 C 627.148438 54.769531 622.726562 53.160156 619.375 49.8125 C 616.828125 47.398438 615.488281 45.121094 614.683594 41.773438 C 614.28125 40.164062 614.28125 36.949219 614.820312 35.339844 C 615.625 32.257812 617.632812 29.578125 620.445312 27.566406 C 621.386719 26.898438 625.003906 25.023438 625.808594 24.886719 C 626.609375 24.621094 625.941406 25.289062 623.527344 26.898438 C 619.242188 29.847656 617.902344 31.1875 616.5625 33.730469 C 615.621094 35.742188 615.355469 36.949219 615.355469 38.957031 C 615.355469 42.441406 616.5625 45.253906 619.105469 47.9375 C 621.25 50.078125 623.394531 51.285156 626.476562 51.957031 C 628.621094 52.359375 632.238281 52.359375 634.515625 51.6875 C 638.671875 50.617188 642.289062 48.472656 645.371094 45.390625 C 652.605469 38.152344 652.875 28.371094 646.039062 21.136719 C 642.289062 17.117188 637.195312 14.703125 631.03125 13.632812 C 628.621094 13.230469 623.664062 13.230469 620.847656 13.632812 C 612.273438 14.703125 603.027344 17.921875 590.296875 23.949219 C 586.679688 25.691406 578.773438 29.710938 570.0625 34.269531 C 548.355469 45.792969 534.421875 52.222656 521.960938 56.78125 C 508.960938 61.46875 496.632812 64.015625 478.945312 65.488281 C 469.433594 66.292969 462.464844 66.695312 453.351562 66.695312 C 439.953125 66.695312 430.304688 65.757812 418.246094 63.480469 L 416.636719 63.210938 L 414.492188 64.285156 C 405.25 68.707031 397.878906 70.847656 389.703125 71.652344 C 387.292969 71.921875 381.398438 71.921875 378.984375 71.652344 C 370.273438 70.847656 362.234375 68.167969 355.535156 63.882812 L 353.390625 62.542969 L 351.246094 62.542969 C 349.503906 62.542969 348.835938 62.675781 347.765625 62.941406 C 346.023438 63.480469 342.941406 65.085938 341.601562 66.023438 C 338.519531 68.4375 336.640625 71.519531 336.375 74.601562 L 336.238281 75.808594 L 336.777344 75.40625 C 338.519531 74.332031 340.660156 73.527344 342.539062 73.394531 C 346.824219 73.128906 350.042969 76.210938 350.042969 80.765625 C 350.042969 83.3125 349.371094 85.054688 347.765625 86.660156 C 345.484375 88.9375 342.402344 89.476562 339.1875 87.867188 C 337.714844 87.0625 335.4375 84.917969 334.5 83.042969 C 334.097656 82.371094 333.695312 81.703125 333.695312 81.703125 C 333.558594 81.703125 331.683594 83.847656 330.878906 85.054688 L 330.210938 85.992188 L 331.148438 87.597656 C 332.488281 89.875 334.5 94.03125 335.167969 96.039062 C 337.714844 104.082031 336.640625 111.046875 331.816406 117.078125 C 331.148438 117.882812 330.613281 118.6875 330.476562 119.089844 C 330.078125 119.890625 329.675781 120.160156 328.46875 120.160156 C 327.261719 120.160156 326.726562 119.890625 326.457031 119.089844 C 326.324219 118.820312 325.789062 117.882812 325.117188 117.078125 C 320.292969 110.914062 319.089844 103.945312 321.769531 96.039062 C 322.4375 94.03125 324.449219 89.742188 325.789062 87.597656 L 326.726562 85.992188 L 326.054688 85.054688 C 325.117188 83.847656 323.375 81.703125 323.242188 81.703125 C 323.242188 81.703125 322.839844 82.371094 322.4375 83.042969 C 321.902344 83.980469 321.367188 84.785156 320.292969 85.855469 C 318.6875 87.597656 317.480469 88.269531 315.46875 88.671875 C 313.058594 89.207031 311.046875 88.535156 309.308594 86.660156 C 307.699219 84.917969 307.027344 83.3125 307.027344 80.765625 C 307.027344 78.488281 307.699219 76.609375 309.171875 75.269531 C 310.109375 74.332031 310.914062 73.929688 312.253906 73.527344 C 314.398438 72.992188 317.613281 73.664062 320.160156 75.40625 L 320.695312 75.808594 L 320.5625 74.601562 C 320.292969 71.519531 318.417969 68.4375 315.335938 66.023438 C 313.996094 64.953125 310.914062 63.480469 309.171875 62.941406 C 308.101562 62.675781 307.566406 62.542969 305.6875 62.542969 L 303.542969 62.542969 L 301.402344 63.882812 C 294.699219 68.167969 286.660156 70.847656 277.953125 71.652344 C 275.539062 71.921875 269.644531 71.921875 267.230469 71.652344 C 259.191406 70.847656 251.820312 68.707031 242.441406 64.285156 L 240.296875 63.210938 L 238.691406 63.480469 C 226.628906 65.757812 216.984375 66.695312 203.582031 66.695312 C 190.183594 66.695312 175.980469 65.757812 163.785156 63.882812 C 141.410156 60.664062 124.257812 53.964844 86.871094 34.269531 C 67.710938 24.085938 59.269531 20.066406 50.425781 17.117188 C 42.652344 14.4375 36.757812 13.363281 30.726562 13.363281 C 27.109375 13.363281 25.101562 13.632812 22.285156 14.4375 C 13.039062 17.25 6.339844 24.21875 5.9375 32.257812 C 5.402344 40.699219 12.503906 49.277344 22.285156 51.957031 C 24.429688 52.492188 28.183594 52.625 30.324219 52.222656 C 33.40625 51.554688 35.6875 50.347656 37.695312 48.203125 C 40.242188 45.523438 41.449219 42.710938 41.449219 39.226562 C 41.449219 37.082031 41.179688 35.875 40.242188 34 C 38.902344 31.320312 37.5625 29.980469 33.273438 27.167969 C 30.863281 25.558594 30.191406 24.886719 30.996094 25.15625 C 31.800781 25.425781 35.285156 27.167969 36.355469 27.835938 C 40.644531 30.785156 42.921875 35.609375 42.25 40.566406 C 41.714844 44.316406 40.242188 47.265625 37.429688 50.078125 C 33.945312 53.429688 29.65625 55.039062 24.296875 55.039062 C 17.863281 55.039062 11.699219 52.492188 7.144531 47.800781 C 4.597656 44.988281 3.257812 43.113281 2.054688 40.164062 C -0.226562 34.671875 0.175781 28.371094 2.992188 23.144531 C 7.144531 15.242188 15.453125 9.878906 25.503906 8.539062 C 27.914062 8.273438 32.605469 8.140625 35.148438 8.40625 C 42.519531 9.210938 51.09375 11.757812 60.609375 16.042969 C 64.09375 17.652344 72.9375 22.207031 77.894531 25.023438 C 80.441406 26.496094 82.585938 27.566406 82.585938 27.566406 C 82.585938 27.566406 82.449219 27.03125 82.183594 26.363281 C 80.976562 23.414062 80.574219 19.796875 81.109375 16.847656 C 82.183594 10.820312 85.667969 5.726562 90.625 3.179688 C 92.097656 2.375 92.769531 2.109375 94.242188 1.839844 C 94.777344 1.707031 95.851562 1.707031 97.054688 1.707031 C 98.796875 1.707031 99.199219 1.839844 100.273438 2.242188 C 102.953125 3.179688 104.960938 4.921875 106.167969 7.46875 C 106.972656 9.210938 107.375 10.683594 107.375 12.5625 C 107.375 18.722656 102.683594 25.023438 97.859375 25.023438 C 96.921875 25.023438 96.65625 24.886719 95.984375 24.488281 C 94.511719 23.546875 94.109375 21.671875 94.777344 18.589844 C 95.3125 16.042969 95.984375 15.105469 95.714844 17.382812 C 95.449219 19.394531 95.582031 21.671875 95.851562 22.476562 C 96.386719 23.683594 97.324219 23.949219 98.796875 23.546875 C 102.015625 22.609375 104.425781 18.722656 104.425781 14.4375 C 104.425781 10.550781 102.28125 7.46875 98.933594 6.664062 C 97.59375 6.398438 96.789062 6.398438 95.3125 6.664062 C 90.625 7.738281 86.070312 12.695312 84.59375 18.324219 C 83.789062 21.269531 83.925781 23.546875 84.863281 26.226562 C 85.265625 27.433594 86.871094 30.113281 87.542969 30.648438 C 87.8125 30.917969 95.449219 35.339844 101.878906 39.09375 C 132.03125 56.378906 148.644531 61.871094 178.527344 64.285156 C 200.234375 66.160156 217.921875 65.625 234.804688 62.808594 C 236.414062 62.542969 237.753906 62.273438 237.886719 62.273438 C 237.886719 62.273438 236.546875 61.46875 234.804688 60.53125 C 225.828125 55.441406 220.601562 51.820312 211.625 43.914062 C 205.59375 38.691406 202.78125 36.410156 197.957031 33.0625 C 188.175781 26.226562 172.09375 16.984375 163.25 13.097656 C 153.871094 9.078125 145.429688 6.933594 138.058594 6.933594 C 133.503906 6.933594 130.824219 7.46875 127.742188 9.078125 C 120.640625 12.828125 116.351562 21.804688 118.09375 29.175781 C 118.898438 32.390625 120.371094 34.9375 123.050781 37.617188 C 126.667969 41.234375 130.554688 43.246094 134.84375 43.78125 C 141.007812 44.453125 146.5 40.433594 148.914062 33.332031 C 149.582031 31.453125 149.851562 29.980469 149.851562 28.105469 C 149.851562 25.425781 149.179688 23.683594 147.707031 22.074219 C 146.769531 21.003906 145.429688 20.199219 142.882812 19.125 C 141.945312 18.722656 141.140625 18.324219 141.007812 18.1875 C 140.875 17.921875 141.542969 18.054688 143.417969 18.722656 C 147.707031 20.199219 149.984375 22.207031 150.789062 25.289062 C 151.59375 28.507812 151.058594 32.390625 149.179688 36.277344 C 146.902344 40.832031 143.554688 43.914062 139.265625 44.988281 C 137.65625 45.390625 134.039062 45.390625 132.164062 44.988281 C 128.277344 44.050781 124.390625 41.90625 121.042969 38.957031 C 115.949219 34.402344 113.402344 28.507812 113.941406 22.34375 C 114.742188 13.902344 120.640625 6.128906 128.546875 3.316406 C 138.328125 -0.167969 154.003906 2.644531 169.949219 10.683594 C 181.070312 16.3125 199.429688 27.835938 207.601562 34.402344 C 208.542969 35.207031 209.34375 35.742188 209.34375 35.742188 C 209.34375 35.742188 209.210938 34.804688 209.078125 33.867188 C 208.273438 29.710938 208.273438 25.15625 209.078125 21.003906 C 210.820312 12.023438 216.179688 6.128906 224.351562 4.386719 C 226.230469 3.984375 230.113281 3.851562 232.125 4.253906 C 240.164062 5.59375 246.058594 10.550781 248.070312 17.519531 C 248.339844 18.589844 248.472656 19.125 248.472656 21.671875 C 248.472656 24.21875 248.472656 24.621094 248.070312 26.09375 C 247 29.980469 244.71875 33.332031 241.773438 35.339844 C 237.484375 38.152344 232.125 37.753906 228.640625 34.269531 C 225.558594 31.1875 225.292969 27.433594 227.433594 21.539062 C 227.703125 20.867188 228.105469 20.066406 228.238281 19.796875 L 228.507812 19.394531 L 228.507812 19.929688 C 228.507812 20.199219 228.371094 21.136719 228.105469 22.074219 C 227.167969 25.960938 227.167969 28.371094 228.238281 30.515625 C 229.578125 33.597656 233.332031 35.207031 236.816406 34.402344 C 238.289062 34 239.226562 33.332031 240.699219 31.855469 C 241.90625 30.648438 242.175781 30.25 242.84375 28.773438 C 243.917969 26.496094 244.320312 25.023438 244.320312 22.609375 C 244.320312 20.332031 244.050781 18.992188 243.113281 17.117188 C 241.90625 14.570312 239.898438 12.695312 237.082031 11.21875 C 232.527344 8.941406 227.03125 8.675781 222.34375 10.683594 C 220.066406 11.757812 217.519531 14.035156 216.179688 16.3125 C 214.304688 19.664062 213.367188 23.414062 213.367188 28.238281 C 213.367188 32.125 213.902344 35.742188 215.375 40.433594 L 215.777344 41.90625 L 217.921875 43.78125 C 225.558594 50.347656 233.195312 55.441406 242.175781 59.863281 C 245.121094 61.335938 244.453125 61.335938 249.542969 59.996094 C 262.945312 56.644531 274.734375 52.089844 287.199219 45.523438 C 292.691406 42.574219 298.183594 39.359375 301 37.214844 C 301.535156 36.8125 302.070312 36.546875 302.070312 36.679688 C 302.207031 36.949219 300.195312 38.554688 296.980469 40.699219 C 283.3125 49.8125 266.695312 57.316406 250.347656 61.46875 C 248.875 61.871094 247.535156 62.273438 247.535156 62.273438 C 247.265625 62.542969 253.429688 64.683594 257.046875 65.625 C 262.007812 66.964844 266.027344 67.5 271.25 67.5 C 276.476562 67.5 280.230469 67.097656 285.054688 65.890625 C 291.21875 64.285156 296.84375 61.46875 301.535156 57.851562 C 304.484375 55.441406 308.101562 51.417969 310.246094 47.9375 C 315.605469 39.359375 317.613281 29.578125 315.203125 22.207031 C 312.925781 14.839844 306.761719 9.746094 298.988281 8.675781 C 297.246094 8.40625 293.898438 8.539062 292.15625 8.941406 C 283.042969 10.820312 275.273438 18.324219 273.53125 27.167969 C 273.128906 29.042969 273.261719 32.257812 273.796875 33.867188 C 274.601562 36.011719 275.808594 37.617188 277.550781 38.421875 C 278.355469 38.824219 278.621094 38.824219 280.230469 38.824219 C 281.703125 38.824219 282.105469 38.824219 282.910156 38.421875 C 285.859375 37.214844 288.402344 34.269531 289.476562 31.050781 C 290.011719 29.445312 290.011719 27.835938 289.609375 26.898438 C 289.207031 26.09375 289.339844 25.960938 290.011719 26.765625 C 291.753906 29.175781 290.546875 33.867188 287.464844 37.214844 C 285.320312 39.492188 283.175781 40.566406 280.632812 40.699219 C 279.425781 40.699219 278.890625 40.699219 277.953125 40.433594 C 275.671875 39.761719 273.933594 38.152344 272.859375 35.742188 C 271.921875 33.730469 271.652344 32.527344 271.652344 29.710938 C 271.652344 27.566406 271.652344 26.898438 272.054688 25.558594 C 272.59375 23.546875 272.992188 22.207031 273.933594 20.464844 C 277.148438 14.035156 283.042969 8.808594 289.878906 6.53125 C 303.945312 1.707031 318.152344 9.613281 320.964844 23.816406 C 322.839844 33.332031 319.492188 44.988281 312.121094 54.5 C 311.449219 55.441406 309.707031 57.316406 308.367188 58.65625 L 305.957031 61.066406 L 306.628906 61.066406 C 309.574219 61.066406 313.730469 62.40625 316.675781 64.417969 C 318.953125 66.023438 321.097656 68.304688 322.304688 70.714844 C 323.375 72.859375 323.644531 73.796875 323.644531 76.746094 L 323.644531 79.425781 L 324.984375 80.898438 C 325.65625 81.703125 326.726562 82.773438 327.128906 83.3125 C 327.53125 83.847656 327.933594 84.382812 328.066406 84.382812 C 328.066406 84.382812 328.46875 83.980469 329.003906 83.3125 C 329.40625 82.773438 330.34375 81.703125 331.148438 80.898438 L 332.488281 79.425781 L 332.488281 76.746094 C 332.488281 73.796875 332.757812 72.859375 333.828125 70.714844 C 335.4375 67.5 338.25 64.683594 342.003906 62.941406 C 344.28125 61.871094 347.363281 61.066406 349.371094 61.066406 L 350.042969 61.066406 L 347.628906 58.65625 C 343.34375 54.367188 340.394531 50.078125 337.980469 44.855469 C 333.160156 34 333.292969 23.28125 338.382812 15.507812 C 343.609375 7.46875 353.257812 3.582031 363.171875 5.726562 C 371.214844 7.46875 378.449219 13.097656 382.066406 20.464844 C 383.003906 22.207031 383.40625 23.546875 383.941406 25.558594 C 384.34375 27.03125 384.34375 27.566406 384.34375 29.710938 C 384.34375 32.660156 384.078125 33.730469 383.140625 35.742188 C 382.066406 38.019531 380.191406 39.761719 378.046875 40.433594 C 377.109375 40.699219 376.707031 40.699219 375.367188 40.699219 C 372.6875 40.566406 370.542969 39.492188 368.535156 37.214844 C 365.453125 33.867188 364.246094 29.175781 365.988281 26.765625 C 366.523438 25.960938 366.792969 26.09375 366.390625 26.898438 C 365.988281 27.835938 365.988281 29.445312 366.523438 31.050781 C 367.59375 34.269531 370.140625 37.214844 373.089844 38.421875 C 373.894531 38.824219 374.296875 38.824219 375.769531 38.824219 C 377.378906 38.824219 377.644531 38.824219 378.449219 38.421875 C 380.191406 37.617188 381.53125 36.011719 382.199219 33.867188 C 382.738281 32.257812 382.871094 29.042969 382.46875 27.167969 C 380.726562 18.324219 372.957031 10.683594 363.84375 8.941406 C 361.96875 8.539062 358.617188 8.40625 357.007812 8.675781 C 349.238281 9.746094 343.074219 14.839844 340.796875 22.207031 C 338.519531 29.578125 340.394531 39.359375 345.753906 47.9375 C 348.03125 51.417969 351.515625 55.441406 354.464844 57.851562 C 359.019531 61.601562 364.78125 64.417969 370.945312 65.890625 C 375.636719 67.097656 379.386719 67.632812 384.746094 67.5 C 389.972656 67.5 393.992188 66.964844 398.949219 65.625 C 402.570312 64.683594 408.730469 62.40625 408.464844 62.273438 C 408.464844 62.273438 407.125 61.871094 405.652344 61.46875 C 391.445312 57.851562 377.109375 51.820312 363.976562 43.914062 C 361.164062 42.175781 356.207031 38.957031 355 37.753906 C 353.792969 36.8125 353.660156 36.144531 354.730469 37.082031 C 357.8125 39.359375 364.511719 43.378906 371.078125 46.863281 C 382.738281 52.894531 393.726562 57.046875 406.320312 60.128906 C 411.414062 61.46875 410.609375 61.46875 413.691406 59.996094 C 422.667969 55.574219 430.441406 50.480469 437.945312 43.914062 L 440.085938 42.039062 L 440.488281 40.566406 C 441.964844 35.875 442.5 32.257812 442.5 28.371094 C 442.5 25.425781 442.367188 24.085938 441.695312 21.539062 C 440.625 17.117188 438.613281 14.035156 435.664062 12.023438 C 434.191406 10.953125 433.253906 10.550781 431.511719 10.015625 C 427.359375 8.808594 422.800781 9.210938 418.917969 11.21875 C 416.101562 12.695312 414.09375 14.570312 412.886719 17.117188 C 411.949219 18.992188 411.679688 20.332031 411.679688 22.609375 C 411.679688 25.023438 412.082031 26.496094 413.152344 28.773438 C 413.824219 30.25 414.226562 30.648438 415.296875 31.855469 C 416.773438 33.332031 417.710938 34 419.183594 34.402344 C 422.535156 35.339844 426.285156 33.597656 427.761719 30.515625 C 428.699219 28.371094 428.699219 26.09375 427.894531 22.074219 C 427.625 21.136719 427.492188 20.199219 427.492188 19.929688 L 427.492188 19.394531 L 427.761719 19.796875 C 427.894531 19.929688 428.296875 20.734375 428.5625 21.539062 C 430.707031 27.300781 430.441406 31.050781 427.359375 34.269531 C 423.472656 38.289062 417.175781 38.152344 412.617188 34.132812 C 410.609375 32.257812 408.730469 29.175781 407.929688 26.09375 C 407.527344 24.621094 407.527344 24.21875 407.527344 21.671875 C 407.527344 19.261719 407.527344 18.722656 407.929688 17.519531 C 408.730469 14.4375 410.207031 12.023438 412.351562 9.878906 C 415.433594 6.796875 419.316406 4.921875 423.875 4.117188 C 425.882812 3.851562 429.769531 3.851562 431.644531 4.253906 C 436.605469 5.324219 440.355469 7.738281 443.167969 11.621094 C 447.054688 16.984375 448.53125 25.691406 446.921875 33.867188 C 446.652344 34.9375 446.519531 35.742188 446.652344 35.742188 C 446.652344 35.742188 447.457031 35.207031 448.394531 34.402344 C 456.570312 27.96875 474.925781 16.445312 486.046875 10.683594 C 501.992188 2.511719 517.671875 -0.167969 527.453125 3.316406 C 535.359375 6.128906 541.253906 13.765625 542.058594 22.34375 C 542.59375 28.371094 540.050781 34.402344 534.957031 38.957031 C 531.742188 41.773438 527.722656 44.050781 523.835938 44.988281 C 521.960938 45.523438 518.339844 45.523438 516.734375 44.988281 C 514.1875 44.316406 511.640625 42.710938 509.898438 40.832031 C 505.878906 36.410156 504.003906 29.980469 505.210938 25.15625 C 506.015625 22.074219 508.292969 20.066406 512.578125 18.589844 C 514.457031 17.921875 515.125 17.785156 514.992188 18.054688 C 514.992188 18.1875 514.1875 18.589844 513.117188 18.992188 C 510.570312 20.066406 509.230469 20.867188 508.292969 21.941406 C 506.816406 23.546875 506.148438 25.289062 506.148438 27.96875 C 506.148438 33.195312 509.097656 38.824219 513.25 41.636719 C 515.660156 43.246094 518.476562 43.914062 521.15625 43.648438 C 525.578125 43.113281 529.464844 41.101562 532.945312 37.484375 C 535.628906 34.804688 537.101562 32.257812 537.90625 29.042969 C 539.78125 21.671875 535.492188 12.5625 528.257812 8.941406 C 525.175781 7.335938 522.496094 6.796875 517.941406 6.796875 C 510.570312 6.796875 501.992188 8.941406 492.75 12.960938 C 483.90625 16.847656 467.691406 26.09375 458.042969 32.929688 C 453.085938 36.410156 450.40625 38.554688 444.375 43.78125 C 435.398438 51.554688 430.304688 55.304688 421.195312 60.398438 C 419.453125 61.335938 418.113281 62.140625 418.113281 62.140625 C 418.113281 62.140625 419.585938 62.40625 421.195312 62.675781 C 433.386719 64.683594 445.984375 65.488281 459.25 65.085938 C 477.070312 64.550781 492.613281 62.945312 504.40625 60.128906 C 519.011719 56.78125 533.484375 50.617188 554.117188 38.824219 C 560.550781 35.207031 568.1875 30.648438 568.457031 30.382812 C 569.125 29.847656 570.601562 27.167969 571.136719 25.960938 C 572.074219 23.28125 572.207031 21.003906 571.402344 18.054688 C 569.929688 12.292969 565.375 7.335938 560.683594 6.398438 C 559.210938 6.128906 558.40625 6.128906 557.066406 6.398438 C 555.726562 6.664062 554.65625 7.335938 553.714844 8.273438 C 551.304688 10.820312 550.902344 15.105469 552.644531 18.859375 C 553.714844 21.136719 555.324219 22.609375 557.199219 23.28125 C 558.675781 23.683594 559.613281 23.414062 560.148438 22.207031 C 560.550781 21.40625 560.550781 19.125 560.28125 17.117188 C 560.015625 14.839844 560.683594 15.777344 561.21875 18.324219 C 561.890625 21.539062 561.488281 23.28125 560.015625 24.21875 C 559.34375 24.621094 559.078125 24.753906 558.136719 24.753906 C 556.796875 24.753906 555.726562 24.351562 554.386719 23.546875 C 551.035156 21.269531 548.625 16.714844 548.625 12.425781 C 548.625 10.550781 549.027344 9.078125 549.832031 7.335938 C 551.035156 4.789062 553.046875 3.046875 555.726562 2.109375 C 556.933594 1.707031 557.199219 1.707031 559.210938 1.707031 C 561.890625 1.707031 562.828125 1.976562 565.105469 3.046875 C 570.199219 5.59375 573.816406 10.683594 574.886719 16.847656 C 575.425781 19.796875 575.023438 23.546875 573.816406 26.363281 C 573.546875 27.03125 573.414062 27.566406 573.414062 27.566406 C 573.414062 27.566406 575.558594 26.496094 578.105469 25.023438 C 583.0625 22.207031 591.90625 17.652344 595.390625 16.042969 C 604.902344 11.757812 613.480469 9.078125 620.847656 8.40625 C 623.394531 8.140625 628.085938 8.140625 630.496094 8.539062 C 636.390625 9.34375 641.753906 11.488281 646.039062 14.839844 C 651 18.722656 654.214844 24.085938 655.152344 29.578125 C 656.222656 31.722656 656.089844 35.070312 655.554688 37.214844 Z M 337.179688 80.363281 C 337.980469 81.972656 339.054688 83.3125 340.125 84.113281 C 341.601562 85.1875 342.804688 85.320312 344.011719 84.785156 C 345.484375 84.113281 346.425781 82.238281 346.289062 80.230469 C 346.15625 78.753906 345.484375 77.683594 344.28125 77.011719 C 343.609375 76.609375 341.601562 76.609375 340.527344 76.878906 C 339.457031 77.28125 337.582031 78.21875 336.910156 78.753906 L 336.507812 79.15625 Z M 319.625 78.753906 C 318.953125 78.21875 316.945312 77.148438 315.871094 76.878906 C 314.933594 76.609375 313.460938 76.609375 312.789062 76.746094 C 312.121094 77.011719 311.316406 77.550781 310.914062 78.085938 C 309.171875 80.632812 311.050781 84.917969 313.730469 84.917969 C 315.738281 84.917969 318.152344 83.042969 319.492188 80.230469 L 320.027344 79.023438 Z M 329.675781 91.082031 C 329.136719 89.875 328.46875 88.9375 328.46875 88.9375 C 328.199219 88.804688 327.796875 89.609375 326.59375 92.019531 C 322.574219 100.058594 322.574219 107.296875 326.457031 113.324219 C 326.996094 114.128906 327.53125 114.933594 327.796875 115.203125 L 328.335938 115.738281 L 328.871094 115.203125 C 329.808594 114.128906 331.148438 111.984375 331.816406 110.511719 C 332.621094 108.503906 333.023438 106.761719 333.160156 104.617188 C 333.292969 100.328125 332.085938 96.039062 329.675781 91.082031 Z M 329.675781 91.082031 " fill-opacity="1" fill-rule="nonzero"/></g></g></g></g></svg>