<svg xmlns="http://www.w3.org/2000/svg" xmlns:xlink="http://www.w3.org/1999/xlink" width="1000" zoomAndPan="magnify" viewBox="0 0 750 749.999995" height="1000" preserveAspectRatio="xMidYMid meet" version="1.0"><defs><clipPath id="5c27667d83"><rect x="0" width="750" y="0" height="750"/></clipPath><clipPath id="8bdd0a4da9"><path d="M 600.835938 136.425781 L 611.96875 136.425781 L 611.96875 147.558594 L 600.835938 147.558594 Z M 600.835938 136.425781 " clip-rule="nonzero"/></clipPath><clipPath id="3373863559"><path d="M 606.402344 136.425781 C 603.328125 136.425781 600.835938 138.917969 600.835938 141.992188 C 600.835938 145.066406 603.328125 147.558594 606.402344 147.558594 C 609.476562 147.558594 611.96875 145.066406 611.96875 141.992188 C 611.96875 138.917969 609.476562 136.425781 606.402344 136.425781 Z M 606.402344 136.425781 " clip-rule="nonzero"/></clipPath><clipPath id="8634590e0d"><path d="M 0.835938 0.425781 L 11.96875 0.425781 L 11.96875 11.558594 L 0.835938 11.558594 Z M 0.835938 0.425781 " clip-rule="nonzero"/></clipPath><clipPath id="b40af798ae"><path d="M 6.402344 0.425781 C 3.328125 0.425781 0.835938 2.917969 0.835938 5.992188 C 0.835938 9.066406 3.328125 11.558594 6.402344 11.558594 C 9.476562 11.558594 11.96875 9.066406 11.96875 5.992188 C 11.96875 2.917969 9.476562 0.425781 6.402344 0.425781 Z M 6.402344 0.425781 " clip-rule="nonzero"/></clipPath><clipPath id="8a5f30d47f"><rect x="0" width="12" y="0" height="12"/></clipPath></defs><g transform="matrix(1, 0, 0, 1, 0, -0.000000000000042435)"><g clip-path="url(#5c27667d83)"><path fill="#9f0b0b" d="M 592.921875 131.851562 C 600.734375 134.96875 612.511719 132.328125 624.675781 125.113281 C 617.460938 137.296875 614.820312 149.113281 617.941406 156.871094 C 614.503906 157.441406 611.835938 156.78125 610.171875 155.101562 C 609.78125 154.710938 609.449219 154.277344 609.179688 153.796875 C 608.308594 154.199219 607.417969 154.554688 606.511719 154.859375 C 602.011719 156.359375 598.5 156.046875 596.308594 154.335938 C 596.191406 154.183594 596.070312 154.019531 595.964844 153.839844 L 595.46875 153.496094 C 593.761719 151.304688 593.445312 147.78125 594.945312 143.296875 C 595.25 142.386719 595.605469 141.496094 596.011719 140.625 C 595.53125 140.355469 595.09375 140.023438 594.703125 139.636719 C 593.011719 138 592.335938 135.328125 592.921875 131.851562 Z M 592.921875 131.851562 " fill-opacity="1" fill-rule="nonzero"/><path fill="#9f0b0b" d="M 580.183594 107.761719 L 580.933594 108.585938 C 589.753906 118.5 606.148438 124.246094 619.214844 122.085938 L 620.308594 121.90625 L 621.136719 121.726562 L 621.839844 121.574219 L 621.253906 122.011719 L 620.566406 122.519531 L 619.605469 123.148438 C 617.359375 124.578125 614.964844 125.671875 612.417969 126.4375 C 609.867188 127.203125 607.265625 127.605469 604.605469 127.648438 C 601.695312 127.757812 598.867188 127.332031 596.117188 126.367188 C 593.371094 125.40625 590.894531 123.972656 588.691406 122.070312 C 586.65625 120.375 584.886719 118.433594 583.386719 116.25 C 581.886719 114.066406 580.707031 111.722656 579.855469 109.214844 C 579.71875 108.808594 579.601562 108.449219 579.511719 108.136719 L 579.285156 107.308594 L 579.105469 106.605469 L 579.570312 107.160156 Z M 580.183594 107.761719 " fill-opacity="1" fill-rule="nonzero"/><path fill="#9f0b0b" d="M 623.804688 136.351562 C 624.558594 134.175781 625.558594 132.121094 626.804688 130.183594 C 627.046875 129.824219 627.238281 129.511719 627.433594 129.226562 L 627.945312 128.535156 L 628.378906 127.949219 L 628.230469 128.65625 L 628.050781 129.480469 C 628.050781 129.796875 627.929688 130.171875 627.871094 130.574219 C 627.535156 132.675781 627.390625 134.792969 627.433594 136.921875 C 627.609375 141.839844 628.515625 146.621094 630.144531 151.265625 C 631.773438 155.910156 634.054688 160.207031 636.988281 164.160156 C 638.285156 165.847656 639.71875 167.410156 641.296875 168.839844 L 642.121094 169.589844 L 642.765625 170.128906 L 643.320312 170.59375 L 642.613281 170.414062 L 641.789062 170.191406 L 640.710938 169.84375 C 638.203125 168.992188 635.855469 167.8125 633.671875 166.3125 C 631.492188 164.8125 629.550781 163.046875 627.855469 161.011719 C 625.953125 158.804688 624.519531 156.328125 623.554688 153.582031 C 622.59375 150.832031 622.164062 148.003906 622.273438 145.09375 C 622.332031 142.101562 622.839844 139.183594 623.804688 136.351562 Z M 623.804688 136.351562 " fill-opacity="1" fill-rule="nonzero"/><path fill="#9f0b0b" d="M 721.394531 216.703125 L 720.988281 216.238281 L 720.601562 215.835938 L 719.910156 215.144531 L 719.371094 214.664062 L 718.90625 214.246094 L 719.503906 214.09375 L 720.210938 213.914062 L 721.15625 213.628906 L 721.695312 213.464844 L 722.28125 213.238281 L 722.910156 213.015625 L 723.238281 212.878906 L 723.570312 212.730469 L 724.261719 212.429688 L 724.980469 212.085938 L 725.714844 211.710938 L 726.464844 211.289062 C 728.667969 210.011719 730.707031 208.511719 732.585938 206.789062 L 732.703125 206.683594 C 734.46875 205.054688 736.136719 203.332031 737.699219 201.511719 C 739.378906 199.597656 740.941406 197.597656 742.394531 195.511719 C 744.011719 193.128906 745.414062 190.628906 746.609375 188.011719 L 747 187.246094 C 747.136719 186.929688 747.253906 186.628906 747.390625 186.316406 C 747.523438 186 747.644531 185.714844 747.765625 185.414062 L 748.09375 184.546875 L 748.261719 184.125 L 748.410156 183.703125 L 748.726562 182.851562 L 748.980469 182.101562 L 749.191406 181.410156 C 749.324219 180.960938 749.445312 180.570312 749.550781 180.210938 L 749.789062 179.296875 L 750 178.558594 C 750 178.558594 750 178.84375 750 179.355469 L 750 180.285156 C 750 180.660156 750 181.066406 750 181.546875 L 750 182.28125 L 749.925781 183.089844 L 749.835938 183.960938 C 749.835938 184.109375 749.835938 184.261719 749.835938 184.410156 L 749.835938 184.875 L 749.683594 185.851562 C 749.683594 186.179688 749.566406 186.523438 749.503906 186.871094 C 749.445312 187.214844 749.371094 187.574219 749.296875 187.933594 L 749.039062 189.03125 C 748.203125 192.265625 747.023438 195.371094 745.5 198.34375 C 744.714844 199.957031 743.824219 201.503906 742.828125 202.996094 C 741.128906 205.507812 739.246094 207.875 737.191406 210.105469 C 735.046875 212.324219 732.691406 213.855469 730.378906 215.789062 C 729.074219 216.898438 729.164062 217.679688 729.796875 219.089844 C 730.703125 221.160156 731.625 223.21875 732.554688 225.269531 C 733.261719 227.21875 733.761719 229.21875 734.054688 231.269531 L 734.054688 231.511719 C 734.660156 234.480469 734.886719 237.480469 734.730469 240.511719 C 734.585938 243.804688 734.085938 247.042969 733.230469 250.230469 L 732.914062 251.324219 C 732.808594 251.683594 732.691406 252.03125 732.585938 252.359375 C 732.480469 252.691406 732.375 253.035156 732.253906 253.351562 L 731.910156 254.28125 L 731.746094 254.730469 C 731.746094 254.878906 731.640625 255.015625 731.578125 255.164062 L 731.234375 255.976562 L 730.921875 256.726562 L 730.605469 257.398438 C 730.394531 257.820312 730.230469 258.210938 730.066406 258.539062 L 729.628906 259.378906 L 729.253906 260.085938 L 729.300781 259.351562 L 729.523438 258.433594 C 729.613281 258.074219 729.691406 257.65625 729.796875 257.203125 L 729.945312 256.5 L 730.078125 255.71875 L 730.230469 254.894531 C 730.230469 254.761719 730.230469 254.609375 730.230469 254.460938 L 730.230469 254.011719 L 730.363281 253.078125 C 730.363281 252.765625 730.363281 252.449219 730.46875 252.121094 C 730.574219 251.789062 730.546875 251.460938 730.574219 251.128906 L 730.574219 250.109375 C 730.769531 247.265625 730.726562 244.425781 730.441406 241.589844 C 730.164062 239.066406 729.742188 236.566406 729.179688 234.089844 C 728.746094 231.816406 728.1875 229.578125 727.5 227.371094 L 727.410156 227.128906 C 726.570312 224.761719 725.484375 222.511719 724.15625 220.378906 L 723.691406 219.660156 L 723.210938 218.984375 L 722.746094 218.339844 L 722.28125 217.753906 L 722.054688 217.46875 L 721.828125 217.199219 Z M 721.394531 216.703125 " fill-opacity="1" fill-rule="nonzero"/><path fill="#9f0b0b" d="M 686.878906 313.351562 C 684.449219 314.851562 683.984375 317.160156 683.609375 319.726562 C 683.371094 321.359375 683.054688 322.996094 682.785156 324.628906 C 681.914062 329.714844 681.320312 334.828125 681 339.976562 C 680.890625 341.796875 680.800781 343.609375 680.730469 345.421875 C 680.128906 362.503906 680.265625 581.070312 680.445312 749.835938 L 677.21875 749.835938 C 677.414062 581.054688 677.550781 362.445312 676.933594 345.34375 C 676.753906 340.078125 676.425781 334.84375 675.75 329.578125 C 675.375 326.578125 674.910156 323.578125 674.25 320.714844 C 673.710938 318.058594 673.378906 315.359375 671.445312 313.453125 C 673.957031 314.066406 676.503906 314.363281 679.089844 314.335938 C 681.675781 314.3125 684.214844 313.96875 686.714844 313.304688 Z M 686.878906 313.351562 " fill-opacity="1" fill-rule="nonzero"/><path fill="#9f0b0b" d="M 740.746094 173.851562 C 739.949219 176.710938 738.917969 179.488281 737.65625 182.175781 C 735.125 187.488281 731.90625 192.34375 727.996094 196.738281 C 724.21875 200.992188 720.035156 204.792969 715.441406 208.140625 L 713.863281 209.265625 C 713.253906 208.175781 712.628906 207.09375 711.988281 206.023438 L 713.160156 205.125 C 717.398438 201.792969 721.238281 198.054688 724.679688 193.90625 C 728.160156 189.71875 730.996094 185.132812 733.183594 180.148438 C 734.253906 177.679688 735.117188 175.140625 735.765625 172.53125 C 737.054688 167.324219 737.421875 162.054688 736.859375 156.71875 C 736.5625 154.105469 736.0625 151.53125 735.359375 148.996094 C 734.03125 143.996094 732.078125 139.257812 729.496094 134.773438 C 727.03125 130.503906 724.109375 126.578125 720.71875 123 C 717.558594 119.644531 714.089844 116.644531 710.308594 114 C 708.46875 112.710938 706.5625 111.519531 704.59375 110.429688 C 702.546875 109.320312 700.449219 108.320312 698.296875 107.429688 C 696.078125 106.441406 693.8125 105.578125 691.5 104.851562 C 690.914062 104.683594 690.316406 104.503906 689.714844 104.355469 C 689.113281 104.203125 688.515625 104.039062 687.914062 103.90625 C 686.726562 103.636719 685.515625 103.410156 684.285156 103.230469 C 679.199219 102.515625 674.125 102.585938 669.058594 103.441406 C 666.484375 103.902344 663.960938 104.578125 661.5 105.464844 C 659.015625 106.324219 656.632812 107.414062 654.359375 108.734375 C 649.726562 111.378906 645.972656 114.949219 643.09375 119.445312 C 642.40625 120.539062 641.789062 121.675781 641.25 122.851562 C 640.980469 123.433594 640.726562 124.050781 640.484375 124.664062 C 640.246094 125.28125 640.019531 125.894531 639.824219 126.523438 C 639.019531 129.039062 638.519531 131.617188 638.324219 134.25 C 638.117188 136.847656 638.257812 139.429688 638.746094 141.988281 C 639.214844 144.488281 640.097656 146.832031 641.386719 149.023438 C 642.96875 151.703125 645.121094 153.804688 647.835938 155.324219 L 648.644531 155.746094 L 649.46875 156.136719 C 650.585938 156.617188 651.738281 156.996094 652.921875 157.273438 L 653.804688 157.46875 L 654.703125 157.636719 C 655.316406 157.734375 655.921875 157.816406 656.519531 157.875 C 657.730469 158 658.945312 158.058594 660.164062 158.054688 C 662.550781 158.050781 664.902344 157.785156 667.230469 157.261719 C 669.433594 156.765625 671.523438 155.976562 673.5 154.890625 C 674.449219 154.359375 675.34375 153.75 676.183594 153.058594 L 676.5 152.851562 L 676.800781 152.578125 L 677.371094 152.039062 L 678 151.351562 C 678.089844 151.261719 678.164062 151.15625 678.253906 151.050781 L 678.511719 150.75 C 679.152344 149.945312 679.707031 149.085938 680.175781 148.171875 C 680.621094 147.269531 680.976562 146.335938 681.238281 145.363281 L 681.421875 144.644531 L 681.554688 143.925781 L 681.554688 142.84375 C 681.554688 142.726562 681.554688 142.605469 681.554688 142.484375 C 681.632812 141.53125 681.632812 140.574219 681.554688 139.621094 C 681.554688 139.378906 681.554688 139.15625 681.554688 138.914062 L 681.464844 138.226562 C 681.464844 138 681.390625 137.761719 681.34375 137.535156 L 681.34375 136.859375 L 681.179688 136.199219 C 681.179688 136.09375 681.179688 135.976562 681.089844 135.871094 L 681 135.601562 C 680.878906 135.164062 680.730469 134.746094 680.59375 134.324219 C 680.277344 133.511719 679.914062 132.722656 679.5 131.953125 L 679.351562 131.671875 L 679.351562 131.535156 L 679.273438 131.398438 L 678.960938 130.859375 C 678.855469 130.679688 678.75 130.5 678.628906 130.335938 L 678.300781 129.824219 C 677.4375 128.542969 676.4375 127.378906 675.300781 126.328125 C 674.28125 125.398438 673.167969 124.601562 671.953125 123.945312 C 670.414062 123.132812 668.785156 122.582031 667.066406 122.296875 C 666.570312 122.203125 666.089844 122.144531 665.566406 122.101562 C 664.648438 121.996094 663.839844 121.949219 663.136719 121.921875 L 659.851562 121.921875 L 663.136719 121.921875 C 663.839844 121.921875 664.636719 121.921875 665.578125 121.921875 C 666.046875 121.921875 666.523438 121.921875 667.078125 122.054688 C 667.621094 122.117188 668.15625 122.207031 668.683594 122.324219 C 669.902344 122.582031 671.074219 122.984375 672.195312 123.523438 C 673.492188 124.152344 674.691406 124.925781 675.796875 125.851562 C 677.039062 126.890625 678.144531 128.058594 679.109375 129.359375 L 679.484375 129.886719 C 679.605469 130.066406 679.738281 130.230469 679.84375 130.425781 L 680.191406 130.980469 L 680.28125 131.113281 L 680.371094 131.265625 L 680.535156 131.550781 C 680.992188 132.34375 681.394531 133.164062 681.75 134.011719 C 681.914062 134.445312 682.109375 134.878906 682.246094 135.328125 L 682.363281 135.675781 C 682.363281 135.796875 682.441406 135.898438 682.46875 136.019531 L 682.664062 136.726562 L 682.664062 137.085938 L 682.753906 137.445312 C 682.753906 137.683594 682.875 137.925781 682.90625 138.164062 L 683.039062 138.898438 C 683.039062 139.15625 683.039062 139.394531 683.144531 139.648438 C 683.269531 140.683594 683.308594 141.714844 683.265625 142.753906 C 683.265625 142.890625 683.265625 143.023438 683.265625 143.160156 L 683.265625 144.359375 L 683.144531 145.171875 C 683.144531 145.441406 683.039062 145.710938 682.980469 145.980469 C 682.734375 147.078125 682.382812 148.144531 681.929688 149.175781 C 681.449219 150.234375 680.863281 151.234375 680.175781 152.175781 L 679.90625 152.535156 C 679.816406 152.65625 679.726562 152.773438 679.636719 152.878906 L 679.050781 153.554688 L 678.421875 154.199219 L 678 154.351562 L 677.671875 154.648438 C 676.734375 155.464844 675.734375 156.191406 674.671875 156.824219 C 672.519531 158.125 670.230469 159.09375 667.800781 159.734375 C 665.304688 160.410156 662.765625 160.808594 660.179688 160.921875 C 658.859375 160.992188 657.539062 160.992188 656.21875 160.921875 C 655.550781 160.921875 654.878906 160.859375 654.210938 160.738281 L 653.191406 160.605469 L 652.171875 160.425781 C 650.789062 160.152344 649.445312 159.761719 648.136719 159.253906 L 647.144531 158.835938 L 646.171875 158.371094 C 645.527344 158.042969 644.902344 157.683594 644.296875 157.289062 L 644.070312 157.140625 L 643.84375 156.988281 L 643.394531 156.675781 C 643.109375 156.449219 642.808594 156.238281 642.523438 156 C 642.238281 155.761719 641.96875 155.519531 641.683594 155.28125 C 641.398438 155.039062 641.144531 154.785156 640.890625 154.515625 C 640.636719 154.246094 640.378906 153.976562 640.125 153.703125 L 639.765625 153.285156 L 639.40625 152.851562 C 638.9375 152.273438 638.503906 151.671875 638.101562 151.050781 C 636.488281 148.523438 635.355469 145.796875 634.695312 142.875 C 634.03125 139.964844 633.765625 137.019531 633.898438 134.039062 C 634.027344 131.042969 634.5 128.105469 635.324219 125.21875 C 635.535156 124.5 635.761719 123.71875 636 123.074219 C 636.238281 122.429688 636.523438 121.664062 636.808594 120.960938 C 637.421875 119.542969 638.128906 118.171875 638.925781 116.851562 C 640.476562 114.214844 642.335938 111.820312 644.503906 109.664062 C 645.578125 108.597656 646.707031 107.597656 647.894531 106.664062 C 649.082031 105.738281 650.316406 104.878906 651.601562 104.085938 C 654.140625 102.511719 656.8125 101.203125 659.609375 100.15625 C 662.363281 99.121094 665.183594 98.332031 668.070312 97.785156 C 673.730469 96.699219 679.421875 96.507812 685.140625 97.214844 C 686.53125 97.386719 687.910156 97.613281 689.28125 97.90625 C 689.96875 98.039062 690.628906 98.203125 691.289062 98.371094 C 691.949219 98.535156 692.609375 98.714844 693.253906 98.878906 C 695.804688 99.597656 698.304688 100.464844 700.753906 101.476562 L 702.253906 102.105469 C 705.515625 102.40625 708.714844 102.09375 711.855469 101.175781 C 713.597656 100.660156 715.269531 99.972656 716.863281 99.105469 C 718.53125 98.230469 720.078125 97.171875 721.5 95.941406 C 722.953125 94.648438 724.246094 93.207031 725.371094 91.621094 L 725.773438 91.003906 L 725.984375 90.703125 L 726.089844 90.554688 L 726.179688 90.40625 L 726.570312 89.851562 C 726.691406 89.640625 726.796875 89.429688 726.914062 89.21875 C 727.359375 88.375 727.734375 87.5 728.039062 86.59375 C 728.660156 84.796875 729 82.945312 729.058594 81.046875 C 729.105469 80.097656 729.085938 79.152344 729 78.210938 C 728.886719 77.304688 728.71875 76.410156 728.488281 75.523438 C 728.035156 73.804688 727.347656 72.179688 726.433594 70.648438 C 726.210938 70.289062 725.984375 69.914062 725.730469 69.570312 C 725.476562 69.226562 725.234375 68.894531 724.980469 68.550781 L 724.574219 68.070312 L 724.378906 67.828125 L 724.171875 67.605469 L 723.75 67.15625 L 723.316406 66.734375 L 723.105469 66.523438 L 722.878906 66.328125 L 722.429688 65.941406 L 721.964844 65.566406 L 721.738281 65.386719 L 721.5 65.203125 L 721.035156 64.859375 L 720.808594 64.695312 L 720.585938 64.546875 L 720.359375 64.394531 L 720.121094 64.261719 L 719.894531 64.125 L 719.65625 63.988281 C 719.015625 63.640625 718.355469 63.339844 717.675781 63.089844 L 717 62.851562 L 716.460938 62.683594 L 715.90625 62.550781 L 715.351562 62.550781 C 713.761719 62.234375 712.167969 62.191406 710.566406 62.414062 C 708.871094 62.632812 707.265625 63.132812 705.75 63.914062 C 704.171875 64.757812 702.804688 65.859375 701.640625 67.214844 L 701.429688 67.46875 L 701.21875 67.738281 L 701.113281 67.875 L 701.023438 68.011719 L 700.828125 68.28125 L 700.5 68.851562 C 700.394531 69.046875 700.273438 69.226562 700.171875 69.421875 C 699.761719 70.195312 699.449219 71.003906 699.226562 71.851562 C 698.761719 73.597656 698.71875 75.359375 699.089844 77.128906 C 699.460938 78.910156 700.207031 80.515625 701.324219 81.945312 C 701.875 82.648438 702.492188 83.285156 703.183594 83.851562 C 703.351562 84 703.53125 84.121094 703.695312 84.238281 L 703.964844 84.421875 L 704.503906 84.75 L 704.789062 84.898438 L 704.925781 84.976562 L 705.074219 84.976562 L 705.359375 85.109375 C 706.917969 85.789062 708.542969 86.035156 710.234375 85.84375 C 711.007812 85.769531 711.765625 85.601562 712.5 85.351562 C 713.230469 85.074219 713.921875 84.71875 714.570312 84.285156 C 715.191406 83.847656 715.757812 83.347656 716.265625 82.785156 C 716.753906 82.273438 717.175781 81.707031 717.523438 81.089844 C 718.15625 79.945312 718.492188 78.722656 718.53125 77.414062 C 718.558594 76.320312 718.386719 75.261719 718.003906 74.234375 C 717.519531 72.933594 716.757812 71.820312 715.726562 70.890625 L 715.304688 70.53125 L 715.425781 70.605469 L 715.769531 70.828125 C 716.21875 71.140625 716.632812 71.492188 717.015625 71.878906 C 717.617188 72.511719 718.117188 73.21875 718.515625 73.996094 C 719.0625 75.0625 719.386719 76.191406 719.488281 77.386719 C 719.617188 78.882812 719.390625 80.328125 718.816406 81.71875 C 718.519531 82.476562 718.140625 83.1875 717.675781 83.851562 C 717.144531 84.570312 716.539062 85.21875 715.859375 85.800781 C 715.070312 86.46875 714.207031 87.027344 713.269531 87.476562 C 712.335938 87.925781 711.359375 88.25 710.34375 88.449219 C 709.328125 88.648438 708.300781 88.71875 707.265625 88.65625 C 706.230469 88.59375 705.21875 88.402344 704.234375 88.078125 L 703.828125 87.945312 L 703.636719 87.945312 L 703.441406 87.871094 L 703.050781 87.703125 L 702.660156 87.523438 L 702.269531 87.328125 L 701.894531 87.121094 C 701.65625 86.96875 701.386719 86.820312 701.160156 86.65625 C 700.1875 86.015625 699.296875 85.273438 698.488281 84.433594 C 697.664062 83.570312 696.945312 82.621094 696.34375 81.585938 C 695.710938 80.53125 695.210938 79.414062 694.84375 78.238281 C 694.480469 77.046875 694.261719 75.824219 694.183594 74.578125 C 694.027344 72 694.480469 69.53125 695.535156 67.171875 C 695.671875 66.886719 695.804688 66.601562 695.953125 66.300781 C 696.105469 66 696.253906 65.746094 696.421875 65.460938 C 696.75 64.90625 697.09375 64.410156 697.46875 63.960938 C 698.957031 61.957031 700.761719 60.300781 702.886719 58.996094 C 704.917969 57.742188 707.109375 56.886719 709.453125 56.429688 C 711.796875 55.972656 714.148438 55.941406 716.503906 56.339844 L 717.34375 56.339844 L 718.15625 56.535156 L 718.949219 56.761719 L 719.730469 57.015625 C 720.734375 57.367188 721.707031 57.796875 722.640625 58.304688 L 723.328125 58.695312 L 723.675781 58.90625 L 724.003906 59.128906 L 724.335938 59.355469 L 724.664062 59.578125 L 725.296875 60.046875 L 725.609375 60.285156 L 725.910156 60.539062 L 726.523438 61.050781 L 727.425781 61.859375 L 727.710938 62.144531 L 728.28125 62.730469 L 728.820312 63.34375 L 729.089844 63.660156 L 729.34375 63.988281 L 729.855469 64.648438 C 730.183594 65.113281 730.515625 65.566406 730.816406 66.046875 C 731.113281 66.523438 731.398438 67.019531 731.683594 67.546875 C 732.804688 69.621094 733.601562 71.816406 734.070312 74.128906 C 734.300781 75.304688 734.453125 76.488281 734.519531 77.683594 C 734.570312 78.886719 734.535156 80.085938 734.414062 81.285156 C 734.179688 83.734375 733.578125 86.089844 732.601562 88.351562 C 732.125 89.445312 731.5625 90.496094 730.921875 91.5 C 730.753906 91.753906 730.605469 91.996094 730.441406 92.25 L 729.929688 92.96875 L 729.796875 93.148438 L 729.660156 93.316406 L 729.390625 93.660156 L 728.851562 94.335938 C 727.371094 96.035156 725.714844 97.539062 723.886719 98.851562 C 722.136719 100.128906 720.261719 101.183594 718.261719 102.015625 C 716.402344 102.808594 714.484375 103.390625 712.5 103.769531 C 710.675781 104.097656 708.835938 104.238281 706.980469 104.191406 L 706.5 104.191406 L 707.773438 104.863281 C 709.921875 106.054688 711.996094 107.351562 714 108.765625 C 718.15625 111.652344 721.953125 114.945312 725.398438 118.648438 C 729.09375 122.625 732.257812 126.984375 734.894531 131.730469 C 737.640625 136.726562 739.675781 141.996094 741 147.539062 C 741.726562 150.378906 742.226562 153.261719 742.5 156.179688 C 742.757812 159.136719 742.757812 162.089844 742.5 165.046875 C 742.175781 168.03125 741.59375 170.96875 740.746094 173.851562 Z M 740.746094 173.851562 " fill-opacity="1" fill-rule="nonzero"/><path fill="#9f0b0b" d="M 632.429688 223.125 L 633.539062 223.394531 L 634.15625 223.546875 L 634.816406 223.695312 C 636.601562 224.101562 638.820312 224.535156 641.398438 224.910156 C 642.691406 225.105469 644.085938 225.269531 645.554688 225.40625 C 647.023438 225.539062 648.554688 225.660156 650.25 225.734375 C 651.945312 225.808594 653.625 225.855469 655.441406 225.839844 C 656.339844 225.839844 657.253906 225.839844 658.199219 225.839844 L 659.625 225.839844 L 661.125 225.734375 C 665.261719 225.398438 669.359375 224.777344 673.410156 223.875 C 675.554688 223.394531 677.730469 222.855469 679.949219 222.195312 C 682.171875 221.535156 684.449219 220.800781 686.640625 219.976562 C 688.828125 219.148438 691.140625 218.203125 693.40625 217.183594 C 695.671875 216.164062 697.90625 215.039062 700.171875 213.808594 L 700.453125 213.644531 C 700.953125 214.574219 701.453125 215.523438 701.953125 216.496094 L 701.683594 216.628906 C 699.328125 217.816406 696.960938 218.863281 694.589844 219.839844 C 692.21875 220.816406 689.863281 221.671875 687.523438 222.421875 C 685.183594 223.171875 682.859375 223.84375 680.578125 224.414062 C 678.300781 224.984375 676.078125 225.449219 673.828125 225.914062 C 669.660156 226.660156 665.460938 227.109375 661.230469 227.265625 L 658.230469 227.265625 C 657.269531 227.265625 656.339844 227.265625 655.425781 227.265625 C 653.59375 227.265625 651.855469 227.070312 650.191406 226.921875 C 648.523438 226.769531 646.949219 226.574219 645.480469 226.363281 C 644.011719 226.15625 642.601562 225.914062 641.308594 225.675781 C 638.730469 225.179688 636.523438 224.640625 634.753906 224.175781 L 634.109375 223.996094 L 633.511719 223.816406 L 632.414062 223.484375 L 630.71875 222.929688 L 629.339844 222.449219 L 630.734375 222.855469 Z M 632.429688 223.125 " fill-opacity="1" fill-rule="nonzero"/><path fill="#9f0b0b" d="M 636.613281 265.140625 L 636.613281 263.671875 C 636.613281 263.339844 636.613281 263.023438 636.703125 262.695312 C 636.703125 262.050781 636.871094 261.40625 636.960938 260.761719 C 636.960938 260.445312 637.078125 260.113281 637.140625 259.800781 C 637.199219 259.484375 637.261719 259.171875 637.335938 258.855469 L 637.574219 257.910156 L 637.695312 257.445312 L 637.84375 256.980469 L 638.128906 256.050781 L 638.460938 255.136719 C 639.351562 252.71875 640.527344 250.449219 641.984375 248.324219 L 642.253906 247.933594 L 642.539062 247.546875 L 643.109375 246.78125 L 643.710938 246.046875 L 644.011719 245.683594 L 644.324219 245.324219 L 645 244.648438 L 645.328125 244.304688 L 645.660156 243.976562 L 645.988281 243.644531 L 646.15625 243.480469 L 646.335938 243.316406 L 647.023438 242.683594 C 647.25 242.476562 647.503906 242.28125 647.746094 242.070312 L 648.464844 241.46875 L 649.214844 240.914062 L 649.589844 240.628906 L 649.980469 240.359375 L 650.746094 239.835938 L 651.539062 239.339844 L 651.929688 239.101562 L 652.125 238.980469 L 652.335938 238.875 L 653.144531 238.441406 L 653.550781 238.230469 L 653.96875 238.035156 L 654.796875 237.644531 L 655.636719 237.285156 L 656.054688 237.105469 L 656.265625 237.015625 L 656.476562 236.941406 L 657.328125 236.625 L 657.765625 236.476562 L 658.199219 236.339844 L 659.070312 236.070312 L 659.941406 235.84375 L 660.375 235.738281 L 660.808594 235.636719 L 661.679688 235.453125 L 662.113281 235.363281 L 662.550781 235.363281 L 663.421875 235.230469 L 664.304688 235.125 L 666.976562 235.125 C 667.558594 235.125 668.144531 235.125 668.730469 235.125 L 669.601562 235.214844 L 670.46875 235.214844 C 671.609375 235.382812 672.726562 235.632812 673.828125 235.964844 L 674.640625 236.21875 L 675.433594 236.503906 L 675.824219 236.65625 L 676.214844 236.820312 L 676.980469 237.148438 C 677.476562 237.390625 677.984375 237.613281 678.480469 237.898438 L 678.839844 238.09375 L 679.199219 238.304688 L 679.90625 238.726562 C 683.492188 240.992188 686.296875 243.992188 688.320312 247.726562 C 689.234375 249.40625 689.933594 251.171875 690.421875 253.019531 L 690.585938 253.695312 C 690.585938 253.800781 690.585938 253.921875 690.660156 254.023438 L 690.660156 254.355469 L 690.796875 255.015625 L 690.796875 255.675781 L 690.886719 256.335938 C 690.886719 256.558594 690.886719 256.769531 690.886719 256.996094 L 690.886719 257.324219 C 690.886719 257.429688 690.886719 257.550781 690.886719 257.65625 L 690.886719 258.300781 C 690.898438 259.148438 690.859375 259.992188 690.765625 260.835938 C 690.765625 261.253906 690.644531 261.660156 690.585938 262.050781 C 690.523438 262.441406 690.511719 262.453125 690.464844 262.648438 C 690.421875 262.84375 690.390625 263.039062 690.328125 263.234375 C 689.628906 266.089844 688.335938 268.644531 686.445312 270.898438 C 685.667969 271.832031 684.808594 272.683594 683.863281 273.449219 C 683.046875 274.109375 682.183594 274.699219 681.269531 275.21875 C 680.851562 275.445312 680.445312 275.671875 680.039062 275.851562 C 679.636719 276.03125 679.261719 276.195312 678.898438 276.34375 L 678.628906 276.34375 L 678.359375 276.433594 L 677.851562 276.613281 L 676.921875 276.886719 L 676.109375 277.078125 L 675.433594 277.214844 L 674.191406 277.214844 L 674.503906 277.214844 L 674.894531 277.140625 L 675.421875 277.140625 L 676.078125 276.976562 L 676.875 276.734375 L 677.789062 276.40625 L 678.285156 276.195312 L 678.539062 276.089844 L 678.808594 276.089844 C 679.15625 275.925781 679.53125 275.761719 679.90625 275.535156 C 680.28125 275.308594 680.671875 275.101562 681.074219 274.859375 C 681.933594 274.304688 682.746094 273.683594 683.503906 273 C 684.375 272.210938 685.160156 271.34375 685.859375 270.40625 C 687.542969 268.160156 688.644531 265.660156 689.160156 262.90625 C 689.160156 262.726562 689.160156 262.53125 689.25 262.351562 C 689.339844 262.171875 689.25 261.976562 689.339844 261.796875 C 689.429688 261.613281 689.429688 261.046875 689.445312 260.65625 C 689.496094 259.871094 689.496094 259.085938 689.445312 258.300781 L 689.445312 257.699219 C 689.445312 257.59375 689.445312 257.503906 689.445312 257.398438 L 689.445312 257.101562 C 689.445312 256.90625 689.445312 256.695312 689.355469 256.5 L 689.234375 255.886719 L 689.234375 255.285156 L 689.085938 254.671875 L 689.011719 254.355469 L 688.921875 254.054688 L 688.738281 253.441406 C 688.203125 251.757812 687.472656 250.160156 686.550781 248.65625 C 684.550781 245.375 681.882812 242.792969 678.539062 240.898438 C 676.789062 239.902344 674.933594 239.167969 672.976562 238.6875 C 671.019531 238.207031 669.035156 238.003906 667.019531 238.078125 L 664.710938 238.078125 L 663.945312 238.199219 L 663.164062 238.351562 L 662.773438 238.425781 L 662.386719 238.515625 L 661.621094 238.710938 L 661.230469 238.816406 L 660.855469 238.933594 L 660.089844 239.175781 L 659.339844 239.445312 L 658.964844 239.578125 L 658.589844 239.730469 L 657.855469 240.03125 L 657.675781 240.105469 L 657.496094 240.195312 L 657.136719 240.359375 L 656.414062 240.703125 L 655.710938 241.078125 L 655.351562 241.273438 L 655.003906 241.484375 L 654.316406 241.90625 L 654.136719 242.011719 L 653.96875 242.128906 L 653.640625 242.355469 L 652.964844 242.804688 L 652.304688 243.285156 L 651.976562 243.523438 L 651.660156 243.78125 L 651.03125 244.289062 L 650.414062 244.828125 C 650.21875 245.011719 650.011719 245.191406 649.816406 245.386719 L 649.230469 245.953125 L 649.078125 246.105469 L 648.945312 246.253906 L 648.136719 247.15625 L 647.609375 247.785156 L 647.355469 248.101562 L 647.113281 248.429688 L 646.621094 249.089844 L 646.15625 249.765625 L 645.929688 250.109375 L 645.71875 250.453125 C 644.535156 252.335938 643.597656 254.335938 642.914062 256.453125 L 642.660156 257.234375 L 642.449219 258.03125 L 642.34375 258.433594 L 642.253906 258.839844 L 642.074219 259.648438 C 642.074219 259.921875 641.984375 260.191406 641.941406 260.460938 C 641.894531 260.730469 641.835938 261 641.820312 261.269531 C 641.820312 261.808594 641.683594 262.363281 641.65625 262.90625 C 641.65625 263.175781 641.65625 263.445312 641.65625 263.730469 L 641.65625 266.203125 C 641.65625 266.339844 641.65625 266.476562 641.65625 266.609375 L 641.65625 267.421875 C 641.65625 267.554688 641.65625 267.691406 641.65625 267.824219 L 641.761719 268.636719 C 641.761719 268.769531 641.761719 268.90625 641.761719 269.039062 L 641.835938 269.445312 C 642.21875 271.621094 642.832031 273.734375 643.679688 275.773438 L 643.996094 276.539062 L 644.339844 277.289062 C 644.566406 277.785156 644.835938 278.265625 645.074219 278.789062 L 645.269531 279.148438 L 645.480469 279.511719 L 645.691406 279.871094 L 645.898438 280.230469 C 646.199219 280.695312 646.46875 281.160156 646.785156 281.609375 L 647.25 282.285156 L 647.730469 282.945312 L 647.96875 283.273438 L 648.226562 283.589844 L 648.734375 284.21875 C 648.898438 284.429688 649.09375 284.640625 649.261719 284.835938 L 649.53125 285.148438 L 649.800781 285.449219 L 650.355469 286.050781 L 650.640625 286.351562 L 650.925781 286.636719 C 653.148438 288.878906 655.621094 290.796875 658.347656 292.386719 C 661.074219 293.980469 663.960938 295.191406 667.003906 296.023438 L 667.363281 296.128906 L 667.726562 296.21875 L 668.445312 296.398438 L 669.164062 296.398438 L 669.886719 296.550781 C 670.859375 296.714844 671.835938 296.863281 672.796875 296.953125 C 674.707031 297.140625 676.621094 297.175781 678.539062 297.058594 C 680.386719 296.953125 682.21875 296.714844 684.03125 296.339844 C 685.84375 295.964844 687.625 295.464844 689.371094 294.839844 C 691.195312 294.199219 692.964844 293.429688 694.679688 292.53125 L 695.339844 292.183594 L 695.984375 291.824219 L 696.316406 291.644531 L 696.628906 291.449219 L 697.273438 291.058594 L 697.90625 290.65625 L 698.398438 290.851562 L 698.714844 290.640625 L 699.34375 290.21875 L 699.960938 289.769531 L 700.273438 289.546875 L 700.574219 289.320312 L 701.175781 288.855469 L 701.761719 288.375 L 702.058594 288.136719 L 702.34375 287.878906 L 702.929688 287.371094 L 703.5 286.84375 L 703.785156 286.574219 L 704.609375 285.75 C 707.628906 282.675781 710.089844 279.207031 711.988281 275.339844 C 713.953125 271.304688 715.308594 267.074219 716.054688 262.648438 C 716.445312 260.402344 716.691406 258.136719 716.789062 255.855469 C 716.898438 253.519531 716.867188 251.183594 716.699219 248.851562 C 716.609375 247.695312 716.503906 246.554688 716.355469 245.414062 C 716.355469 245.128906 716.355469 244.84375 716.234375 244.558594 L 716.101562 243.691406 L 716.101562 242.820312 L 715.949219 241.964844 C 715.546875 239.671875 715.066406 237.464844 714.449219 235.140625 C 712.234375 226.328125 708.945312 217.9375 704.578125 209.96875 C 702.523438 206.277344 700.234375 202.738281 697.710938 199.351562 C 695.398438 196.207031 692.875 193.246094 690.136719 190.46875 C 688.824219 189.148438 687.503906 187.914062 686.175781 186.765625 C 684.839844 185.609375 683.519531 184.558594 682.183594 183.570312 L 681.195312 182.851562 L 680.203125 182.160156 L 679.214844 181.515625 L 678.734375 181.199219 L 678.238281 180.898438 L 677.761719 180.601562 L 677.519531 180.449219 L 677.28125 180.316406 L 676.320312 179.761719 L 675.375 179.234375 L 674.910156 178.980469 L 674.445312 178.738281 L 673.53125 178.261719 L 672.613281 177.824219 L 672.164062 177.613281 L 671.714844 177.421875 L 670.84375 177.03125 L 669.988281 176.671875 L 669.148438 176.339844 L 668.324219 176.023438 L 667.921875 175.875 L 667.53125 175.738281 C 665.738281 175.113281 663.917969 174.589844 662.070312 174.164062 C 660.570312 173.820312 659.355469 173.609375 658.546875 173.488281 L 657.316406 173.308594 L 658.558594 173.414062 C 659.371094 173.488281 660.585938 173.640625 662.128906 173.894531 C 664.015625 174.222656 665.875 174.652344 667.710938 175.183594 L 668.113281 175.304688 L 668.519531 175.441406 L 669.359375 175.710938 L 670.230469 176.011719 L 671.113281 176.324219 L 672.015625 176.671875 L 672.480469 176.851562 L 672.945312 177.046875 L 673.890625 177.433594 L 674.851562 177.871094 L 675.34375 178.09375 L 675.839844 178.335938 L 676.828125 178.816406 L 677.835938 179.339844 L 678.089844 179.476562 L 678.34375 179.609375 L 678.855469 179.894531 L 679.363281 180.179688 L 679.875 180.480469 L 680.910156 181.09375 L 681.960938 181.738281 L 683.011719 182.414062 C 684.421875 183.34375 685.828125 184.363281 687.253906 185.414062 C 688.679688 186.464844 690.089844 187.726562 691.5 189.015625 C 694.457031 191.730469 697.203125 194.644531 699.734375 197.761719 C 702.472656 201.136719 704.972656 204.679688 707.234375 208.394531 C 712.109375 216.449219 715.863281 224.992188 718.5 234.03125 C 719.175781 236.355469 719.789062 238.726562 720.300781 241.109375 L 720.480469 242.011719 L 720.660156 242.910156 L 720.824219 243.808594 C 720.824219 244.109375 720.929688 244.425781 720.976562 244.726562 C 721.183594 245.953125 721.351562 247.183594 721.484375 248.429688 C 721.753906 250.921875 721.875 253.421875 721.84375 255.929688 C 721.820312 258.441406 721.628906 260.941406 721.273438 263.429688 C 720.589844 268.417969 719.207031 273.203125 717.121094 277.785156 C 715.050781 282.285156 712.316406 286.335938 708.914062 289.933594 L 708.285156 290.578125 L 708 290.851562 L 707.671875 291.164062 L 707.023438 291.796875 L 706.363281 292.394531 L 706.035156 292.695312 L 705.691406 292.980469 L 705.015625 293.550781 L 704.324219 294.105469 L 703.980469 294.375 L 703.621094 294.644531 L 702.914062 295.171875 L 701.835938 295.933594 L 701.476562 296.175781 L 700.753906 296.65625 L 700.019531 297.105469 L 699.660156 297.328125 L 699.285156 297.539062 L 698.535156 297.976562 L 697.785156 298.378906 C 695.8125 299.441406 693.773438 300.351562 691.664062 301.109375 C 689.652344 301.839844 687.597656 302.417969 685.5 302.851562 C 683.386719 303.285156 681.25 303.5625 679.09375 303.675781 C 676.84375 303.796875 674.601562 303.738281 672.359375 303.496094 C 671.21875 303.390625 670.078125 303.195312 668.925781 302.984375 L 668.070312 302.804688 L 667.636719 302.714844 L 667.214844 302.714844 L 666.359375 302.488281 L 665.925781 302.386719 L 665.503906 302.265625 C 661.953125 301.226562 658.605469 299.742188 655.453125 297.804688 C 652.300781 295.867188 649.464844 293.550781 646.933594 290.851562 L 646.605469 290.503906 L 646.289062 290.160156 L 645.660156 289.453125 L 645.058594 288.734375 C 644.863281 288.496094 644.65625 288.253906 644.460938 288 L 643.890625 287.234375 L 643.605469 286.859375 L 643.335938 286.46875 L 642.796875 285.691406 L 642.285156 284.878906 C 641.941406 284.355469 641.625 283.785156 641.296875 283.246094 L 641.070312 282.824219 L 640.84375 282.40625 L 640.621094 281.984375 L 640.394531 281.550781 C 640.125 280.964844 639.824219 280.394531 639.585938 279.808594 L 639.210938 278.925781 L 638.863281 278.023438 C 637.949219 275.597656 637.308594 273.097656 636.945312 270.523438 L 636.945312 270.046875 C 636.945312 269.878906 636.945312 269.714844 636.945312 269.566406 L 636.839844 268.589844 C 636.839844 268.425781 636.839844 268.261719 636.839844 268.109375 L 636.839844 267.121094 C 636.839844 266.953125 636.839844 266.789062 636.839844 266.625 L 636.839844 265.125 Z M 636.613281 265.140625 " fill-opacity="1" fill-rule="nonzero"/><path fill="#9f0b0b" d="M 716.820312 156.855469 C 716.683594 156.253906 716.503906 155.683594 716.355469 155.101562 C 716.28125 154.816406 716.191406 154.53125 716.101562 154.246094 C 716.011719 153.960938 715.933594 153.675781 715.84375 153.390625 C 715.15625 151.15625 714.34375 149.054688 713.65625 147.164062 C 712.964844 145.273438 712.035156 143.21875 711.015625 141.164062 C 710.894531 140.894531 710.761719 140.640625 710.625 140.371094 L 710.21875 139.574219 C 709.933594 139.050781 709.664062 138.511719 709.363281 137.96875 C 708.78125 136.890625 708.148438 135.824219 707.488281 134.761719 C 704.847656 130.519531 701.753906 126.636719 698.203125 123.121094 L 697.890625 122.804688 L 697.574219 122.503906 L 696.945312 121.90625 L 695.683594 120.765625 L 694.441406 119.699219 L 693.824219 119.191406 L 693.226562 118.695312 C 691.636719 117.421875 690.136719 116.355469 688.859375 115.5 L 687.945312 114.898438 L 687.121094 114.375 L 685.785156 113.566406 L 684.628906 112.890625 L 685.90625 113.308594 L 687.40625 113.851562 L 688.335938 114.210938 L 689.371094 114.628906 C 690.871094 115.230469 692.519531 116.023438 694.378906 117.015625 L 695.085938 117.40625 L 695.804688 117.808594 L 697.304688 118.679688 L 698.804688 119.640625 L 699.554688 120.148438 L 699.929688 120.40625 L 700.304688 120.675781 L 701.070312 121.214844 L 701.835938 121.785156 C 702.34375 122.160156 702.855469 122.578125 703.335938 122.984375 L 704.101562 123.613281 L 704.863281 124.261719 C 705.359375 124.710938 705.871094 125.144531 706.363281 125.609375 C 707.355469 126.523438 708.316406 127.515625 709.246094 128.519531 L 709.933594 129.285156 L 710.609375 130.066406 C 711.058594 130.574219 711.496094 131.113281 711.929688 131.65625 C 712.769531 132.734375 713.59375 133.828125 714.34375 134.941406 C 714.734375 135.496094 715.078125 136.066406 715.441406 136.621094 L 715.949219 137.460938 C 716.113281 137.746094 716.296875 138.015625 716.445312 138.300781 C 718.925781 142.554688 720.703125 147.085938 721.785156 151.890625 C 721.859375 152.203125 721.921875 152.519531 721.996094 152.851562 C 722.070312 153.179688 722.128906 153.496094 722.191406 153.824219 C 722.308594 154.46875 722.429688 155.128906 722.519531 155.804688 C 722.730469 157.140625 722.878906 158.488281 722.984375 159.855469 C 722.984375 160.546875 723.089844 161.21875 723.105469 161.910156 C 723.105469 162.253906 723.105469 162.601562 723.105469 162.945312 L 723.105469 163.980469 C 723.105469 165.359375 723.105469 166.726562 722.96875 168.074219 C 722.796875 170.683594 722.441406 173.269531 721.90625 175.828125 L 721.816406 176.28125 L 721.710938 176.730469 L 721.5 177.613281 C 721.363281 178.199219 721.199219 178.769531 721.050781 179.339844 C 720.898438 179.910156 720.734375 180.449219 720.570312 180.976562 L 720.316406 181.753906 C 720.238281 182.011719 720.148438 182.265625 720.058594 182.519531 C 719.386719 184.515625 718.679688 186.253906 718.019531 187.679688 C 717.871094 188.039062 717.703125 188.371094 717.554688 188.683594 C 717.40625 189 717.269531 189.300781 717.121094 189.570312 C 716.835938 190.125 716.609375 190.589844 716.398438 190.964844 L 715.753906 192.136719 L 716.144531 190.859375 C 716.265625 190.453125 716.398438 189.945312 716.566406 189.359375 C 716.65625 189.058594 716.730469 188.746094 716.804688 188.414062 C 716.878906 188.085938 716.984375 187.726562 717.074219 187.351562 C 717.433594 185.851562 717.796875 184.050781 718.09375 182.039062 C 718.09375 181.785156 718.09375 181.53125 718.199219 181.273438 L 718.304688 180.496094 C 718.304688 179.96875 718.425781 179.414062 718.484375 178.875 C 718.546875 178.335938 718.589844 177.765625 718.621094 177.179688 L 718.621094 175.351562 C 718.820312 170.355469 718.4375 165.40625 717.480469 160.5 C 717.390625 159.253906 717.136719 158.039062 716.820312 156.855469 Z M 716.820312 156.855469 " fill-opacity="1" fill-rule="nonzero"/><path fill="#9f0b0b" d="M 569.59375 0.300781 L 568.394531 0.660156 L 567.703125 0.871094 L 566.953125 1.125 L 566.160156 1.394531 L 565.738281 1.546875 L 565.320312 1.710938 L 564.449219 2.039062 L 563.550781 2.414062 L 562.621094 2.804688 L 561.691406 3.226562 C 559.070312 4.421875 556.570312 5.824219 554.191406 7.441406 C 552.101562 8.890625 550.101562 10.457031 548.191406 12.136719 C 546.367188 13.699219 544.644531 15.363281 543.015625 17.128906 L 542.910156 17.25 C 541.191406 19.128906 539.691406 21.167969 538.410156 23.371094 L 537.988281 24.121094 C 537.855469 24.375 537.75 24.613281 537.613281 24.855469 C 537.480469 25.09375 537.375 25.335938 537.269531 25.574219 L 536.96875 26.265625 L 536.820312 26.59375 C 536.820312 26.699219 536.730469 26.820312 536.683594 26.925781 L 536.460938 27.554688 L 536.234375 28.140625 L 536.070312 28.679688 C 535.964844 29.023438 535.859375 29.339844 535.785156 29.625 L 535.605469 30.328125 L 535.453125 30.929688 L 535.035156 30.464844 L 534.554688 29.925781 L 533.863281 29.234375 L 533.460938 28.84375 L 532.996094 28.441406 L 532.5 28.003906 L 532.230469 27.78125 L 531.945312 27.554688 L 531.359375 27.089844 L 530.714844 26.625 L 530.039062 26.144531 L 529.320312 25.679688 C 527.1875 24.347656 524.9375 23.265625 522.570312 22.425781 L 522.328125 22.335938 C 520.101562 21.578125 517.835938 20.953125 515.535156 20.460938 C 513.058594 19.894531 510.558594 19.476562 508.035156 19.199219 C 505.199219 18.914062 502.359375 18.871094 499.515625 19.066406 L 498.496094 19.066406 L 497.503906 19.171875 L 496.546875 19.273438 L 495.613281 19.410156 L 494.730469 19.410156 L 493.90625 19.558594 L 493.125 19.695312 L 492.421875 19.84375 L 491.191406 20.113281 L 490.273438 20.339844 L 489.480469 20.535156 L 490.183594 20.160156 L 491.023438 19.726562 L 492.164062 19.183594 L 492.839844 18.871094 L 493.589844 18.554688 L 494.398438 18.210938 L 494.835938 18.046875 L 495.285156 17.878906 L 496.214844 17.535156 L 497.203125 17.203125 L 498.238281 16.875 L 499.335938 16.558594 C 502.519531 15.703125 505.761719 15.203125 509.054688 15.058594 C 512.082031 14.902344 515.082031 15.128906 518.054688 15.734375 L 518.296875 15.734375 C 520.347656 16.03125 522.347656 16.53125 524.296875 17.234375 L 530.476562 19.996094 C 531.886719 20.609375 532.648438 20.699219 533.773438 19.410156 C 535.710938 17.160156 537.238281 14.746094 539.460938 12.601562 C 541.6875 10.542969 544.058594 8.664062 546.570312 6.960938 C 548.152344 5.972656 549.796875 5.105469 551.503906 4.351562 C 554.480469 2.910156 557.574219 1.8125 560.789062 1.050781 L 561.886719 0.796875 L 562.949219 0.585938 L 564 0.421875 L 564.976562 0.269531 L 565.890625 0.269531 L 566.761719 0.179688 L 567.570312 0.105469 L 571.289062 0.105469 L 570.511719 0.316406 Z M 569.59375 0.300781 " fill-opacity="1" fill-rule="nonzero"/><path fill="#9f0b0b" d="M 0 69.328125 C 168.765625 69.523438 387.328125 69.660156 404.414062 69.046875 C 406.234375 68.984375 408.050781 68.894531 409.859375 68.773438 C 415.019531 68.480469 420.152344 67.910156 425.25 67.066406 C 426.886719 66.78125 428.519531 66.480469 430.15625 66.238281 C 432.71875 65.851562 435.074219 65.398438 436.53125 62.96875 C 435.867188 65.46875 435.523438 68.011719 435.5 70.59375 C 435.472656 73.179688 435.765625 75.730469 436.378906 78.238281 C 434.460938 76.304688 431.761719 75.976562 429.121094 75.433594 C 426.121094 74.851562 423.226562 74.386719 420.253906 73.933594 C 415.019531 73.273438 409.753906 72.945312 404.488281 72.75 C 387.390625 72.148438 168.78125 72.285156 0 72.464844 Z M 0 69.328125 " fill-opacity="1" fill-rule="nonzero"/><path fill="#9f0b0b" d="M 690.929688 46.949219 C 689.617188 49.070312 687.957031 50.871094 685.949219 52.351562 C 685.453125 52.710938 684.945312 53.054688 684.449219 53.398438 L 683.609375 53.863281 L 682.738281 54.285156 C 680.378906 55.339844 677.910156 55.789062 675.328125 55.636719 C 674.082031 55.558594 672.863281 55.339844 671.671875 54.976562 C 670.496094 54.609375 669.378906 54.109375 668.324219 53.476562 C 667.289062 52.871094 666.339844 52.15625 665.476562 51.328125 C 664.632812 50.523438 663.894531 49.632812 663.253906 48.660156 C 663.089844 48.433594 662.941406 48.164062 662.789062 47.925781 L 662.578125 47.535156 L 662.386719 47.144531 L 662.203125 46.753906 L 662.039062 46.363281 L 661.964844 46.171875 L 661.964844 45.976562 L 661.828125 45.570312 C 661.507812 44.585938 661.3125 43.574219 661.25 42.539062 C 661.183594 41.503906 661.253906 40.476562 661.453125 39.460938 C 661.652344 38.441406 661.976562 37.464844 662.425781 36.53125 C 662.878906 35.597656 663.4375 34.734375 664.109375 33.945312 C 664.675781 33.285156 665.304688 32.695312 666 32.175781 C 666.671875 31.667969 667.398438 31.253906 668.175781 30.929688 C 669.566406 30.355469 671.011719 30.128906 672.511719 30.253906 C 673.703125 30.359375 674.832031 30.683594 675.898438 31.230469 C 676.679688 31.628906 677.382812 32.128906 678.015625 32.730469 C 678.402344 33.113281 678.753906 33.527344 679.066406 33.976562 C 679.171875 34.125 679.246094 34.246094 679.289062 34.320312 L 679.363281 34.441406 L 679.003906 34.019531 C 678.074219 32.988281 676.960938 32.226562 675.660156 31.738281 C 674.632812 31.359375 673.574219 31.183594 672.480469 31.214844 C 671.175781 31.253906 669.949219 31.589844 668.804688 32.21875 C 668.1875 32.570312 667.621094 32.988281 667.109375 33.480469 C 666.546875 33.988281 666.046875 34.554688 665.609375 35.175781 C 665.152344 35.855469 664.78125 36.582031 664.5 37.351562 C 664.21875 38.109375 664.035156 38.886719 663.945312 39.691406 C 663.753906 41.378906 664 43.003906 664.679688 44.566406 L 664.816406 44.851562 L 664.816406 45 L 664.890625 45.136719 L 665.039062 45.421875 L 665.203125 45.691406 L 665.371094 45.960938 L 665.550781 46.230469 C 665.683594 46.394531 665.789062 46.574219 665.941406 46.738281 C 666.5 47.429688 667.132812 48.050781 667.828125 48.601562 C 669.261719 49.71875 670.867188 50.464844 672.644531 50.835938 C 673.957031 51.113281 675.273438 51.160156 676.597656 50.96875 C 677.925781 50.777344 679.175781 50.363281 680.355469 49.726562 L 681 49.351562 L 681.539062 48.988281 L 681.808594 48.796875 L 681.945312 48.703125 L 682.078125 48.601562 L 682.351562 48.390625 L 682.605469 48.179688 C 683.960938 47.015625 685.0625 45.644531 685.90625 44.070312 C 686.6875 42.554688 687.1875 40.949219 687.40625 39.253906 C 687.628906 37.652344 687.585938 36.058594 687.269531 34.46875 L 687.269531 33.914062 L 687.136719 33.359375 L 687 32.851562 C 687 32.671875 686.878906 32.488281 686.820312 32.324219 C 686.570312 31.644531 686.269531 30.984375 685.921875 30.34375 L 685.785156 30.105469 L 685.648438 29.878906 L 685.515625 29.640625 L 685.363281 29.414062 L 685.214844 29.191406 L 685.050781 28.964844 L 684.703125 28.5 L 684.523438 28.261719 L 684.34375 28.035156 L 683.96875 27.570312 L 683.578125 27.121094 L 683.386719 26.894531 L 683.175781 26.683594 L 682.753906 26.25 L 682.304688 25.828125 L 682.078125 25.621094 L 681.839844 25.425781 L 681.359375 25.019531 C 681.03125 24.765625 680.699219 24.496094 680.339844 24.269531 C 679.980469 24.046875 679.636719 23.804688 679.261719 23.566406 C 677.730469 22.652344 676.105469 21.964844 674.386719 21.511719 C 673.484375 21.230469 672.570312 21.007812 671.640625 20.851562 C 670.714844 20.789062 669.789062 20.789062 668.863281 20.851562 C 666.964844 20.910156 665.113281 21.25 663.316406 21.871094 C 662.410156 22.175781 661.535156 22.550781 660.691406 22.996094 L 660.058594 23.339844 L 659.445312 23.699219 L 659.296875 23.789062 L 659.144531 23.894531 L 658.84375 24.105469 L 658.230469 24.511719 C 656.644531 25.625 655.203125 26.90625 653.910156 28.351562 C 652.648438 29.769531 651.570312 31.3125 650.671875 32.984375 C 648.976562 36.113281 647.976562 39.445312 647.671875 42.988281 C 647.53125 44.53125 647.53125 46.070312 647.671875 47.609375 C 647.878906 48.101562 648.089844 48.601562 648.300781 49.109375 C 649.3125 51.558594 650.175781 54.058594 650.894531 56.609375 C 651.074219 57.269531 651.253906 57.914062 651.40625 58.574219 C 651.554688 59.234375 651.734375 59.894531 651.871094 60.585938 C 652.160156 61.945312 652.390625 63.324219 652.558594 64.726562 C 653.265625 70.445312 653.078125 76.136719 651.988281 81.796875 C 651.441406 84.683594 650.652344 87.503906 649.621094 90.253906 C 648.574219 93.054688 647.261719 95.722656 645.691406 98.265625 C 644.898438 99.546875 644.035156 100.78125 643.109375 101.96875 C 642.175781 103.15625 641.175781 104.289062 640.109375 105.359375 C 637.976562 107.519531 635.609375 109.375 633 110.925781 C 631.691406 111.695312 630.335938 112.375 628.933594 112.964844 C 628.246094 113.265625 627.539062 113.535156 626.820312 113.773438 C 626.101562 114.015625 625.394531 114.253906 624.675781 114.449219 C 621.792969 115.273438 618.851562 115.75 615.855469 115.875 C 612.875 116.007812 609.929688 115.746094 607.019531 115.078125 C 604.097656 114.421875 601.371094 113.285156 598.84375 111.675781 C 598.222656 111.273438 597.621094 110.835938 597.046875 110.371094 L 596.609375 110.011719 L 596.191406 109.648438 C 595.921875 109.394531 595.648438 109.15625 595.378906 108.886719 C 595.109375 108.613281 594.871094 108.359375 594.613281 108.089844 C 594.359375 107.820312 594.121094 107.535156 593.894531 107.25 C 593.671875 106.964844 593.445312 106.679688 593.21875 106.378906 L 592.90625 105.929688 L 592.753906 105.703125 L 592.605469 105.480469 C 592.210938 104.875 591.851562 104.25 591.523438 103.605469 C 591.359375 103.289062 591.210938 102.960938 591.058594 102.628906 C 590.910156 102.300781 590.773438 101.96875 590.640625 101.640625 C 590.132812 100.328125 589.742188 98.984375 589.46875 97.605469 C 589.46875 97.261719 589.351562 96.929688 589.289062 96.585938 C 589.230469 96.238281 589.183594 95.910156 589.15625 95.566406 C 589.074219 94.894531 589.015625 94.226562 588.976562 93.554688 C 588.902344 92.234375 588.902344 90.914062 588.976562 89.59375 C 589.089844 87.011719 589.484375 84.472656 590.160156 81.976562 C 590.800781 79.546875 591.769531 77.253906 593.070312 75.105469 C 593.703125 74.039062 594.429688 73.039062 595.246094 72.105469 L 595.5 71.851562 L 595.816406 71.519531 L 596.460938 70.890625 L 597.136719 70.304688 L 597.480469 70.035156 L 597.839844 69.765625 C 598.78125 69.078125 599.78125 68.492188 600.839844 68.011719 C 601.871094 67.554688 602.9375 67.207031 604.035156 66.960938 L 604.84375 66.796875 L 605.65625 66.675781 L 607.214844 66.675781 C 608.253906 66.628906 609.289062 66.667969 610.320312 66.796875 L 611.070312 66.898438 L 611.804688 67.035156 L 612.523438 67.183594 L 612.886719 67.273438 L 613.246094 67.273438 L 613.949219 67.46875 L 614.296875 67.574219 L 614.640625 67.695312 C 615.089844 67.84375 615.523438 68.023438 615.960938 68.191406 C 616.804688 68.542969 617.625 68.949219 618.421875 69.40625 L 618.703125 69.570312 L 618.855469 69.660156 L 618.988281 69.75 L 619.546875 70.09375 L 620.085938 70.453125 L 620.609375 70.828125 C 621.910156 71.796875 623.082031 72.902344 624.121094 74.144531 C 625.042969 75.25 625.820312 76.449219 626.445312 77.746094 C 626.984375 78.867188 627.386719 80.035156 627.644531 81.253906 C 627.761719 81.785156 627.855469 82.320312 627.914062 82.859375 C 627.914062 83.371094 628.019531 83.863281 628.050781 84.359375 C 628.050781 85.289062 628.050781 86.101562 628.050781 86.804688 C 628.050781 87.511719 628.050781 88.109375 628.050781 88.589844 L 628.050781 90.089844 L 628.050781 88.589844 C 628.050781 88.109375 628.050781 87.511719 628.050781 86.804688 C 628.050781 86.101562 627.976562 85.304688 627.871094 84.375 C 627.871094 83.925781 627.75 83.445312 627.675781 82.875 C 627.386719 81.15625 626.835938 79.527344 626.023438 77.984375 C 625.367188 76.773438 624.570312 75.65625 623.640625 74.640625 C 622.59375 73.503906 621.425781 72.503906 620.144531 71.640625 L 619.636719 71.308594 L 619.109375 70.980469 L 618.570312 70.664062 L 618.433594 70.589844 L 618.300781 70.589844 L 618.015625 70.441406 C 617.246094 70.046875 616.457031 69.703125 615.644531 69.40625 C 615.226562 69.269531 614.804688 69.105469 614.371094 69 L 614.039062 68.910156 L 613.710938 68.820312 L 613.050781 68.65625 L 612.375 68.65625 L 611.683594 68.535156 L 610.996094 68.445312 L 610.289062 68.445312 C 609.335938 68.367188 608.378906 68.367188 607.425781 68.445312 L 605.984375 68.445312 L 605.265625 68.578125 L 604.546875 68.761719 C 603.574219 69.023438 602.640625 69.378906 601.738281 69.824219 C 600.824219 70.292969 599.960938 70.847656 599.160156 71.488281 L 598.859375 71.746094 L 598.558594 72 L 597.988281 72.539062 L 597.449219 73.109375 C 597.359375 73.199219 597.269531 73.304688 597.179688 73.410156 L 596.925781 73.710938 C 596.191406 74.53125 595.535156 75.410156 594.960938 76.351562 C 593.863281 78.351562 593.066406 80.464844 592.574219 82.695312 C 592.050781 85.019531 591.785156 87.375 591.78125 89.761719 C 591.773438 90.976562 591.835938 92.191406 591.960938 93.40625 C 592.019531 94.015625 592.101562 94.621094 592.199219 95.21875 C 592.199219 95.519531 592.304688 95.820312 592.363281 96.121094 C 592.425781 96.421875 592.484375 96.71875 592.558594 97.003906 C 592.839844 98.1875 593.21875 99.339844 593.699219 100.453125 C 593.820312 100.726562 593.941406 101.011719 594.089844 101.28125 C 594.238281 101.550781 594.375 101.820312 594.511719 102.089844 C 596.03125 104.804688 598.132812 106.957031 600.808594 108.539062 C 603 109.828125 605.347656 110.707031 607.84375 111.179688 C 610.40625 111.667969 612.984375 111.808594 615.585938 111.601562 C 618.21875 111.402344 620.792969 110.902344 623.308594 110.101562 C 623.941406 109.90625 624.554688 109.679688 625.171875 109.441406 C 625.785156 109.199219 626.386719 108.945312 626.984375 108.675781 C 628.175781 108.132812 629.328125 107.511719 630.433594 106.816406 C 634.929688 103.9375 638.5 100.183594 641.144531 95.550781 C 642.457031 93.253906 643.539062 90.855469 644.386719 88.351562 C 645.242188 85.878906 645.886719 83.355469 646.320312 80.773438 C 647.164062 75.703125 647.226562 70.625 646.5 65.535156 C 646.328125 64.304688 646.105469 63.09375 645.824219 61.90625 C 645.691406 61.320312 645.523438 60.703125 645.375 60.105469 C 645.226562 59.503906 645.046875 58.921875 644.878906 58.320312 C 644.195312 56 643.378906 53.722656 642.433594 51.496094 C 641.546875 49.34375 640.546875 47.242188 639.433594 45.195312 C 638.34375 43.226562 637.152344 41.324219 635.863281 39.480469 C 633.222656 35.699219 630.222656 32.230469 626.863281 29.070312 C 623.285156 25.683594 619.359375 22.757812 615.089844 20.296875 C 610.617188 17.710938 605.890625 15.75 600.898438 14.414062 C 598.363281 13.714844 595.789062 13.214844 593.175781 12.914062 C 587.839844 12.355469 582.570312 12.71875 577.363281 14.011719 C 574.753906 14.660156 572.214844 15.519531 569.746094 16.589844 C 564.761719 18.78125 560.175781 21.613281 555.988281 25.09375 C 551.839844 28.535156 548.101562 32.375 544.769531 36.613281 L 543.871094 37.785156 C 542.808594 37.144531 541.730469 36.519531 540.628906 35.910156 L 541.769531 34.351562 C 545.117188 29.753906 548.917969 25.570312 553.171875 21.796875 C 557.566406 17.882812 562.421875 14.664062 567.734375 12.136719 C 570.40625 10.894531 573.160156 9.886719 576 9.105469 C 578.871094 8.304688 581.792969 7.765625 584.761719 7.484375 C 587.714844 7.226562 590.671875 7.226562 593.625 7.484375 C 596.554688 7.710938 599.449219 8.164062 602.308594 8.851562 C 607.859375 10.191406 613.128906 12.25 618.121094 15.015625 C 622.859375 17.632812 627.222656 20.777344 631.199219 24.449219 C 634.902344 27.894531 638.199219 31.695312 641.085938 35.851562 C 642.503906 37.867188 643.808594 39.960938 645 42.121094 L 645.675781 43.394531 C 645.675781 43.230469 645.675781 43.078125 645.675781 42.914062 C 645.621094 41.046875 645.753906 39.191406 646.078125 37.351562 C 646.441406 35.359375 647.011719 33.429688 647.789062 31.558594 C 648.636719 29.566406 649.707031 27.703125 651 25.964844 C 652.308594 24.140625 653.808594 22.488281 655.5 21.015625 L 656.175781 20.476562 L 656.519531 20.203125 L 656.683594 20.070312 L 656.863281 19.933594 L 657.613281 19.351562 L 658.363281 18.871094 C 659.367188 18.246094 660.414062 17.707031 661.5 17.25 C 663.726562 16.277344 666.046875 15.667969 668.460938 15.421875 C 669.65625 15.296875 670.859375 15.261719 672.058594 15.316406 C 673.253906 15.382812 674.441406 15.53125 675.613281 15.765625 C 677.929688 16.234375 680.125 17.027344 682.199219 18.148438 C 682.695312 18.433594 683.203125 18.703125 683.699219 19.019531 C 684.195312 19.335938 684.644531 19.648438 685.09375 19.980469 L 685.753906 20.488281 L 686.085938 20.746094 L 686.398438 21.015625 L 687.015625 21.554688 L 687.601562 22.125 L 687.886719 22.410156 L 688.15625 22.710938 L 688.695312 23.308594 L 689.203125 23.925781 L 689.460938 24.226562 L 689.699219 24.539062 L 690.164062 25.171875 L 690.390625 25.5 L 690.613281 25.828125 L 690.839844 26.160156 L 691.050781 26.503906 L 691.246094 26.851562 L 691.441406 27.195312 C 691.953125 28.128906 692.390625 29.097656 692.746094 30.105469 C 692.835938 30.359375 692.925781 30.613281 693 30.886719 L 693.226562 31.679688 C 693.226562 31.949219 693.34375 32.21875 693.421875 32.488281 L 693.421875 33.328125 C 693.816406 35.6875 693.785156 38.035156 693.328125 40.382812 C 692.871094 42.726562 692.019531 44.914062 690.765625 46.949219 Z M 690.929688 46.949219 " fill-opacity="1" fill-rule="nonzero"/><path fill="#9f0b0b" d="M 522.765625 88.738281 C 522.921875 84.507812 523.371094 80.308594 524.113281 76.140625 C 524.503906 73.933594 524.984375 71.640625 525.613281 69.390625 C 526.246094 67.140625 526.84375 64.785156 527.609375 62.445312 C 528.375 60.105469 529.230469 57.75 530.191406 55.378906 C 531.148438 53.011719 532.214844 50.640625 533.398438 48.285156 L 533.535156 48.015625 C 534.535156 48.484375 535.484375 48.984375 536.386719 49.515625 L 536.21875 49.800781 C 534.988281 52.035156 533.878906 54.300781 532.84375 56.566406 C 531.808594 58.828125 530.878906 61.066406 530.054688 63.328125 C 529.230469 65.59375 528.554688 67.828125 527.835938 70.019531 C 527.113281 72.210938 526.636719 74.414062 526.15625 76.558594 C 525.25 80.613281 524.632812 84.707031 524.296875 88.84375 L 524.191406 90.34375 L 524.191406 90.703125 C 524.191406 90.824219 524.191406 90.945312 524.191406 91.066406 C 524.191406 91.183594 524.191406 91.53125 524.191406 91.769531 C 524.191406 92.699219 524.191406 93.628906 524.191406 94.53125 C 524.191406 96.328125 524.191406 98.070312 524.296875 99.71875 C 524.398438 101.371094 524.488281 102.929688 524.625 104.414062 C 524.761719 105.898438 524.941406 107.28125 525.121094 108.570312 C 525.496094 111.164062 525.929688 113.371094 526.335938 115.15625 L 526.484375 115.816406 L 526.636719 116.429688 L 526.90625 117.539062 C 527.085938 118.214844 527.234375 118.800781 527.371094 119.265625 L 527.773438 120.660156 L 527.296875 119.28125 C 527.144531 118.816406 526.964844 118.246094 526.738281 117.585938 L 526.410156 116.488281 L 526.230469 115.890625 L 526.050781 115.246094 C 525.554688 113.476562 525.015625 111.269531 524.550781 108.691406 C 524.296875 107.398438 524.070312 106.003906 523.859375 104.519531 C 523.648438 103.035156 523.46875 101.519531 523.304688 99.808594 C 523.140625 98.101562 523.035156 96.40625 522.960938 94.574219 C 522.960938 93.660156 522.960938 92.730469 522.960938 91.769531 C 522.960938 91.53125 522.960938 91.289062 522.960938 91.050781 L 522.960938 90.691406 C 522.960938 90.570312 522.960938 90.449219 522.960938 90.328125 C 522.820312 89.761719 522.753906 89.230469 522.765625 88.738281 Z M 522.765625 88.738281 " fill-opacity="1" fill-rule="nonzero"/><path fill="#9f0b0b" d="M 447 64.351562 C 447.429688 62.238281 448.007812 60.167969 448.738281 58.140625 C 449.496094 56.03125 450.40625 53.992188 451.46875 52.019531 L 451.875 51.269531 L 452.308594 50.519531 L 452.519531 50.144531 L 452.746094 49.769531 L 453.195312 49.035156 L 453.675781 48.316406 L 453.914062 47.953125 L 454.171875 47.59375 L 454.679688 46.875 L 455.203125 46.171875 L 455.476562 45.808594 L 455.746094 45.464844 L 456.300781 44.773438 L 456.871094 44.101562 L 457.15625 43.753906 L 457.453125 43.425781 L 458.054688 42.765625 L 458.683594 42.121094 L 459 41.851562 L 459.328125 41.535156 L 459.976562 40.90625 C 463.574219 37.503906 467.625 34.769531 472.125 32.699219 C 476.707031 30.613281 481.492188 29.230469 486.480469 28.546875 C 488.96875 28.191406 491.46875 28 493.980469 27.976562 C 496.488281 27.945312 498.988281 28.066406 501.480469 28.335938 C 502.726562 28.46875 503.953125 28.636719 505.183594 28.84375 L 506.101562 28.996094 L 507 29.160156 L 507.898438 29.339844 L 508.800781 29.519531 C 511.199219 30.03125 513.554688 30.628906 515.878906 31.320312 C 524.914062 33.960938 533.453125 37.722656 541.5 42.601562 C 545.214844 44.859375 548.757812 47.359375 552.136719 50.101562 C 555.234375 52.636719 558.136719 55.386719 560.835938 58.351562 C 562.125 59.761719 563.324219 61.175781 564.433594 62.59375 C 565.546875 64.019531 566.566406 65.429688 567.433594 66.839844 L 568.109375 67.890625 L 568.753906 68.941406 L 569.371094 69.976562 L 569.671875 70.484375 L 569.953125 70.996094 L 570.238281 71.503906 L 570.375 71.761719 L 570.511719 72.015625 L 571.035156 73.019531 L 571.515625 74.011719 L 571.753906 74.503906 L 571.980469 75 L 572.414062 75.960938 L 572.804688 76.90625 L 573 77.371094 L 573.179688 77.835938 L 573.523438 78.734375 C 573.628906 79.035156 573.734375 79.335938 573.839844 79.621094 C 573.945312 79.90625 574.050781 80.203125 574.140625 80.488281 L 574.410156 81.328125 L 574.546875 81.734375 L 574.664062 82.140625 C 575.199219 83.976562 575.628906 85.835938 575.953125 87.71875 C 576.210938 89.21875 576.34375 90.464844 576.433594 91.289062 L 576.539062 92.535156 L 576.359375 91.304688 C 576.238281 90.496094 576.03125 89.308594 575.683594 87.78125 C 575.265625 85.941406 574.746094 84.132812 574.125 82.351562 L 573.988281 81.960938 L 573.839844 81.554688 L 573.523438 80.730469 C 573.421875 80.445312 573.300781 80.175781 573.195312 79.890625 L 572.835938 79.035156 L 572.445312 78.164062 L 572.25 77.714844 L 572.039062 77.265625 L 571.605469 76.351562 L 571.125 75.433594 L 570.886719 74.96875 L 570.628906 74.503906 L 570.105469 73.558594 L 569.550781 72.601562 L 569.414062 72.359375 L 569.265625 72.121094 L 568.964844 71.640625 L 568.664062 71.144531 L 568.351562 70.664062 L 567.703125 69.675781 L 567.015625 68.683594 L 566.296875 67.695312 C 565.320312 66.375 564.253906 65.039062 563.101562 63.703125 C 561.945312 62.371094 560.714844 61.066406 559.394531 59.746094 C 556.613281 56.996094 553.648438 54.460938 550.5 52.140625 C 547.105469 49.644531 543.558594 47.386719 539.863281 45.359375 C 531.898438 40.996094 523.507812 37.703125 514.695312 35.488281 C 512.445312 34.933594 510.195312 34.441406 507.871094 33.988281 L 507.015625 33.839844 L 506.144531 33.839844 L 505.273438 33.703125 L 504.421875 33.585938 C 503.28125 33.433594 502.125 33.328125 500.984375 33.238281 C 498.691406 33.074219 496.398438 33.046875 494.101562 33.148438 C 491.820312 33.25 489.554688 33.492188 487.304688 33.886719 C 482.878906 34.632812 478.648438 35.988281 474.613281 37.949219 C 470.75 39.851562 467.277344 42.3125 464.203125 45.328125 L 463.648438 45.886719 L 463.378906 46.15625 L 463.109375 46.441406 L 462.585938 47.011719 L 462.074219 47.59375 L 461.820312 47.878906 L 461.578125 48.179688 L 461.101562 48.765625 L 460.636719 49.363281 L 460.410156 49.664062 L 460.183594 49.980469 L 459.734375 50.59375 L 459.316406 51.226562 L 459.105469 51.539062 L 458.894531 51.855469 L 458.488281 52.484375 L 458.101562 53.128906 L 457.90625 53.445312 L 457.726562 53.773438 L 457.363281 54.421875 L 457.019531 55.078125 C 456.121094 56.792969 455.351562 58.5625 454.710938 60.390625 C 454.085938 62.136719 453.585938 63.914062 453.210938 65.730469 C 452.835938 67.542969 452.597656 69.371094 452.488281 71.21875 C 452.371094 73.136719 452.40625 75.054688 452.59375 76.964844 C 452.683594 77.941406 452.835938 78.898438 453 79.875 L 453.148438 80.59375 L 453.148438 81.316406 L 453.328125 82.035156 L 453.421875 82.394531 L 453.523438 82.753906 C 454.359375 85.800781 455.570312 88.6875 457.164062 91.414062 C 458.753906 94.140625 460.671875 96.613281 462.914062 98.835938 L 463.199219 99.121094 L 463.5 99.40625 L 464.101562 99.960938 L 464.398438 100.230469 L 464.714844 100.5 L 465.328125 101.023438 L 465.960938 101.535156 L 466.273438 101.789062 L 466.605469 102.03125 L 467.265625 102.511719 L 467.941406 102.976562 C 468.390625 103.289062 468.855469 103.558594 469.320312 103.859375 L 470.039062 104.28125 L 470.398438 104.488281 L 470.761719 104.683594 C 471.253906 104.925781 471.71875 105.195312 472.261719 105.421875 L 473.011719 105.765625 L 473.773438 106.078125 C 475.835938 106.902344 477.960938 107.492188 480.148438 107.851562 L 480.554688 107.925781 L 480.960938 107.925781 L 481.769531 108.03125 L 486.691406 108.03125 C 487.246094 108.03125 487.785156 107.925781 488.324219 107.863281 C 488.59375 107.863281 488.863281 107.789062 489.136719 107.746094 L 489.945312 107.609375 L 490.753906 107.429688 L 491.160156 107.339844 L 491.566406 107.234375 L 492.359375 107.023438 L 493.140625 106.769531 C 495.257812 106.085938 497.257812 105.152344 499.140625 103.964844 L 499.484375 103.753906 L 499.828125 103.53125 L 500.503906 103.066406 L 501.164062 102.570312 L 501.496094 102.328125 L 501.808594 102.074219 L 502.441406 101.550781 L 502.738281 101.28125 L 503.039062 101.011719 L 503.339844 100.738281 L 503.488281 100.605469 L 503.640625 100.453125 L 504.210938 99.871094 C 504.40625 99.675781 504.585938 99.480469 504.765625 99.269531 L 505.304688 98.65625 L 505.816406 98.023438 L 506.070312 97.710938 L 506.308594 97.378906 L 506.789062 96.71875 C 506.953125 96.496094 507.089844 96.269531 507.238281 96.046875 L 507.464844 95.714844 L 507.585938 95.550781 L 507.691406 95.371094 L 508.109375 94.679688 L 508.320312 94.335938 L 508.515625 93.976562 L 508.890625 93.269531 L 509.234375 92.550781 L 509.398438 92.191406 L 509.488281 92.011719 L 509.566406 91.828125 L 509.863281 91.09375 C 509.863281 90.976562 509.96875 90.855469 510.015625 90.71875 L 510.148438 90.34375 L 510.421875 89.59375 C 510.511719 89.339844 510.570312 89.085938 510.660156 88.828125 L 510.78125 88.453125 C 510.78125 88.335938 510.855469 88.199219 510.886719 88.066406 L 511.078125 87.300781 L 511.171875 86.910156 C 511.171875 86.773438 511.171875 86.65625 511.246094 86.519531 L 511.394531 85.738281 C 511.394531 85.484375 511.484375 85.230469 511.515625 84.976562 L 511.515625 84.585938 C 511.515625 84.449219 511.515625 84.328125 511.515625 84.195312 L 511.515625 82.664062 C 511.589844 80.652344 511.386719 78.664062 510.90625 76.707031 C 510.429688 74.75 509.691406 72.898438 508.695312 71.144531 C 506.804688 67.804688 504.21875 65.132812 500.941406 63.136719 C 499.433594 62.210938 497.839844 61.480469 496.15625 60.945312 L 495.539062 60.765625 L 495.238281 60.675781 L 494.925781 60.601562 L 494.308594 60.449219 L 493.710938 60.449219 L 493.09375 60.328125 L 492.496094 60.238281 L 491.296875 60.238281 C 490.511719 60.1875 489.726562 60.1875 488.941406 60.238281 C 488.550781 60.238281 488.175781 60.238281 487.800781 60.34375 L 486.691406 60.523438 C 484.757812 60.902344 482.929688 61.574219 481.214844 62.539062 C 479.5 63.507812 477.980469 64.722656 476.65625 66.179688 C 475.96875 66.941406 475.347656 67.75 474.796875 68.609375 C 474.554688 69.015625 474.316406 69.390625 474.121094 69.78125 C 473.925781 70.171875 473.746094 70.53125 473.566406 70.875 L 473.566406 71.144531 L 473.460938 71.398438 L 473.25 71.894531 C 473.128906 72.226562 473.023438 72.523438 472.921875 72.808594 L 472.679688 73.605469 L 472.515625 74.265625 L 472.515625 74.789062 L 472.441406 75.179688 L 472.441406 75.496094 L 472.441406 74.25 L 472.648438 73.351562 L 472.84375 72.539062 C 472.921875 72.253906 473.023438 71.941406 473.113281 71.609375 L 473.296875 71.101562 L 473.386719 70.828125 L 473.386719 70.558594 C 473.535156 70.199219 473.683594 69.808594 473.878906 69.421875 C 474.074219 69.03125 474.285156 68.625 474.511719 68.191406 C 475.03125 67.277344 475.621094 66.410156 476.28125 65.59375 C 477.046875 64.652344 477.898438 63.792969 478.828125 63.015625 C 481.082031 61.125 483.636719 59.832031 486.496094 59.128906 L 487.078125 58.996094 L 487.679688 58.875 C 488.085938 58.875 488.488281 58.738281 488.894531 58.695312 C 489.738281 58.601562 490.582031 58.558594 491.429688 58.574219 L 493.394531 58.574219 L 494.054688 58.664062 L 494.714844 58.664062 L 495.375 58.800781 L 495.703125 58.800781 L 496.035156 58.875 L 496.710938 59.039062 C 498.558594 59.527344 500.324219 60.226562 502.003906 61.140625 C 505.738281 63.160156 508.738281 65.96875 511.003906 69.554688 L 511.425781 70.261719 L 511.636719 70.621094 L 511.828125 70.980469 C 512.101562 71.460938 512.324219 71.96875 512.578125 72.480469 L 512.910156 73.246094 L 513.074219 73.636719 L 513.226562 74.023438 C 513.316406 74.296875 513.421875 74.550781 513.511719 74.820312 L 513.765625 75.628906 C 514.09375 76.730469 514.34375 77.851562 514.515625 78.988281 L 514.515625 79.859375 C 514.515625 80.144531 514.515625 80.445312 514.605469 80.730469 C 514.605469 81.316406 514.679688 81.898438 514.605469 82.484375 L 514.605469 84.253906 C 514.605469 84.40625 514.605469 84.554688 514.605469 84.703125 L 514.605469 85.15625 C 514.605469 85.453125 514.605469 85.753906 514.5 86.039062 L 514.363281 86.910156 C 514.363281 87.058594 514.363281 87.210938 514.363281 87.34375 L 514.273438 87.78125 L 514.09375 88.648438 C 514.09375 88.800781 514.09375 88.933594 513.988281 89.085938 L 513.886719 89.519531 C 513.808594 89.804688 513.75 90.105469 513.660156 90.390625 L 513.390625 91.261719 L 513.253906 91.695312 C 513.253906 91.84375 513.148438 91.980469 513.105469 92.128906 L 512.789062 92.984375 L 512.714844 93.195312 L 512.625 93.40625 L 512.445312 93.824219 L 512.085938 94.664062 L 511.695312 95.488281 L 511.5 95.910156 C 511.5 96.046875 511.351562 96.179688 511.289062 96.316406 L 510.855469 97.125 L 510.75 97.335938 L 510.628906 97.53125 L 510.390625 97.921875 C 510.226562 98.191406 510.074219 98.445312 509.894531 98.714844 L 509.371094 99.480469 L 509.101562 99.871094 L 508.816406 100.246094 L 508.261719 100.996094 L 507.660156 101.714844 C 507.464844 101.953125 507.269531 102.195312 507.046875 102.433594 L 506.414062 103.125 L 506.25 103.304688 L 505.425781 104.128906 L 505.078125 104.460938 L 504.375 105.089844 L 504.015625 105.40625 L 503.65625 105.703125 L 502.921875 106.304688 L 502.15625 106.875 L 501.765625 107.160156 L 501.375 107.429688 C 499.25 108.886719 496.980469 110.0625 494.566406 110.953125 L 493.648438 111.285156 L 492.71875 111.570312 L 492.253906 111.71875 L 491.789062 111.839844 L 490.84375 112.078125 L 489.898438 112.273438 C 489.585938 112.273438 489.269531 112.410156 488.941406 112.453125 C 488.296875 112.546875 487.648438 112.664062 487.003906 112.710938 L 486.03125 112.800781 L 481.140625 112.800781 L 480.164062 112.710938 L 479.203125 112.710938 C 476.632812 112.347656 474.132812 111.707031 471.703125 110.789062 L 470.804688 110.445312 L 469.921875 110.070312 C 469.320312 109.828125 468.75 109.53125 468.179688 109.261719 L 467.746094 109.035156 L 467.324219 108.808594 L 466.90625 108.585938 L 466.484375 108.359375 C 465.929688 108.03125 465.375 107.730469 464.851562 107.371094 L 464.039062 106.859375 L 463.261719 106.320312 L 462.871094 106.050781 L 462.496094 105.765625 L 461.730469 105.195312 L 460.996094 104.59375 L 460.636719 104.296875 L 460.273438 103.996094 L 459.570312 103.363281 L 459.226562 103.050781 L 458.878906 102.71875 C 456.191406 100.1875 453.882812 97.347656 451.957031 94.195312 C 450.03125 91.046875 448.554688 87.695312 447.523438 84.148438 L 447.40625 83.730469 L 447.300781 83.296875 L 447.074219 82.441406 L 447.074219 82.019531 L 446.984375 81.585938 L 446.804688 80.730469 C 446.59375 79.574219 446.398438 78.433594 446.296875 77.296875 C 446.050781 75.054688 445.992188 72.808594 446.113281 70.558594 C 446.257812 68.46875 446.554688 66.398438 447 64.351562 Z M 447 64.351562 " fill-opacity="1" fill-rule="nonzero"/><path fill="#9f0b0b" d="M 574.078125 31.09375 L 572.773438 31.09375 L 571.078125 31.230469 L 569.460938 31.410156 L 568.679688 31.515625 L 567.914062 31.621094 C 565.90625 31.921875 564.089844 32.28125 562.605469 32.640625 L 561.539062 32.910156 L 560.59375 33.148438 L 559.09375 33.570312 L 557.820312 33.960938 L 558.988281 33.316406 L 560.398438 32.59375 L 561.285156 32.160156 L 562.289062 31.695312 C 563.714844 31.050781 565.453125 30.34375 567.449219 29.65625 L 568.214844 29.398438 L 568.996094 29.144531 L 570.628906 28.664062 L 572.355469 28.214844 L 573.238281 28.003906 L 573.691406 27.898438 L 574.140625 27.808594 C 576.699219 27.273438 579.285156 26.917969 581.894531 26.746094 C 583.246094 26.640625 584.609375 26.609375 585.988281 26.609375 L 588.058594 26.609375 C 588.75 26.609375 589.425781 26.609375 590.113281 26.730469 C 591.480469 26.851562 592.828125 26.984375 594.164062 27.195312 C 594.824219 27.285156 595.484375 27.421875 596.144531 27.523438 L 597.121094 27.71875 L 598.078125 27.929688 C 602.886719 29.011719 607.414062 30.789062 611.671875 33.269531 L 612.511719 33.765625 L 613.351562 34.273438 C 613.90625 34.636719 614.476562 34.996094 615.03125 35.371094 C 616.140625 36.121094 617.234375 36.871094 618.316406 37.785156 C 618.839844 38.21875 619.378906 38.640625 619.90625 39.105469 L 620.683594 39.78125 L 621.449219 40.46875 C 622.453125 41.398438 623.429688 42.359375 624.359375 43.351562 C 624.824219 43.84375 625.273438 44.339844 625.710938 44.851562 C 625.933594 45.089844 626.144531 45.359375 626.355469 45.613281 L 626.984375 46.378906 C 627.390625 46.890625 627.808594 47.398438 628.183594 47.878906 L 628.753906 48.644531 L 629.296875 49.410156 L 629.566406 49.785156 L 630.328125 50.910156 C 630.660156 51.421875 630.976562 51.914062 631.289062 52.410156 C 631.605469 52.90625 631.890625 53.398438 632.160156 53.910156 L 632.566406 54.628906 L 632.953125 55.335938 C 633.945312 57.195312 634.738281 58.90625 635.339844 60.34375 C 635.488281 60.703125 635.625 61.050781 635.761719 61.378906 C 635.894531 61.710938 636.015625 62.011719 636.121094 62.308594 C 636.328125 62.894531 636.511719 63.390625 636.660156 63.808594 L 637.078125 65.085938 L 636.40625 63.929688 C 636.195312 63.554688 635.910156 63.105469 635.59375 62.59375 C 635.445312 62.339844 635.25 62.054688 635.070312 61.769531 C 634.890625 61.484375 634.695312 61.171875 634.46875 60.855469 C 633.613281 59.566406 632.550781 58.078125 631.273438 56.488281 L 630.78125 55.890625 L 630.269531 55.273438 L 629.203125 54.03125 L 628.066406 52.769531 L 627.464844 52.140625 L 627.164062 51.824219 L 626.851562 51.511719 C 623.332031 47.960938 619.453125 44.867188 615.210938 42.226562 C 614.144531 41.566406 613.078125 40.933594 612 40.351562 C 611.476562 40.050781 610.921875 39.78125 610.394531 39.496094 L 609.601562 39.089844 L 608.804688 38.699219 C 606.691406 37.679688 604.648438 36.796875 602.804688 36.058594 C 600.960938 35.324219 598.816406 34.558594 596.578125 33.871094 L 595.726562 33.613281 L 594.871094 33.359375 C 594.285156 33.210938 593.714844 33.03125 593.113281 32.894531 C 591.929688 32.59375 590.714844 32.324219 589.484375 32.085938 C 584.578125 31.125 579.628906 30.746094 574.636719 30.945312 Z M 574.078125 31.09375 " fill-opacity="1" fill-rule="nonzero"/></g></g><g clip-path="url(#8bdd0a4da9)"><g clip-path="url(#3373863559)"><g transform="matrix(1, 0, 0, 1, 600, 136)"><g clip-path="url(#8a5f30d47f)"><g clip-path="url(#8634590e0d)"><g clip-path="url(#b40af798ae)"><path fill="#9f0b0b" d="M 0.835938 0.425781 L 11.96875 0.425781 L 11.96875 11.558594 L 0.835938 11.558594 Z M 0.835938 0.425781 " fill-opacity="1" fill-rule="nonzero"/></g></g></g></g></g></g></svg>