<svg xmlns="http://www.w3.org/2000/svg" xmlns:xlink="http://www.w3.org/1999/xlink" width="1000" zoomAndPan="magnify" viewBox="0 0 750 749.999995" height="1000" preserveAspectRatio="xMidYMid meet" version="1.0"><defs><clipPath id="a3f46c7b4c"><rect x="0" width="750" y="0" height="750"/></clipPath><clipPath id="b877fb2905"><path d="M 140 601 L 152 601 L 152 613 L 140 613 Z M 140 601 " clip-rule="nonzero"/></clipPath><clipPath id="5cefe43b49"><path d="M 148.125 599.214844 L 153.347656 609.046875 L 143.515625 614.269531 L 138.292969 604.4375 Z M 148.125 599.214844 " clip-rule="nonzero"/></clipPath><clipPath id="6f04de551d"><path d="M 150.734375 604.128906 C 149.292969 601.417969 145.921875 600.386719 143.207031 601.828125 C 140.496094 603.269531 139.460938 606.640625 140.90625 609.355469 C 142.347656 612.070312 145.71875 613.101562 148.433594 611.65625 C 151.144531 610.214844 152.179688 606.84375 150.734375 604.128906 Z M 150.734375 604.128906 " clip-rule="nonzero"/></clipPath><clipPath id="9c5761b6ce"><path d="M 0 0 L 12 0 L 12 12 L 0 12 Z M 0 0 " clip-rule="nonzero"/></clipPath><clipPath id="0d6d734721"><path d="M 8.125 -1.785156 L 13.347656 8.046875 L 3.515625 13.269531 L -1.707031 3.4375 Z M 8.125 -1.785156 " clip-rule="nonzero"/></clipPath><clipPath id="ed1f27bd13"><path d="M 10.734375 3.128906 C 9.292969 0.417969 5.921875 -0.613281 3.207031 0.828125 C 0.496094 2.269531 -0.539062 5.640625 0.90625 8.355469 C 2.347656 11.070312 5.71875 12.101562 8.433594 10.65625 C 11.144531 9.214844 12.179688 5.84375 10.734375 3.128906 Z M 10.734375 3.128906 " clip-rule="nonzero"/></clipPath><clipPath id="5a7be8bd74"><rect x="0" width="12" y="0" height="12"/></clipPath></defs><g transform="matrix(1, 0, 0, 1, 0, -0.000000000000042435)"><g clip-path="url(#a3f46c7b4c)"><path fill="#9f0b0b" d="M 157.078125 618.148438 C 149.265625 615.03125 137.488281 617.671875 125.324219 624.886719 C 132.539062 612.703125 135.179688 600.886719 132.058594 593.128906 C 135.496094 592.558594 138.164062 593.21875 139.828125 594.898438 C 140.21875 595.289062 140.550781 595.722656 140.820312 596.203125 C 141.691406 595.800781 142.582031 595.445312 143.488281 595.140625 C 147.988281 593.640625 151.5 593.953125 153.691406 595.664062 C 153.808594 595.816406 153.929688 595.980469 154.035156 596.160156 L 154.53125 596.503906 C 156.238281 598.695312 156.554688 602.21875 155.054688 606.703125 C 154.75 607.613281 154.394531 608.503906 153.988281 609.375 C 154.46875 609.644531 154.90625 609.976562 155.296875 610.363281 C 156.988281 612 157.664062 614.671875 157.078125 618.148438 Z M 157.078125 618.148438 " fill-opacity="1" fill-rule="nonzero"/><path fill="#9f0b0b" d="M 169.816406 642.238281 L 169.066406 641.414062 C 160.246094 631.5 143.851562 625.753906 130.785156 627.914062 L 129.691406 628.09375 L 128.863281 628.273438 L 128.160156 628.425781 L 128.746094 627.988281 L 129.433594 627.480469 L 130.394531 626.851562 C 132.640625 625.421875 135.035156 624.328125 137.582031 623.5625 C 140.132812 622.796875 142.734375 622.394531 145.394531 622.351562 C 148.304688 622.242188 151.132812 622.667969 153.882812 623.632812 C 156.628906 624.59375 159.105469 626.027344 161.308594 627.929688 C 163.34375 629.625 165.113281 631.566406 166.613281 633.75 C 168.113281 635.933594 169.292969 638.277344 170.144531 640.785156 C 170.28125 641.191406 170.398438 641.550781 170.488281 641.863281 L 170.714844 642.691406 L 170.894531 643.394531 L 170.429688 642.839844 Z M 169.816406 642.238281 " fill-opacity="1" fill-rule="nonzero"/><path fill="#9f0b0b" d="M 126.195312 613.648438 C 125.441406 615.824219 124.441406 617.878906 123.195312 619.816406 C 122.953125 620.175781 122.761719 620.488281 122.566406 620.773438 L 122.054688 621.464844 L 121.621094 622.050781 L 121.769531 621.34375 L 121.949219 620.519531 C 121.949219 620.203125 122.070312 619.828125 122.128906 619.425781 C 122.464844 617.324219 122.609375 615.207031 122.566406 613.078125 C 122.390625 608.160156 121.484375 603.378906 119.855469 598.734375 C 118.226562 594.089844 115.945312 589.792969 113.011719 585.839844 C 111.714844 584.152344 110.28125 582.589844 108.703125 581.160156 L 107.878906 580.410156 L 107.234375 579.871094 L 106.679688 579.40625 L 107.386719 579.585938 L 108.210938 579.808594 L 109.289062 580.15625 C 111.796875 581.007812 114.144531 582.1875 116.328125 583.6875 C 118.507812 585.1875 120.449219 586.953125 122.144531 588.988281 C 124.046875 591.195312 125.480469 593.671875 126.445312 596.417969 C 127.40625 599.167969 127.835938 601.996094 127.726562 604.90625 C 127.667969 607.898438 127.160156 610.816406 126.195312 613.648438 Z M 126.195312 613.648438 " fill-opacity="1" fill-rule="nonzero"/><path fill="#9f0b0b" d="M 28.605469 533.296875 L 29.011719 533.761719 L 29.398438 534.164062 L 30.089844 534.855469 L 30.628906 535.335938 L 31.09375 535.753906 L 30.496094 535.90625 L 29.789062 536.085938 L 28.84375 536.371094 L 28.304688 536.535156 L 27.71875 536.761719 L 27.089844 536.984375 L 26.761719 537.121094 L 26.429688 537.269531 L 25.738281 537.570312 L 25.019531 537.914062 L 24.285156 538.289062 L 23.535156 538.710938 C 21.332031 539.988281 19.292969 541.488281 17.414062 543.210938 L 17.296875 543.316406 C 15.53125 544.945312 13.863281 546.667969 12.300781 548.488281 C 10.621094 550.402344 9.058594 552.402344 7.605469 554.488281 C 5.988281 556.871094 4.585938 559.371094 3.390625 561.988281 L 3 562.753906 C 2.863281 563.070312 2.746094 563.371094 2.609375 563.683594 C 2.476562 564 2.355469 564.285156 2.234375 564.585938 L 1.90625 565.453125 L 1.738281 565.875 L 1.589844 566.296875 L 1.273438 567.148438 L 1.019531 567.898438 L 0.808594 568.589844 C 0.675781 569.039062 0.554688 569.429688 0.449219 569.789062 L 0.210938 570.703125 L 0 571.441406 C 0 571.441406 0 571.15625 0 570.644531 L 0 569.714844 C 0 569.339844 0 568.933594 0 568.453125 L 0 567.71875 L 0.0742188 566.910156 L 0.164062 566.039062 C 0.164062 565.890625 0.164062 565.738281 0.164062 565.589844 L 0.164062 565.125 L 0.316406 564.148438 C 0.316406 563.820312 0.433594 563.476562 0.496094 563.128906 C 0.554688 562.785156 0.628906 562.425781 0.703125 562.066406 L 0.960938 560.96875 C 1.796875 557.734375 2.976562 554.628906 4.5 551.65625 C 5.285156 550.042969 6.175781 548.496094 7.171875 547.003906 C 8.871094 544.492188 10.753906 542.125 12.808594 539.894531 C 14.953125 537.675781 17.308594 536.144531 19.621094 534.210938 C 20.925781 533.101562 20.835938 532.320312 20.203125 530.910156 C 19.296875 528.839844 18.375 526.78125 17.445312 524.730469 C 16.738281 522.78125 16.238281 520.78125 15.945312 518.730469 L 15.945312 518.488281 C 15.339844 515.519531 15.113281 512.519531 15.269531 509.488281 C 15.414062 506.195312 15.914062 502.957031 16.769531 499.769531 L 17.085938 498.675781 C 17.191406 498.316406 17.308594 497.96875 17.414062 497.640625 C 17.519531 497.308594 17.625 496.964844 17.746094 496.648438 L 18.089844 495.71875 L 18.253906 495.269531 C 18.253906 495.121094 18.359375 494.984375 18.421875 494.835938 L 18.765625 494.023438 L 19.078125 493.273438 L 19.394531 492.601562 C 19.605469 492.179688 19.769531 491.789062 19.933594 491.460938 L 20.371094 490.621094 L 20.746094 489.914062 L 20.699219 490.648438 L 20.476562 491.566406 C 20.386719 491.925781 20.308594 492.34375 20.203125 492.796875 L 20.054688 493.5 L 19.921875 494.28125 L 19.769531 495.105469 C 19.769531 495.238281 19.769531 495.390625 19.769531 495.539062 L 19.769531 495.988281 L 19.636719 496.921875 C 19.636719 497.234375 19.636719 497.550781 19.53125 497.878906 C 19.425781 498.210938 19.453125 498.539062 19.425781 498.871094 L 19.425781 499.890625 C 19.230469 502.734375 19.273438 505.574219 19.558594 508.410156 C 19.835938 510.933594 20.257812 513.433594 20.820312 515.910156 C 21.253906 518.183594 21.8125 520.421875 22.5 522.628906 L 22.589844 522.871094 C 23.429688 525.238281 24.515625 527.488281 25.84375 529.621094 L 26.308594 530.339844 L 26.789062 531.015625 L 27.253906 531.660156 L 27.71875 532.246094 L 27.945312 532.53125 L 28.171875 532.800781 Z M 28.605469 533.296875 " fill-opacity="1" fill-rule="nonzero"/><path fill="#9f0b0b" d="M 63.121094 436.648438 C 65.550781 435.148438 66.015625 432.839844 66.390625 430.273438 C 66.628906 428.640625 66.945312 427.003906 67.214844 425.371094 C 68.085938 420.285156 68.679688 415.171875 69 410.023438 C 69.109375 408.203125 69.199219 406.390625 69.269531 404.578125 C 69.871094 387.496094 69.734375 168.929688 69.554688 0.164062 L 72.78125 0.164062 C 72.585938 168.945312 72.449219 387.554688 73.066406 404.65625 C 73.246094 409.921875 73.574219 415.15625 74.25 420.421875 C 74.625 423.421875 75.089844 426.421875 75.75 429.285156 C 76.289062 431.941406 76.621094 434.640625 78.554688 436.546875 C 76.042969 435.933594 73.496094 435.636719 70.910156 435.664062 C 68.324219 435.6875 65.785156 436.03125 63.285156 436.695312 Z M 63.121094 436.648438 " fill-opacity="1" fill-rule="nonzero"/><path fill="#9f0b0b" d="M 9.253906 576.148438 C 10.050781 573.289062 11.082031 570.511719 12.34375 567.824219 C 14.875 562.511719 18.09375 557.65625 22.003906 553.261719 C 25.78125 549.007812 29.964844 545.207031 34.558594 541.859375 L 36.136719 540.734375 C 36.746094 541.824219 37.371094 542.90625 38.011719 543.976562 L 36.839844 544.875 C 32.601562 548.207031 28.761719 551.945312 25.320312 556.09375 C 21.839844 560.28125 19.003906 564.867188 16.816406 569.851562 C 15.746094 572.320312 14.882812 574.859375 14.234375 577.46875 C 12.945312 582.675781 12.578125 587.945312 13.140625 593.28125 C 13.4375 595.894531 13.9375 598.46875 14.640625 601.003906 C 15.96875 606.003906 17.921875 610.742188 20.503906 615.226562 C 22.96875 619.496094 25.890625 623.421875 29.28125 627 C 32.441406 630.355469 35.910156 633.355469 39.691406 636 C 41.53125 637.289062 43.4375 638.480469 45.40625 639.570312 C 47.453125 640.679688 49.550781 641.679688 51.703125 642.570312 C 53.921875 643.558594 56.1875 644.421875 58.5 645.148438 C 59.085938 645.316406 59.683594 645.496094 60.285156 645.644531 C 60.886719 645.796875 61.484375 645.960938 62.085938 646.09375 C 63.273438 646.363281 64.484375 646.589844 65.714844 646.769531 C 70.800781 647.484375 75.875 647.414062 80.941406 646.558594 C 83.515625 646.097656 86.039062 645.421875 88.5 644.535156 C 90.984375 643.675781 93.367188 642.585938 95.640625 641.265625 C 100.273438 638.621094 104.027344 635.050781 106.90625 630.554688 C 107.59375 629.460938 108.210938 628.324219 108.75 627.148438 C 109.019531 626.566406 109.273438 625.949219 109.515625 625.335938 C 109.753906 624.71875 109.980469 624.105469 110.175781 623.476562 C 110.980469 620.960938 111.480469 618.382812 111.675781 615.75 C 111.882812 613.152344 111.742188 610.570312 111.253906 608.011719 C 110.785156 605.511719 109.902344 603.167969 108.613281 600.976562 C 107.03125 598.296875 104.878906 596.195312 102.164062 594.675781 L 101.355469 594.253906 L 100.53125 593.863281 C 99.414062 593.382812 98.261719 593.003906 97.078125 592.726562 L 96.195312 592.53125 L 95.296875 592.363281 C 94.683594 592.265625 94.078125 592.183594 93.480469 592.125 C 92.269531 592 91.054688 591.941406 89.835938 591.945312 C 87.449219 591.949219 85.09375 592.214844 82.769531 592.738281 C 80.566406 593.234375 78.476562 594.023438 76.5 595.109375 C 75.550781 595.640625 74.65625 596.25 73.816406 596.941406 L 73.5 597.148438 L 73.199219 597.421875 L 72.628906 597.960938 L 72 598.648438 C 71.910156 598.738281 71.835938 598.84375 71.746094 598.949219 L 71.488281 599.25 C 70.847656 600.054688 70.292969 600.914062 69.824219 601.828125 C 69.378906 602.730469 69.023438 603.664062 68.761719 604.636719 L 68.578125 605.355469 L 68.445312 606.074219 L 68.445312 607.15625 C 68.445312 607.273438 68.445312 607.394531 68.445312 607.515625 C 68.367188 608.46875 68.367188 609.425781 68.445312 610.378906 C 68.445312 610.621094 68.445312 610.84375 68.445312 611.085938 L 68.535156 611.773438 C 68.535156 612 68.609375 612.238281 68.65625 612.464844 L 68.65625 613.140625 L 68.820312 613.800781 C 68.820312 613.90625 68.820312 614.023438 68.910156 614.128906 L 69 614.398438 C 69.121094 614.835938 69.269531 615.253906 69.40625 615.675781 C 69.722656 616.488281 70.085938 617.277344 70.5 618.046875 L 70.648438 618.328125 L 70.648438 618.464844 L 70.726562 618.601562 L 71.039062 619.140625 C 71.144531 619.320312 71.25 619.5 71.371094 619.664062 L 71.699219 620.175781 C 72.5625 621.457031 73.5625 622.621094 74.699219 623.671875 C 75.71875 624.601562 76.832031 625.398438 78.046875 626.054688 C 79.585938 626.867188 81.214844 627.417969 82.933594 627.703125 C 83.429688 627.796875 83.910156 627.855469 84.433594 627.898438 C 85.351562 628.003906 86.160156 628.050781 86.863281 628.078125 L 90.148438 628.078125 L 86.863281 628.078125 C 86.160156 628.078125 85.363281 628.078125 84.421875 628.078125 C 83.953125 628.078125 83.476562 628.078125 82.921875 627.945312 C 82.378906 627.882812 81.84375 627.792969 81.316406 627.675781 C 80.097656 627.417969 78.925781 627.015625 77.804688 626.476562 C 76.507812 625.847656 75.308594 625.074219 74.203125 624.148438 C 72.960938 623.109375 71.855469 621.941406 70.890625 620.640625 L 70.515625 620.113281 C 70.394531 619.933594 70.261719 619.769531 70.15625 619.574219 L 69.808594 619.019531 L 69.71875 618.886719 L 69.628906 618.734375 L 69.464844 618.449219 C 69.007812 617.65625 68.605469 616.835938 68.25 615.988281 C 68.085938 615.554688 67.890625 615.121094 67.753906 614.671875 L 67.636719 614.324219 C 67.636719 614.203125 67.558594 614.101562 67.53125 613.980469 L 67.335938 613.273438 L 67.335938 612.914062 L 67.246094 612.554688 C 67.246094 612.316406 67.125 612.074219 67.09375 611.835938 L 66.960938 611.101562 C 66.960938 610.84375 66.960938 610.605469 66.855469 610.351562 C 66.730469 609.316406 66.691406 608.285156 66.734375 607.246094 C 66.734375 607.109375 66.734375 606.976562 66.734375 606.839844 L 66.734375 605.640625 L 66.855469 604.828125 C 66.855469 604.558594 66.960938 604.289062 67.019531 604.019531 C 67.265625 602.921875 67.617188 601.855469 68.070312 600.824219 C 68.550781 599.765625 69.136719 598.765625 69.824219 597.824219 L 70.09375 597.464844 C 70.183594 597.34375 70.273438 597.226562 70.363281 597.121094 L 70.949219 596.445312 L 71.578125 595.800781 L 72 595.648438 L 72.328125 595.351562 C 73.265625 594.535156 74.265625 593.808594 75.328125 593.175781 C 77.480469 591.875 79.769531 590.90625 82.199219 590.265625 C 84.695312 589.589844 87.234375 589.191406 89.820312 589.078125 C 91.140625 589.007812 92.460938 589.007812 93.78125 589.078125 C 94.449219 589.078125 95.121094 589.140625 95.789062 589.261719 L 96.808594 589.394531 L 97.828125 589.574219 C 99.210938 589.847656 100.554688 590.238281 101.863281 590.746094 L 102.855469 591.164062 L 103.828125 591.628906 C 104.472656 591.957031 105.097656 592.316406 105.703125 592.710938 L 105.929688 592.859375 L 106.15625 593.011719 L 106.605469 593.324219 C 106.890625 593.550781 107.191406 593.761719 107.476562 594 C 107.761719 594.238281 108.03125 594.480469 108.316406 594.71875 C 108.601562 594.960938 108.855469 595.214844 109.109375 595.484375 C 109.363281 595.753906 109.621094 596.023438 109.875 596.296875 L 110.234375 596.714844 L 110.59375 597.148438 C 111.0625 597.726562 111.496094 598.328125 111.898438 598.949219 C 113.511719 601.476562 114.644531 604.203125 115.304688 607.125 C 115.96875 610.035156 116.234375 612.980469 116.101562 615.960938 C 115.972656 618.957031 115.5 621.894531 114.675781 624.78125 C 114.464844 625.5 114.238281 626.28125 114 626.925781 C 113.761719 627.570312 113.476562 628.335938 113.191406 629.039062 C 112.578125 630.457031 111.871094 631.828125 111.074219 633.148438 C 109.523438 635.785156 107.664062 638.179688 105.496094 640.335938 C 104.421875 641.402344 103.292969 642.402344 102.105469 643.335938 C 100.917969 644.261719 99.683594 645.121094 98.398438 645.914062 C 95.859375 647.488281 93.1875 648.796875 90.390625 649.84375 C 87.636719 650.878906 84.816406 651.667969 81.929688 652.214844 C 76.269531 653.300781 70.578125 653.492188 64.859375 652.785156 C 63.46875 652.613281 62.089844 652.386719 60.71875 652.09375 C 60.03125 651.960938 59.371094 651.796875 58.710938 651.628906 C 58.050781 651.464844 57.390625 651.285156 56.746094 651.121094 C 54.195312 650.402344 51.695312 649.535156 49.246094 648.523438 L 47.746094 647.894531 C 44.484375 647.59375 41.285156 647.90625 38.144531 648.824219 C 36.402344 649.339844 34.730469 650.027344 33.136719 650.894531 C 31.46875 651.769531 29.921875 652.828125 28.5 654.058594 C 27.046875 655.351562 25.753906 656.792969 24.628906 658.378906 L 24.226562 658.996094 L 24.015625 659.296875 L 23.910156 659.445312 L 23.820312 659.59375 L 23.429688 660.148438 C 23.308594 660.359375 23.203125 660.570312 23.085938 660.78125 C 22.640625 661.625 22.265625 662.5 21.960938 663.40625 C 21.339844 665.203125 21 667.054688 20.941406 668.953125 C 20.894531 669.902344 20.914062 670.847656 21 671.789062 C 21.113281 672.695312 21.28125 673.589844 21.511719 674.476562 C 21.964844 676.195312 22.652344 677.820312 23.566406 679.351562 C 23.789062 679.710938 24.015625 680.085938 24.269531 680.429688 C 24.523438 680.773438 24.765625 681.105469 25.019531 681.449219 L 25.425781 681.929688 L 25.621094 682.171875 L 25.828125 682.394531 L 26.25 682.84375 L 26.683594 683.265625 L 26.894531 683.476562 L 27.121094 683.671875 L 27.570312 684.058594 L 28.035156 684.433594 L 28.261719 684.613281 L 28.5 684.796875 L 28.964844 685.140625 L 29.191406 685.304688 L 29.414062 685.453125 L 29.640625 685.605469 L 29.878906 685.738281 L 30.105469 685.875 L 30.34375 686.011719 C 30.984375 686.359375 31.644531 686.660156 32.324219 686.910156 L 33 687.148438 L 33.539062 687.316406 L 34.09375 687.449219 L 34.648438 687.449219 C 36.238281 687.765625 37.832031 687.808594 39.433594 687.585938 C 41.128906 687.367188 42.734375 686.867188 44.25 686.085938 C 45.828125 685.242188 47.195312 684.140625 48.359375 682.785156 L 48.570312 682.53125 L 48.78125 682.261719 L 48.886719 682.125 L 48.976562 681.988281 L 49.171875 681.71875 L 49.5 681.148438 C 49.605469 680.953125 49.726562 680.773438 49.828125 680.578125 C 50.238281 679.804688 50.550781 678.996094 50.773438 678.148438 C 51.238281 676.402344 51.28125 674.640625 50.910156 672.871094 C 50.539062 671.089844 49.792969 669.484375 48.675781 668.054688 C 48.125 667.351562 47.507812 666.714844 46.816406 666.148438 C 46.648438 666 46.46875 665.878906 46.304688 665.761719 L 46.035156 665.578125 L 45.496094 665.25 L 45.210938 665.101562 L 45.074219 665.023438 L 44.925781 665.023438 L 44.640625 664.890625 C 43.082031 664.210938 41.457031 663.964844 39.765625 664.15625 C 38.992188 664.230469 38.234375 664.398438 37.5 664.648438 C 36.769531 664.925781 36.078125 665.28125 35.429688 665.714844 C 34.808594 666.152344 34.242188 666.652344 33.734375 667.214844 C 33.246094 667.726562 32.824219 668.292969 32.476562 668.910156 C 31.84375 670.054688 31.507812 671.277344 31.46875 672.585938 C 31.441406 673.679688 31.613281 674.738281 31.996094 675.765625 C 32.480469 677.066406 33.242188 678.179688 34.273438 679.109375 L 34.695312 679.46875 L 34.574219 679.394531 L 34.230469 679.171875 C 33.78125 678.859375 33.367188 678.507812 32.984375 678.121094 C 32.382812 677.488281 31.882812 676.78125 31.484375 676.003906 C 30.9375 674.9375 30.613281 673.808594 30.511719 672.613281 C 30.382812 671.117188 30.609375 669.671875 31.183594 668.28125 C 31.480469 667.523438 31.859375 666.8125 32.324219 666.148438 C 32.855469 665.429688 33.460938 664.78125 34.140625 664.199219 C 34.929688 663.53125 35.792969 662.972656 36.730469 662.523438 C 37.664062 662.074219 38.640625 661.75 39.65625 661.550781 C 40.671875 661.351562 41.699219 661.28125 42.734375 661.34375 C 43.769531 661.40625 44.777344 661.597656 45.765625 661.921875 L 46.171875 662.054688 L 46.363281 662.054688 L 46.558594 662.128906 L 46.949219 662.296875 L 47.339844 662.476562 L 47.730469 662.671875 L 48.105469 662.878906 C 48.34375 663.03125 48.613281 663.179688 48.839844 663.34375 C 49.8125 663.984375 50.703125 664.726562 51.511719 665.566406 C 52.335938 666.429688 53.054688 667.378906 53.65625 668.414062 C 54.289062 669.46875 54.789062 670.585938 55.15625 671.761719 C 55.519531 672.953125 55.738281 674.175781 55.816406 675.421875 C 55.972656 678 55.519531 680.46875 54.464844 682.828125 C 54.328125 683.113281 54.195312 683.398438 54.046875 683.699219 C 53.894531 684 53.746094 684.253906 53.578125 684.539062 C 53.25 685.09375 52.90625 685.589844 52.53125 686.039062 C 51.042969 688.042969 49.238281 689.699219 47.113281 691.003906 C 45.082031 692.257812 42.890625 693.113281 40.546875 693.570312 C 38.203125 694.027344 35.851562 694.058594 33.496094 693.660156 L 32.65625 693.660156 L 31.84375 693.464844 L 31.050781 693.238281 L 30.269531 692.984375 C 29.265625 692.632812 28.292969 692.203125 27.359375 691.695312 L 26.671875 691.304688 L 26.324219 691.09375 L 25.996094 690.871094 L 25.664062 690.644531 L 25.335938 690.421875 L 24.703125 689.953125 L 24.390625 689.714844 L 24.089844 689.460938 L 23.476562 688.949219 L 22.574219 688.140625 L 22.289062 687.855469 L 21.71875 687.269531 L 21.179688 686.65625 L 20.910156 686.339844 L 20.65625 686.011719 L 20.144531 685.351562 C 19.816406 684.886719 19.484375 684.433594 19.183594 683.953125 C 18.886719 683.476562 18.601562 682.980469 18.316406 682.453125 C 17.195312 680.378906 16.398438 678.183594 15.929688 675.871094 C 15.699219 674.695312 15.546875 673.511719 15.480469 672.316406 C 15.429688 671.113281 15.464844 669.914062 15.585938 668.714844 C 15.820312 666.265625 16.421875 663.910156 17.398438 661.648438 C 17.875 660.554688 18.4375 659.503906 19.078125 658.5 C 19.246094 658.246094 19.394531 658.003906 19.558594 657.75 L 20.070312 657.03125 L 20.203125 656.851562 L 20.339844 656.683594 L 20.609375 656.339844 L 21.148438 655.664062 C 22.628906 653.964844 24.285156 652.460938 26.113281 651.148438 C 27.863281 649.871094 29.738281 648.816406 31.738281 647.984375 C 33.597656 647.191406 35.515625 646.609375 37.5 646.230469 C 39.324219 645.902344 41.164062 645.761719 43.019531 645.808594 L 43.5 645.808594 L 42.226562 645.136719 C 40.078125 643.945312 38.003906 642.648438 36 641.234375 C 31.84375 638.347656 28.046875 635.054688 24.601562 631.351562 C 20.90625 627.375 17.742188 623.015625 15.105469 618.269531 C 12.359375 613.273438 10.324219 608.003906 9 602.460938 C 8.273438 599.621094 7.773438 596.738281 7.5 593.820312 C 7.242188 590.863281 7.242188 587.910156 7.5 584.953125 C 7.824219 581.96875 8.40625 579.03125 9.253906 576.148438 Z M 9.253906 576.148438 " fill-opacity="1" fill-rule="nonzero"/><path fill="#9f0b0b" d="M 117.570312 526.875 L 116.460938 526.605469 L 115.84375 526.453125 L 115.183594 526.304688 C 113.398438 525.898438 111.179688 525.464844 108.601562 525.089844 C 107.308594 524.894531 105.914062 524.730469 104.445312 524.59375 C 102.976562 524.460938 101.445312 524.339844 99.75 524.265625 C 98.054688 524.191406 96.375 524.144531 94.558594 524.160156 C 93.660156 524.160156 92.746094 524.160156 91.800781 524.160156 L 90.375 524.160156 L 88.875 524.265625 C 84.738281 524.601562 80.640625 525.222656 76.589844 526.125 C 74.445312 526.605469 72.269531 527.144531 70.050781 527.804688 C 67.828125 528.464844 65.550781 529.199219 63.359375 530.023438 C 61.171875 530.851562 58.859375 531.796875 56.59375 532.816406 C 54.328125 533.835938 52.09375 534.960938 49.828125 536.191406 L 49.546875 536.355469 C 49.046875 535.425781 48.546875 534.476562 48.046875 533.503906 L 48.316406 533.371094 C 50.671875 532.183594 53.039062 531.136719 55.410156 530.160156 C 57.78125 529.183594 60.136719 528.328125 62.476562 527.578125 C 64.816406 526.828125 67.140625 526.15625 69.421875 525.585938 C 71.699219 525.015625 73.921875 524.550781 76.171875 524.085938 C 80.339844 523.339844 84.539062 522.890625 88.769531 522.734375 L 91.769531 522.734375 C 92.730469 522.734375 93.660156 522.734375 94.574219 522.734375 C 96.40625 522.734375 98.144531 522.929688 99.808594 523.078125 C 101.476562 523.230469 103.050781 523.425781 104.519531 523.636719 C 105.988281 523.84375 107.398438 524.085938 108.691406 524.324219 C 111.269531 524.820312 113.476562 525.359375 115.246094 525.824219 L 115.890625 526.003906 L 116.488281 526.183594 L 117.585938 526.515625 L 119.28125 527.070312 L 120.660156 527.550781 L 119.265625 527.144531 Z M 117.570312 526.875 " fill-opacity="1" fill-rule="nonzero"/><path fill="#9f0b0b" d="M 113.386719 484.859375 L 113.386719 486.328125 C 113.386719 486.660156 113.386719 486.976562 113.296875 487.304688 C 113.296875 487.949219 113.128906 488.59375 113.039062 489.238281 C 113.039062 489.554688 112.921875 489.886719 112.859375 490.199219 C 112.800781 490.515625 112.738281 490.828125 112.664062 491.144531 L 112.425781 492.089844 L 112.304688 492.554688 L 112.15625 493.019531 L 111.871094 493.949219 L 111.539062 494.863281 C 110.648438 497.28125 109.472656 499.550781 108.015625 501.675781 L 107.746094 502.066406 L 107.460938 502.453125 L 106.890625 503.21875 L 106.289062 503.953125 L 105.988281 504.316406 L 105.675781 504.675781 L 105 505.351562 L 104.671875 505.695312 L 104.339844 506.023438 L 104.011719 506.355469 L 103.84375 506.519531 L 103.664062 506.683594 L 102.976562 507.316406 C 102.75 507.523438 102.496094 507.71875 102.253906 507.929688 L 101.535156 508.53125 L 100.785156 509.085938 L 100.410156 509.371094 L 100.019531 509.640625 L 99.253906 510.164062 L 98.460938 510.660156 L 98.070312 510.898438 L 97.875 511.019531 L 97.664062 511.125 L 96.855469 511.558594 L 96.449219 511.769531 L 96.03125 511.964844 L 95.203125 512.355469 L 94.363281 512.714844 L 93.945312 512.894531 L 93.734375 512.984375 L 93.523438 513.058594 L 92.671875 513.375 L 92.234375 513.523438 L 91.800781 513.660156 L 90.929688 513.929688 L 90.058594 514.15625 L 89.625 514.261719 L 89.191406 514.363281 L 88.320312 514.546875 L 87.886719 514.636719 L 87.449219 514.636719 L 86.578125 514.769531 L 85.695312 514.875 L 83.023438 514.875 C 82.441406 514.875 81.855469 514.875 81.269531 514.875 L 80.398438 514.785156 L 79.53125 514.785156 C 78.390625 514.617188 77.273438 514.367188 76.171875 514.035156 L 75.359375 513.78125 L 74.566406 513.496094 L 74.175781 513.34375 L 73.785156 513.179688 L 73.019531 512.851562 C 72.523438 512.609375 72.015625 512.386719 71.519531 512.101562 L 71.160156 511.90625 L 70.800781 511.695312 L 70.09375 511.273438 C 66.507812 509.007812 63.703125 506.007812 61.679688 502.273438 C 60.765625 500.59375 60.066406 498.828125 59.578125 496.980469 L 59.414062 496.304688 C 59.414062 496.199219 59.414062 496.078125 59.339844 495.976562 L 59.339844 495.644531 L 59.203125 494.984375 L 59.203125 494.324219 L 59.113281 493.664062 C 59.113281 493.441406 59.113281 493.230469 59.113281 493.003906 L 59.113281 492.675781 C 59.113281 492.570312 59.113281 492.449219 59.113281 492.34375 L 59.113281 491.699219 C 59.101562 490.851562 59.140625 490.007812 59.234375 489.164062 C 59.234375 488.746094 59.355469 488.339844 59.414062 487.949219 C 59.476562 487.558594 59.488281 487.546875 59.535156 487.351562 C 59.578125 487.15625 59.609375 486.960938 59.671875 486.765625 C 60.371094 483.910156 61.664062 481.355469 63.554688 479.101562 C 64.332031 478.167969 65.191406 477.316406 66.136719 476.550781 C 66.953125 475.890625 67.816406 475.300781 68.730469 474.78125 C 69.148438 474.554688 69.554688 474.328125 69.960938 474.148438 C 70.363281 473.96875 70.738281 473.804688 71.101562 473.65625 L 71.371094 473.65625 L 71.640625 473.566406 L 72.148438 473.386719 L 73.078125 473.113281 L 73.890625 472.921875 L 74.566406 472.785156 L 75.808594 472.785156 L 75.496094 472.785156 L 75.105469 472.859375 L 74.578125 472.859375 L 73.921875 473.023438 L 73.125 473.265625 L 72.210938 473.59375 L 71.714844 473.804688 L 71.460938 473.910156 L 71.191406 473.910156 C 70.84375 474.074219 70.46875 474.238281 70.09375 474.464844 C 69.71875 474.691406 69.328125 474.898438 68.925781 475.140625 C 68.066406 475.695312 67.253906 476.316406 66.496094 477 C 65.625 477.789062 64.839844 478.65625 64.140625 479.59375 C 62.457031 481.839844 61.355469 484.339844 60.839844 487.09375 C 60.839844 487.273438 60.839844 487.46875 60.75 487.648438 C 60.660156 487.828125 60.75 488.023438 60.660156 488.203125 C 60.570312 488.386719 60.570312 488.953125 60.554688 489.34375 C 60.503906 490.128906 60.503906 490.914062 60.554688 491.699219 L 60.554688 492.300781 C 60.554688 492.40625 60.554688 492.496094 60.554688 492.601562 L 60.554688 492.898438 C 60.554688 493.09375 60.554688 493.304688 60.644531 493.5 L 60.765625 494.113281 L 60.765625 494.714844 L 60.914062 495.328125 L 60.988281 495.644531 L 61.078125 495.945312 L 61.261719 496.558594 C 61.796875 498.242188 62.527344 499.839844 63.449219 501.34375 C 65.449219 504.625 68.117188 507.207031 71.460938 509.101562 C 73.210938 510.097656 75.066406 510.832031 77.023438 511.3125 C 78.980469 511.792969 80.964844 511.996094 82.980469 511.921875 L 85.289062 511.921875 L 86.054688 511.800781 L 86.835938 511.648438 L 87.226562 511.574219 L 87.613281 511.484375 L 88.378906 511.289062 L 88.769531 511.183594 L 89.144531 511.066406 L 89.910156 510.824219 L 90.660156 510.554688 L 91.035156 510.421875 L 91.410156 510.269531 L 92.144531 509.96875 L 92.324219 509.894531 L 92.503906 509.804688 L 92.863281 509.640625 L 93.585938 509.296875 L 94.289062 508.921875 L 94.648438 508.726562 L 94.996094 508.515625 L 95.683594 508.09375 L 95.863281 507.988281 L 96.03125 507.871094 L 96.359375 507.644531 L 97.035156 507.195312 L 97.695312 506.714844 L 98.023438 506.476562 L 98.339844 506.21875 L 98.96875 505.710938 L 99.585938 505.171875 C 99.78125 504.988281 99.988281 504.808594 100.183594 504.613281 L 100.769531 504.046875 L 100.921875 503.894531 L 101.054688 503.746094 L 101.863281 502.84375 L 102.390625 502.214844 L 102.644531 501.898438 L 102.886719 501.570312 L 103.378906 500.910156 L 103.84375 500.234375 L 104.070312 499.890625 L 104.28125 499.546875 C 105.464844 497.664062 106.402344 495.664062 107.085938 493.546875 L 107.339844 492.765625 L 107.550781 491.96875 L 107.65625 491.566406 L 107.746094 491.160156 L 107.925781 490.351562 C 107.925781 490.078125 108.015625 489.808594 108.058594 489.539062 C 108.105469 489.269531 108.164062 489 108.179688 488.730469 C 108.179688 488.191406 108.316406 487.636719 108.34375 487.09375 C 108.34375 486.824219 108.34375 486.554688 108.34375 486.269531 L 108.34375 483.796875 C 108.34375 483.660156 108.34375 483.523438 108.34375 483.390625 L 108.34375 482.578125 C 108.34375 482.445312 108.34375 482.308594 108.34375 482.175781 L 108.238281 481.363281 C 108.238281 481.230469 108.238281 481.09375 108.238281 480.960938 L 108.164062 480.554688 C 107.78125 478.378906 107.167969 476.265625 106.320312 474.226562 L 106.003906 473.460938 L 105.660156 472.710938 C 105.433594 472.214844 105.164062 471.734375 104.925781 471.210938 L 104.730469 470.851562 L 104.519531 470.488281 L 104.308594 470.128906 L 104.101562 469.769531 C 103.800781 469.304688 103.53125 468.839844 103.214844 468.390625 L 102.75 467.714844 L 102.269531 467.054688 L 102.03125 466.726562 L 101.773438 466.410156 L 101.265625 465.78125 C 101.101562 465.570312 100.90625 465.359375 100.738281 465.164062 L 100.46875 464.851562 L 100.199219 464.550781 L 99.644531 463.949219 L 99.359375 463.648438 L 99.074219 463.363281 C 96.851562 461.121094 94.378906 459.203125 91.652344 457.613281 C 88.925781 456.019531 86.039062 454.808594 82.996094 453.976562 L 82.636719 453.871094 L 82.273438 453.78125 L 81.554688 453.601562 L 80.835938 453.601562 L 80.113281 453.449219 C 79.140625 453.285156 78.164062 453.136719 77.203125 453.046875 C 75.292969 452.859375 73.378906 452.824219 71.460938 452.941406 C 69.613281 453.046875 67.78125 453.285156 65.96875 453.660156 C 64.15625 454.035156 62.375 454.535156 60.628906 455.160156 C 58.804688 455.800781 57.035156 456.570312 55.320312 457.46875 L 54.660156 457.816406 L 54.015625 458.175781 L 53.683594 458.355469 L 53.371094 458.550781 L 52.726562 458.941406 L 52.09375 459.34375 L 51.601562 459.148438 L 51.285156 459.359375 L 50.65625 459.78125 L 50.039062 460.230469 L 49.726562 460.453125 L 49.425781 460.679688 L 48.824219 461.144531 L 48.238281 461.625 L 47.941406 461.863281 L 47.65625 462.121094 L 47.070312 462.628906 L 46.5 463.15625 L 46.214844 463.425781 L 45.390625 464.25 C 42.371094 467.324219 39.910156 470.792969 38.011719 474.660156 C 36.046875 478.695312 34.691406 482.925781 33.945312 487.351562 C 33.554688 489.597656 33.308594 491.863281 33.210938 494.144531 C 33.101562 496.480469 33.132812 498.816406 33.300781 501.148438 C 33.390625 502.304688 33.496094 503.445312 33.644531 504.585938 C 33.644531 504.871094 33.644531 505.15625 33.765625 505.441406 L 33.898438 506.308594 L 33.898438 507.179688 L 34.050781 508.035156 C 34.453125 510.328125 34.933594 512.535156 35.550781 514.859375 C 37.765625 523.671875 41.054688 532.0625 45.421875 540.03125 C 47.476562 543.722656 49.765625 547.261719 52.289062 550.648438 C 54.601562 553.792969 57.125 556.753906 59.863281 559.53125 C 61.175781 560.851562 62.496094 562.085938 63.824219 563.234375 C 65.160156 564.390625 66.480469 565.441406 67.816406 566.429688 L 68.804688 567.148438 L 69.796875 567.839844 L 70.785156 568.484375 L 71.265625 568.800781 L 71.761719 569.101562 L 72.238281 569.398438 L 72.480469 569.550781 L 72.71875 569.683594 L 73.679688 570.238281 L 74.625 570.765625 L 75.089844 571.019531 L 75.554688 571.261719 L 76.46875 571.738281 L 77.386719 572.175781 L 77.835938 572.386719 L 78.285156 572.578125 L 79.15625 572.96875 L 80.011719 573.328125 L 80.851562 573.660156 L 81.675781 573.976562 L 82.078125 574.125 L 82.46875 574.261719 C 84.261719 574.886719 86.082031 575.410156 87.929688 575.835938 C 89.429688 576.179688 90.644531 576.390625 91.453125 576.511719 L 92.683594 576.691406 L 91.441406 576.585938 C 90.628906 576.511719 89.414062 576.359375 87.871094 576.105469 C 85.984375 575.777344 84.125 575.347656 82.289062 574.816406 L 81.886719 574.695312 L 81.480469 574.558594 L 80.640625 574.289062 L 79.769531 573.988281 L 78.886719 573.675781 L 77.984375 573.328125 L 77.519531 573.148438 L 77.054688 572.953125 L 76.109375 572.566406 L 75.148438 572.128906 L 74.65625 571.90625 L 74.160156 571.664062 L 73.171875 571.183594 L 72.164062 570.660156 L 71.910156 570.523438 L 71.65625 570.390625 L 71.144531 570.105469 L 70.636719 569.820312 L 70.125 569.519531 L 69.089844 568.90625 L 68.039062 568.261719 L 66.988281 567.585938 C 65.578125 566.65625 64.171875 565.636719 62.746094 564.585938 C 61.320312 563.535156 59.910156 562.273438 58.5 560.984375 C 55.542969 558.269531 52.796875 555.355469 50.265625 552.238281 C 47.527344 548.863281 45.027344 545.320312 42.765625 541.605469 C 37.890625 533.550781 34.136719 525.007812 31.5 515.96875 C 30.824219 513.644531 30.210938 511.273438 29.699219 508.890625 L 29.519531 507.988281 L 29.339844 507.089844 L 29.175781 506.191406 C 29.175781 505.890625 29.070312 505.574219 29.023438 505.273438 C 28.816406 504.046875 28.648438 502.816406 28.515625 501.570312 C 28.246094 499.078125 28.125 496.578125 28.15625 494.070312 C 28.179688 491.558594 28.371094 489.058594 28.726562 486.570312 C 29.410156 481.582031 30.792969 476.796875 32.878906 472.214844 C 34.949219 467.714844 37.683594 463.664062 41.085938 460.066406 L 41.714844 459.421875 L 42 459.148438 L 42.328125 458.835938 L 42.976562 458.203125 L 43.636719 457.605469 L 43.964844 457.304688 L 44.308594 457.019531 L 44.984375 456.449219 L 45.675781 455.894531 L 46.019531 455.625 L 46.378906 455.355469 L 47.085938 454.828125 L 48.164062 454.066406 L 48.523438 453.824219 L 49.246094 453.34375 L 49.980469 452.894531 L 50.339844 452.671875 L 50.714844 452.460938 L 51.464844 452.023438 L 52.214844 451.621094 C 54.1875 450.558594 56.226562 449.648438 58.335938 448.890625 C 60.347656 448.160156 62.402344 447.582031 64.5 447.148438 C 66.613281 446.714844 68.75 446.4375 70.90625 446.324219 C 73.15625 446.203125 75.398438 446.261719 77.640625 446.503906 C 78.78125 446.609375 79.921875 446.804688 81.074219 447.015625 L 81.929688 447.195312 L 82.363281 447.285156 L 82.785156 447.285156 L 83.640625 447.511719 L 84.074219 447.613281 L 84.496094 447.734375 C 88.046875 448.773438 91.394531 450.257812 94.546875 452.195312 C 97.699219 454.132812 100.535156 456.449219 103.066406 459.148438 L 103.394531 459.496094 L 103.710938 459.839844 L 104.339844 460.546875 L 104.941406 461.265625 C 105.136719 461.503906 105.34375 461.746094 105.539062 462 L 106.109375 462.765625 L 106.394531 463.140625 L 106.664062 463.53125 L 107.203125 464.308594 L 107.714844 465.121094 C 108.058594 465.644531 108.375 466.214844 108.703125 466.753906 L 108.929688 467.175781 L 109.15625 467.59375 L 109.378906 468.015625 L 109.605469 468.449219 C 109.875 469.035156 110.175781 469.605469 110.414062 470.191406 L 110.789062 471.074219 L 111.136719 471.976562 C 112.050781 474.402344 112.691406 476.902344 113.054688 479.476562 L 113.054688 479.953125 C 113.054688 480.121094 113.054688 480.285156 113.054688 480.433594 L 113.160156 481.410156 C 113.160156 481.574219 113.160156 481.738281 113.160156 481.890625 L 113.160156 482.878906 C 113.160156 483.046875 113.160156 483.210938 113.160156 483.375 L 113.160156 484.875 Z M 113.386719 484.859375 " fill-opacity="1" fill-rule="nonzero"/><path fill="#9f0b0b" d="M 33.179688 593.144531 C 33.316406 593.746094 33.496094 594.316406 33.644531 594.898438 C 33.71875 595.183594 33.808594 595.46875 33.898438 595.753906 C 33.988281 596.039062 34.066406 596.324219 34.15625 596.609375 C 34.84375 598.84375 35.65625 600.945312 36.34375 602.835938 C 37.035156 604.726562 37.964844 606.78125 38.984375 608.835938 C 39.105469 609.105469 39.238281 609.359375 39.375 609.628906 L 39.78125 610.425781 C 40.066406 610.949219 40.335938 611.488281 40.636719 612.03125 C 41.21875 613.109375 41.851562 614.175781 42.511719 615.238281 C 45.152344 619.480469 48.246094 623.363281 51.796875 626.878906 L 52.109375 627.195312 L 52.425781 627.496094 L 53.054688 628.09375 L 54.316406 629.234375 L 55.558594 630.300781 L 56.175781 630.808594 L 56.773438 631.304688 C 58.363281 632.578125 59.863281 633.644531 61.140625 634.5 L 62.054688 635.101562 L 62.878906 635.625 L 64.214844 636.433594 L 65.371094 637.109375 L 64.09375 636.691406 L 62.59375 636.148438 L 61.664062 635.789062 L 60.628906 635.371094 C 59.128906 634.769531 57.480469 633.976562 55.621094 632.984375 L 54.914062 632.59375 L 54.195312 632.191406 L 52.695312 631.320312 L 51.195312 630.359375 L 50.445312 629.851562 L 50.070312 629.59375 L 49.695312 629.324219 L 48.929688 628.785156 L 48.164062 628.214844 C 47.65625 627.839844 47.144531 627.421875 46.664062 627.015625 L 45.898438 626.386719 L 45.136719 625.738281 C 44.640625 625.289062 44.128906 624.855469 43.636719 624.390625 C 42.644531 623.476562 41.683594 622.484375 40.753906 621.480469 L 40.066406 620.714844 L 39.390625 619.933594 C 38.941406 619.425781 38.503906 618.886719 38.070312 618.34375 C 37.230469 617.265625 36.40625 616.171875 35.65625 615.058594 C 35.265625 614.503906 34.921875 613.933594 34.558594 613.378906 L 34.050781 612.539062 C 33.886719 612.253906 33.703125 611.984375 33.554688 611.699219 C 31.074219 607.445312 29.296875 602.914062 28.214844 598.109375 C 28.140625 597.796875 28.078125 597.480469 28.003906 597.148438 C 27.929688 596.820312 27.871094 596.503906 27.808594 596.175781 C 27.691406 595.53125 27.570312 594.871094 27.480469 594.195312 C 27.269531 592.859375 27.121094 591.511719 27.015625 590.144531 C 27.015625 589.453125 26.910156 588.78125 26.894531 588.089844 C 26.894531 587.746094 26.894531 587.398438 26.894531 587.054688 L 26.894531 586.019531 C 26.894531 584.640625 26.894531 583.273438 27.03125 581.925781 C 27.203125 579.316406 27.558594 576.730469 28.09375 574.171875 L 28.183594 573.71875 L 28.289062 573.269531 L 28.5 572.386719 C 28.636719 571.800781 28.800781 571.230469 28.949219 570.660156 C 29.101562 570.089844 29.265625 569.550781 29.429688 569.023438 L 29.683594 568.246094 C 29.761719 567.988281 29.851562 567.734375 29.941406 567.480469 C 30.613281 565.484375 31.320312 563.746094 31.980469 562.320312 C 32.128906 561.960938 32.296875 561.628906 32.445312 561.316406 C 32.59375 561 32.730469 560.699219 32.878906 560.429688 C 33.164062 559.875 33.390625 559.410156 33.601562 559.035156 L 34.246094 557.863281 L 33.855469 559.140625 C 33.734375 559.546875 33.601562 560.054688 33.433594 560.640625 C 33.34375 560.941406 33.269531 561.253906 33.195312 561.585938 C 33.121094 561.914062 33.015625 562.273438 32.925781 562.648438 C 32.566406 564.148438 32.203125 565.949219 31.90625 567.960938 C 31.90625 568.214844 31.90625 568.46875 31.800781 568.726562 L 31.695312 569.503906 C 31.695312 570.03125 31.574219 570.585938 31.515625 571.125 C 31.453125 571.664062 31.410156 572.234375 31.378906 572.820312 L 31.378906 574.648438 C 31.179688 579.644531 31.5625 584.59375 32.519531 589.5 C 32.609375 590.746094 32.863281 591.960938 33.179688 593.144531 Z M 33.179688 593.144531 " fill-opacity="1" fill-rule="nonzero"/><path fill="#9f0b0b" d="M 180.40625 749.699219 L 181.605469 749.339844 L 182.296875 749.128906 L 183.046875 748.875 L 183.839844 748.605469 L 184.261719 748.453125 L 184.679688 748.289062 L 185.550781 747.960938 L 186.449219 747.585938 L 187.378906 747.195312 L 188.308594 746.773438 C 190.929688 745.578125 193.429688 744.175781 195.808594 742.558594 C 197.898438 741.109375 199.898438 739.542969 201.808594 737.863281 C 203.632812 736.300781 205.355469 734.636719 206.984375 732.871094 L 207.089844 732.75 C 208.808594 730.871094 210.308594 728.832031 211.589844 726.628906 L 212.011719 725.878906 C 212.144531 725.625 212.25 725.386719 212.386719 725.144531 C 212.519531 724.90625 212.625 724.664062 212.730469 724.425781 L 213.03125 723.734375 L 213.179688 723.40625 C 213.179688 723.300781 213.269531 723.179688 213.316406 723.074219 L 213.539062 722.445312 L 213.765625 721.859375 L 213.929688 721.320312 C 214.035156 720.976562 214.140625 720.660156 214.214844 720.375 L 214.394531 719.671875 L 214.546875 719.070312 L 214.964844 719.535156 L 215.445312 720.074219 L 216.136719 720.765625 L 216.539062 721.15625 L 217.003906 721.558594 L 217.5 721.996094 L 217.769531 722.21875 L 218.054688 722.445312 L 218.640625 722.910156 L 219.285156 723.375 L 219.960938 723.855469 L 220.679688 724.320312 C 222.8125 725.652344 225.0625 726.734375 227.429688 727.574219 L 227.671875 727.664062 C 229.898438 728.421875 232.164062 729.046875 234.464844 729.539062 C 236.941406 730.105469 239.441406 730.523438 241.964844 730.800781 C 244.800781 731.085938 247.640625 731.128906 250.484375 730.933594 L 251.503906 730.933594 L 252.496094 730.828125 L 253.453125 730.726562 L 254.386719 730.589844 L 255.269531 730.589844 L 256.09375 730.441406 L 256.875 730.304688 L 257.578125 730.15625 L 258.808594 729.886719 L 259.726562 729.660156 L 260.519531 729.464844 L 259.816406 729.839844 L 258.976562 730.273438 L 257.835938 730.816406 L 257.160156 731.128906 L 256.410156 731.445312 L 255.601562 731.789062 L 255.164062 731.953125 L 254.714844 732.121094 L 253.785156 732.464844 L 252.796875 732.796875 L 251.761719 733.125 L 250.664062 733.441406 C 247.480469 734.296875 244.238281 734.796875 240.945312 734.941406 C 237.917969 735.097656 234.917969 734.871094 231.945312 734.265625 L 231.703125 734.265625 C 229.652344 733.96875 227.652344 733.46875 225.703125 732.765625 L 219.523438 730.003906 C 218.113281 729.390625 217.351562 729.300781 216.226562 730.589844 C 214.289062 732.839844 212.761719 735.253906 210.539062 737.398438 C 208.3125 739.457031 205.941406 741.335938 203.429688 743.039062 C 201.847656 744.027344 200.203125 744.894531 198.496094 745.648438 C 195.519531 747.089844 192.425781 748.1875 189.210938 748.949219 L 188.113281 749.203125 L 187.050781 749.414062 L 186 749.578125 L 185.023438 749.730469 L 184.109375 749.730469 L 183.238281 749.820312 L 182.429688 749.894531 L 178.710938 749.894531 L 179.488281 749.683594 Z M 180.40625 749.699219 " fill-opacity="1" fill-rule="nonzero"/><path fill="#9f0b0b" d="M 750 680.671875 C 581.234375 680.476562 362.671875 680.339844 345.585938 680.953125 C 343.765625 681.015625 341.949219 681.105469 340.140625 681.226562 C 334.980469 681.519531 329.847656 682.089844 324.75 682.933594 C 323.113281 683.21875 321.480469 683.519531 319.84375 683.761719 C 317.28125 684.148438 314.925781 684.601562 313.46875 687.03125 C 314.132812 684.53125 314.476562 681.988281 314.5 679.40625 C 314.527344 676.820312 314.234375 674.269531 313.621094 671.761719 C 315.539062 673.695312 318.238281 674.023438 320.878906 674.566406 C 323.878906 675.148438 326.773438 675.613281 329.746094 676.066406 C 334.980469 676.726562 340.246094 677.054688 345.511719 677.25 C 362.609375 677.851562 581.21875 677.714844 750 677.535156 Z M 750 680.671875 " fill-opacity="1" fill-rule="nonzero"/><path fill="#9f0b0b" d="M 59.070312 703.050781 C 60.382812 700.929688 62.042969 699.128906 64.050781 697.648438 C 64.546875 697.289062 65.054688 696.945312 65.550781 696.601562 L 66.390625 696.136719 L 67.261719 695.714844 C 69.621094 694.660156 72.089844 694.210938 74.671875 694.363281 C 75.914062 694.441406 77.136719 694.660156 78.328125 695.023438 C 79.503906 695.390625 80.621094 695.890625 81.675781 696.523438 C 82.710938 697.128906 83.660156 697.84375 84.523438 698.671875 C 85.367188 699.476562 86.105469 700.367188 86.746094 701.339844 C 86.910156 701.566406 87.058594 701.835938 87.210938 702.074219 L 87.421875 702.464844 L 87.613281 702.855469 L 87.796875 703.246094 L 87.960938 703.636719 L 88.035156 703.828125 L 88.035156 704.023438 L 88.171875 704.429688 C 88.492188 705.414062 88.6875 706.425781 88.75 707.460938 C 88.816406 708.496094 88.746094 709.523438 88.546875 710.539062 C 88.347656 711.558594 88.023438 712.535156 87.574219 713.46875 C 87.121094 714.402344 86.5625 715.265625 85.890625 716.054688 C 85.324219 716.714844 84.695312 717.304688 84 717.824219 C 83.328125 718.332031 82.601562 718.746094 81.824219 719.070312 C 80.433594 719.644531 78.988281 719.871094 77.488281 719.746094 C 76.296875 719.640625 75.167969 719.316406 74.101562 718.769531 C 73.320312 718.371094 72.617188 717.871094 71.984375 717.269531 C 71.597656 716.886719 71.246094 716.472656 70.933594 716.023438 C 70.828125 715.875 70.753906 715.753906 70.710938 715.679688 L 70.636719 715.558594 L 70.996094 715.980469 C 71.925781 717.011719 73.039062 717.773438 74.339844 718.261719 C 75.367188 718.640625 76.425781 718.816406 77.519531 718.785156 C 78.824219 718.746094 80.050781 718.410156 81.195312 717.78125 C 81.8125 717.429688 82.378906 717.011719 82.890625 716.519531 C 83.453125 716.011719 83.953125 715.445312 84.390625 714.824219 C 84.847656 714.144531 85.21875 713.417969 85.5 712.648438 C 85.78125 711.890625 85.964844 711.113281 86.054688 710.308594 C 86.246094 708.621094 86 706.996094 85.320312 705.433594 L 85.183594 705.148438 L 85.183594 705 L 85.109375 704.863281 L 84.960938 704.578125 L 84.796875 704.308594 L 84.628906 704.039062 L 84.449219 703.769531 C 84.316406 703.605469 84.210938 703.425781 84.058594 703.261719 C 83.5 702.570312 82.867188 701.949219 82.171875 701.398438 C 80.738281 700.28125 79.132812 699.535156 77.355469 699.164062 C 76.042969 698.886719 74.726562 698.839844 73.402344 699.03125 C 72.074219 699.222656 70.824219 699.636719 69.644531 700.273438 L 69 700.648438 L 68.460938 701.011719 L 68.191406 701.203125 L 68.054688 701.296875 L 67.921875 701.398438 L 67.648438 701.609375 L 67.394531 701.820312 C 66.039062 702.984375 64.9375 704.355469 64.09375 705.929688 C 63.3125 707.445312 62.8125 709.050781 62.59375 710.746094 C 62.371094 712.347656 62.414062 713.941406 62.730469 715.53125 L 62.730469 716.085938 L 62.863281 716.640625 L 63 717.148438 C 63 717.328125 63.121094 717.511719 63.179688 717.675781 C 63.429688 718.355469 63.730469 719.015625 64.078125 719.65625 L 64.214844 719.894531 L 64.351562 720.121094 L 64.484375 720.359375 L 64.636719 720.585938 L 64.785156 720.808594 L 64.949219 721.035156 L 65.296875 721.5 L 65.476562 721.738281 L 65.65625 721.964844 L 66.03125 722.429688 L 66.421875 722.878906 L 66.613281 723.105469 L 66.824219 723.316406 L 67.246094 723.75 L 67.695312 724.171875 L 67.921875 724.378906 L 68.160156 724.574219 L 68.640625 724.980469 C 68.96875 725.234375 69.300781 725.503906 69.660156 725.730469 C 70.019531 725.953125 70.363281 726.195312 70.738281 726.433594 C 72.269531 727.347656 73.894531 728.035156 75.613281 728.488281 C 76.515625 728.769531 77.429688 728.992188 78.359375 729.148438 C 79.285156 729.210938 80.210938 729.210938 81.136719 729.148438 C 83.035156 729.089844 84.886719 728.75 86.683594 728.128906 C 87.589844 727.824219 88.464844 727.449219 89.308594 727.003906 L 89.941406 726.660156 L 90.554688 726.300781 L 90.703125 726.210938 L 90.855469 726.105469 L 91.15625 725.894531 L 91.769531 725.488281 C 93.355469 724.375 94.796875 723.09375 96.089844 721.648438 C 97.351562 720.230469 98.429688 718.6875 99.328125 717.015625 C 101.023438 713.886719 102.023438 710.554688 102.328125 707.011719 C 102.46875 705.46875 102.46875 703.929688 102.328125 702.390625 C 102.121094 701.898438 101.910156 701.398438 101.699219 700.890625 C 100.6875 698.441406 99.824219 695.941406 99.105469 693.390625 C 98.925781 692.730469 98.746094 692.085938 98.59375 691.425781 C 98.445312 690.765625 98.265625 690.105469 98.128906 689.414062 C 97.839844 688.054688 97.609375 686.675781 97.441406 685.273438 C 96.734375 679.554688 96.921875 673.863281 98.011719 668.203125 C 98.558594 665.316406 99.347656 662.496094 100.378906 659.746094 C 101.425781 656.945312 102.738281 654.277344 104.308594 651.734375 C 105.101562 650.453125 105.964844 649.21875 106.890625 648.03125 C 107.824219 646.84375 108.824219 645.710938 109.890625 644.640625 C 112.023438 642.480469 114.390625 640.625 117 639.074219 C 118.308594 638.304688 119.664062 637.625 121.066406 637.035156 C 121.753906 636.734375 122.460938 636.464844 123.179688 636.226562 C 123.898438 635.984375 124.605469 635.746094 125.324219 635.550781 C 128.207031 634.726562 131.148438 634.25 134.144531 634.125 C 137.125 633.992188 140.070312 634.253906 142.980469 634.921875 C 145.902344 635.578125 148.628906 636.714844 151.15625 638.324219 C 151.777344 638.726562 152.378906 639.164062 152.953125 639.628906 L 153.390625 639.988281 L 153.808594 640.351562 C 154.078125 640.605469 154.351562 640.84375 154.621094 641.113281 C 154.890625 641.386719 155.128906 641.640625 155.386719 641.910156 C 155.640625 642.179688 155.878906 642.464844 156.105469 642.75 C 156.328125 643.035156 156.554688 643.320312 156.78125 643.621094 L 157.09375 644.070312 L 157.246094 644.296875 L 157.394531 644.519531 C 157.789062 645.125 158.148438 645.75 158.476562 646.394531 C 158.640625 646.710938 158.789062 647.039062 158.941406 647.371094 C 159.089844 647.699219 159.226562 648.03125 159.359375 648.359375 C 159.867188 649.671875 160.257812 651.015625 160.53125 652.394531 C 160.53125 652.738281 160.648438 653.070312 160.710938 653.414062 C 160.769531 653.761719 160.816406 654.089844 160.84375 654.433594 C 160.925781 655.105469 160.984375 655.773438 161.023438 656.445312 C 161.097656 657.765625 161.097656 659.085938 161.023438 660.40625 C 160.910156 662.988281 160.515625 665.527344 159.839844 668.023438 C 159.199219 670.453125 158.230469 672.746094 156.929688 674.894531 C 156.296875 675.960938 155.570312 676.960938 154.753906 677.894531 L 154.5 678.148438 L 154.183594 678.480469 L 153.539062 679.109375 L 152.863281 679.695312 L 152.519531 679.964844 L 152.160156 680.234375 C 151.21875 680.921875 150.21875 681.507812 149.160156 681.988281 C 148.128906 682.445312 147.0625 682.792969 145.964844 683.039062 L 145.15625 683.203125 L 144.34375 683.324219 L 142.785156 683.324219 C 141.746094 683.371094 140.710938 683.332031 139.679688 683.203125 L 138.929688 683.101562 L 138.195312 682.964844 L 137.476562 682.816406 L 137.113281 682.726562 L 136.753906 682.726562 L 136.050781 682.53125 L 135.703125 682.425781 L 135.359375 682.304688 C 134.910156 682.15625 134.476562 681.976562 134.039062 681.808594 C 133.195312 681.457031 132.375 681.050781 131.578125 680.59375 L 131.296875 680.429688 L 131.144531 680.339844 L 131.011719 680.25 L 130.453125 679.90625 L 129.914062 679.546875 L 129.390625 679.171875 C 128.089844 678.203125 126.917969 677.097656 125.878906 675.855469 C 124.957031 674.75 124.179688 673.550781 123.554688 672.253906 C 123.015625 671.132812 122.613281 669.964844 122.355469 668.746094 C 122.238281 668.214844 122.144531 667.679688 122.085938 667.140625 C 122.085938 666.628906 121.980469 666.136719 121.949219 665.640625 C 121.949219 664.710938 121.949219 663.898438 121.949219 663.195312 C 121.949219 662.488281 121.949219 661.890625 121.949219 661.410156 L 121.949219 659.910156 L 121.949219 661.410156 C 121.949219 661.890625 121.949219 662.488281 121.949219 663.195312 C 121.949219 663.898438 122.023438 664.695312 122.128906 665.625 C 122.128906 666.074219 122.25 666.554688 122.324219 667.125 C 122.613281 668.84375 123.164062 670.472656 123.976562 672.015625 C 124.632812 673.226562 125.429688 674.34375 126.359375 675.359375 C 127.40625 676.496094 128.574219 677.496094 129.855469 678.359375 L 130.363281 678.691406 L 130.890625 679.019531 L 131.429688 679.335938 L 131.566406 679.410156 L 131.699219 679.410156 L 131.984375 679.558594 C 132.753906 679.953125 133.542969 680.296875 134.355469 680.59375 C 134.773438 680.730469 135.195312 680.894531 135.628906 681 L 135.960938 681.089844 L 136.289062 681.179688 L 136.949219 681.34375 L 137.625 681.34375 L 138.316406 681.464844 L 139.003906 681.554688 L 139.710938 681.554688 C 140.664062 681.632812 141.621094 681.632812 142.574219 681.554688 L 144.015625 681.554688 L 144.734375 681.421875 L 145.453125 681.238281 C 146.425781 680.976562 147.359375 680.621094 148.261719 680.175781 C 149.175781 679.707031 150.039062 679.152344 150.839844 678.511719 L 151.140625 678.253906 L 151.441406 678 L 152.011719 677.460938 L 152.550781 676.890625 C 152.640625 676.800781 152.730469 676.695312 152.820312 676.589844 L 153.074219 676.289062 C 153.808594 675.46875 154.464844 674.589844 155.039062 673.648438 C 156.136719 671.648438 156.933594 669.535156 157.425781 667.304688 C 157.949219 664.980469 158.214844 662.625 158.21875 660.238281 C 158.226562 659.023438 158.164062 657.808594 158.039062 656.59375 C 157.980469 655.984375 157.898438 655.378906 157.800781 654.78125 C 157.800781 654.480469 157.695312 654.179688 157.636719 653.878906 C 157.574219 653.578125 157.515625 653.28125 157.441406 652.996094 C 157.160156 651.8125 156.78125 650.660156 156.300781 649.546875 C 156.179688 649.273438 156.058594 648.988281 155.910156 648.71875 C 155.761719 648.449219 155.625 648.179688 155.488281 647.910156 C 153.96875 645.195312 151.867188 643.042969 149.191406 641.460938 C 147 640.171875 144.652344 639.292969 142.15625 638.820312 C 139.59375 638.332031 137.015625 638.191406 134.414062 638.398438 C 131.78125 638.597656 129.207031 639.097656 126.691406 639.898438 C 126.058594 640.09375 125.445312 640.320312 124.828125 640.558594 C 124.214844 640.800781 123.613281 641.054688 123.015625 641.324219 C 121.824219 641.867188 120.671875 642.488281 119.566406 643.183594 C 115.070312 646.0625 111.5 649.816406 108.855469 654.449219 C 107.542969 656.746094 106.460938 659.144531 105.613281 661.648438 C 104.757812 664.121094 104.113281 666.644531 103.679688 669.226562 C 102.835938 674.296875 102.773438 679.375 103.5 684.464844 C 103.671875 685.695312 103.894531 686.90625 104.175781 688.09375 C 104.308594 688.679688 104.476562 689.296875 104.625 689.894531 C 104.773438 690.496094 104.953125 691.078125 105.121094 691.679688 C 105.804688 694 106.621094 696.277344 107.566406 698.503906 C 108.453125 700.65625 109.453125 702.757812 110.566406 704.804688 C 111.65625 706.773438 112.847656 708.675781 114.136719 710.519531 C 116.777344 714.300781 119.777344 717.769531 123.136719 720.929688 C 126.714844 724.316406 130.640625 727.242188 134.910156 729.703125 C 139.382812 732.289062 144.109375 734.25 149.101562 735.585938 C 151.636719 736.285156 154.210938 736.785156 156.824219 737.085938 C 162.160156 737.644531 167.429688 737.28125 172.636719 735.988281 C 175.246094 735.339844 177.785156 734.480469 180.253906 733.410156 C 185.238281 731.21875 189.824219 728.386719 194.011719 724.90625 C 198.160156 721.464844 201.898438 717.625 205.230469 713.386719 L 206.128906 712.214844 C 207.191406 712.855469 208.269531 713.480469 209.371094 714.089844 L 208.230469 715.648438 C 204.882812 720.246094 201.082031 724.429688 196.828125 728.203125 C 192.433594 732.117188 187.578125 735.335938 182.265625 737.863281 C 179.59375 739.105469 176.839844 740.113281 174 740.894531 C 171.128906 741.695312 168.207031 742.234375 165.238281 742.515625 C 162.285156 742.773438 159.328125 742.773438 156.375 742.515625 C 153.445312 742.289062 150.550781 741.835938 147.691406 741.148438 C 142.140625 739.808594 136.871094 737.75 131.878906 734.984375 C 127.140625 732.367188 122.777344 729.222656 118.800781 725.550781 C 115.097656 722.105469 111.800781 718.304688 108.914062 714.148438 C 107.496094 712.132812 106.191406 710.039062 105 707.878906 L 104.324219 706.605469 C 104.324219 706.769531 104.324219 706.921875 104.324219 707.085938 C 104.378906 708.953125 104.246094 710.808594 103.921875 712.648438 C 103.558594 714.640625 102.988281 716.570312 102.210938 718.441406 C 101.363281 720.433594 100.292969 722.296875 99 724.035156 C 97.691406 725.859375 96.191406 727.511719 94.5 728.984375 L 93.824219 729.523438 L 93.480469 729.796875 L 93.316406 729.929688 L 93.136719 730.066406 L 92.386719 730.648438 L 91.636719 731.128906 C 90.632812 731.753906 89.585938 732.292969 88.5 732.75 C 86.273438 733.722656 83.953125 734.332031 81.539062 734.578125 C 80.34375 734.703125 79.140625 734.738281 77.941406 734.683594 C 76.746094 734.617188 75.558594 734.46875 74.386719 734.234375 C 72.070312 733.765625 69.875 732.972656 67.800781 731.851562 C 67.304688 731.566406 66.796875 731.296875 66.300781 730.980469 C 65.804688 730.664062 65.355469 730.351562 64.90625 730.019531 L 64.246094 729.511719 L 63.914062 729.253906 L 63.601562 728.984375 L 62.984375 728.445312 L 62.398438 727.875 L 62.113281 727.589844 L 61.84375 727.289062 L 61.304688 726.691406 L 60.796875 726.074219 L 60.539062 725.773438 L 60.300781 725.460938 L 59.835938 724.828125 L 59.609375 724.5 L 59.386719 724.171875 L 59.160156 723.839844 L 58.949219 723.496094 L 58.753906 723.148438 L 58.558594 722.804688 C 58.046875 721.871094 57.609375 720.902344 57.253906 719.894531 C 57.164062 719.640625 57.074219 719.386719 57 719.113281 L 56.773438 718.320312 C 56.773438 718.050781 56.65625 717.78125 56.578125 717.511719 L 56.578125 716.671875 C 56.183594 714.3125 56.214844 711.964844 56.671875 709.617188 C 57.128906 707.273438 57.980469 705.085938 59.234375 703.050781 Z M 59.070312 703.050781 " fill-opacity="1" fill-rule="nonzero"/><path fill="#9f0b0b" d="M 227.234375 661.261719 C 227.078125 665.492188 226.628906 669.691406 225.886719 673.859375 C 225.496094 676.066406 225.015625 678.359375 224.386719 680.609375 C 223.753906 682.859375 223.15625 685.214844 222.390625 687.554688 C 221.625 689.894531 220.769531 692.25 219.808594 694.621094 C 218.851562 696.988281 217.785156 699.359375 216.601562 701.714844 L 216.464844 701.984375 C 215.464844 701.515625 214.515625 701.015625 213.613281 700.484375 L 213.78125 700.199219 C 215.011719 697.964844 216.121094 695.699219 217.15625 693.433594 C 218.191406 691.171875 219.121094 688.933594 219.945312 686.671875 C 220.769531 684.40625 221.445312 682.171875 222.164062 679.980469 C 222.886719 677.789062 223.363281 675.585938 223.84375 673.441406 C 224.75 669.386719 225.367188 665.292969 225.703125 661.15625 L 225.808594 659.65625 L 225.808594 659.296875 C 225.808594 659.175781 225.808594 659.054688 225.808594 658.933594 C 225.808594 658.816406 225.808594 658.46875 225.808594 658.230469 C 225.808594 657.300781 225.808594 656.371094 225.808594 655.46875 C 225.808594 653.671875 225.808594 651.929688 225.703125 650.28125 C 225.601562 648.628906 225.511719 647.070312 225.375 645.585938 C 225.238281 644.101562 225.058594 642.71875 224.878906 641.429688 C 224.503906 638.835938 224.070312 636.628906 223.664062 634.84375 L 223.515625 634.183594 L 223.363281 633.570312 L 223.09375 632.460938 C 222.914062 631.785156 222.765625 631.199219 222.628906 630.734375 L 222.226562 629.339844 L 222.703125 630.71875 C 222.855469 631.183594 223.035156 631.753906 223.261719 632.414062 L 223.589844 633.511719 L 223.769531 634.109375 L 223.949219 634.753906 C 224.445312 636.523438 224.984375 638.730469 225.449219 641.308594 C 225.703125 642.601562 225.929688 643.996094 226.140625 645.480469 C 226.351562 646.964844 226.53125 648.480469 226.695312 650.191406 C 226.859375 651.898438 226.964844 653.59375 227.039062 655.425781 C 227.039062 656.339844 227.039062 657.269531 227.039062 658.230469 C 227.039062 658.46875 227.039062 658.710938 227.039062 658.949219 L 227.039062 659.308594 C 227.039062 659.429688 227.039062 659.550781 227.039062 659.671875 C 227.179688 660.238281 227.246094 660.769531 227.234375 661.261719 Z M 227.234375 661.261719 " fill-opacity="1" fill-rule="nonzero"/><path fill="#9f0b0b" d="M 303 685.648438 C 302.570312 687.761719 301.992188 689.832031 301.261719 691.859375 C 300.503906 693.96875 299.59375 696.007812 298.53125 697.980469 L 298.125 698.730469 L 297.691406 699.480469 L 297.480469 699.855469 L 297.253906 700.230469 L 296.804688 700.964844 L 296.324219 701.683594 L 296.085938 702.046875 L 295.828125 702.40625 L 295.320312 703.125 L 294.796875 703.828125 L 294.523438 704.191406 L 294.253906 704.535156 L 293.699219 705.226562 L 293.128906 705.898438 L 292.84375 706.246094 L 292.546875 706.574219 L 291.945312 707.234375 L 291.316406 707.878906 L 291 708.148438 L 290.671875 708.464844 L 290.023438 709.09375 C 286.425781 712.496094 282.375 715.230469 277.875 717.300781 C 273.292969 719.386719 268.507812 720.769531 263.519531 721.453125 C 261.03125 721.808594 258.53125 722 256.019531 722.023438 C 253.511719 722.054688 251.011719 721.933594 248.519531 721.664062 C 247.273438 721.53125 246.046875 721.363281 244.816406 721.15625 L 243.898438 721.003906 L 243 720.839844 L 242.101562 720.660156 L 241.199219 720.480469 C 238.800781 719.96875 236.445312 719.371094 234.121094 718.679688 C 225.085938 716.039062 216.546875 712.277344 208.5 707.398438 C 204.785156 705.140625 201.242188 702.640625 197.863281 699.898438 C 194.765625 697.363281 191.863281 694.613281 189.164062 691.648438 C 187.875 690.238281 186.675781 688.824219 185.566406 687.40625 C 184.453125 685.980469 183.433594 684.570312 182.566406 683.160156 L 181.890625 682.109375 L 181.246094 681.058594 L 180.628906 680.023438 L 180.328125 679.515625 L 180.046875 679.003906 L 179.761719 678.496094 L 179.625 678.238281 L 179.488281 677.984375 L 178.964844 676.980469 L 178.484375 675.988281 L 178.246094 675.496094 L 178.019531 675 L 177.585938 674.039062 L 177.195312 673.09375 L 177 672.628906 L 176.820312 672.164062 L 176.476562 671.265625 C 176.371094 670.964844 176.265625 670.664062 176.160156 670.378906 C 176.054688 670.09375 175.949219 669.796875 175.859375 669.511719 L 175.589844 668.671875 L 175.453125 668.265625 L 175.335938 667.859375 C 174.800781 666.023438 174.371094 664.164062 174.046875 662.28125 C 173.789062 660.78125 173.65625 659.535156 173.566406 658.710938 L 173.460938 657.464844 L 173.640625 658.695312 C 173.761719 659.503906 173.96875 660.691406 174.316406 662.21875 C 174.734375 664.058594 175.253906 665.867188 175.875 667.648438 L 176.011719 668.039062 L 176.160156 668.445312 L 176.476562 669.269531 C 176.578125 669.554688 176.699219 669.824219 176.804688 670.109375 L 177.164062 670.964844 L 177.554688 671.835938 L 177.75 672.285156 L 177.960938 672.734375 L 178.394531 673.648438 L 178.875 674.566406 L 179.113281 675.03125 L 179.371094 675.496094 L 179.894531 676.441406 L 180.449219 677.398438 L 180.585938 677.640625 L 180.734375 677.878906 L 181.035156 678.359375 L 181.335938 678.855469 L 181.648438 679.335938 L 182.296875 680.324219 L 182.984375 681.316406 L 183.703125 682.304688 C 184.679688 683.625 185.746094 684.960938 186.898438 686.296875 C 188.054688 687.628906 189.285156 688.933594 190.605469 690.253906 C 193.386719 693.003906 196.351562 695.539062 199.5 697.859375 C 202.894531 700.355469 206.441406 702.613281 210.136719 704.640625 C 218.101562 709.003906 226.492188 712.296875 235.304688 714.511719 C 237.554688 715.066406 239.804688 715.558594 242.128906 716.011719 L 242.984375 716.160156 L 243.855469 716.160156 L 244.726562 716.296875 L 245.578125 716.414062 C 246.71875 716.566406 247.875 716.671875 249.015625 716.761719 C 251.308594 716.925781 253.601562 716.953125 255.898438 716.851562 C 258.179688 716.75 260.445312 716.507812 262.695312 716.113281 C 267.121094 715.367188 271.351562 714.011719 275.386719 712.050781 C 279.25 710.148438 282.722656 707.6875 285.796875 704.671875 L 286.351562 704.113281 L 286.621094 703.84375 L 286.890625 703.558594 L 287.414062 702.988281 L 287.925781 702.40625 L 288.179688 702.121094 L 288.421875 701.820312 L 288.898438 701.234375 L 289.363281 700.636719 L 289.589844 700.335938 L 289.816406 700.019531 L 290.265625 699.40625 L 290.683594 698.773438 L 290.894531 698.460938 L 291.105469 698.144531 L 291.511719 697.515625 L 291.898438 696.871094 L 292.09375 696.554688 L 292.273438 696.226562 L 292.636719 695.578125 L 292.980469 694.921875 C 293.878906 693.207031 294.648438 691.4375 295.289062 689.609375 C 295.914062 687.867188 296.414062 686.085938 296.789062 684.269531 C 297.164062 682.457031 297.402344 680.628906 297.511719 678.78125 C 297.628906 676.863281 297.59375 674.945312 297.40625 673.035156 C 297.316406 672.058594 297.164062 671.101562 297 670.125 L 296.851562 669.40625 L 296.851562 668.683594 L 296.667969 667.964844 L 296.578125 667.605469 L 296.476562 667.246094 C 295.640625 664.199219 294.429688 661.3125 292.835938 658.585938 C 291.246094 655.859375 289.328125 653.386719 287.085938 651.164062 L 286.800781 650.878906 L 286.5 650.59375 L 285.898438 650.039062 L 285.601562 649.769531 L 285.285156 649.5 L 284.667969 648.976562 L 284.039062 648.464844 L 283.726562 648.210938 L 283.394531 647.96875 L 282.734375 647.488281 L 282.058594 647.023438 C 281.609375 646.710938 281.144531 646.441406 280.679688 646.140625 L 279.960938 645.71875 L 279.601562 645.511719 L 279.238281 645.316406 C 278.746094 645.074219 278.28125 644.804688 277.738281 644.578125 L 276.988281 644.234375 L 276.226562 643.921875 C 274.164062 643.097656 272.039062 642.507812 269.851562 642.148438 L 269.445312 642.074219 L 269.039062 642.074219 L 268.230469 641.96875 L 263.308594 641.96875 C 262.753906 641.96875 262.214844 642.074219 261.675781 642.136719 C 261.40625 642.136719 261.136719 642.210938 260.863281 642.253906 L 260.054688 642.390625 L 259.246094 642.570312 L 258.839844 642.660156 L 258.433594 642.765625 L 257.640625 642.976562 L 256.859375 643.230469 C 254.742188 643.914062 252.742188 644.847656 250.859375 646.035156 L 250.515625 646.246094 L 250.171875 646.46875 L 249.496094 646.933594 L 248.835938 647.429688 L 248.503906 647.671875 L 248.191406 647.925781 L 247.558594 648.449219 L 247.261719 648.71875 L 246.960938 648.988281 L 246.660156 649.261719 L 246.511719 649.394531 L 246.359375 649.546875 L 245.789062 650.128906 C 245.59375 650.324219 245.414062 650.519531 245.234375 650.730469 L 244.695312 651.34375 L 244.183594 651.976562 L 243.929688 652.289062 L 243.691406 652.621094 L 243.210938 653.28125 C 243.046875 653.503906 242.910156 653.730469 242.761719 653.953125 L 242.535156 654.285156 L 242.414062 654.449219 L 242.308594 654.628906 L 241.890625 655.320312 L 241.679688 655.664062 L 241.484375 656.023438 L 241.109375 656.730469 L 240.765625 657.449219 L 240.601562 657.808594 L 240.511719 657.988281 L 240.433594 658.171875 L 240.136719 658.90625 C 240.136719 659.023438 240.03125 659.144531 239.984375 659.28125 L 239.851562 659.65625 L 239.578125 660.40625 C 239.488281 660.660156 239.429688 660.914062 239.339844 661.171875 L 239.21875 661.546875 C 239.21875 661.664062 239.144531 661.800781 239.113281 661.933594 L 238.917969 662.699219 L 238.828125 663.089844 C 238.828125 663.226562 238.828125 663.34375 238.753906 663.480469 L 238.605469 664.261719 C 238.605469 664.515625 238.515625 664.769531 238.484375 665.023438 L 238.484375 665.414062 C 238.484375 665.550781 238.484375 665.671875 238.484375 665.804688 L 238.484375 667.335938 C 238.410156 669.347656 238.613281 671.335938 239.09375 673.292969 C 239.570312 675.25 240.308594 677.101562 241.304688 678.855469 C 243.195312 682.195312 245.78125 684.867188 249.058594 686.863281 C 250.566406 687.789062 252.160156 688.519531 253.84375 689.054688 L 254.460938 689.234375 L 254.761719 689.324219 L 255.074219 689.398438 L 255.691406 689.550781 L 256.289062 689.550781 L 256.90625 689.671875 L 257.503906 689.761719 L 258.703125 689.761719 C 259.488281 689.8125 260.273438 689.8125 261.058594 689.761719 C 261.449219 689.761719 261.824219 689.761719 262.199219 689.65625 L 263.308594 689.476562 C 265.242188 689.097656 267.070312 688.425781 268.785156 687.460938 C 270.5 686.492188 272.019531 685.277344 273.34375 683.820312 C 274.03125 683.058594 274.652344 682.25 275.203125 681.390625 C 275.445312 680.984375 275.683594 680.609375 275.878906 680.21875 C 276.074219 679.828125 276.253906 679.46875 276.433594 679.125 L 276.433594 678.855469 L 276.539062 678.601562 L 276.75 678.105469 C 276.871094 677.773438 276.976562 677.476562 277.078125 677.191406 L 277.320312 676.394531 L 277.484375 675.734375 L 277.484375 675.210938 L 277.558594 674.820312 L 277.558594 674.503906 L 277.558594 675.75 L 277.351562 676.648438 L 277.15625 677.460938 C 277.078125 677.746094 276.976562 678.058594 276.886719 678.390625 L 276.703125 678.898438 L 276.613281 679.171875 L 276.613281 679.441406 C 276.464844 679.800781 276.316406 680.191406 276.121094 680.578125 C 275.925781 680.96875 275.714844 681.375 275.488281 681.808594 C 274.96875 682.722656 274.378906 683.589844 273.71875 684.40625 C 272.953125 685.347656 272.101562 686.207031 271.171875 686.984375 C 268.917969 688.875 266.359375 690.167969 263.503906 690.871094 L 262.921875 691.003906 L 262.320312 691.125 C 261.914062 691.125 261.511719 691.261719 261.105469 691.304688 C 260.261719 691.398438 259.417969 691.441406 258.570312 691.425781 L 256.605469 691.425781 L 255.945312 691.335938 L 255.285156 691.335938 L 254.625 691.199219 L 254.296875 691.199219 L 253.964844 691.125 L 253.289062 690.960938 C 251.441406 690.472656 249.675781 689.773438 247.996094 688.859375 C 244.261719 686.839844 241.261719 684.03125 238.996094 680.445312 L 238.574219 679.738281 L 238.363281 679.378906 L 238.171875 679.019531 C 237.898438 678.539062 237.675781 678.03125 237.421875 677.519531 L 237.089844 676.753906 L 236.925781 676.363281 L 236.773438 675.976562 C 236.683594 675.703125 236.578125 675.449219 236.488281 675.179688 L 236.234375 674.371094 C 235.90625 673.269531 235.65625 672.148438 235.484375 671.011719 L 235.484375 670.140625 C 235.484375 669.855469 235.484375 669.554688 235.394531 669.269531 C 235.394531 668.683594 235.320312 668.101562 235.394531 667.515625 L 235.394531 665.746094 C 235.394531 665.59375 235.394531 665.445312 235.394531 665.296875 L 235.394531 664.84375 C 235.394531 664.546875 235.394531 664.246094 235.5 663.960938 L 235.636719 663.089844 C 235.636719 662.941406 235.636719 662.789062 235.636719 662.65625 L 235.726562 662.21875 L 235.90625 661.351562 C 235.90625 661.199219 235.90625 661.066406 236.011719 660.914062 L 236.113281 660.480469 C 236.191406 660.195312 236.25 659.894531 236.339844 659.609375 L 236.609375 658.738281 L 236.746094 658.304688 C 236.746094 658.15625 236.851562 658.019531 236.894531 657.871094 L 237.210938 657.015625 L 237.285156 656.804688 L 237.375 656.59375 L 237.554688 656.175781 L 237.914062 655.335938 L 238.304688 654.511719 L 238.5 654.089844 C 238.5 653.953125 238.648438 653.820312 238.710938 653.683594 L 239.144531 652.875 L 239.25 652.664062 L 239.371094 652.46875 L 239.609375 652.078125 C 239.773438 651.808594 239.925781 651.554688 240.105469 651.285156 L 240.628906 650.519531 L 240.898438 650.128906 L 241.183594 649.753906 L 241.738281 649.003906 L 242.339844 648.285156 C 242.535156 648.046875 242.730469 647.804688 242.953125 647.566406 L 243.585938 646.875 L 243.75 646.695312 L 244.574219 645.871094 L 244.921875 645.539062 L 245.625 644.910156 L 245.984375 644.59375 L 246.34375 644.296875 L 247.078125 643.695312 L 247.84375 643.125 L 248.234375 642.839844 L 248.625 642.570312 C 250.75 641.113281 253.019531 639.9375 255.433594 639.046875 L 256.351562 638.714844 L 257.28125 638.429688 L 257.746094 638.28125 L 258.210938 638.160156 L 259.15625 637.921875 L 260.101562 637.726562 C 260.414062 637.726562 260.730469 637.589844 261.058594 637.546875 C 261.703125 637.453125 262.351562 637.335938 262.996094 637.289062 L 263.96875 637.199219 L 268.859375 637.199219 L 269.835938 637.289062 L 270.796875 637.289062 C 273.367188 637.652344 275.867188 638.292969 278.296875 639.210938 L 279.195312 639.554688 L 280.078125 639.929688 C 280.679688 640.171875 281.25 640.46875 281.820312 640.738281 L 282.253906 640.964844 L 282.675781 641.191406 L 283.09375 641.414062 L 283.515625 641.640625 C 284.070312 641.96875 284.625 642.269531 285.148438 642.628906 L 285.960938 643.140625 L 286.738281 643.679688 L 287.128906 643.949219 L 287.503906 644.234375 L 288.269531 644.804688 L 289.003906 645.40625 L 289.363281 645.703125 L 289.726562 646.003906 L 290.429688 646.636719 L 290.773438 646.949219 L 291.121094 647.28125 C 293.808594 649.8125 296.117188 652.652344 298.042969 655.804688 C 299.96875 658.953125 301.445312 662.304688 302.476562 665.851562 L 302.59375 666.269531 L 302.699219 666.703125 L 302.925781 667.558594 L 302.925781 667.980469 L 303.015625 668.414062 L 303.195312 669.269531 C 303.40625 670.425781 303.601562 671.566406 303.703125 672.703125 C 303.949219 674.945312 304.007812 677.191406 303.886719 679.441406 C 303.742188 681.53125 303.445312 683.601562 303 685.648438 Z M 303 685.648438 " fill-opacity="1" fill-rule="nonzero"/><path fill="#9f0b0b" d="M 175.921875 718.90625 L 177.226562 718.90625 L 178.921875 718.769531 L 180.539062 718.589844 L 181.320312 718.484375 L 182.085938 718.378906 C 184.09375 718.078125 185.910156 717.71875 187.394531 717.359375 L 188.460938 717.089844 L 189.40625 716.851562 L 190.90625 716.429688 L 192.179688 716.039062 L 191.011719 716.683594 L 189.601562 717.40625 L 188.714844 717.839844 L 187.710938 718.304688 C 186.285156 718.949219 184.546875 719.65625 182.550781 720.34375 L 181.785156 720.601562 L 181.003906 720.855469 L 179.371094 721.335938 L 177.644531 721.785156 L 176.761719 721.996094 L 176.308594 722.101562 L 175.859375 722.191406 C 173.300781 722.726562 170.714844 723.082031 168.105469 723.253906 C 166.753906 723.359375 165.390625 723.390625 164.011719 723.390625 L 161.941406 723.390625 C 161.25 723.390625 160.574219 723.390625 159.886719 723.269531 C 158.519531 723.148438 157.171875 723.015625 155.835938 722.804688 C 155.175781 722.714844 154.515625 722.578125 153.855469 722.476562 L 152.878906 722.28125 L 151.921875 722.070312 C 147.113281 720.988281 142.585938 719.210938 138.328125 716.730469 L 137.488281 716.234375 L 136.648438 715.726562 C 136.09375 715.363281 135.523438 715.003906 134.96875 714.628906 C 133.859375 713.878906 132.765625 713.128906 131.683594 712.214844 C 131.160156 711.78125 130.621094 711.359375 130.09375 710.894531 L 129.316406 710.21875 L 128.550781 709.53125 C 127.546875 708.601562 126.570312 707.640625 125.640625 706.648438 C 125.175781 706.15625 124.726562 705.660156 124.289062 705.148438 C 124.066406 704.910156 123.855469 704.640625 123.644531 704.386719 L 123.015625 703.621094 C 122.609375 703.109375 122.191406 702.601562 121.816406 702.121094 L 121.246094 701.355469 L 120.703125 700.589844 L 120.433594 700.214844 L 119.671875 699.089844 C 119.339844 698.578125 119.023438 698.085938 118.710938 697.589844 C 118.394531 697.09375 118.109375 696.601562 117.839844 696.089844 L 117.433594 695.371094 L 117.046875 694.664062 C 116.054688 692.804688 115.261719 691.09375 114.660156 689.65625 C 114.511719 689.296875 114.375 688.949219 114.238281 688.621094 C 114.105469 688.289062 113.984375 687.988281 113.878906 687.691406 C 113.671875 687.105469 113.488281 686.609375 113.339844 686.191406 L 112.921875 684.914062 L 113.59375 686.070312 C 113.804688 686.445312 114.089844 686.894531 114.40625 687.40625 C 114.554688 687.660156 114.75 687.945312 114.929688 688.230469 C 115.109375 688.515625 115.304688 688.828125 115.53125 689.144531 C 116.386719 690.433594 117.449219 691.921875 118.726562 693.511719 L 119.21875 694.109375 L 119.730469 694.726562 L 120.796875 695.96875 L 121.933594 697.230469 L 122.535156 697.859375 L 122.835938 698.175781 L 123.148438 698.488281 C 126.667969 702.039062 130.546875 705.132812 134.789062 707.773438 C 135.855469 708.433594 136.921875 709.066406 138 709.648438 C 138.523438 709.949219 139.078125 710.21875 139.605469 710.503906 L 140.398438 710.910156 L 141.195312 711.300781 C 143.308594 712.320312 145.351562 713.203125 147.195312 713.941406 C 149.039062 714.675781 151.183594 715.441406 153.421875 716.128906 L 154.273438 716.386719 L 155.128906 716.640625 C 155.714844 716.789062 156.285156 716.96875 156.886719 717.105469 C 158.070312 717.40625 159.285156 717.675781 160.515625 717.914062 C 165.421875 718.875 170.371094 719.253906 175.363281 719.054688 Z M 175.921875 718.90625 " fill-opacity="1" fill-rule="nonzero"/></g></g><g clip-path="url(#b877fb2905)"><g clip-path="url(#5cefe43b49)"><g clip-path="url(#6f04de551d)"><g transform="matrix(1, 0, 0, 1, 140, 601)"><g clip-path="url(#5a7be8bd74)"><g clip-path="url(#9c5761b6ce)"><g clip-path="url(#0d6d734721)"><g clip-path="url(#ed1f27bd13)"><path fill="#9f0b0b" d="M 8.125 -1.785156 L 13.347656 8.046875 L 3.515625 13.269531 L -1.707031 3.4375 Z M 8.125 -1.785156 " fill-opacity="1" fill-rule="nonzero"/></g></g></g></g></g></g></g></g></svg>