<svg xmlns="http://www.w3.org/2000/svg" xmlns:xlink="http://www.w3.org/1999/xlink" width="1000" zoomAndPan="magnify" viewBox="0 0 750 749.999995" height="1000" preserveAspectRatio="xMidYMid meet" version="1.0"><defs><clipPath id="c6ecf32004"><path d="M 16.476562 16.617188 L 734 16.617188 L 734 733.382812 L 16.476562 733.382812 Z M 16.476562 16.617188 " clip-rule="nonzero"/></clipPath><clipPath id="7305f03300"><path d="M 91.476562 16.617188 L 658.523438 16.617188 C 678.414062 16.617188 697.488281 24.519531 711.554688 38.585938 C 725.621094 52.652344 733.523438 71.726562 733.523438 91.617188 L 733.523438 658.382812 C 733.523438 678.273438 725.621094 697.347656 711.554688 711.414062 C 697.488281 725.480469 678.414062 733.382812 658.523438 733.382812 L 91.476562 733.382812 C 71.585938 733.382812 52.511719 725.480469 38.445312 711.414062 C 24.378906 697.347656 16.476562 678.273438 16.476562 658.382812 L 16.476562 91.617188 C 16.476562 71.726562 24.378906 52.652344 38.445312 38.585938 C 52.511719 24.519531 71.585938 16.617188 91.476562 16.617188 Z M 91.476562 16.617188 " clip-rule="nonzero"/></clipPath><clipPath id="11bfef60e1"><path d="M 0.476562 0.617188 L 717.679688 0.617188 L 717.679688 717.382812 L 0.476562 717.382812 Z M 0.476562 0.617188 " clip-rule="nonzero"/></clipPath><clipPath id="bc8ed4dbbb"><path d="M 75.476562 0.617188 L 642.523438 0.617188 C 662.414062 0.617188 681.488281 8.519531 695.554688 22.585938 C 709.621094 36.652344 717.523438 55.726562 717.523438 75.617188 L 717.523438 642.382812 C 717.523438 662.273438 709.621094 681.347656 695.554688 695.414062 C 681.488281 709.480469 662.414062 717.382812 642.523438 717.382812 L 75.476562 717.382812 C 55.585938 717.382812 36.511719 709.480469 22.445312 695.414062 C 8.378906 681.347656 0.476562 662.273438 0.476562 642.382812 L 0.476562 75.617188 C 0.476562 55.726562 8.378906 36.652344 22.445312 22.585938 C 36.511719 8.519531 55.585938 0.617188 75.476562 0.617188 Z M 75.476562 0.617188 " clip-rule="nonzero"/></clipPath><clipPath id="0f7ec15251"><rect x="0" width="718" y="0" height="718"/></clipPath><clipPath id="d4b1be73c4"><path d="M 139.351562 139.351562 L 610.351562 139.351562 L 610.351562 610.351562 L 139.351562 610.351562 Z M 139.351562 139.351562 " clip-rule="nonzero"/></clipPath></defs><g clip-path="url(#c6ecf32004)"><g clip-path="url(#7305f03300)"><g transform="matrix(1, 0, 0, 1, 16, 16)"><g clip-path="url(#0f7ec15251)"><g clip-path="url(#11bfef60e1)"><g clip-path="url(#bc8ed4dbbb)"><path fill="#9f0b0b" d="M 0.476562 0.617188 L 717.238281 0.617188 L 717.238281 717.382812 L 0.476562 717.382812 Z M 0.476562 0.617188 " fill-opacity="1" fill-rule="nonzero"/></g></g></g></g></g></g><path fill="#fffdf5" d="M 204.050781 443.273438 C 197.8125 443.273438 192.753906 438.210938 192.753906 431.976562 L 192.753906 296.417969 C 192.753906 290.183594 197.8125 285.121094 204.050781 285.121094 C 210.285156 285.121094 215.347656 290.183594 215.347656 296.417969 L 215.347656 431.976562 C 215.347656 438.210938 210.285156 443.273438 204.050781 443.273438 Z M 204.050781 443.273438 " fill-opacity="1" fill-rule="nonzero"/><path fill="#fffdf5" d="M 497.757812 443.273438 C 491.519531 443.273438 486.460938 438.210938 486.460938 431.976562 L 486.460938 296.417969 C 486.460938 290.183594 491.519531 285.121094 497.757812 285.121094 C 503.992188 285.121094 509.050781 290.183594 509.050781 296.417969 L 509.050781 431.976562 C 509.050781 438.210938 503.992188 443.273438 497.757812 443.273438 Z M 497.757812 443.273438 " fill-opacity="1" fill-rule="nonzero"/><path fill="#fffdf5" d="M 407.386719 443.273438 L 384.792969 443.273438 C 378.554688 443.273438 373.496094 438.210938 373.496094 431.976562 L 373.496094 296.417969 C 373.496094 290.183594 378.554688 285.121094 384.792969 285.121094 L 407.386719 285.121094 C 438.519531 285.121094 463.867188 310.472656 463.867188 341.605469 L 463.867188 386.789062 C 463.867188 417.921875 438.519531 443.273438 407.386719 443.273438 Z M 396.089844 420.679688 L 407.386719 420.679688 C 426.070312 420.679688 441.273438 405.472656 441.273438 386.789062 L 441.273438 341.605469 C 441.273438 322.921875 426.070312 307.714844 407.386719 307.714844 L 396.089844 307.714844 Z M 396.089844 420.679688 " fill-opacity="1" fill-rule="nonzero"/><path fill="#fffdf5" d="M 295.03125 443.273438 C 290.195312 443.273438 285.882812 440.175781 284.320312 435.589844 L 260.53125 365.148438 L 260.53125 431.976562 C 260.53125 438.210938 255.472656 443.273438 249.234375 443.273438 C 243 443.273438 237.9375 438.210938 237.9375 431.976562 L 237.9375 296.417969 C 237.9375 290.882812 241.9375 286.164062 247.40625 285.28125 C 252.851562 284.242188 258.160156 287.539062 259.945312 292.804688 L 294.894531 396.257812 L 328.875 292.894531 C 330.613281 287.628906 335.902344 284.398438 341.390625 285.28125 C 346.882812 286.140625 350.902344 290.863281 350.902344 296.417969 L 350.902344 431.976562 C 350.902344 438.210938 345.84375 443.273438 339.605469 443.273438 C 333.371094 443.273438 328.308594 438.210938 328.308594 431.976562 L 328.308594 366.929688 L 305.761719 435.5 C 304.25 440.132812 299.933594 443.25 295.074219 443.273438 C 295.054688 443.273438 295.03125 443.273438 295.03125 443.273438 Z M 295.03125 443.273438 " fill-opacity="1" fill-rule="nonzero"/><path fill="#fffdf5" d="M 525.996094 443.273438 C 504.195312 443.273438 486.460938 425.535156 486.460938 403.734375 L 486.460938 369.847656 C 486.460938 348.042969 504.195312 330.308594 525.996094 330.308594 C 547.800781 330.308594 565.535156 348.042969 565.535156 369.847656 L 565.535156 403.734375 C 565.535156 425.535156 547.800781 443.273438 525.996094 443.273438 Z M 525.996094 352.902344 C 516.644531 352.902344 509.050781 360.492188 509.050781 369.847656 L 509.050781 403.734375 C 509.050781 413.089844 516.644531 420.679688 525.996094 420.679688 C 535.351562 420.679688 542.941406 413.089844 542.941406 403.734375 L 542.941406 369.847656 C 542.941406 360.492188 535.351562 352.902344 525.996094 352.902344 Z M 525.996094 352.902344 " fill-opacity="1" fill-rule="nonzero"/><g clip-path="url(#d4b1be73c4)"><path fill="#fffdf5" d="M 610.71875 646.605469 L 136.273438 646.605469 C 117.585938 646.605469 102.382812 631.402344 102.382812 612.71875 L 102.382812 138.269531 C 102.382812 119.585938 117.585938 104.378906 136.273438 104.378906 L 610.71875 104.378906 C 629.402344 104.378906 644.609375 119.585938 644.609375 138.269531 L 644.609375 612.71875 C 644.609375 631.402344 629.402344 646.605469 610.71875 646.605469 Z M 136.273438 126.972656 C 130.035156 126.972656 124.976562 132.035156 124.976562 138.269531 L 124.976562 612.71875 C 124.976562 618.953125 130.035156 624.015625 136.273438 624.015625 L 610.71875 624.015625 C 616.957031 624.015625 622.015625 618.953125 622.015625 612.71875 L 622.015625 138.269531 C 622.015625 132.035156 616.957031 126.972656 610.71875 126.972656 Z M 136.273438 126.972656 " fill-opacity="1" fill-rule="nonzero"/></g></svg>