<svg xmlns="http://www.w3.org/2000/svg" xmlns:xlink="http://www.w3.org/1999/xlink" width="1000" zoomAndPan="magnify" viewBox="0 0 750 749.999995" height="1000" preserveAspectRatio="xMidYMid meet" version="1.0"><defs><clipPath id="397812c0b8"><path d="M 16.476562 16.617188 L 734 16.617188 L 734 733.382812 L 16.476562 733.382812 Z M 16.476562 16.617188 " clip-rule="nonzero"/></clipPath><clipPath id="4896747f54"><path d="M 91.476562 16.617188 L 658.523438 16.617188 C 678.414062 16.617188 697.488281 24.519531 711.554688 38.585938 C 725.621094 52.652344 733.523438 71.726562 733.523438 91.617188 L 733.523438 658.382812 C 733.523438 678.273438 725.621094 697.347656 711.554688 711.414062 C 697.488281 725.480469 678.414062 733.382812 658.523438 733.382812 L 91.476562 733.382812 C 71.585938 733.382812 52.511719 725.480469 38.445312 711.414062 C 24.378906 697.347656 16.476562 678.273438 16.476562 658.382812 L 16.476562 91.617188 C 16.476562 71.726562 24.378906 52.652344 38.445312 38.585938 C 52.511719 24.519531 71.585938 16.617188 91.476562 16.617188 Z M 91.476562 16.617188 " clip-rule="nonzero"/></clipPath><clipPath id="1cf352fb56"><path d="M 0.476562 0.617188 L 717.679688 0.617188 L 717.679688 717.382812 L 0.476562 717.382812 Z M 0.476562 0.617188 " clip-rule="nonzero"/></clipPath><clipPath id="d9ef066ea8"><path d="M 75.476562 0.617188 L 642.523438 0.617188 C 662.414062 0.617188 681.488281 8.519531 695.554688 22.585938 C 709.621094 36.652344 717.523438 55.726562 717.523438 75.617188 L 717.523438 642.382812 C 717.523438 662.273438 709.621094 681.347656 695.554688 695.414062 C 681.488281 709.480469 662.414062 717.382812 642.523438 717.382812 L 75.476562 717.382812 C 55.585938 717.382812 36.511719 709.480469 22.445312 695.414062 C 8.378906 681.347656 0.476562 662.273438 0.476562 642.382812 L 0.476562 75.617188 C 0.476562 55.726562 8.378906 36.652344 22.445312 22.585938 C 36.511719 8.519531 55.585938 0.617188 75.476562 0.617188 Z M 75.476562 0.617188 " clip-rule="nonzero"/></clipPath><clipPath id="3021643084"><rect x="0" width="718" y="0" height="718"/></clipPath><clipPath id="f9faa3c38d"><path d="M 183.207031 183.207031 L 566.457031 183.207031 L 566.457031 566.457031 L 183.207031 566.457031 Z M 183.207031 183.207031 " clip-rule="nonzero"/></clipPath></defs><g clip-path="url(#397812c0b8)"><g clip-path="url(#4896747f54)"><g transform="matrix(1, 0, 0, 1, 16, 16)"><g clip-path="url(#3021643084)"><g clip-path="url(#1cf352fb56)"><g clip-path="url(#d9ef066ea8)"><path fill="#9f0b0b" d="M 0.476562 0.617188 L 717.238281 0.617188 L 717.238281 717.382812 L 0.476562 717.382812 Z M 0.476562 0.617188 " fill-opacity="1" fill-rule="nonzero"/></g></g></g></g></g></g><g clip-path="url(#f9faa3c38d)"><path fill="#fffdf5" d="M 295.515625 184.527344 C 275.117188 185.484375 261.1875 188.753906 249.011719 193.523438 C 236.398438 198.4375 225.722656 205.015625 215.097656 215.695312 C 204.457031 226.371094 197.914062 237.066406 193.054688 249.699219 C 188.339844 261.910156 185.140625 275.839844 184.238281 296.257812 C 183.335938 316.691406 183.136719 323.214844 183.226562 375.285156 C 183.316406 427.339844 183.550781 433.878906 184.527344 454.332031 C 185.503906 474.730469 188.753906 488.644531 193.523438 500.839844 C 198.4375 513.449219 205.015625 524.109375 215.695312 534.753906 C 226.371094 545.394531 237.066406 551.917969 249.699219 556.792969 C 261.894531 561.511719 275.839844 564.726562 296.238281 565.613281 C 316.691406 566.515625 323.214844 566.714844 375.269531 566.605469 C 427.339844 566.515625 433.863281 566.28125 454.316406 565.304688 C 474.714844 564.328125 488.625 561.058594 500.820312 556.308594 C 513.433594 551.375 524.109375 544.816406 534.734375 534.136719 C 545.359375 523.460938 551.898438 512.765625 556.777344 500.132812 C 561.492188 487.9375 564.707031 473.992188 565.59375 453.609375 C 566.480469 433.15625 566.695312 426.617188 566.605469 374.5625 C 566.515625 322.511719 566.261719 315.988281 565.304688 295.535156 C 564.328125 275.117188 561.078125 261.207031 556.308594 249.011719 C 551.375 236.398438 544.816406 225.738281 534.136719 215.097656 C 523.460938 204.472656 512.765625 197.914062 500.132812 193.054688 C 487.9375 188.339844 473.992188 185.125 453.59375 184.238281 C 433.140625 183.335938 426.597656 183.136719 374.546875 183.226562 C 322.492188 183.316406 315.96875 183.550781 295.515625 184.527344 M 297.757812 531.085938 C 279.074219 530.269531 268.921875 527.164062 262.144531 524.5625 C 253.183594 521.09375 246.808594 516.9375 240.066406 510.269531 C 233.347656 503.566406 229.191406 497.1875 225.683594 488.265625 C 223.066406 481.507812 219.902344 471.371094 219.019531 452.671875 C 218.0625 432.472656 217.84375 426.398438 217.753906 375.214844 C 217.664062 324.046875 217.84375 317.976562 218.730469 297.757812 C 219.523438 279.074219 222.648438 268.921875 225.25 262.164062 C 228.722656 253.203125 232.859375 246.824219 239.542969 240.085938 C 246.246094 233.363281 252.625 229.207031 261.566406 225.703125 C 268.324219 223.066406 278.460938 219.921875 297.144531 219.035156 C 317.359375 218.078125 323.414062 217.878906 374.601562 217.773438 C 425.785156 217.664062 431.855469 217.84375 452.074219 218.746094 C 470.757812 219.558594 480.910156 222.648438 487.667969 225.269531 C 496.628906 228.738281 503.023438 232.859375 509.746094 239.5625 C 516.46875 246.265625 520.640625 252.625 524.128906 261.585938 C 526.765625 268.324219 529.910156 278.480469 530.796875 297.144531 C 531.753906 317.359375 531.96875 323.433594 532.058594 374.601562 C 532.152344 425.785156 531.96875 431.855469 531.085938 452.054688 C 530.269531 470.738281 527.164062 480.910156 524.5625 487.667969 C 521.09375 496.609375 516.957031 503.007812 510.253906 509.726562 C 503.550781 516.429688 497.1875 520.605469 488.226562 524.109375 C 481.488281 526.75 471.335938 529.890625 452.671875 530.777344 C 432.453125 531.734375 426.398438 531.953125 375.195312 532.042969 C 324.027344 532.132812 317.957031 531.953125 297.738281 531.066406 M 454.042969 272.445312 C 454.0625 285.144531 464.394531 295.425781 477.078125 295.390625 C 489.78125 295.371094 500.0625 285.054688 500.042969 272.355469 C 500.027344 259.652344 489.691406 249.371094 476.988281 249.390625 C 464.289062 249.410156 454.007812 259.742188 454.027344 272.425781 M 276.472656 375.105469 C 276.582031 429.472656 320.738281 473.449219 375.085938 473.339844 C 429.453125 473.230469 473.449219 429.09375 473.339844 374.726562 C 473.230469 320.378906 429.074219 276.382812 374.707031 276.472656 C 320.359375 276.582031 276.367188 320.738281 276.472656 375.105469 M 311 375.035156 C 310.945312 339.746094 339.496094 311.074219 374.78125 311.019531 C 410.066406 310.945312 438.742188 339.496094 438.8125 374.796875 C 438.886719 410.085938 410.320312 438.757812 375.035156 438.8125 C 339.746094 438.886719 311.074219 410.320312 311.019531 375.035156 " fill-opacity="1" fill-rule="nonzero"/></g></svg>