<svg xmlns="http://www.w3.org/2000/svg" xmlns:xlink="http://www.w3.org/1999/xlink" width="1000" zoomAndPan="magnify" viewBox="0 0 750 749.999995" height="1000" preserveAspectRatio="xMidYMid meet" version="1.0"><defs><clipPath id="f750a05df9"><path d="M 16.476562 16.617188 L 734 16.617188 L 734 733.382812 L 16.476562 733.382812 Z M 16.476562 16.617188 " clip-rule="nonzero"/></clipPath><clipPath id="d4e243edd8"><path d="M 91.476562 16.617188 L 658.523438 16.617188 C 678.414062 16.617188 697.488281 24.519531 711.554688 38.585938 C 725.621094 52.652344 733.523438 71.726562 733.523438 91.617188 L 733.523438 658.382812 C 733.523438 678.273438 725.621094 697.347656 711.554688 711.414062 C 697.488281 725.480469 678.414062 733.382812 658.523438 733.382812 L 91.476562 733.382812 C 71.585938 733.382812 52.511719 725.480469 38.445312 711.414062 C 24.378906 697.347656 16.476562 678.273438 16.476562 658.382812 L 16.476562 91.617188 C 16.476562 71.726562 24.378906 52.652344 38.445312 38.585938 C 52.511719 24.519531 71.585938 16.617188 91.476562 16.617188 Z M 91.476562 16.617188 " clip-rule="nonzero"/></clipPath><clipPath id="dfaeb05e77"><path d="M 0.476562 0.617188 L 717.679688 0.617188 L 717.679688 717.382812 L 0.476562 717.382812 Z M 0.476562 0.617188 " clip-rule="nonzero"/></clipPath><clipPath id="56e324e7e8"><path d="M 75.476562 0.617188 L 642.523438 0.617188 C 662.414062 0.617188 681.488281 8.519531 695.554688 22.585938 C 709.621094 36.652344 717.523438 55.726562 717.523438 75.617188 L 717.523438 642.382812 C 717.523438 662.273438 709.621094 681.347656 695.554688 695.414062 C 681.488281 709.480469 662.414062 717.382812 642.523438 717.382812 L 75.476562 717.382812 C 55.585938 717.382812 36.511719 709.480469 22.445312 695.414062 C 8.378906 681.347656 0.476562 662.273438 0.476562 642.382812 L 0.476562 75.617188 C 0.476562 55.726562 8.378906 36.652344 22.445312 22.585938 C 36.511719 8.519531 55.585938 0.617188 75.476562 0.617188 Z M 75.476562 0.617188 " clip-rule="nonzero"/></clipPath><clipPath id="2c03bf871b"><rect x="0" width="718" y="0" height="718"/></clipPath><clipPath id="67df63acde"><path d="M 330 292 L 566.457031 292 L 566.457031 572 L 330 572 Z M 330 292 " clip-rule="nonzero"/></clipPath><clipPath id="bacd5c49af"><path d="M 183.207031 178.289062 L 288 178.289062 L 288 283 L 183.207031 283 Z M 183.207031 178.289062 " clip-rule="nonzero"/></clipPath></defs><g clip-path="url(#f750a05df9)"><g clip-path="url(#d4e243edd8)"><g transform="matrix(1, 0, 0, 1, 16, 16)"><g clip-path="url(#2c03bf871b)"><g clip-path="url(#dfaeb05e77)"><g clip-path="url(#56e324e7e8)"><path fill="#9f0b0b" d="M 0.476562 0.617188 L 717.238281 0.617188 L 717.238281 717.382812 L 0.476562 717.382812 Z M 0.476562 0.617188 " fill-opacity="1" fill-rule="nonzero"/></g></g></g></g></g></g><path fill="#fffdf5" d="M 211.589844 298.519531 L 259.210938 298.519531 C 259.578125 298.519531 259.945312 298.554688 260.304688 298.625 C 260.667969 298.699219 261.019531 298.804688 261.359375 298.945312 C 261.703125 299.085938 262.023438 299.261719 262.332031 299.464844 C 262.640625 299.671875 262.921875 299.902344 263.183594 300.164062 C 263.445312 300.425781 263.675781 300.710938 263.882812 301.015625 C 264.085938 301.324219 264.261719 301.648438 264.402344 301.988281 C 264.542969 302.328125 264.648438 302.679688 264.722656 303.042969 C 264.792969 303.402344 264.828125 303.769531 264.828125 304.136719 L 264.828125 566.039062 C 264.828125 566.410156 264.792969 566.773438 264.722656 567.136719 C 264.648438 567.5 264.542969 567.847656 264.402344 568.191406 C 264.261719 568.53125 264.085938 568.855469 263.882812 569.160156 C 263.675781 569.46875 263.445312 569.753906 263.183594 570.011719 C 262.921875 570.273438 262.640625 570.507812 262.332031 570.710938 C 262.023438 570.917969 261.703125 571.089844 261.359375 571.230469 C 261.019531 571.371094 260.667969 571.480469 260.304688 571.550781 C 259.945312 571.621094 259.578125 571.660156 259.210938 571.660156 L 211.589844 571.660156 C 211.21875 571.660156 210.855469 571.625 210.492188 571.550781 C 210.132812 571.480469 209.78125 571.371094 209.4375 571.230469 C 209.097656 571.089844 208.773438 570.917969 208.46875 570.710938 C 208.160156 570.507812 207.878906 570.273438 207.617188 570.011719 C 207.355469 569.753906 207.121094 569.46875 206.917969 569.160156 C 206.710938 568.855469 206.539062 568.53125 206.398438 568.191406 C 206.257812 567.847656 206.152344 567.5 206.078125 567.136719 C 206.007812 566.773438 205.96875 566.410156 205.96875 566.039062 L 205.96875 304.136719 C 205.96875 303.769531 206.007812 303.402344 206.078125 303.042969 C 206.152344 302.679688 206.257812 302.328125 206.398438 301.988281 C 206.539062 301.648438 206.710938 301.324219 206.917969 301.015625 C 207.121094 300.710938 207.355469 300.425781 207.617188 300.164062 C 207.878906 299.902344 208.160156 299.671875 208.46875 299.464844 C 208.773438 299.261719 209.097656 299.085938 209.4375 298.945312 C 209.78125 298.804688 210.132812 298.699219 210.492188 298.625 C 210.855469 298.554688 211.21875 298.519531 211.589844 298.519531 Z M 211.589844 298.519531 " fill-opacity="1" fill-rule="nonzero"/><g clip-path="url(#67df63acde)"><path fill="#fffdf5" d="M 557.007812 352.261719 C 551.238281 337.78125 542.898438 325.597656 532.226562 316.046875 C 523.042969 307.847656 512.253906 301.644531 500.136719 297.636719 C 489.898438 294.277344 479.394531 292.59375 468.621094 292.578125 C 447.6875 292.578125 427.753906 298.164062 410.972656 308.730469 C 401.183594 314.886719 392.726562 322.515625 385.597656 331.617188 L 383.859375 303.804688 C 383.835938 303.449219 383.78125 303.101562 383.691406 302.757812 C 383.605469 302.414062 383.484375 302.082031 383.332031 301.761719 C 383.183594 301.441406 383.003906 301.136719 382.792969 300.847656 C 382.585938 300.5625 382.351562 300.296875 382.09375 300.054688 C 381.835938 299.8125 381.554688 299.597656 381.253906 299.40625 C 380.957031 299.21875 380.640625 299.058594 380.3125 298.925781 C 379.980469 298.796875 379.640625 298.699219 379.292969 298.632812 C 378.945312 298.566406 378.59375 298.535156 378.238281 298.535156 L 336.042969 298.535156 C 335.65625 298.535156 335.273438 298.574219 334.894531 298.652344 C 334.519531 298.734375 334.152344 298.851562 333.796875 299.003906 C 333.441406 299.160156 333.109375 299.347656 332.792969 299.574219 C 332.476562 299.796875 332.1875 300.050781 331.925781 300.332031 C 331.660156 300.617188 331.429688 300.925781 331.230469 301.253906 C 331.03125 301.585938 330.867188 301.933594 330.742188 302.300781 C 330.613281 302.664062 330.523438 303.039062 330.472656 303.421875 C 330.421875 303.804688 330.414062 304.191406 330.441406 304.574219 C 331.949219 324.664062 332.589844 345.738281 332.589844 375.039062 L 332.589844 566.039062 C 332.589844 566.410156 332.625 566.773438 332.699219 567.136719 C 332.769531 567.5 332.878906 567.847656 333.019531 568.191406 C 333.160156 568.53125 333.332031 568.855469 333.539062 569.160156 C 333.742188 569.46875 333.976562 569.753906 334.238281 570.011719 C 334.496094 570.273438 334.78125 570.507812 335.089844 570.710938 C 335.394531 570.917969 335.71875 571.089844 336.058594 571.230469 C 336.402344 571.371094 336.75 571.480469 337.113281 571.550781 C 337.476562 571.621094 337.839844 571.660156 338.210938 571.660156 L 385.828125 571.660156 C 386.195312 571.660156 386.5625 571.625 386.925781 571.550781 C 387.285156 571.480469 387.636719 571.371094 387.976562 571.230469 C 388.320312 571.089844 388.644531 570.917969 388.949219 570.710938 C 389.257812 570.507812 389.539062 570.273438 389.800781 570.011719 C 390.0625 569.753906 390.292969 569.46875 390.5 569.160156 C 390.703125 568.855469 390.878906 568.53125 391.019531 568.191406 C 391.160156 567.847656 391.265625 567.5 391.339844 567.136719 C 391.410156 566.773438 391.445312 566.410156 391.445312 566.039062 L 391.445312 408.574219 C 391.445312 400.773438 392.507812 393.402344 394.355469 388.308594 C 394.386719 388.21875 394.417969 388.128906 394.445312 388.027344 C 401.261719 365.765625 421.980469 343.300781 452.925781 343.300781 C 498.371094 343.300781 507.914062 382.324219 507.914062 415.0625 L 507.914062 566.039062 C 507.914062 566.410156 507.949219 566.773438 508.023438 567.136719 C 508.09375 567.5 508.199219 567.847656 508.339844 568.191406 C 508.484375 568.53125 508.65625 568.855469 508.859375 569.160156 C 509.066406 569.46875 509.296875 569.753906 509.558594 570.011719 C 509.820312 570.273438 510.105469 570.507812 510.410156 570.710938 C 510.71875 570.917969 511.042969 571.089844 511.382812 571.230469 C 511.722656 571.371094 512.074219 571.480469 512.4375 571.550781 C 512.796875 571.621094 513.164062 571.660156 513.53125 571.660156 L 561.152344 571.660156 C 561.519531 571.660156 561.886719 571.625 562.246094 571.550781 C 562.609375 571.480469 562.960938 571.371094 563.300781 571.230469 C 563.640625 571.089844 563.964844 570.917969 564.273438 570.710938 C 564.578125 570.507812 564.863281 570.273438 565.125 570.011719 C 565.382812 569.753906 565.617188 569.46875 565.824219 569.160156 C 566.027344 568.855469 566.199219 568.53125 566.339844 568.191406 C 566.484375 567.847656 566.589844 567.5 566.660156 567.136719 C 566.734375 566.773438 566.769531 566.410156 566.769531 566.039062 L 566.769531 409.65625 C 566.769531 387.824219 563.5 368.511719 557.007812 352.261719 Z M 557.007812 352.261719 " fill-opacity="1" fill-rule="nonzero"/></g><g clip-path="url(#bacd5c49af)"><path fill="#fffdf5" d="M 284.160156 225.34375 L 255.65625 209.757812 L 240.070312 181.253906 C 239.828125 180.8125 239.53125 180.410156 239.179688 180.046875 C 238.832031 179.683594 238.4375 179.371094 238.003906 179.117188 C 237.570312 178.859375 237.109375 178.664062 236.625 178.53125 C 236.136719 178.394531 235.644531 178.328125 235.136719 178.328125 C 234.632812 178.328125 234.140625 178.394531 233.652344 178.53125 C 233.167969 178.664062 232.707031 178.859375 232.273438 179.117188 C 231.839844 179.371094 231.445312 179.683594 231.097656 180.046875 C 230.746094 180.410156 230.449219 180.8125 230.207031 181.253906 L 214.617188 209.757812 L 186.117188 225.34375 C 185.675781 225.585938 185.273438 225.882812 184.910156 226.230469 C 184.546875 226.582031 184.238281 226.972656 183.980469 227.40625 C 183.722656 227.839844 183.527344 228.300781 183.394531 228.789062 C 183.261719 229.273438 183.195312 229.769531 183.195312 230.273438 C 183.195312 230.777344 183.261719 231.273438 183.394531 231.757812 C 183.527344 232.246094 183.722656 232.707031 183.980469 233.140625 C 184.238281 233.574219 184.546875 233.964844 184.910156 234.316406 C 185.273438 234.667969 185.675781 234.960938 186.117188 235.203125 L 214.617188 250.792969 L 230.207031 279.292969 C 230.449219 279.734375 230.746094 280.140625 231.097656 280.5 C 231.445312 280.863281 231.839844 281.175781 232.273438 281.433594 C 232.707031 281.6875 233.167969 281.882812 233.652344 282.019531 C 234.140625 282.152344 234.632812 282.21875 235.136719 282.21875 C 235.644531 282.21875 236.136719 282.152344 236.625 282.019531 C 237.109375 281.882812 237.570312 281.6875 238.003906 281.433594 C 238.4375 281.175781 238.832031 280.863281 239.179688 280.5 C 239.53125 280.140625 239.828125 279.734375 240.070312 279.292969 L 255.65625 250.792969 L 284.160156 235.203125 C 284.601562 234.960938 285.003906 234.667969 285.367188 234.316406 C 285.730469 233.964844 286.039062 233.574219 286.296875 233.140625 C 286.554688 232.707031 286.75 232.246094 286.882812 231.757812 C 287.015625 231.273438 287.082031 230.777344 287.082031 230.273438 C 287.082031 229.769531 287.015625 229.273438 286.882812 228.789062 C 286.75 228.300781 286.554688 227.839844 286.296875 227.40625 C 286.039062 226.972656 285.730469 226.582031 285.367188 226.230469 C 285.003906 225.882812 284.601562 225.585938 284.160156 225.34375 Z M 284.160156 225.34375 " fill-opacity="1" fill-rule="nonzero"/></g></svg>