<svg xmlns="http://www.w3.org/2000/svg" xmlns:xlink="http://www.w3.org/1999/xlink" width="1000" zoomAndPan="magnify" viewBox="0 0 750 749.999995" height="1000" preserveAspectRatio="xMidYMid meet" version="1.0"><defs><clipPath id="b3331b59b7"><path d="M 16.476562 16.617188 L 734 16.617188 L 734 733.382812 L 16.476562 733.382812 Z M 16.476562 16.617188 " clip-rule="nonzero"/></clipPath><clipPath id="51d664e820"><path d="M 91.476562 16.617188 L 658.523438 16.617188 C 678.414062 16.617188 697.488281 24.519531 711.554688 38.585938 C 725.621094 52.652344 733.523438 71.726562 733.523438 91.617188 L 733.523438 658.382812 C 733.523438 678.273438 725.621094 697.347656 711.554688 711.414062 C 697.488281 725.480469 678.414062 733.382812 658.523438 733.382812 L 91.476562 733.382812 C 71.585938 733.382812 52.511719 725.480469 38.445312 711.414062 C 24.378906 697.347656 16.476562 678.273438 16.476562 658.382812 L 16.476562 91.617188 C 16.476562 71.726562 24.378906 52.652344 38.445312 38.585938 C 52.511719 24.519531 71.585938 16.617188 91.476562 16.617188 Z M 91.476562 16.617188 " clip-rule="nonzero"/></clipPath><clipPath id="73b6a3935c"><path d="M 0.476562 0.617188 L 717.679688 0.617188 L 717.679688 717.382812 L 0.476562 717.382812 Z M 0.476562 0.617188 " clip-rule="nonzero"/></clipPath><clipPath id="ceb71b7643"><path d="M 75.476562 0.617188 L 642.523438 0.617188 C 662.414062 0.617188 681.488281 8.519531 695.554688 22.585938 C 709.621094 36.652344 717.523438 55.726562 717.523438 75.617188 L 717.523438 642.382812 C 717.523438 662.273438 709.621094 681.347656 695.554688 695.414062 C 681.488281 709.480469 662.414062 717.382812 642.523438 717.382812 L 75.476562 717.382812 C 55.585938 717.382812 36.511719 709.480469 22.445312 695.414062 C 8.378906 681.347656 0.476562 662.273438 0.476562 642.382812 L 0.476562 75.617188 C 0.476562 55.726562 8.378906 36.652344 22.445312 22.585938 C 36.511719 8.519531 55.585938 0.617188 75.476562 0.617188 Z M 75.476562 0.617188 " clip-rule="nonzero"/></clipPath><clipPath id="bb1c75ccfd"><rect x="0" width="718" y="0" height="718"/></clipPath><clipPath id="ff1275c6ce"><path d="M 183.207031 243.863281 L 566.457031 243.863281 L 566.457031 506.363281 L 183.207031 506.363281 Z M 183.207031 243.863281 " clip-rule="nonzero"/></clipPath></defs><g clip-path="url(#b3331b59b7)"><g clip-path="url(#51d664e820)"><g transform="matrix(1, 0, 0, 1, 16, 16)"><g clip-path="url(#bb1c75ccfd)"><g clip-path="url(#73b6a3935c)"><g clip-path="url(#ceb71b7643)"><path fill="#9f0b0b" d="M 0.476562 0.617188 L 717.238281 0.617188 L 717.238281 717.382812 L 0.476562 717.382812 Z M 0.476562 0.617188 " fill-opacity="1" fill-rule="nonzero"/></g></g></g></g></g></g><g clip-path="url(#ff1275c6ce)"><path fill="#fffdf5" d="M 550.503906 269.15625 C 540.113281 250.757812 528.832031 247.378906 505.878906 246.089844 C 482.945312 244.542969 425.273438 243.898438 375.316406 243.898438 C 325.261719 243.898438 267.566406 244.542969 244.652344 246.0625 C 221.75 247.378906 210.171875 250.738281 199.691406 269.15625 C 188.988281 287.53125 183.207031 319.175781 183.207031 374.886719 L 183.207031 375.078125 C 183.207031 430.546875 188.984375 462.429688 199.691406 480.609375 C 210.171875 499.011719 221.582031 502.347656 244.496094 503.890625 C 267.425781 505.226562 325.1875 506.015625 375.246094 506.015625 C 425.203125 506.015625 482.90625 505.226562 505.863281 503.917969 C 528.820312 502.371094 540.113281 499.03125 550.507812 480.636719 C 561.300781 462.457031 566.785156 430.574219 566.785156 375.097656 L 566.785156 374.910156 C 566.785156 319.175781 561.320312 287.53125 550.503906 269.15625 Z M 327.050781 446.445312 L 327.050781 303.46875 L 446.742188 374.957031 Z M 327.050781 446.445312 " fill-opacity="1" fill-rule="nonzero"/></g></svg>